{
	"patcher" : 	{
		"fileversion" : 1,
		"rect" : [ 105.0, 135.0, 337.0, 349.0 ],
		"bglocked" : 0,
		"defrect" : [ 105.0, 135.0, 337.0, 349.0 ],
		"openrect" : [ 0.0, 0.0, 0.0, 0.0 ],
		"openinpresentation" : 0,
		"default_fontsize" : 12.0,
		"default_fontface" : 0,
		"default_fontname" : "Arial",
		"gridonopen" : 0,
		"gridsize" : [ 15.0, 15.0 ],
		"gridsnaponopen" : 0,
		"toolbarvisible" : 1,
		"boxanimatetime" : 200,
		"imprint" : 0,
		"enablehscroll" : 1,
		"enablevscroll" : 1,
		"devicewidth" : 0.0,
		"boxes" : [ 			{
				"box" : 				{
					"maxclass" : "newobj",
					"text" : "p boundaries",
					"numinlets" : 2,
					"id" : "obj-1",
					"fontname" : "Geneva",
					"numoutlets" : 2,
					"patching_rect" : [ 175.0, 113.0, 67.0, 19.0 ],
					"outlettype" : [ "", "" ],
					"fontsize" : 9.0,
					"patcher" : 					{
						"fileversion" : 1,
						"rect" : [ 238.0, 84.0, 279.0, 269.0 ],
						"bglocked" : 0,
						"defrect" : [ 238.0, 84.0, 279.0, 269.0 ],
						"openrect" : [ 0.0, 0.0, 0.0, 0.0 ],
						"openinpresentation" : 0,
						"default_fontsize" : 12.0,
						"default_fontface" : 0,
						"default_fontname" : "Arial",
						"gridonopen" : 0,
						"gridsize" : [ 15.0, 15.0 ],
						"gridsnaponopen" : 0,
						"toolbarvisible" : 1,
						"boxanimatetime" : 200,
						"imprint" : 0,
						"enablehscroll" : 1,
						"enablevscroll" : 1,
						"devicewidth" : 0.0,
						"boxes" : [ 							{
								"box" : 								{
									"maxclass" : "newobj",
									"text" : "expr $i1 + ($i2/200. * $i1)",
									"numinlets" : 2,
									"id" : "obj-1",
									"fontname" : "Geneva",
									"numoutlets" : 1,
									"patching_rect" : [ 98.0, 151.0, 146.0, 19.0 ],
									"outlettype" : [ "" ],
									"fontsize" : 9.0
								}

							}
, 							{
								"box" : 								{
									"maxclass" : "newobj",
									"text" : "expr $i1 - ($i2/200. * $i1)",
									"numinlets" : 2,
									"id" : "obj-2",
									"fontname" : "Geneva",
									"numoutlets" : 1,
									"patching_rect" : [ 38.0, 125.0, 146.0, 19.0 ],
									"outlettype" : [ "" ],
									"fontsize" : 9.0
								}

							}
, 							{
								"box" : 								{
									"maxclass" : "inlet",
									"numinlets" : 0,
									"id" : "obj-3",
									"numoutlets" : 1,
									"patching_rect" : [ 174.0, 45.0, 15.0, 15.0 ],
									"outlettype" : [ "int" ],
									"comment" : "dev%"
								}

							}
, 							{
								"box" : 								{
									"maxclass" : "inlet",
									"numinlets" : 0,
									"id" : "obj-4",
									"numoutlets" : 1,
									"patching_rect" : [ 38.0, 45.0, 15.0, 15.0 ],
									"outlettype" : [ "int" ],
									"comment" : "metro speed (ms)"
								}

							}
, 							{
								"box" : 								{
									"maxclass" : "button",
									"numinlets" : 1,
									"id" : "obj-5",
									"numoutlets" : 1,
									"patching_rect" : [ 111.0, 64.0, 15.0, 15.0 ],
									"outlettype" : [ "bang" ]
								}

							}
, 							{
								"box" : 								{
									"maxclass" : "number",
									"numinlets" : 1,
									"id" : "obj-6",
									"fontname" : "Geneva",
									"numoutlets" : 2,
									"minimum" : 0,
									"patching_rect" : [ 174.0, 93.0, 35.0, 19.0 ],
									"outlettype" : [ "int", "bang" ],
									"maximum" : 195,
									"fontsize" : 9.0,
									"triscale" : 0.9
								}

							}
, 							{
								"box" : 								{
									"maxclass" : "number",
									"numinlets" : 1,
									"id" : "obj-7",
									"fontname" : "Geneva",
									"numoutlets" : 2,
									"patching_rect" : [ 38.0, 94.0, 35.0, 19.0 ],
									"outlettype" : [ "int", "bang" ],
									"fontsize" : 9.0,
									"triscale" : 0.9
								}

							}
, 							{
								"box" : 								{
									"maxclass" : "outlet",
									"numinlets" : 1,
									"id" : "obj-8",
									"numoutlets" : 0,
									"patching_rect" : [ 98.0, 183.0, 15.0, 15.0 ],
									"comment" : "max. metro speed"
								}

							}
, 							{
								"box" : 								{
									"maxclass" : "outlet",
									"numinlets" : 1,
									"id" : "obj-9",
									"numoutlets" : 0,
									"patching_rect" : [ 38.0, 183.0, 15.0, 15.0 ],
									"comment" : "min. metro speed"
								}

							}
 ],
						"lines" : [ 							{
								"patchline" : 								{
									"source" : [ "obj-7", 0 ],
									"destination" : [ "obj-1", 0 ],
									"hidden" : 0,
									"midpoints" : [  ]
								}

							}
, 							{
								"patchline" : 								{
									"source" : [ "obj-7", 0 ],
									"destination" : [ "obj-2", 0 ],
									"hidden" : 0,
									"midpoints" : [  ]
								}

							}
, 							{
								"patchline" : 								{
									"source" : [ "obj-6", 0 ],
									"destination" : [ "obj-1", 1 ],
									"hidden" : 0,
									"midpoints" : [  ]
								}

							}
, 							{
								"patchline" : 								{
									"source" : [ "obj-6", 0 ],
									"destination" : [ "obj-2", 1 ],
									"hidden" : 0,
									"midpoints" : [  ]
								}

							}
, 							{
								"patchline" : 								{
									"source" : [ "obj-6", 0 ],
									"destination" : [ "obj-5", 0 ],
									"hidden" : 0,
									"midpoints" : [  ]
								}

							}
, 							{
								"patchline" : 								{
									"source" : [ "obj-2", 0 ],
									"destination" : [ "obj-9", 0 ],
									"hidden" : 0,
									"midpoints" : [  ]
								}

							}
, 							{
								"patchline" : 								{
									"source" : [ "obj-1", 0 ],
									"destination" : [ "obj-8", 0 ],
									"hidden" : 0,
									"midpoints" : [  ]
								}

							}
, 							{
								"patchline" : 								{
									"source" : [ "obj-5", 0 ],
									"destination" : [ "obj-7", 0 ],
									"hidden" : 0,
									"midpoints" : [  ]
								}

							}
, 							{
								"patchline" : 								{
									"source" : [ "obj-4", 0 ],
									"destination" : [ "obj-7", 0 ],
									"hidden" : 0,
									"midpoints" : [  ]
								}

							}
, 							{
								"patchline" : 								{
									"source" : [ "obj-3", 0 ],
									"destination" : [ "obj-6", 0 ],
									"hidden" : 0,
									"midpoints" : [  ]
								}

							}
 ]
					}
,
					"saved_object_attributes" : 					{
						"default_fontface" : 0,
						"fontname" : "Arial",
						"default_fontname" : "Arial",
						"globalpatchername" : "",
						"default_fontsize" : 12.0,
						"fontface" : 0,
						"fontsize" : 12.0
					}

				}

			}
, 			{
				"box" : 				{
					"maxclass" : "number",
					"numinlets" : 1,
					"id" : "obj-2",
					"fontname" : "Geneva",
					"numoutlets" : 2,
					"patching_rect" : [ 232.0, 143.0, 35.0, 19.0 ],
					"outlettype" : [ "int", "bang" ],
					"fontsize" : 9.0,
					"triscale" : 0.9
				}

			}
, 			{
				"box" : 				{
					"maxclass" : "number",
					"numinlets" : 1,
					"id" : "obj-3",
					"fontname" : "Geneva",
					"numoutlets" : 2,
					"patching_rect" : [ 175.0, 143.0, 35.0, 19.0 ],
					"outlettype" : [ "int", "bang" ],
					"fontsize" : 9.0,
					"triscale" : 0.9
				}

			}
, 			{
				"box" : 				{
					"maxclass" : "newobj",
					"text" : "between 450 550",
					"numinlets" : 3,
					"id" : "obj-4",
					"fontname" : "Geneva",
					"numoutlets" : 1,
					"patching_rect" : [ 118.0, 172.0, 124.0, 19.0 ],
					"outlettype" : [ "int" ],
					"fontsize" : 9.0
				}

			}
, 			{
				"box" : 				{
					"maxclass" : "number",
					"numinlets" : 1,
					"id" : "obj-5",
					"fontname" : "Geneva",
					"numoutlets" : 2,
					"patching_rect" : [ 118.0, 200.0, 35.0, 19.0 ],
					"outlettype" : [ "int", "bang" ],
					"fontsize" : 9.0,
					"triscale" : 0.9
				}

			}
, 			{
				"box" : 				{
					"maxclass" : "newobj",
					"text" : "metro 1000",
					"numinlets" : 2,
					"id" : "obj-6",
					"fontname" : "Geneva",
					"numoutlets" : 1,
					"patching_rect" : [ 60.0, 228.0, 68.0, 19.0 ],
					"outlettype" : [ "bang" ],
					"fontsize" : 9.0
				}

			}
, 			{
				"box" : 				{
					"maxclass" : "comment",
					"text" : "max.",
					"numinlets" : 1,
					"id" : "obj-7",
					"fontname" : "Geneva",
					"numoutlets" : 0,
					"patching_rect" : [ 268.0, 144.0, 29.0, 19.0 ],
					"fontsize" : 9.0
				}

			}
, 			{
				"box" : 				{
					"maxclass" : "comment",
					"text" : "min.",
					"linecount" : 2,
					"numinlets" : 1,
					"id" : "obj-8",
					"fontname" : "Geneva",
					"numoutlets" : 0,
					"patching_rect" : [ 147.0, 145.0, 26.0, 31.0 ],
					"fontsize" : 9.0
				}

			}
, 			{
				"box" : 				{
					"maxclass" : "comment",
					"text" : "ED",
					"numinlets" : 1,
					"id" : "obj-9",
					"fontname" : "Geneva",
					"numoutlets" : 0,
					"patching_rect" : [ 156.0, 200.0, 25.0, 19.0 ],
					"fontsize" : 9.0
				}

			}
, 			{
				"box" : 				{
					"maxclass" : "outlet",
					"numinlets" : 1,
					"id" : "obj-10",
					"numoutlets" : 0,
					"patching_rect" : [ 60.0, 260.0, 15.0, 15.0 ],
					"comment" : "rhythm bangs"
				}

			}
, 			{
				"box" : 				{
					"maxclass" : "inlet",
					"numinlets" : 0,
					"id" : "obj-11",
					"numoutlets" : 1,
					"patching_rect" : [ 232.0, 36.0, 15.0, 15.0 ],
					"outlettype" : [ "" ],
					"comment" : "dev%"
				}

			}
, 			{
				"box" : 				{
					"maxclass" : "newobj",
					"text" : "int #1",
					"numinlets" : 2,
					"id" : "obj-12",
					"fontname" : "Geneva",
					"numoutlets" : 1,
					"patching_rect" : [ 175.0, 88.0, 42.0, 19.0 ],
					"outlettype" : [ "int" ],
					"fontsize" : 9.0
				}

			}
, 			{
				"box" : 				{
					"maxclass" : "button",
					"numinlets" : 1,
					"id" : "obj-13",
					"numoutlets" : 1,
					"patching_rect" : [ 118.0, 57.0, 15.0, 15.0 ],
					"outlettype" : [ "bang" ]
				}

			}
, 			{
				"box" : 				{
					"maxclass" : "newobj",
					"text" : "int #2",
					"numinlets" : 2,
					"id" : "obj-14",
					"fontname" : "Geneva",
					"numoutlets" : 1,
					"patching_rect" : [ 232.0, 87.0, 42.0, 19.0 ],
					"outlettype" : [ "int" ],
					"fontsize" : 9.0
				}

			}
, 			{
				"box" : 				{
					"maxclass" : "inlet",
					"numinlets" : 0,
					"id" : "obj-15",
					"numoutlets" : 1,
					"patching_rect" : [ 175.0, 36.0, 15.0, 15.0 ],
					"outlettype" : [ "" ],
					"comment" : "basic metro speed"
				}

			}
, 			{
				"box" : 				{
					"maxclass" : "inlet",
					"numinlets" : 0,
					"id" : "obj-16",
					"numoutlets" : 1,
					"patching_rect" : [ 60.0, 36.0, 15.0, 15.0 ],
					"outlettype" : [ "" ],
					"comment" : "toggle"
				}

			}
, 			{
				"box" : 				{
					"maxclass" : "outlet",
					"numinlets" : 1,
					"id" : "obj-17",
					"numoutlets" : 0,
					"patching_rect" : [ 139.0, 228.0, 15.0, 15.0 ],
					"comment" : "ED"
				}

			}
, 			{
				"box" : 				{
					"maxclass" : "comment",
					"text" : "1993 by Karlheinz Essl",
					"numinlets" : 1,
					"id" : "obj-18",
					"fontname" : "Geneva",
					"numoutlets" : 0,
					"patching_rect" : [ 82.0, 262.0, 112.0, 19.0 ],
					"fontsize" : 9.0
				}

			}
 ],
		"lines" : [ 			{
				"patchline" : 				{
					"source" : [ "obj-11", 0 ],
					"destination" : [ "obj-14", 0 ],
					"hidden" : 0,
					"midpoints" : [  ]
				}

			}
, 			{
				"patchline" : 				{
					"source" : [ "obj-16", 0 ],
					"destination" : [ "obj-6", 0 ],
					"hidden" : 0,
					"midpoints" : [  ]
				}

			}
, 			{
				"patchline" : 				{
					"source" : [ "obj-15", 0 ],
					"destination" : [ "obj-12", 0 ],
					"hidden" : 0,
					"midpoints" : [  ]
				}

			}
, 			{
				"patchline" : 				{
					"source" : [ "obj-13", 0 ],
					"destination" : [ "obj-14", 0 ],
					"hidden" : 0,
					"midpoints" : [  ]
				}

			}
, 			{
				"patchline" : 				{
					"source" : [ "obj-13", 0 ],
					"destination" : [ "obj-12", 0 ],
					"hidden" : 0,
					"midpoints" : [  ]
				}

			}
, 			{
				"patchline" : 				{
					"source" : [ "obj-13", 0 ],
					"destination" : [ "obj-4", 0 ],
					"hidden" : 0,
					"midpoints" : [  ]
				}

			}
, 			{
				"patchline" : 				{
					"source" : [ "obj-4", 0 ],
					"destination" : [ "obj-5", 0 ],
					"hidden" : 0,
					"midpoints" : [  ]
				}

			}
, 			{
				"patchline" : 				{
					"source" : [ "obj-1", 0 ],
					"destination" : [ "obj-3", 0 ],
					"hidden" : 0,
					"midpoints" : [  ]
				}

			}
, 			{
				"patchline" : 				{
					"source" : [ "obj-1", 1 ],
					"destination" : [ "obj-2", 0 ],
					"hidden" : 0,
					"midpoints" : [  ]
				}

			}
, 			{
				"patchline" : 				{
					"source" : [ "obj-6", 0 ],
					"destination" : [ "obj-13", 0 ],
					"hidden" : 0,
					"midpoints" : [  ]
				}

			}
, 			{
				"patchline" : 				{
					"source" : [ "obj-6", 0 ],
					"destination" : [ "obj-10", 0 ],
					"hidden" : 0,
					"midpoints" : [  ]
				}

			}
, 			{
				"patchline" : 				{
					"source" : [ "obj-14", 0 ],
					"destination" : [ "obj-1", 1 ],
					"hidden" : 0,
					"midpoints" : [  ]
				}

			}
, 			{
				"patchline" : 				{
					"source" : [ "obj-12", 0 ],
					"destination" : [ "obj-1", 0 ],
					"hidden" : 0,
					"midpoints" : [  ]
				}

			}
, 			{
				"patchline" : 				{
					"source" : [ "obj-3", 0 ],
					"destination" : [ "obj-4", 1 ],
					"hidden" : 0,
					"midpoints" : [  ]
				}

			}
, 			{
				"patchline" : 				{
					"source" : [ "obj-5", 0 ],
					"destination" : [ "obj-17", 0 ],
					"hidden" : 0,
					"midpoints" : [  ]
				}

			}
, 			{
				"patchline" : 				{
					"source" : [ "obj-5", 0 ],
					"destination" : [ "obj-6", 1 ],
					"hidden" : 0,
					"midpoints" : [  ]
				}

			}
, 			{
				"patchline" : 				{
					"source" : [ "obj-2", 0 ],
					"destination" : [ "obj-4", 2 ],
					"hidden" : 0,
					"midpoints" : [  ]
				}

			}
 ]
	}

}
