{
	"patcher" : 	{
		"fileversion" : 1,
		"rect" : [ 25.0, 69.0, 640.0, 480.0 ],
		"bglocked" : 0,
		"defrect" : [ 25.0, 69.0, 640.0, 480.0 ],
		"openrect" : [ 0.0, 0.0, 0.0, 0.0 ],
		"openinpresentation" : 0,
		"default_fontsize" : 12.0,
		"default_fontface" : 0,
		"default_fontname" : "Arial",
		"gridonopen" : 0,
		"gridsize" : [ 15.0, 15.0 ],
		"gridsnaponopen" : 0,
		"toolbarvisible" : 1,
		"boxanimatetime" : 200,
		"imprint" : 0,
		"enablehscroll" : 1,
		"enablevscroll" : 1,
		"devicewidth" : 0.0,
		"boxes" : [ 			{
				"box" : 				{
					"maxclass" : "flonum",
					"fontname" : "Arial",
					"numinlets" : 1,
					"presentation_rect" : [ 477.0, 119.0, 0.0, 0.0 ],
					"numoutlets" : 2,
					"fontsize" : 12.0,
					"id" : "obj-19",
					"outlettype" : [ "float", "bang" ],
					"patching_rect" : [ 477.0, 119.0, 50.0, 20.0 ]
				}

			}
, 			{
				"box" : 				{
					"maxclass" : "flonum",
					"fontname" : "Arial",
					"numinlets" : 1,
					"presentation_rect" : [ 421.0, 119.0, 0.0, 0.0 ],
					"numoutlets" : 2,
					"fontsize" : 12.0,
					"id" : "obj-13",
					"outlettype" : [ "float", "bang" ],
					"patching_rect" : [ 421.0, 119.0, 50.0, 20.0 ]
				}

			}
, 			{
				"box" : 				{
					"maxclass" : "flonum",
					"fontname" : "Arial",
					"numinlets" : 1,
					"presentation_rect" : [ 365.0, 119.0, 0.0, 0.0 ],
					"numoutlets" : 2,
					"fontsize" : 12.0,
					"id" : "obj-14",
					"outlettype" : [ "float", "bang" ],
					"patching_rect" : [ 365.0, 119.0, 50.0, 20.0 ]
				}

			}
, 			{
				"box" : 				{
					"maxclass" : "newobj",
					"text" : "pak 0. 0. 0.",
					"fontname" : "Arial",
					"numinlets" : 3,
					"numoutlets" : 1,
					"fontsize" : 12.0,
					"id" : "obj-15",
					"outlettype" : [ "" ],
					"patching_rect" : [ 365.0, 161.0, 70.0, 20.0 ]
				}

			}
, 			{
				"box" : 				{
					"maxclass" : "message",
					"text" : "1. 0.2 1.84",
					"fontname" : "Arial",
					"numinlets" : 2,
					"presentation_rect" : [ 323.0, 259.0, 0.0, 0.0 ],
					"numoutlets" : 1,
					"fontsize" : 12.0,
					"id" : "obj-16",
					"outlettype" : [ "" ],
					"patching_rect" : [ 323.0, 259.0, 75.0, 18.0 ]
				}

			}
, 			{
				"box" : 				{
					"maxclass" : "message",
					"text" : "-1. 1. -0.5 0.5 -2. 2.",
					"fontname" : "Arial",
					"numinlets" : 2,
					"presentation_rect" : [ 463.0, 158.0, 0.0, 0.0 ],
					"numoutlets" : 1,
					"fontsize" : 12.0,
					"id" : "obj-17",
					"outlettype" : [ "" ],
					"patching_rect" : [ 463.0, 158.0, 113.0, 18.0 ]
				}

			}
, 			{
				"box" : 				{
					"maxclass" : "newobj",
					"text" : "ll.lclip",
					"fontname" : "Arial",
					"numinlets" : 4,
					"presentation_rect" : [ 365.0, 197.0, 0.0, 0.0 ],
					"numoutlets" : 1,
					"fontsize" : 12.0,
					"id" : "obj-18",
					"outlettype" : [ "" ],
					"patching_rect" : [ 365.0, 197.0, 59.5, 20.0 ]
				}

			}
, 			{
				"box" : 				{
					"maxclass" : "flonum",
					"fontname" : "Arial",
					"numinlets" : 1,
					"presentation_rect" : [ 190.0, 107.0, 0.0, 0.0 ],
					"numoutlets" : 2,
					"fontsize" : 12.0,
					"id" : "obj-12",
					"outlettype" : [ "float", "bang" ],
					"patching_rect" : [ 190.0, 107.0, 50.0, 20.0 ]
				}

			}
, 			{
				"box" : 				{
					"maxclass" : "flonum",
					"fontname" : "Arial",
					"numinlets" : 1,
					"numoutlets" : 2,
					"fontsize" : 12.0,
					"id" : "obj-11",
					"outlettype" : [ "float", "bang" ],
					"patching_rect" : [ 134.0, 107.0, 50.0, 20.0 ]
				}

			}
, 			{
				"box" : 				{
					"maxclass" : "newobj",
					"text" : "pak 0. 0.",
					"fontname" : "Arial",
					"numinlets" : 2,
					"numoutlets" : 1,
					"fontsize" : 12.0,
					"id" : "obj-9",
					"outlettype" : [ "" ],
					"patching_rect" : [ 134.0, 149.0, 57.0, 20.0 ]
				}

			}
, 			{
				"box" : 				{
					"maxclass" : "message",
					"text" : "-0.54 0.5",
					"fontname" : "Arial",
					"numinlets" : 2,
					"numoutlets" : 1,
					"fontsize" : 12.0,
					"id" : "obj-8",
					"outlettype" : [ "" ],
					"patching_rect" : [ 92.0, 247.0, 75.0, 18.0 ]
				}

			}
, 			{
				"box" : 				{
					"maxclass" : "message",
					"text" : "-2. -1. -0.5 0. 1. 2. 3.",
					"fontname" : "Arial",
					"numinlets" : 2,
					"presentation_rect" : [ 126.0, 98.0, 0.0, 0.0 ],
					"numoutlets" : 1,
					"fontsize" : 12.0,
					"id" : "obj-6",
					"outlettype" : [ "" ],
					"patching_rect" : [ 257.0, 42.0, 119.0, 18.0 ]
				}

			}
, 			{
				"box" : 				{
					"maxclass" : "message",
					"text" : "-1. 1. -0.5 0.5",
					"fontname" : "Arial",
					"numinlets" : 2,
					"numoutlets" : 1,
					"fontsize" : 12.0,
					"id" : "obj-5",
					"outlettype" : [ "" ],
					"patching_rect" : [ 232.0, 146.0, 82.0, 18.0 ]
				}

			}
, 			{
				"box" : 				{
					"maxclass" : "newobj",
					"text" : "ll.lclip",
					"fontname" : "Arial",
					"numinlets" : 4,
					"numoutlets" : 1,
					"fontsize" : 12.0,
					"id" : "obj-1",
					"outlettype" : [ "" ],
					"patching_rect" : [ 134.0, 185.0, 59.5, 20.0 ]
				}

			}
 ],
		"lines" : [ 			{
				"patchline" : 				{
					"source" : [ "obj-19", 0 ],
					"destination" : [ "obj-15", 2 ],
					"hidden" : 0,
					"midpoints" : [  ]
				}

			}
, 			{
				"patchline" : 				{
					"source" : [ "obj-15", 0 ],
					"destination" : [ "obj-18", 0 ],
					"hidden" : 0,
					"midpoints" : [  ]
				}

			}
, 			{
				"patchline" : 				{
					"source" : [ "obj-13", 0 ],
					"destination" : [ "obj-15", 1 ],
					"hidden" : 0,
					"midpoints" : [  ]
				}

			}
, 			{
				"patchline" : 				{
					"source" : [ "obj-14", 0 ],
					"destination" : [ "obj-15", 0 ],
					"hidden" : 0,
					"midpoints" : [  ]
				}

			}
, 			{
				"patchline" : 				{
					"source" : [ "obj-17", 0 ],
					"destination" : [ "obj-18", 1 ],
					"hidden" : 0,
					"midpoints" : [  ]
				}

			}
, 			{
				"patchline" : 				{
					"source" : [ "obj-18", 0 ],
					"destination" : [ "obj-16", 1 ],
					"hidden" : 0,
					"midpoints" : [  ]
				}

			}
, 			{
				"patchline" : 				{
					"source" : [ "obj-9", 0 ],
					"destination" : [ "obj-1", 0 ],
					"hidden" : 0,
					"midpoints" : [  ]
				}

			}
, 			{
				"patchline" : 				{
					"source" : [ "obj-12", 0 ],
					"destination" : [ "obj-9", 1 ],
					"hidden" : 0,
					"midpoints" : [  ]
				}

			}
, 			{
				"patchline" : 				{
					"source" : [ "obj-11", 0 ],
					"destination" : [ "obj-9", 0 ],
					"hidden" : 0,
					"midpoints" : [  ]
				}

			}
, 			{
				"patchline" : 				{
					"source" : [ "obj-1", 0 ],
					"destination" : [ "obj-8", 1 ],
					"hidden" : 0,
					"midpoints" : [  ]
				}

			}
, 			{
				"patchline" : 				{
					"source" : [ "obj-5", 0 ],
					"destination" : [ "obj-1", 1 ],
					"hidden" : 0,
					"midpoints" : [  ]
				}

			}
 ]
	}

}
