{
	"patcher" : 	{
		"fileversion" : 1,
		"appversion" : 		{
			"major" : 7,
			"minor" : 3,
			"revision" : 3,
			"architecture" : "x64",
			"modernui" : 1
		}
,
		"rect" : [ 462.0, 79.0, 829.0, 891.0 ],
		"bglocked" : 0,
		"openinpresentation" : 0,
		"default_fontsize" : 12.0,
		"default_fontface" : 0,
		"default_fontname" : "Arial",
		"gridonopen" : 1,
		"gridsize" : [ 15.0, 15.0 ],
		"gridsnaponopen" : 1,
		"objectsnaponopen" : 1,
		"statusbarvisible" : 2,
		"toolbarvisible" : 1,
		"lefttoolbarpinned" : 0,
		"toptoolbarpinned" : 0,
		"righttoolbarpinned" : 0,
		"bottomtoolbarpinned" : 0,
		"toolbars_unpinned_last_save" : 0,
		"tallnewobj" : 0,
		"boxanimatetime" : 200,
		"enablehscroll" : 1,
		"enablevscroll" : 1,
		"devicewidth" : 0.0,
		"description" : "",
		"digest" : "",
		"tags" : "",
		"style" : "",
		"subpatcher_template" : "",
		"globalpatchername" : "ll.multibutton.maxhelp1",
		"boxes" : [ 			{
				"box" : 				{
					"id" : "obj-1",
					"maxclass" : "newobj",
					"numinlets" : 3,
					"numoutlets" : 2,
					"outlettype" : [ "", "bang" ],
					"patching_rect" : [ 435.0, 826.0, 73.0, 22.0 ],
					"style" : "",
					"text" : "ll.pf butnum"
				}

			}
, 			{
				"box" : 				{
					"bordercolor" : [ 0.0, 0.0, 0.0, 1.0 ],
					"celldef" : [ [ -1, 0, 0, 0, 0.0, 0.0, 0.0, 1.0, 0, 0.784314, 0.784314, 0.784314, 1.0, -1, -1, -1 ], [ -1, 1, 0, 0, 0.0, 0.0, 0.0, 1.0, 0, 0.784314, 0.784314, 0.784314, 1.0, -1, -1, -1 ], [ -1, 2, 0, 0, 0.0, 0.0, 0.0, 1.0, 0, 0.784314, 0.784314, 0.784314, 1.0, -1, -1, -1 ], [ -1, 3, 0, 0, 0.0, 0.0, 0.0, 1.0, 0, 0.784314, 0.784314, 0.784314, 1.0, -1, -1, -1 ], [ -1, 4, 0, 0, 0.0, 0.0, 0.0, 1.0, 0, 0.784314, 0.784314, 0.784314, 1.0, -1, -1, -1 ], [ -1, 5, 0, 0, 0.0, 0.0, 0.0, 1.0, 0, 0.784314, 0.784314, 0.784314, 1.0, -1, -1, -1 ], [ -1, 6, 0, 0, 0.0, 0.0, 0.0, 1.0, 0, 0.784314, 0.784314, 0.784314, 1.0, -1, -1, -1 ], [ -1, 7, 0, 0, 0.0, 0.0, 0.0, 1.0, 0, 0.784314, 0.784314, 0.784314, 1.0, -1, -1, -1 ], [ 0, 0, 0, 0, 0.156863, 0.156863, 0.156863, 1.0, 0, 0.784314, 0.784314, 0.784314, 1.0, -1, -1, -1 ], [ 0, 1, 0, 0, 0.156863, 0.156863, 0.156863, 1.0, 0, 0.784314, 0.784314, 0.784314, 1.0, -1, -1, -1 ], [ 0, 2, 0, 0, 0.156863, 0.156863, 0.156863, 1.0, 0, 0.784314, 0.784314, 0.784314, 1.0, -1, -1, -1 ], [ 0, 3, 0, 0, 0.156863, 0.156863, 0.156863, 1.0, 0, 0.784314, 0.784314, 0.784314, 1.0, -1, -1, -1 ], [ 0, 4, 0, 0, 0.156863, 0.156863, 0.156863, 1.0, 0, 0.784314, 0.784314, 0.784314, 1.0, -1, -1, -1 ], [ 0, 5, 0, 0, 0.156863, 0.156863, 0.156863, 1.0, 0, 0.784314, 0.784314, 0.784314, 1.0, -1, -1, -1 ], [ 0, 6, 0, 0, 0.156863, 0.156863, 0.156863, 1.0, 0, 0.784314, 0.784314, 0.784314, 1.0, -1, -1, -1 ], [ 0, 7, 0, 0, 0.156863, 0.156863, 0.156863, 1.0, 0, 0.784314, 0.784314, 0.784314, 1.0, -1, -1, -1 ], [ 0, 8, 0, 0, 0.156863, 0.156863, 0.156863, 1.0, 0, 0.784314, 0.784314, 0.784314, 1.0, -1, -1, -1 ], [ 1, 0, 0, 0, 0.156863, 0.156863, 0.156863, 1.0, 0, 0.392157, 0.392157, 0.392157, 1.0, -1, -1, -1 ], [ 1, 1, 0, 0, 0.901961, 0.901961, 0.901961, 1.0, 0, 0.941176, 0.313725, 0.313725, 1.0, -1, -1, -1 ], [ 1, 2, 0, 0, 0.901961, 0.901961, 0.901961, 1.0, 0, 0.941176, 0.313725, 0.313725, 1.0, -1, -1, -1 ], [ 1, 3, 0, 0, 0.156863, 0.156863, 0.156863, 1.0, 0, 0.784314, 0.784314, 0.784314, 1.0, -1, -1, -1 ], [ 1, 4, 0, 0, 0.156863, 0.156863, 0.156863, 1.0, 0, 0.784314, 0.784314, 0.784314, 1.0, -1, -1, -1 ], [ 1, 5, 0, 0, 0.156863, 0.156863, 0.156863, 1.0, 0, 0.784314, 0.784314, 0.784314, 1.0, -1, -1, -1 ], [ 1, 6, 0, 0, 0.156863, 0.156863, 0.156863, 1.0, 0, 0.784314, 0.784314, 0.784314, 1.0, -1, -1, -1 ], [ 1, 7, 0, 0, 0.156863, 0.156863, 0.156863, 1.0, 0, 0.784314, 0.784314, 0.784314, 1.0, -1, -1, -1 ], [ 2, 0, 0, 0, 0.156863, 0.156863, 0.156863, 1.0, 0, 1.0, 1.0, 1.0, 1.0, -1, -1, -1 ], [ 2, 1, 0, 0, 0.156863, 0.156863, 0.156863, 1.0, 0, 0.392157, 0.392157, 0.392157, 1.0, -1, -1, -1 ], [ 2, 2, 0, 0, 0.156863, 0.156863, 0.156863, 1.0, 0, 0.392157, 0.392157, 0.392157, 1.0, -1, -1, -1 ], [ 2, 3, 0, 0, 0.941176, 0.196078, 0.196078, 1.0, 0, 0.313725, 0.784314, 0.392157, 1.0, -1, -1, -1 ], [ 2, 4, 0, 0, 0.156863, 0.156863, 0.156863, 1.0, 0, 0.392157, 0.392157, 0.392157, 1.0, -1, -1, -1 ], [ 2, 5, 0, 0, 0.156863, 0.156863, 0.156863, 1.0, 0, 0.392157, 0.392157, 0.392157, 1.0, -1, -1, -1 ], [ 2, 6, 0, 0, 0.156863, 0.156863, 0.156863, 1.0, 0, 0.392157, 0.392157, 0.392157, 1.0, -1, -1, -1 ], [ 2, 7, 0, 0, 0.941176, 0.196078, 0.196078, 1.0, 0, 0.313725, 0.784314, 0.392157, 1.0, -1, -1, -1 ] ],
					"cols" : 4,
					"colwidth" : 30,
					"fontface" : 0,
					"fontname" : "Arial",
					"fontsize" : 12.0,
					"gridlinecolor" : [ 0.0, 0.0, 0.0, 1.0 ],
					"hcellcolor" : [ 1.0, 1.0, 1.0, 0.0 ],
					"hscroll" : 0,
					"id" : "obj-47",
					"just" : 1,
					"maxclass" : "jit.cellblock",
					"numinlets" : 2,
					"numoutlets" : 4,
					"outlettype" : [ "list", "", "", "" ],
					"patching_rect" : [ 37.0, 726.0, 121.0, 136.0 ],
					"presentation_rect" : [ 202.0, 398.0, 121.0, 136.0 ],
					"rowheight" : 15,
					"rows" : 9,
					"varname" : "butnum",
					"vscroll" : 0
				}

			}
, 			{
				"box" : 				{
					"id" : "obj-43",
					"maxclass" : "comment",
					"numinlets" : 1,
					"numoutlets" : 0,
					"patching_rect" : [ 603.0, 740.0, 209.0, 20.0 ],
					"style" : "",
					"text" : "individual colors..."
				}

			}
, 			{
				"box" : 				{
					"fontname" : "Arial",
					"fontsize" : 13.0,
					"id" : "obj-36",
					"linecount" : 2,
					"maxclass" : "message",
					"numinlets" : 2,
					"numoutlets" : 1,
					"outlettype" : [ "" ],
					"patching_rect" : [ 610.5, 779.0, 209.0, 38.0 ],
					"style" : "",
					"text" : "cell 0 1 brgb 250 100 100, cell 0 2 brgb 100 250 100"
				}

			}
, 			{
				"box" : 				{
					"id" : "obj-35",
					"linecount" : 2,
					"maxclass" : "comment",
					"numinlets" : 1,
					"numoutlets" : 0,
					"patching_rect" : [ 367.0, 750.0, 209.0, 33.0 ],
					"style" : "",
					"text" : "provide individual column widths, \nwith direct messages to the cellblock."
				}

			}
, 			{
				"box" : 				{
					"id" : "obj-33",
					"maxclass" : "message",
					"numinlets" : 2,
					"numoutlets" : 1,
					"outlettype" : [ "" ],
					"patching_rect" : [ 360.0, 726.0, 164.0, 22.0 ],
					"style" : "",
					"text" : "col 0 width 20, col 2 width 40"
				}

			}
, 			{
				"box" : 				{
					"id" : "obj-31",
					"maxclass" : "message",
					"numinlets" : 2,
					"numoutlets" : 1,
					"outlettype" : [ "" ],
					"patching_rect" : [ 655.0, 402.0, 49.0, 22.0 ],
					"style" : "",
					"text" : "size $1"
				}

			}
, 			{
				"box" : 				{
					"id" : "obj-20",
					"maxclass" : "toggle",
					"numinlets" : 1,
					"numoutlets" : 1,
					"outlettype" : [ "int" ],
					"parameter_enable" : 0,
					"patching_rect" : [ 467.0, 569.0, 20.0, 20.0 ],
					"style" : ""
				}

			}
, 			{
				"box" : 				{
					"fontname" : "Arial",
					"fontsize" : 12.0,
					"id" : "obj-21",
					"maxclass" : "message",
					"numinlets" : 2,
					"numoutlets" : 1,
					"outlettype" : [ "" ],
					"patching_rect" : [ 467.0, 594.0, 65.0, 22.0 ],
					"style" : "",
					"text" : "header $1"
				}

			}
, 			{
				"box" : 				{
					"id" : "obj-23",
					"maxclass" : "message",
					"numinlets" : 2,
					"numoutlets" : 1,
					"outlettype" : [ "" ],
					"patching_rect" : [ 281.0, 594.0, 57.0, 22.0 ],
					"style" : "",
					"text" : "dim 4 $1"
				}

			}
, 			{
				"box" : 				{
					"fontname" : "Arial",
					"fontsize" : 12.0,
					"id" : "obj-24",
					"linecount" : 2,
					"maxclass" : "comment",
					"numinlets" : 1,
					"numoutlets" : 0,
					"patching_rect" : [ 127.0, 867.0, 278.0, 33.0 ],
					"style" : "",
					"text" : "the first outlet of cellblock must be connected to a ll.s with name_p as argument."
				}

			}
, 			{
				"box" : 				{
					"fontname" : "Arial",
					"fontsize" : 12.0,
					"id" : "obj-25",
					"linecount" : 2,
					"maxclass" : "comment",
					"numinlets" : 1,
					"numoutlets" : 0,
					"patching_rect" : [ 37.0, 679.0, 233.0, 33.0 ],
					"style" : "",
					"text" : "first argument is the name of the cellblock (buttons in this case)"
				}

			}
, 			{
				"box" : 				{
					"fontname" : "Arial",
					"fontsize" : 12.0,
					"id" : "obj-26",
					"linecount" : 2,
					"maxclass" : "comment",
					"numinlets" : 1,
					"numoutlets" : 0,
					"patching_rect" : [ 77.0, 600.0, 171.0, 33.0 ],
					"style" : "",
					"text" : "enumerate the rows (refers to the same parameters)"
				}

			}
, 			{
				"box" : 				{
					"fontname" : "Arial",
					"fontsize" : 12.0,
					"id" : "obj-27",
					"maxclass" : "newobj",
					"numinlets" : 2,
					"numoutlets" : 0,
					"patching_rect" : [ 37.0, 867.0, 82.0, 22.0 ],
					"style" : "",
					"text" : "ll.s butnum_p"
				}

			}
, 			{
				"box" : 				{
					"fontname" : "Arial",
					"fontsize" : 12.0,
					"id" : "obj-29",
					"linecount" : 3,
					"maxclass" : "newobj",
					"numinlets" : 2,
					"numoutlets" : 2,
					"outlettype" : [ "", "" ],
					"patching_rect" : [ 27.0, 628.0, 798.0, 49.0 ],
					"style" : "",
					"text" : "ll.multibutton butnum @dim 4 8 @cellsize 30 15 @oncolor 0 0 0 240 80 80 80 200 100 @offcolor 200 200 200 200 200 200 100 100 100 255 255 255 @ontextcolor 255 255 255 230 230 230 240 50 50 @offtextcolor 40 40 40 @ontext 0 1 on ye @offtext 0 0 off b @button 4 @header 1 @names no list_1 list_2 trigger @enum 1",
					"varname" : "ll.multibutton[2]"
				}

			}
, 			{
				"box" : 				{
					"id" : "obj-19",
					"maxclass" : "number",
					"numinlets" : 1,
					"numoutlets" : 2,
					"outlettype" : [ "", "bang" ],
					"parameter_enable" : 0,
					"patching_rect" : [ 260.0, 29.0, 50.0, 22.0 ],
					"style" : ""
				}

			}
, 			{
				"box" : 				{
					"fontname" : "Arial",
					"fontsize" : 12.0,
					"id" : "obj-12",
					"maxclass" : "message",
					"numinlets" : 2,
					"numoutlets" : 1,
					"outlettype" : [ "" ],
					"patching_rect" : [ 254.0, 62.0, 57.0, 22.0 ],
					"style" : "",
					"text" : "dim 3 $1"
				}

			}
, 			{
				"box" : 				{
					"id" : "obj-9",
					"maxclass" : "toggle",
					"numinlets" : 1,
					"numoutlets" : 1,
					"outlettype" : [ "int" ],
					"parameter_enable" : 0,
					"patching_rect" : [ 472.0, 251.0, 20.0, 20.0 ],
					"style" : ""
				}

			}
, 			{
				"box" : 				{
					"fontname" : "Arial",
					"fontsize" : 12.0,
					"id" : "obj-10",
					"maxclass" : "message",
					"numinlets" : 2,
					"numoutlets" : 1,
					"outlettype" : [ "" ],
					"patching_rect" : [ 472.0, 276.0, 65.0, 22.0 ],
					"style" : "",
					"text" : "header $1"
				}

			}
, 			{
				"box" : 				{
					"id" : "obj-5",
					"maxclass" : "number",
					"numinlets" : 1,
					"numoutlets" : 2,
					"outlettype" : [ "", "bang" ],
					"parameter_enable" : 0,
					"patching_rect" : [ 394.0, 270.0, 50.0, 22.0 ],
					"style" : ""
				}

			}
, 			{
				"box" : 				{
					"id" : "obj-2",
					"maxclass" : "message",
					"numinlets" : 2,
					"numoutlets" : 1,
					"outlettype" : [ "" ],
					"patching_rect" : [ 286.0, 276.0, 57.0, 22.0 ],
					"style" : "",
					"text" : "dim 3 $1"
				}

			}
, 			{
				"box" : 				{
					"fontname" : "Arial",
					"fontsize" : 12.0,
					"id" : "obj-73",
					"linecount" : 4,
					"maxclass" : "comment",
					"numinlets" : 1,
					"numoutlets" : 0,
					"patching_rect" : [ 196.0, 173.0, 158.0, 60.0 ],
					"style" : "",
					"text" : "header:\n1st row becomes a master.\nalt-click for all off\nctl-click for all on"
				}

			}
, 			{
				"box" : 				{
					"id" : "obj-71",
					"maxclass" : "toggle",
					"numinlets" : 1,
					"numoutlets" : 1,
					"outlettype" : [ "int" ],
					"parameter_enable" : 0,
					"patching_rect" : [ 126.0, 170.0, 20.0, 20.0 ],
					"style" : ""
				}

			}
, 			{
				"box" : 				{
					"fontname" : "Arial",
					"fontsize" : 12.0,
					"id" : "obj-69",
					"maxclass" : "message",
					"numinlets" : 2,
					"numoutlets" : 1,
					"outlettype" : [ "" ],
					"patching_rect" : [ 126.0, 195.0, 65.0, 22.0 ],
					"style" : "",
					"text" : "header $1"
				}

			}
, 			{
				"box" : 				{
					"fontname" : "Arial",
					"fontsize" : 12.0,
					"id" : "obj-67",
					"maxclass" : "message",
					"numinlets" : 2,
					"numoutlets" : 1,
					"outlettype" : [ "" ],
					"patching_rect" : [ 183.0, 68.0, 50.0, 22.0 ],
					"style" : "",
					"text" : "dim 3 4"
				}

			}
, 			{
				"box" : 				{
					"fontname" : "Arial",
					"fontsize" : 12.0,
					"id" : "obj-66",
					"maxclass" : "message",
					"numinlets" : 2,
					"numoutlets" : 1,
					"outlettype" : [ "" ],
					"patching_rect" : [ 123.0, 66.0, 50.0, 22.0 ],
					"style" : "",
					"text" : "dim 3 6"
				}

			}
, 			{
				"box" : 				{
					"fontname" : "Arial",
					"fontsize" : 12.0,
					"id" : "obj-64",
					"linecount" : 2,
					"maxclass" : "comment",
					"numinlets" : 1,
					"numoutlets" : 0,
					"patching_rect" : [ 132.0, 549.0, 278.0, 33.0 ],
					"style" : "",
					"text" : "the first outlet of cellblock must be connected to a ll.s with name_p as argument."
				}

			}
, 			{
				"box" : 				{
					"fontname" : "Arial",
					"fontsize" : 12.0,
					"id" : "obj-63",
					"maxclass" : "comment",
					"numinlets" : 1,
					"numoutlets" : 0,
					"patching_rect" : [ 374.0, 367.0, 244.0, 20.0 ],
					"style" : "",
					"text" : "parameter names are defined by @names."
				}

			}
, 			{
				"box" : 				{
					"fontname" : "Arial",
					"fontsize" : 12.0,
					"id" : "obj-62",
					"linecount" : 2,
					"maxclass" : "comment",
					"numinlets" : 1,
					"numoutlets" : 0,
					"patching_rect" : [ 42.0, 361.0, 233.0, 33.0 ],
					"style" : "",
					"text" : "first argument is the name of the cellblock (buttons in this case)"
				}

			}
, 			{
				"box" : 				{
					"fontname" : "Arial",
					"fontsize" : 12.0,
					"id" : "obj-61",
					"maxclass" : "comment",
					"numinlets" : 1,
					"numoutlets" : 0,
					"patching_rect" : [ 82.0, 282.0, 171.0, 20.0 ],
					"style" : "",
					"text" : "in ppooll with scripting names:"
				}

			}
, 			{
				"box" : 				{
					"fontname" : "Arial",
					"fontsize" : 12.0,
					"id" : "obj-59",
					"maxclass" : "number",
					"numinlets" : 1,
					"numoutlets" : 2,
					"outlettype" : [ "", "bang" ],
					"parameter_enable" : 0,
					"patching_rect" : [ 484.0, 426.0, 50.0, 22.0 ],
					"style" : "",
					"varname" : "trigger"
				}

			}
, 			{
				"box" : 				{
					"fontname" : "Arial",
					"fontsize" : 12.0,
					"id" : "obj-57",
					"maxclass" : "newobj",
					"numinlets" : 2,
					"numoutlets" : 0,
					"patching_rect" : [ 42.0, 549.0, 81.0, 22.0 ],
					"style" : "",
					"text" : "ll.s buttons_p"
				}

			}
, 			{
				"box" : 				{
					"color" : [ 0.0, 0.0, 0.0, 1.0 ],
					"fontname" : "Arial",
					"fontsize" : 12.0,
					"hidden" : 1,
					"id" : "obj-51",
					"maxclass" : "newobj",
					"numinlets" : 2,
					"numoutlets" : 0,
					"patching_rect" : [ 618.0, 120.0, 179.0, 22.0 ],
					"style" : "",
					"text" : "actmaker ll.multibutton.maxhelp",
					"varname" : "act"
				}

			}
, 			{
				"box" : 				{
					"bordercolor" : [ 0.0, 0.0, 0.0, 1.0 ],
					"celldef" : [ [ -1, 0, 0, 0, 0.0, 0.0, 0.0, 1.0, 0, 0.784314, 0.784314, 0.784314, 1.0, -1, -1, -1 ], [ -1, 1, 0, 0, 0.0, 0.0, 0.0, 1.0, 0, 0.784314, 0.784314, 0.784314, 1.0, -1, -1, -1 ], [ -1, 2, 0, 0, 0.0, 0.0, 0.0, 1.0, 0, 0.784314, 0.784314, 0.784314, 1.0, -1, -1, -1 ], [ -1, 3, 0, 0, 0.0, 0.0, 0.0, 1.0, 0, 0.784314, 0.784314, 0.784314, 1.0, -1, -1, -1 ], [ -1, 4, 0, 0, 0.0, 0.0, 0.0, 1.0, 0, 0.784314, 0.784314, 0.784314, 1.0, -1, -1, -1 ], [ -1, 5, 0, 0, 0.0, 0.0, 0.0, 1.0, 0, 0.784314, 0.784314, 0.784314, 1.0, -1, -1, -1 ], [ -1, 6, 0, 0, 0.0, 0.0, 0.0, 1.0, 0, 0.784314, 0.784314, 0.784314, 1.0, -1, -1, -1 ], [ -1, 7, 0, 0, 0.0, 0.0, 0.0, 1.0, 0, 0.784314, 0.784314, 0.784314, 1.0, -1, -1, -1 ], [ 0, 0, 0, 0, 0.156863, 0.156863, 0.156863, 1.0, 0, 0.784314, 0.784314, 0.784314, 1.0, -1, -1, -1 ], [ 0, 1, 0, 0, 0.901961, 0.901961, 0.901961, 1.0, 0, 0.941176, 0.313725, 0.313725, 1.0, -1, -1, -1 ], [ 0, 2, 0, 0, 0.901961, 0.901961, 0.901961, 1.0, 0, 0.941176, 0.313725, 0.313725, 1.0, -1, -1, -1 ], [ 0, 3, 0, 0, 0.156863, 0.156863, 0.156863, 1.0, 0, 0.784314, 0.784314, 0.784314, 1.0, -1, -1, -1 ], [ 0, 4, 0, 0, 0.156863, 0.156863, 0.156863, 1.0, 0, 0.784314, 0.784314, 0.784314, 1.0, -1, -1, -1 ], [ 0, 5, 0, 0, 0.156863, 0.156863, 0.156863, 1.0, 0, 0.784314, 0.784314, 0.784314, 1.0, -1, -1, -1 ], [ 0, 6, 0, 0, 0.156863, 0.156863, 0.156863, 1.0, 0, 0.784314, 0.784314, 0.784314, 1.0, -1, -1, -1 ], [ 0, 7, 0, 0, 0.156863, 0.156863, 0.156863, 1.0, 0, 0.784314, 0.784314, 0.784314, 1.0, -1, -1, -1 ], [ 1, 0, 0, 0, 0.156863, 0.156863, 0.156863, 1.0, 0, 0.392157, 0.392157, 0.392157, 1.0, -1, -1, -1 ], [ 1, 1, 0, 0, 0.156863, 0.156863, 0.156863, 1.0, 0, 0.392157, 0.392157, 0.392157, 1.0, -1, -1, -1 ], [ 1, 2, 0, 0, 0.156863, 0.156863, 0.156863, 1.0, 0, 0.392157, 0.392157, 0.392157, 1.0, -1, -1, -1 ], [ 1, 3, 0, 0, 0.941176, 0.196078, 0.196078, 1.0, 0, 0.313725, 0.784314, 0.392157, 1.0, -1, -1, -1 ], [ 1, 4, 0, 0, 0.156863, 0.156863, 0.156863, 1.0, 0, 0.392157, 0.392157, 0.392157, 1.0, -1, -1, -1 ], [ 1, 5, 0, 0, 0.156863, 0.156863, 0.156863, 1.0, 0, 0.392157, 0.392157, 0.392157, 1.0, -1, -1, -1 ], [ 1, 6, 0, 0, 0.156863, 0.156863, 0.156863, 1.0, 0, 0.392157, 0.392157, 0.392157, 1.0, -1, -1, -1 ], [ 1, 7, 0, 0, 0.941176, 0.196078, 0.196078, 1.0, 0, 0.313725, 0.784314, 0.392157, 1.0, -1, -1, -1 ], [ 2, 0, 0, 0, 0.156863, 0.156863, 0.156863, 1.0, 0, 1.0, 1.0, 1.0, 1.0, -1, -1, -1 ], [ 2, 1, 0, 0, 0.156863, 0.156863, 0.156863, 1.0, 0, 1.0, 1.0, 1.0, 1.0, -1, -1, -1 ], [ 2, 2, 0, 0, 0.156863, 0.156863, 0.156863, 1.0, 0, 1.0, 1.0, 1.0, 1.0, -1, -1, -1 ], [ 2, 3, 0, 0, 0.156863, 0.156863, 0.156863, 1.0, 0, 1.0, 1.0, 1.0, 1.0, -1, -1, -1 ], [ 2, 4, 0, 0, 0.156863, 0.156863, 0.156863, 1.0, 0, 1.0, 1.0, 1.0, 1.0, -1, -1, -1 ], [ 2, 5, 0, 0, 0.156863, 0.156863, 0.156863, 1.0, 0, 1.0, 1.0, 1.0, 1.0, -1, -1, -1 ], [ 2, 6, 0, 0, 0.156863, 0.156863, 0.156863, 1.0, 0, 1.0, 1.0, 1.0, 1.0, -1, -1, -1 ], [ 2, 7, 0, 0, 0.156863, 0.156863, 0.156863, 1.0, 0, 1.0, 1.0, 1.0, 1.0, -1, -1, -1 ] ],
					"cols" : 3,
					"colwidth" : 30,
					"fontface" : 0,
					"fontname" : "Arial",
					"fontsize" : 12.0,
					"gridlinecolor" : [ 0.0, 0.0, 0.0, 1.0 ],
					"hcellcolor" : [ 1.0, 1.0, 1.0, 0.0 ],
					"hscroll" : 0,
					"id" : "obj-39",
					"just" : 1,
					"maxclass" : "jit.cellblock",
					"numinlets" : 2,
					"numoutlets" : 4,
					"outlettype" : [ "list", "", "", "" ],
					"patching_rect" : [ 42.0, 401.0, 91.0, 136.0 ],
					"presentation_rect" : [ 193.0, 478.0, 91.0, 136.0 ],
					"rowheight" : 15,
					"rows" : 9,
					"varname" : "buttons",
					"vscroll" : 0
				}

			}
, 			{
				"box" : 				{
					"bgcolor" : [ 1.0, 1.0, 1.0, 1.0 ],
					"candicane2" : [ 0.145098, 0.203922, 0.356863, 1.0 ],
					"candicane3" : [ 0.290196, 0.411765, 0.713726, 1.0 ],
					"candicane4" : [ 0.439216, 0.619608, 0.070588, 1.0 ],
					"candicane5" : [ 0.584314, 0.827451, 0.431373, 1.0 ],
					"candicane6" : [ 0.733333, 0.035294, 0.788235, 1.0 ],
					"candicane7" : [ 0.878431, 0.243137, 0.145098, 1.0 ],
					"candicane8" : [ 0.027451, 0.447059, 0.501961, 1.0 ],
					"contdata" : 1,
					"id" : "obj-41",
					"maxclass" : "multislider",
					"numinlets" : 1,
					"numoutlets" : 2,
					"orientation" : 0,
					"outlettype" : [ "", "" ],
					"parameter_enable" : 0,
					"patching_rect" : [ 465.0, 401.0, 13.0, 83.0 ],
					"peakcolor" : [ 0.498039, 0.498039, 0.498039, 1.0 ],
					"setminmax" : [ 0.0, 1.0 ],
					"setstyle" : 1,
					"settype" : 0,
					"size" : 7,
					"slidercolor" : [ 0.129412, 0.156863, 0.388235, 1.0 ],
					"style" : "",
					"varname" : "list_2"
				}

			}
, 			{
				"box" : 				{
					"bgcolor" : [ 1.0, 1.0, 1.0, 1.0 ],
					"candicane2" : [ 0.145098, 0.203922, 0.356863, 1.0 ],
					"candicane3" : [ 0.290196, 0.411765, 0.713726, 1.0 ],
					"candicane4" : [ 0.439216, 0.619608, 0.070588, 1.0 ],
					"candicane5" : [ 0.584314, 0.827451, 0.431373, 1.0 ],
					"candicane6" : [ 0.733333, 0.035294, 0.788235, 1.0 ],
					"candicane7" : [ 0.878431, 0.243137, 0.145098, 1.0 ],
					"candicane8" : [ 0.027451, 0.447059, 0.501961, 1.0 ],
					"contdata" : 1,
					"id" : "obj-44",
					"maxclass" : "multislider",
					"numinlets" : 1,
					"numoutlets" : 2,
					"orientation" : 0,
					"outlettype" : [ "", "" ],
					"parameter_enable" : 0,
					"patching_rect" : [ 447.0, 401.0, 13.0, 83.0 ],
					"peakcolor" : [ 0.498039, 0.498039, 0.498039, 1.0 ],
					"setminmax" : [ 0.0, 1.0 ],
					"setstyle" : 1,
					"settype" : 0,
					"size" : 7,
					"slidercolor" : [ 0.129412, 0.156863, 0.388235, 1.0 ],
					"style" : "",
					"varname" : "list_1"
				}

			}
, 			{
				"box" : 				{
					"fontname" : "Arial",
					"fontsize" : 12.0,
					"id" : "obj-45",
					"linecount" : 2,
					"maxclass" : "newobj",
					"numinlets" : 2,
					"numoutlets" : 2,
					"outlettype" : [ "", "" ],
					"patching_rect" : [ 32.0, 310.0, 781.0, 35.0 ],
					"style" : "",
					"text" : "ll.multibutton buttons @dim 3 8 @cellsize 30 15 @oncolor 240 80 80 80 200 100 @offcolor 200 200 200 100 100 100 255 255 255 @ontextcolor 230 230 230 240 50 50 @offtextcolor 40 40 40 @ontext 1 on ye @offtext 0 off b @button 3 @header 1 @names list_1 list_2 trigger",
					"varname" : "ll.multibutton[1]"
				}

			}
, 			{
				"box" : 				{
					"fontname" : "Arial",
					"fontsize" : 12.0,
					"id" : "obj-37",
					"maxclass" : "message",
					"numinlets" : 2,
					"numoutlets" : 1,
					"outlettype" : [ "" ],
					"patching_rect" : [ 398.0, 199.0, 50.0, 22.0 ],
					"style" : "",
					"text" : "1"
				}

			}
, 			{
				"box" : 				{
					"bordercolor" : [ 0.0, 0.0, 0.0, 1.0 ],
					"celldef" : [ [ -1, 0, 0, 0, 0.0, 0.0, 0.0, 1.0, 0, 0.0, 0.0, 0.0, 1.0, -1, -1, -1 ], [ -1, 1, 0, 0, 0.0, 0.0, 0.0, 1.0, 0, 0.0, 0.0, 0.0, 1.0, -1, -1, -1 ], [ -1, 2, 0, 0, 0.0, 0.0, 0.0, 1.0, 0, 0.0, 0.0, 0.0, 1.0, -1, -1, -1 ], [ -1, 3, 0, 0, 0.0, 0.0, 0.0, 1.0, 0, 0.0, 0.0, 0.0, 1.0, -1, -1, -1 ], [ 0, 0, 0, 0, 0.0, 0.0, 0.0, 1.0, 0, 0.0, 0.0, 0.0, 1.0, -1, -1, -1 ], [ 0, 1, 0, 0, 0.0, 0.0, 0.0, 1.0, 0, 0.0, 0.0, 0.0, 1.0, -1, -1, -1 ], [ 0, 2, 0, 0, 0.0, 0.0, 0.0, 1.0, 0, 0.0, 0.0, 0.0, 1.0, -1, -1, -1 ], [ 0, 3, 0, 0, 0.0, 0.0, 0.0, 1.0, 0, 0.0, 0.0, 0.0, 1.0, -1, -1, -1 ], [ 1, 0, 0, 0, 0.941176, 0.196078, 0.196078, 1.0, 0, 0.313726, 0.784314, 0.039216, 1.0, -1, -1, -1 ], [ 1, 1, 0, 0, 0.941176, 0.196078, 0.196078, 1.0, 0, 0.313726, 0.784314, 0.039216, 1.0, -1, -1, -1 ], [ 1, 2, 0, 0, 0.941176, 0.196078, 0.196078, 1.0, 0, 0.313726, 0.784314, 0.039216, 1.0, -1, -1, -1 ], [ 1, 3, 0, 0, 0.941176, 0.196078, 0.196078, 1.0, 0, 0.313726, 0.784314, 0.039216, 1.0, -1, -1, -1 ], [ 2, 0, 0, 0, 0.0, 0.0, 0.0, 1.0, 0, 1.0, 1.0, 1.0, 1.0, -1, -1, -1 ], [ 2, 1, 0, 0, 0.0, 0.0, 0.0, 1.0, 0, 1.0, 1.0, 1.0, 1.0, -1, -1, -1 ], [ 2, 2, 0, 0, 0.0, 0.0, 0.0, 1.0, 0, 1.0, 1.0, 1.0, 1.0, -1, -1, -1 ], [ 2, 3, 0, 0, 0.0, 0.0, 0.0, 1.0, 0, 1.0, 1.0, 1.0, 1.0, -1, -1, -1 ] ],
					"cols" : 3,
					"colwidth" : 22,
					"fontface" : 0,
					"fontname" : "Arial",
					"fontsize" : 16.0,
					"gridlinecolor" : [ 0.0, 0.0, 0.0, 1.0 ],
					"hcellcolor" : [ 1.0, 1.0, 1.0, 0.0 ],
					"hscroll" : 0,
					"id" : "obj-18",
					"just" : 1,
					"maxclass" : "jit.cellblock",
					"numinlets" : 2,
					"numoutlets" : 4,
					"outlettype" : [ "list", "", "", "" ],
					"patching_rect" : [ 30.0, 172.0, 67.0, 81.0 ],
					"presentation_rect" : [ 0.0, 0.0, 67.0, 81.0 ],
					"rowheight" : 20,
					"rows" : 4,
					"vscroll" : 0
				}

			}
, 			{
				"box" : 				{
					"fontname" : "Arial",
					"fontsize" : 12.0,
					"id" : "obj-17",
					"maxclass" : "newobj",
					"numinlets" : 1,
					"numoutlets" : 1,
					"outlettype" : [ "" ],
					"patching_rect" : [ 464.0, 72.0, 65.0, 22.0 ],
					"style" : "",
					"text" : "prepend 2"
				}

			}
, 			{
				"box" : 				{
					"bgcolor" : [ 1.0, 1.0, 1.0, 1.0 ],
					"candicane2" : [ 0.145098, 0.203922, 0.356863, 1.0 ],
					"candicane3" : [ 0.290196, 0.411765, 0.713726, 1.0 ],
					"candicane4" : [ 0.439216, 0.619608, 0.070588, 1.0 ],
					"candicane5" : [ 0.584314, 0.827451, 0.431373, 1.0 ],
					"candicane6" : [ 0.733333, 0.035294, 0.788235, 1.0 ],
					"candicane7" : [ 0.878431, 0.243137, 0.145098, 1.0 ],
					"candicane8" : [ 0.027451, 0.447059, 0.501961, 1.0 ],
					"contdata" : 1,
					"id" : "obj-16",
					"maxclass" : "multislider",
					"numinlets" : 1,
					"numoutlets" : 2,
					"orientation" : 0,
					"outlettype" : [ "", "" ],
					"parameter_enable" : 0,
					"patching_rect" : [ 561.0, 52.0, 15.0, 193.0 ],
					"peakcolor" : [ 0.498039, 0.498039, 0.498039, 1.0 ],
					"setminmax" : [ 0.0, 1.0 ],
					"setstyle" : 1,
					"settype" : 0,
					"size" : 12,
					"slidercolor" : [ 0.129412, 0.156863, 0.388235, 1.0 ],
					"style" : "",
					"varname" : "ext_vol[3]"
				}

			}
, 			{
				"box" : 				{
					"fontname" : "Arial",
					"fontsize" : 12.0,
					"id" : "obj-15",
					"maxclass" : "newobj",
					"numinlets" : 4,
					"numoutlets" : 4,
					"outlettype" : [ "", "", "", "" ],
					"patching_rect" : [ 396.0, 173.0, 68.0, 22.0 ],
					"style" : "",
					"text" : "route 1 2 3"
				}

			}
, 			{
				"box" : 				{
					"fontname" : "Arial",
					"fontsize" : 12.0,
					"id" : "obj-11",
					"maxclass" : "newobj",
					"numinlets" : 1,
					"numoutlets" : 1,
					"outlettype" : [ "" ],
					"patching_rect" : [ 396.0, 72.0, 65.0, 22.0 ],
					"style" : "",
					"text" : "prepend 1"
				}

			}
, 			{
				"box" : 				{
					"fontname" : "Arial",
					"fontsize" : 12.0,
					"id" : "obj-8",
					"maxclass" : "message",
					"numinlets" : 2,
					"numoutlets" : 1,
					"outlettype" : [ "" ],
					"patching_rect" : [ 59.0, 67.0, 50.0, 22.0 ],
					"style" : "",
					"text" : "dim 5 4"
				}

			}
, 			{
				"box" : 				{
					"bgcolor" : [ 1.0, 1.0, 1.0, 1.0 ],
					"candicane2" : [ 0.145098, 0.203922, 0.356863, 1.0 ],
					"candicane3" : [ 0.290196, 0.411765, 0.713726, 1.0 ],
					"candicane4" : [ 0.439216, 0.619608, 0.070588, 1.0 ],
					"candicane5" : [ 0.584314, 0.827451, 0.431373, 1.0 ],
					"candicane6" : [ 0.733333, 0.035294, 0.788235, 1.0 ],
					"candicane7" : [ 0.878431, 0.243137, 0.145098, 1.0 ],
					"candicane8" : [ 0.027451, 0.447059, 0.501961, 1.0 ],
					"contdata" : 1,
					"id" : "obj-13",
					"maxclass" : "multislider",
					"numinlets" : 1,
					"numoutlets" : 2,
					"orientation" : 0,
					"outlettype" : [ "", "" ],
					"parameter_enable" : 0,
					"patching_rect" : [ 538.0, 52.0, 15.0, 193.0 ],
					"peakcolor" : [ 0.498039, 0.498039, 0.498039, 1.0 ],
					"setminmax" : [ 0.0, 1.0 ],
					"setstyle" : 1,
					"settype" : 0,
					"size" : 12,
					"slidercolor" : [ 0.129412, 0.156863, 0.388235, 1.0 ],
					"style" : "",
					"varname" : "ext_vol[2]"
				}

			}
, 			{
				"box" : 				{
					"fontname" : "Arial",
					"fontsize" : 12.0,
					"id" : "obj-3",
					"linecount" : 2,
					"maxclass" : "newobj",
					"numinlets" : 2,
					"numoutlets" : 2,
					"outlettype" : [ "", "" ],
					"patching_rect" : [ 64.0, 99.0, 762.0, 35.0 ],
					"style" : "",
					"text" : "ll.multibutton ert @dim 3 4 @cellsize 22 20 @oncolor 200 100 100 80 200 10 @offcolor 200 200 200 100 100 100 255 255 255 @ontextcolor 230 230 230 240 50 50 @offtextcolor 40 40 40 @ontext 1 on ye @offtext 0 off no @button 3",
					"varname" : "ll.multibutton"
				}

			}
, 			{
				"box" : 				{
					"color" : [ 0.0, 0.0, 0.0, 1.0 ],
					"fontname" : "Arial",
					"fontsize" : 12.0,
					"hidden" : 1,
					"id" : "obj-52",
					"maxclass" : "newobj",
					"numinlets" : 1,
					"numoutlets" : 1,
					"outlettype" : [ "" ],
					"patching_rect" : [ 618.0, 78.0, 113.0, 22.0 ],
					"style" : "",
					"text" : "loadmess loadbang",
					"varname" : "loadmess"
				}

			}
, 			{
				"box" : 				{
					"color" : [ 0.0, 0.0, 0.0, 1.0 ],
					"fontname" : "Arial",
					"fontsize" : 12.0,
					"hidden" : 1,
					"id" : "obj-53",
					"maxclass" : "newobj",
					"numinlets" : 1,
					"numoutlets" : 1,
					"outlettype" : [ "" ],
					"patching_rect" : [ 631.0, 99.0, 100.0, 22.0 ],
					"saved_object_attributes" : 					{
						"client_rect" : [ 102, 45, 573, 758 ],
						"parameter_enable" : 0,
						"storage_rect" : [ 200, 200, 800, 500 ]
					}
,
					"style" : "",
					"text" : "pattrstorage pat",
					"varname" : "pat"
				}

			}
, 			{
				"box" : 				{
					"color" : [ 0.0, 0.0, 0.0, 1.0 ],
					"fontname" : "Arial",
					"fontsize" : 12.0,
					"hidden" : 1,
					"id" : "obj-54",
					"maxclass" : "newobj",
					"numinlets" : 1,
					"numoutlets" : 2,
					"outlettype" : [ "", "" ],
					"patching_rect" : [ 618.0, 141.0, 107.0, 22.0 ],
					"save" : [ "#N", "thispatcher", ";", "#Q", "end", ";" ],
					"style" : "",
					"text" : "thispatcher",
					"varname" : "thispatcher"
				}

			}
, 			{
				"box" : 				{
					"color" : [ 0.0, 0.0, 0.0, 1.0 ],
					"fontname" : "Arial",
					"fontsize" : 12.0,
					"hidden" : 1,
					"id" : "obj-55",
					"maxclass" : "newobj",
					"numinlets" : 1,
					"numoutlets" : 1,
					"outlettype" : [ "" ],
					"patching_rect" : [ 618.0, 162.0, 107.0, 22.0 ],
					"style" : "",
					"text" : "pattrmarker no",
					"varname" : "pattrmarker"
				}

			}
, 			{
				"box" : 				{
					"color" : [ 0.0, 0.0, 0.0, 1.0 ],
					"fontname" : "Arial",
					"fontsize" : 12.0,
					"hidden" : 1,
					"id" : "obj-56",
					"maxclass" : "newobj",
					"numinlets" : 1,
					"numoutlets" : 4,
					"outlettype" : [ "", "", "", "" ],
					"patching_rect" : [ 618.0, 183.0, 107.0, 22.0 ],
					"restore" : 					{
						"ext_vol[2]" : [ 1, 1, 1, 0, 0, 0, 0, 0, 0, 0, 0, 0 ],
						"ext_vol[3]" : [ 1, 1, 1, 1, 1, 1, 1, 1, 0, 1, 0, 0 ],
						"list_1" : [ 1, 1, 0, 0, 0, 0, 0 ],
						"list_2" : [ 0, 0, 1, 0, 0, 0, 1 ],
						"trigger" : [ 3 ]
					}
,
					"style" : "",
					"text" : "autopattr autopattr",
					"varname" : "autopattr"
				}

			}
 ],
		"lines" : [ 			{
				"patchline" : 				{
					"destination" : [ "obj-45", 0 ],
					"disabled" : 0,
					"hidden" : 0,
					"source" : [ "obj-10", 0 ]
				}

			}
, 			{
				"patchline" : 				{
					"destination" : [ "obj-3", 1 ],
					"disabled" : 0,
					"hidden" : 0,
					"source" : [ "obj-11", 0 ]
				}

			}
, 			{
				"patchline" : 				{
					"destination" : [ "obj-3", 0 ],
					"disabled" : 0,
					"hidden" : 0,
					"source" : [ "obj-12", 0 ]
				}

			}
, 			{
				"patchline" : 				{
					"destination" : [ "obj-11", 0 ],
					"disabled" : 0,
					"hidden" : 0,
					"source" : [ "obj-13", 0 ]
				}

			}
, 			{
				"patchline" : 				{
					"destination" : [ "obj-13", 0 ],
					"disabled" : 0,
					"hidden" : 0,
					"source" : [ "obj-15", 0 ]
				}

			}
, 			{
				"patchline" : 				{
					"destination" : [ "obj-16", 0 ],
					"disabled" : 0,
					"hidden" : 0,
					"source" : [ "obj-15", 1 ]
				}

			}
, 			{
				"patchline" : 				{
					"destination" : [ "obj-37", 1 ],
					"disabled" : 0,
					"hidden" : 0,
					"source" : [ "obj-15", 2 ]
				}

			}
, 			{
				"patchline" : 				{
					"destination" : [ "obj-17", 0 ],
					"disabled" : 0,
					"hidden" : 0,
					"source" : [ "obj-16", 0 ]
				}

			}
, 			{
				"patchline" : 				{
					"destination" : [ "obj-3", 1 ],
					"disabled" : 0,
					"hidden" : 0,
					"source" : [ "obj-17", 0 ]
				}

			}
, 			{
				"patchline" : 				{
					"destination" : [ "obj-3", 0 ],
					"disabled" : 0,
					"hidden" : 0,
					"source" : [ "obj-18", 0 ]
				}

			}
, 			{
				"patchline" : 				{
					"destination" : [ "obj-12", 0 ],
					"disabled" : 0,
					"hidden" : 0,
					"source" : [ "obj-19", 0 ]
				}

			}
, 			{
				"patchline" : 				{
					"destination" : [ "obj-45", 0 ],
					"disabled" : 0,
					"hidden" : 0,
					"source" : [ "obj-2", 0 ]
				}

			}
, 			{
				"patchline" : 				{
					"destination" : [ "obj-21", 0 ],
					"disabled" : 0,
					"hidden" : 0,
					"source" : [ "obj-20", 0 ]
				}

			}
, 			{
				"patchline" : 				{
					"destination" : [ "obj-29", 0 ],
					"disabled" : 0,
					"hidden" : 0,
					"source" : [ "obj-21", 0 ]
				}

			}
, 			{
				"patchline" : 				{
					"destination" : [ "obj-29", 0 ],
					"disabled" : 0,
					"hidden" : 0,
					"source" : [ "obj-23", 0 ]
				}

			}
, 			{
				"patchline" : 				{
					"destination" : [ "obj-15", 0 ],
					"disabled" : 0,
					"hidden" : 0,
					"source" : [ "obj-3", 1 ]
				}

			}
, 			{
				"patchline" : 				{
					"destination" : [ "obj-18", 0 ],
					"disabled" : 0,
					"hidden" : 0,
					"source" : [ "obj-3", 0 ]
				}

			}
, 			{
				"patchline" : 				{
					"destination" : [ "obj-41", 0 ],
					"disabled" : 0,
					"hidden" : 0,
					"order" : 0,
					"source" : [ "obj-31", 0 ]
				}

			}
, 			{
				"patchline" : 				{
					"destination" : [ "obj-44", 0 ],
					"disabled" : 0,
					"hidden" : 0,
					"order" : 1,
					"source" : [ "obj-31", 0 ]
				}

			}
, 			{
				"patchline" : 				{
					"destination" : [ "obj-1", 0 ],
					"disabled" : 0,
					"hidden" : 0,
					"source" : [ "obj-33", 0 ]
				}

			}
, 			{
				"patchline" : 				{
					"destination" : [ "obj-1", 0 ],
					"disabled" : 0,
					"hidden" : 0,
					"source" : [ "obj-36", 0 ]
				}

			}
, 			{
				"patchline" : 				{
					"destination" : [ "obj-57", 0 ],
					"disabled" : 0,
					"hidden" : 0,
					"source" : [ "obj-39", 0 ]
				}

			}
, 			{
				"patchline" : 				{
					"destination" : [ "obj-27", 0 ],
					"disabled" : 0,
					"hidden" : 0,
					"source" : [ "obj-47", 0 ]
				}

			}
, 			{
				"patchline" : 				{
					"destination" : [ "obj-2", 0 ],
					"disabled" : 0,
					"hidden" : 0,
					"order" : 1,
					"source" : [ "obj-5", 0 ]
				}

			}
, 			{
				"patchline" : 				{
					"destination" : [ "obj-23", 0 ],
					"disabled" : 0,
					"hidden" : 0,
					"order" : 2,
					"source" : [ "obj-5", 0 ]
				}

			}
, 			{
				"patchline" : 				{
					"destination" : [ "obj-31", 0 ],
					"disabled" : 0,
					"hidden" : 0,
					"order" : 0,
					"source" : [ "obj-5", 0 ]
				}

			}
, 			{
				"patchline" : 				{
					"destination" : [ "obj-51", 0 ],
					"disabled" : 0,
					"hidden" : 1,
					"source" : [ "obj-52", 0 ]
				}

			}
, 			{
				"patchline" : 				{
					"destination" : [ "obj-51", 1 ],
					"disabled" : 0,
					"hidden" : 1,
					"source" : [ "obj-53", 0 ]
				}

			}
, 			{
				"patchline" : 				{
					"destination" : [ "obj-3", 0 ],
					"disabled" : 0,
					"hidden" : 0,
					"source" : [ "obj-66", 0 ]
				}

			}
, 			{
				"patchline" : 				{
					"destination" : [ "obj-3", 0 ],
					"disabled" : 0,
					"hidden" : 0,
					"source" : [ "obj-67", 0 ]
				}

			}
, 			{
				"patchline" : 				{
					"destination" : [ "obj-3", 0 ],
					"disabled" : 0,
					"hidden" : 0,
					"source" : [ "obj-69", 0 ]
				}

			}
, 			{
				"patchline" : 				{
					"destination" : [ "obj-69", 0 ],
					"disabled" : 0,
					"hidden" : 0,
					"source" : [ "obj-71", 0 ]
				}

			}
, 			{
				"patchline" : 				{
					"destination" : [ "obj-3", 0 ],
					"disabled" : 0,
					"hidden" : 0,
					"source" : [ "obj-8", 0 ]
				}

			}
, 			{
				"patchline" : 				{
					"destination" : [ "obj-10", 0 ],
					"disabled" : 0,
					"hidden" : 0,
					"source" : [ "obj-9", 0 ]
				}

			}
 ],
		"dependency_cache" : [ 			{
				"name" : "ll.multibutton.maxpat",
				"bootpath" : "~/Documents/Max 7/Library/ppooll/abstractions",
				"type" : "JSON",
				"implicit" : 1
			}
, 			{
				"name" : "ll.r.maxpat",
				"bootpath" : "~/Documents/Max 7/Library/ppooll/abstractions",
				"type" : "JSON",
				"implicit" : 1
			}
, 			{
				"name" : "ll.pf.maxpat",
				"bootpath" : "~/Documents/Max 7/Library/ppooll/abstractions",
				"type" : "JSON",
				"implicit" : 1
			}
, 			{
				"name" : "ll.multibupo.maxpat",
				"bootpath" : "~/Documents/Max 7/Library/ppooll/abstractions",
				"type" : "JSON",
				"implicit" : 1
			}
, 			{
				"name" : "ll.slice1.maxpat",
				"bootpath" : "~/Documents/Max 7/Library/ppooll/abstractions",
				"type" : "JSON",
				"implicit" : 1
			}
, 			{
				"name" : "ll.actname.maxpat",
				"bootpath" : "~/Documents/Max 7/Library/ppooll/abstractions",
				"type" : "JSON",
				"implicit" : 1
			}
, 			{
				"name" : "actmaker.maxpat",
				"bootpath" : "~/Documents/Max 7/Library/ppooll/abstractions",
				"type" : "JSON",
				"implicit" : 1
			}
, 			{
				"name" : "tetrishelp.js",
				"bootpath" : "~/Documents/Max 7/Library/ppooll/javascripts",
				"type" : "TEXT",
				"implicit" : 1
			}
, 			{
				"name" : "n.maxpat",
				"bootpath" : "~/Documents/Max 7/Library/ppooll/abstractions",
				"type" : "JSON",
				"implicit" : 1
			}
, 			{
				"name" : "ll.psto.maxpat",
				"bootpath" : "~/Documents/Max 7/Library/ppooll/abstractions",
				"type" : "JSON",
				"implicit" : 1
			}
, 			{
				"name" : "ll.shut.maxpat",
				"bootpath" : "~/Documents/Max 7/Library/ppooll/abstractions",
				"type" : "JSON",
				"implicit" : 1
			}
, 			{
				"name" : "ll.strip#.maxpat",
				"bootpath" : "~/Documents/Max 7/Library/ppooll/abstractions",
				"type" : "JSON",
				"implicit" : 1
			}
, 			{
				"name" : "ll.actnamehelper.maxpat",
				"bootpath" : "~/Documents/Max 7/Library/ppooll/abstractions",
				"type" : "JSON",
				"implicit" : 1
			}
, 			{
				"name" : "ll.an.js",
				"bootpath" : "~/Documents/Max 7/Library/ppooll/javascripts",
				"type" : "TEXT",
				"implicit" : 1
			}
, 			{
				"name" : "ll.s.maxpat",
				"bootpath" : "~/Documents/Max 7/Library/ppooll/abstractions",
				"type" : "JSON",
				"implicit" : 1
			}
, 			{
				"name" : "pattrexists.mxo",
				"type" : "iLaX"
			}
, 			{
				"name" : "ll_fastforward.mxo",
				"type" : "iLaX"
			}
 ],
		"autosave" : 0
	}

}
