{
    "patcher": {
        "fileversion": 1,
        "appversion": {
            "major": 9,
            "minor": 1,
            "revision": 1,
            "architecture": "x64",
            "modernui": 1
        },
        "classnamespace": "box",
        "rect": [ 100.0, 100.0, 608.0, 372.0 ],
        "toolbarvisible": 0,
        "globalpatchername": "ll.psto.maxhelp1",
        "boxes": [
            {
                "box": {
                    "fontname": "Arial",
                    "fontsize": 12.0,
                    "id": "obj-2",
                    "maxclass": "comment",
                    "numinlets": 1,
                    "numoutlets": 0,
                    "patching_rect": [ 396.0, 254.0, 38.0, 20.0 ],
                    "text": "etc...."
                }
            },
            {
                "box": {
                    "fontname": "Arial",
                    "fontsize": 12.0,
                    "id": "obj-32",
                    "maxclass": "message",
                    "numinlets": 2,
                    "numoutlets": 1,
                    "outlettype": [ "" ],
                    "patching_rect": [ 315.0, 253.0, 79.0, 22.0 ],
                    "text": "clientwindow"
                }
            },
            {
                "box": {
                    "fontname": "Arial",
                    "fontsize": 12.0,
                    "id": "obj-31",
                    "maxclass": "comment",
                    "numinlets": 1,
                    "numoutlets": 0,
                    "patching_rect": [ 238.0, 224.0, 166.0, 20.0 ],
                    "text": "any message to pattrstorage:"
                }
            },
            {
                "box": {
                    "fontname": "Arial",
                    "fontsize": 12.0,
                    "id": "obj-24",
                    "maxclass": "comment",
                    "numinlets": 1,
                    "numoutlets": 0,
                    "patching_rect": [ 20.0, 184.0, 171.0, 20.0 ],
                    "text": "messages that envoke output:"
                }
            },
            {
                "box": {
                    "fontname": "Arial",
                    "fontsize": 12.0,
                    "id": "obj-22",
                    "maxclass": "message",
                    "numinlets": 2,
                    "numoutlets": 1,
                    "outlettype": [ "" ],
                    "patching_rect": [ 260.5, 253.0, 47.0, 22.0 ],
                    "text": "toni 33"
                }
            },
            {
                "box": {
                    "fontname": "Arial",
                    "fontsize": 12.0,
                    "id": "obj-20",
                    "maxclass": "newobj",
                    "numinlets": 3,
                    "numoutlets": 1,
                    "outlettype": [ "" ],
                    "patching_rect": [ 249.0, 294.0, 42.0, 22.0 ],
                    "text": "ll.psto"
                }
            },
            {
                "box": {
                    "fontname": "Arial",
                    "fontsize": 12.0,
                    "id": "obj-14",
                    "maxclass": "newobj",
                    "numinlets": 1,
                    "numoutlets": 0,
                    "patching_rect": [ 98.0, 274.0, 34.0, 22.0 ],
                    "text": "print"
                }
            },
            {
                "box": {
                    "fontname": "Arial",
                    "fontsize": 12.0,
                    "id": "obj-16",
                    "maxclass": "message",
                    "numinlets": 2,
                    "numoutlets": 1,
                    "outlettype": [ "" ],
                    "patching_rect": [ 98.0, 208.0, 70.0, 22.0 ],
                    "text": "getclientlist"
                }
            },
            {
                "box": {
                    "fontname": "Arial",
                    "fontsize": 12.0,
                    "id": "obj-17",
                    "maxclass": "newobj",
                    "numinlets": 3,
                    "numoutlets": 1,
                    "outlettype": [ "" ],
                    "patching_rect": [ 98.0, 239.0, 42.0, 22.0 ],
                    "text": "ll.psto"
                }
            },
            {
                "box": {
                    "fontname": "Arial",
                    "fontsize": 12.0,
                    "id": "obj-12",
                    "maxclass": "newobj",
                    "numinlets": 1,
                    "numoutlets": 0,
                    "patching_rect": [ 33.0, 272.0, 34.0, 22.0 ],
                    "text": "print"
                }
            },
            {
                "box": {
                    "fontname": "Arial",
                    "fontsize": 12.0,
                    "id": "obj-10",
                    "maxclass": "message",
                    "numinlets": 2,
                    "numoutlets": 1,
                    "outlettype": [ "" ],
                    "patching_rect": [ 33.0, 206.0, 41.0, 22.0 ],
                    "text": "dump"
                }
            },
            {
                "box": {
                    "fontname": "Arial",
                    "fontsize": 12.0,
                    "id": "obj-13",
                    "maxclass": "comment",
                    "numinlets": 1,
                    "numoutlets": 0,
                    "patching_rect": [ 40.0, 26.0, 293.0, 20.0 ],
                    "text": "comunicate with pattrstorage from within subpatches."
                }
            },
            {
                "box": {
                    "fontname": "Arial",
                    "fontsize": 12.0,
                    "id": "obj-11",
                    "maxclass": "comment",
                    "numinlets": 1,
                    "numoutlets": 0,
                    "patching_rect": [ 59.0, 109.0, 30.0, 20.0 ],
                    "text": "toni"
                }
            },
            {
                "box": {
                    "fontname": "Arial",
                    "fontsize": 12.0,
                    "id": "obj-25",
                    "maxclass": "comment",
                    "numinlets": 1,
                    "numoutlets": 0,
                    "patching_rect": [ 196.0, 109.0, 34.0, 20.0 ],
                    "text": "men"
                }
            },
            {
                "box": {
                    "allowdrag": 0,
                    "fontname": "Arial",
                    "fontsize": 12.0,
                    "id": "obj-15",
                    "items": [ "a", ",", "b", ",", "c", ",", "d" ],
                    "maxclass": "umenu",
                    "numinlets": 1,
                    "numoutlets": 3,
                    "outlettype": [ "int", "", "" ],
                    "parameter_enable": 0,
                    "patching_rect": [ 163.0, 90.0, 100.0, 22.0 ],
                    "pattrmode": 1,
                    "varname": "men"
                }
            },
            {
                "box": {
                    "fontname": "Arial",
                    "fontsize": 12.0,
                    "id": "obj-28",
                    "maxclass": "comment",
                    "numinlets": 1,
                    "numoutlets": 0,
                    "patching_rect": [ 117.0, 109.0, 23.0, 20.0 ],
                    "text": "flo"
                }
            },
            {
                "box": {
                    "fontname": "Arial",
                    "fontsize": 12.0,
                    "format": 6,
                    "id": "obj-26",
                    "maxclass": "flonum",
                    "maximum": 11.1,
                    "numinlets": 1,
                    "numoutlets": 2,
                    "outlettype": [ "", "bang" ],
                    "parameter_enable": 0,
                    "patching_rect": [ 108.0, 90.0, 50.0, 22.0 ],
                    "varname": "flo"
                }
            },
            {
                "box": {
                    "fontname": "Arial",
                    "fontsize": 12.0,
                    "id": "obj-9",
                    "maxclass": "number",
                    "numinlets": 1,
                    "numoutlets": 2,
                    "outlettype": [ "", "bang" ],
                    "parameter_enable": 0,
                    "patching_rect": [ 53.0, 90.0, 50.0, 22.0 ],
                    "varname": "toni"
                }
            },
            {
                "box": {
                    "fontname": "Arial",
                    "fontsize": 12.0,
                    "id": "obj-1",
                    "maxclass": "newobj",
                    "numinlets": 3,
                    "numoutlets": 1,
                    "outlettype": [ "" ],
                    "patching_rect": [ 33.0, 237.0, 42.0, 22.0 ],
                    "text": "ll.psto"
                }
            },
            {
                "box": {
                    "args": [ "ll.psto.maxhelp", "7 0 64" ],
                    "bgmode": 0,
                    "border": 0,
                    "clickthrough": 0,
                    "enablehscroll": 0,
                    "enablevscroll": 0,
                    "id": "obj-4",
                    "lockeddragscroll": 0,
                    "lockedsize": 0,
                    "maxclass": "bpatcher",
                    "name": "act.maxpat",
                    "numinlets": 1,
                    "numoutlets": 0,
                    "offset": [ 0.0, 0.0 ],
                    "patching_rect": [ 0.0, 0.0, 105.69921875, 16.0 ],
                    "varname": "act",
                    "viewvisibility": 1
                }
            },
            {
                "box": {
                    "active": {
                        "act": 0,
                        "act::active_store": 0,
                        "act::master": 0,
                        "act::u751015509": 0,
                        "act::pres_menu": 0,
                        "act::tetris_menu": 0,
                        "act::title_menu": 0
                    },
                    "color": [ 0.4, 0.4, 0.8, 1.0 ],
                    "hidden": 1,
                    "id": "obj-5",
                    "maxclass": "newobj",
                    "numinlets": 1,
                    "numoutlets": 1,
                    "outlettype": [ "" ],
                    "patching_rect": [ 400.0, 379.0, 100.0, 22.0 ],
                    "saved_object_attributes": {
                        "client_rect": [ 499, 162, 1139, 402 ],
                        "parameter_enable": 0,
                        "parameter_mappable": 0,
                        "storage_rect": [ 0, 0, 640, 240 ]
                    },
                    "text": "pattrstorage pat",
                    "varname": "pat"
                }
            },
            {
                "box": {
                    "color": [ 0.4, 0.4, 0.8, 1.0 ],
                    "hidden": 1,
                    "id": "obj-6",
                    "maxclass": "newobj",
                    "numinlets": 1,
                    "numoutlets": 2,
                    "outlettype": [ "", "" ],
                    "patching_rect": [ 400.0, 421.0, 107.0, 22.0 ],
                    "save": [ "#N", "thispatcher", ";", "#Q", "end", ";" ],
                    "text": "thispatcher",
                    "varname": "thispatcher"
                }
            },
            {
                "box": {
                    "color": [ 0.4, 0.4, 0.8, 1.0 ],
                    "hidden": 1,
                    "id": "obj-7",
                    "maxclass": "newobj",
                    "numinlets": 1,
                    "numoutlets": 1,
                    "outlettype": [ "" ],
                    "patching_rect": [ 400.0, 442.0, 107.0, 22.0 ],
                    "text": "pattrmarker no",
                    "varname": "pattrmarker"
                }
            },
            {
                "box": {
                    "color": [ 0.4, 0.4, 0.8, 1.0 ],
                    "hidden": 1,
                    "id": "obj-8",
                    "maxclass": "newobj",
                    "numinlets": 1,
                    "numoutlets": 4,
                    "outlettype": [ "", "", "", "" ],
                    "patching_rect": [ 400.0, 463.0, 107.0, 22.0 ],
                    "restore": {
                        "flo": [ 0.43 ],
                        "men": [ "b" ],
                        "toni": [ 2 ]
                    },
                    "text": "autopattr autopattr",
                    "varname": "autopattr"
                }
            },
            {
                "box": {
                    "hidden": 1,
                    "id": "obj-18",
                    "maxclass": "newobj",
                    "numinlets": 1,
                    "numoutlets": 1,
                    "outlettype": [ "" ],
                    "patching_rect": [ 400.0, 400.0, 115.0, 22.0 ],
                    "text": "pattrforward act::in2",
                    "varname": "pf"
                }
            },
            {
                "box": {
                    "hidden": 1,
                    "id": "obj-19",
                    "maxclass": "newobj",
                    "numinlets": 0,
                    "numoutlets": 0,
                    "patcher": {
                        "fileversion": 1,
                        "appversion": {
                            "major": 9,
                            "minor": 1,
                            "revision": 1,
                            "architecture": "x64",
                            "modernui": 1
                        },
                        "classnamespace": "box",
                        "rect": [ 234.0, 134.0, 432.0, 332.0 ],
                        "boxes": [
                            {
                                "box": {
                                    "id": "obj-1",
                                    "maxclass": "newobj",
                                    "numinlets": 1,
                                    "numoutlets": 2,
                                    "outlettype": [ "", "" ],
                                    "patching_rect": [ 10.0, 20.0, 100.0, 22.0 ],
                                    "save": [ "#N", "thispatcher", ";", "#Q", "end", ";" ],
                                    "text": "thispatcher",
                                    "varname": "subTP"
                                }
                            }
                        ],
                        "lines": []
                    },
                    "patching_rect": [ 400.0, 550.0, 125.0, 22.0 ],
                    "text": "p ll.psto.maxhelp_sub",
                    "varname": "sub"
                }
            }
        ],
        "lines": [
            {
                "patchline": {
                    "destination": [ "obj-12", 0 ],
                    "source": [ "obj-1", 0 ]
                }
            },
            {
                "patchline": {
                    "destination": [ "obj-1", 0 ],
                    "source": [ "obj-10", 0 ]
                }
            },
            {
                "patchline": {
                    "destination": [ "obj-17", 0 ],
                    "source": [ "obj-16", 0 ]
                }
            },
            {
                "patchline": {
                    "destination": [ "obj-14", 0 ],
                    "source": [ "obj-17", 0 ]
                }
            },
            {
                "patchline": {
                    "destination": [ "obj-20", 1 ],
                    "source": [ "obj-22", 0 ]
                }
            },
            {
                "patchline": {
                    "destination": [ "obj-20", 1 ],
                    "source": [ "obj-32", 0 ]
                }
            },
            {
                "patchline": {
                    "destination": [ "obj-18", 0 ],
                    "hidden": 1,
                    "source": [ "obj-5", 0 ]
                }
            }
        ],
        "autosave": 0
    }
}