{
    "patcher": {
        "fileversion": 1,
        "appversion": {
            "major": 9,
            "minor": 1,
            "revision": 0,
            "architecture": "x64",
            "modernui": 1
        },
        "classnamespace": "box",
        "rect": [ 100.0, 100.0, 608.0, 372.0 ],
        "globalpatchername": "ll.psto1.maxhelp1",
        "boxes": [
            {
                "box": {
                    "fontname": "Arial",
                    "fontsize": 12.0,
                    "id": "obj-21",
                    "maxclass": "message",
                    "numinlets": 2,
                    "numoutlets": 1,
                    "outlettype": [ "" ],
                    "patching_rect": [ 73.0, 246.0, 50.0, 22.0 ],
                    "text": "toni 14"
                }
            },
            {
                "box": {
                    "fontname": "Arial",
                    "fontsize": 12.0,
                    "id": "obj-18",
                    "maxclass": "comment",
                    "numinlets": 1,
                    "numoutlets": 0,
                    "patching_rect": [ 36.0, 146.0, 317.0, 20.0 ],
                    "text": "same as ll.psto, but restricted to a single output message:"
                }
            },
            {
                "box": {
                    "fontname": "Arial",
                    "fontsize": 12.0,
                    "id": "obj-10",
                    "maxclass": "message",
                    "numinlets": 2,
                    "numoutlets": 1,
                    "outlettype": [ "" ],
                    "patching_rect": [ 64.0, 171.0, 47.0, 22.0 ],
                    "text": "gettoni"
                }
            },
            {
                "box": {
                    "fontname": "Arial",
                    "fontsize": 12.0,
                    "id": "obj-13",
                    "maxclass": "comment",
                    "numinlets": 1,
                    "numoutlets": 0,
                    "patching_rect": [ 40.0, 26.0, 293.0, 20.0 ],
                    "text": "comunicate with pattrstorage from within subpatches."
                }
            },
            {
                "box": {
                    "fontname": "Arial",
                    "fontsize": 12.0,
                    "id": "obj-11",
                    "maxclass": "comment",
                    "numinlets": 1,
                    "numoutlets": 0,
                    "patching_rect": [ 59.0, 109.0, 30.0, 20.0 ],
                    "text": "toni"
                }
            },
            {
                "box": {
                    "fontname": "Arial",
                    "fontsize": 12.0,
                    "id": "obj-25",
                    "maxclass": "comment",
                    "numinlets": 1,
                    "numoutlets": 0,
                    "patching_rect": [ 196.0, 109.0, 34.0, 20.0 ],
                    "text": "men"
                }
            },
            {
                "box": {
                    "allowdrag": 0,
                    "fontname": "Arial",
                    "fontsize": 12.0,
                    "id": "obj-15",
                    "items": [ "a", ",", "b", ",", "c", ",", "d" ],
                    "maxclass": "umenu",
                    "numinlets": 1,
                    "numoutlets": 3,
                    "outlettype": [ "int", "", "" ],
                    "parameter_enable": 0,
                    "patching_rect": [ 163.0, 90.0, 100.0, 22.0 ],
                    "pattrmode": 1,
                    "varname": "men"
                }
            },
            {
                "box": {
                    "fontname": "Arial",
                    "fontsize": 12.0,
                    "id": "obj-28",
                    "maxclass": "comment",
                    "numinlets": 1,
                    "numoutlets": 0,
                    "patching_rect": [ 117.0, 109.0, 23.0, 20.0 ],
                    "text": "flo"
                }
            },
            {
                "box": {
                    "fontname": "Arial",
                    "fontsize": 12.0,
                    "format": 6,
                    "id": "obj-26",
                    "maxclass": "flonum",
                    "maximum": 11.1,
                    "numinlets": 1,
                    "numoutlets": 2,
                    "outlettype": [ "", "bang" ],
                    "parameter_enable": 0,
                    "patching_rect": [ 108.0, 90.0, 50.0, 22.0 ],
                    "varname": "flo"
                }
            },
            {
                "box": {
                    "fontname": "Arial",
                    "fontsize": 12.0,
                    "id": "obj-9",
                    "maxclass": "number",
                    "numinlets": 1,
                    "numoutlets": 2,
                    "outlettype": [ "", "bang" ],
                    "parameter_enable": 0,
                    "patching_rect": [ 53.0, 90.0, 50.0, 22.0 ],
                    "varname": "toni"
                }
            },
            {
                "box": {
                    "fontname": "Arial",
                    "fontsize": 12.0,
                    "id": "obj-1",
                    "maxclass": "newobj",
                    "numinlets": 2,
                    "numoutlets": 1,
                    "outlettype": [ "" ],
                    "patching_rect": [ 64.0, 202.0, 49.0, 22.0 ],
                    "text": "ll.psto1"
                }
            },
            {
                "box": {
                    "active": {
                        "act": 0,
                        "act::active_store": 0,
                        "actmake::active_store": 0
                    },
                    "color": [ 0.0, 0.0, 0.0, 1.0 ],
                    "fontname": "Arial",
                    "fontsize": 12.0,
                    "hidden": 1,
                    "id": "obj-4",
                    "maxclass": "newobj",
                    "numinlets": 1,
                    "numoutlets": 1,
                    "outlettype": [ "" ],
                    "patching_rect": [ 406.0, 109.0, 100.0, 22.0 ],
                    "saved_object_attributes": {
                        "client_rect": [ 499, 162, 1139, 402 ],
                        "parameter_enable": 0,
                        "parameter_mappable": 0,
                        "storage_rect": [ 0, 0, 640, 240 ]
                    },
                    "text": "pattrstorage pat",
                    "varname": "pat"
                }
            },
            {
                "box": {
                    "color": [ 0.0, 0.0, 0.0, 1.0 ],
                    "fontname": "Arial",
                    "fontsize": 12.0,
                    "hidden": 1,
                    "id": "obj-5",
                    "maxclass": "newobj",
                    "numinlets": 1,
                    "numoutlets": 2,
                    "outlettype": [ "", "" ],
                    "patching_rect": [ 393.0, 151.0, 107.0, 22.0 ],
                    "save": [ "#N", "thispatcher", ";", "#Q", "end", ";" ],
                    "text": "thispatcher",
                    "varname": "thispatcher"
                }
            },
            {
                "box": {
                    "color": [ 0.0, 0.0, 0.0, 1.0 ],
                    "fontname": "Arial",
                    "fontsize": 12.0,
                    "hidden": 1,
                    "id": "obj-6",
                    "maxclass": "newobj",
                    "numinlets": 1,
                    "numoutlets": 1,
                    "outlettype": [ "" ],
                    "patching_rect": [ 393.0, 172.0, 107.0, 22.0 ],
                    "text": "pattrmarker no",
                    "varname": "pattrmarker"
                }
            },
            {
                "box": {
                    "color": [ 0.0, 0.0, 0.0, 1.0 ],
                    "fontname": "Arial",
                    "fontsize": 12.0,
                    "hidden": 1,
                    "id": "obj-7",
                    "maxclass": "newobj",
                    "numinlets": 1,
                    "numoutlets": 4,
                    "outlettype": [ "", "", "", "" ],
                    "patching_rect": [ 393.0, 193.0, 107.0, 22.0 ],
                    "restore": {
                        "flo": [ 0.43 ],
                        "men": [ "b" ],
                        "toni": [ 14 ]
                    },
                    "text": "autopattr autopattr",
                    "varname": "autopattr"
                }
            },
            {
                "box": {
                    "color": [ 0.4, 0.4, 0.8, 1.0 ],
                    "hidden": 1,
                    "id": "obj-2",
                    "maxclass": "newobj",
                    "numinlets": 2,
                    "numoutlets": 0,
                    "patching_rect": [ 393.0, 130.0, 144.0, 22.0 ],
                    "text": "actmake ll.psto1.maxhelp",
                    "varname": "act"
                }
            }
        ],
        "lines": [
            {
                "patchline": {
                    "destination": [ "obj-21", 1 ],
                    "source": [ "obj-1", 0 ]
                }
            },
            {
                "patchline": {
                    "destination": [ "obj-1", 0 ],
                    "source": [ "obj-10", 0 ]
                }
            },
            {
                "patchline": {
                    "destination": [ "obj-2", 1 ],
                    "hidden": 1,
                    "source": [ "obj-4", 0 ]
                }
            }
        ],
        "autosave": 0
    }
}