{
	"patcher" : 	{
		"fileversion" : 1,
		"rect" : [ 0.0, 44.0, 1140.0, 838.0 ],
		"bglocked" : 0,
		"defrect" : [ 0.0, 44.0, 1140.0, 838.0 ],
		"openrect" : [ 0.0, 0.0, 0.0, 0.0 ],
		"openinpresentation" : 0,
		"default_fontsize" : 11.595187,
		"default_fontface" : 0,
		"default_fontname" : "Arial",
		"gridonopen" : 0,
		"gridsize" : [ 15.0, 15.0 ],
		"gridsnaponopen" : 0,
		"toolbarvisible" : 1,
		"boxanimatetime" : 200,
		"imprint" : 0,
		"enablehscroll" : 1,
		"enablevscroll" : 1,
		"devicewidth" : 0.0,
		"boxes" : [ 			{
				"box" : 				{
					"maxclass" : "number",
					"patching_rect" : [ 298.0, 191.0, 25.058882, 20.0 ],
					"numoutlets" : 2,
					"triscale" : 0.9,
					"id" : "obj-124",
					"outlettype" : [ "int", "bang" ],
					"fontsize" : 11.595187,
					"numinlets" : 1,
					"fontname" : "Arial"
				}

			}
, 			{
				"box" : 				{
					"maxclass" : "message",
					"text" : "z",
					"patching_rect" : [ 657.0, 587.0, 32.5, 18.0 ],
					"numoutlets" : 1,
					"id" : "obj-239",
					"outlettype" : [ "" ],
					"fontsize" : 11.595187,
					"numinlets" : 2,
					"fontname" : "Arial"
				}

			}
, 			{
				"box" : 				{
					"maxclass" : "message",
					"text" : "a b c",
					"patching_rect" : [ 724.0, 582.0, 36.0, 18.0 ],
					"numoutlets" : 1,
					"id" : "obj-237",
					"outlettype" : [ "" ],
					"fontsize" : 11.595187,
					"numinlets" : 2,
					"fontname" : "Arial"
				}

			}
, 			{
				"box" : 				{
					"maxclass" : "comment",
					"text" : "bang if nothing is common between both input lists",
					"linecount" : 2,
					"patching_rect" : [ 693.0, 518.0, 150.0, 33.0 ],
					"numoutlets" : 0,
					"id" : "obj-114",
					"fontsize" : 11.595187,
					"numinlets" : 1,
					"fontname" : "Arial"
				}

			}
, 			{
				"box" : 				{
					"maxclass" : "button",
					"patching_rect" : [ 765.0, 498.0, 20.0, 20.0 ],
					"numoutlets" : 1,
					"id" : "obj-116",
					"outlettype" : [ "bang" ],
					"numinlets" : 1
				}

			}
, 			{
				"box" : 				{
					"maxclass" : "newobj",
					"text" : "print \"sort indexes\"",
					"patching_rect" : [ 533.0, 172.0, 107.0, 20.0 ],
					"numoutlets" : 0,
					"id" : "obj-129",
					"fontsize" : 11.595187,
					"numinlets" : 1,
					"fontname" : "Arial"
				}

			}
, 			{
				"box" : 				{
					"maxclass" : "comment",
					"text" : "desc",
					"patching_rect" : [ 612.090942, 104.454529, 37.0, 20.0 ],
					"numoutlets" : 0,
					"id" : "obj-130",
					"fontsize" : 11.595187,
					"numinlets" : 1,
					"fontname" : "Arial"
				}

			}
, 			{
				"box" : 				{
					"maxclass" : "message",
					"text" : "-1",
					"patching_rect" : [ 579.0, 107.272766, 32.5, 18.0 ],
					"numoutlets" : 1,
					"id" : "obj-131",
					"outlettype" : [ "" ],
					"fontsize" : 11.595187,
					"numinlets" : 2,
					"fontname" : "Arial"
				}

			}
, 			{
				"box" : 				{
					"maxclass" : "message",
					"text" : "0",
					"patching_rect" : [ 579.0, 86.0, 32.5, 18.0 ],
					"numoutlets" : 1,
					"id" : "obj-10",
					"outlettype" : [ "" ],
					"fontsize" : 11.595187,
					"numinlets" : 2,
					"fontname" : "Arial"
				}

			}
, 			{
				"box" : 				{
					"maxclass" : "comment",
					"text" : "asc",
					"patching_rect" : [ 612.090942, 85.272766, 31.0, 20.0 ],
					"numoutlets" : 0,
					"id" : "obj-132",
					"fontsize" : 11.595187,
					"numinlets" : 1,
					"fontname" : "Arial"
				}

			}
, 			{
				"box" : 				{
					"maxclass" : "comment",
					"text" : "pop",
					"patching_rect" : [ 859.0, 146.0, 28.0, 20.0 ],
					"numoutlets" : 0,
					"id" : "obj-133",
					"fontsize" : 11.595187,
					"numinlets" : 1,
					"fontname" : "Arial"
				}

			}
, 			{
				"box" : 				{
					"maxclass" : "message",
					"text" : "beep 1 2.3 137 bap",
					"patching_rect" : [ 466.0, 125.0, 110.0, 18.0 ],
					"numoutlets" : 1,
					"id" : "obj-134",
					"outlettype" : [ "" ],
					"fontsize" : 11.595187,
					"numinlets" : 2,
					"fontname" : "Arial"
				}

			}
, 			{
				"box" : 				{
					"maxclass" : "newobj",
					"text" : "print sorted",
					"patching_rect" : [ 464.0, 175.0, 69.0, 20.0 ],
					"numoutlets" : 0,
					"id" : "obj-135",
					"fontsize" : 11.595187,
					"numinlets" : 1,
					"fontname" : "Arial"
				}

			}
, 			{
				"box" : 				{
					"maxclass" : "button",
					"patching_rect" : [ 445.0, 125.0, 20.0, 20.0 ],
					"numoutlets" : 1,
					"id" : "obj-136",
					"outlettype" : [ "bang" ],
					"numinlets" : 1
				}

			}
, 			{
				"box" : 				{
					"maxclass" : "newobj",
					"text" : "zl sort",
					"patching_rect" : [ 464.0, 152.0, 41.0, 20.0 ],
					"numoutlets" : 2,
					"id" : "obj-151",
					"outlettype" : [ "", "" ],
					"fontsize" : 11.595187,
					"bgcolor" : [ 0.956863, 1.0, 0.552941, 1.0 ],
					"numinlets" : 2,
					"fontname" : "Arial"
				}

			}
, 			{
				"box" : 				{
					"maxclass" : "comment",
					"text" : "sort, arrange a list in alphanumeric order",
					"linecount" : 2,
					"patching_rect" : [ 449.0, 89.0, 126.0, 33.0 ],
					"numoutlets" : 0,
					"id" : "obj-152",
					"fontsize" : 11.595187,
					"numinlets" : 1,
					"fontname" : "Arial"
				}

			}
, 			{
				"box" : 				{
					"maxclass" : "message",
					"text" : "3.14",
					"patching_rect" : [ 974.0, 109.0, 33.0, 18.0 ],
					"numoutlets" : 1,
					"id" : "obj-153",
					"outlettype" : [ "" ],
					"fontsize" : 11.595187,
					"numinlets" : 2,
					"fontname" : "Arial"
				}

			}
, 			{
				"box" : 				{
					"maxclass" : "message",
					"text" : "beep",
					"patching_rect" : [ 936.0, 109.0, 36.0, 18.0 ],
					"numoutlets" : 1,
					"id" : "obj-154",
					"outlettype" : [ "" ],
					"fontsize" : 11.595187,
					"numinlets" : 2,
					"fontname" : "Arial"
				}

			}
, 			{
				"box" : 				{
					"maxclass" : "number",
					"patching_rect" : [ 895.0, 109.0, 38.0, 20.0 ],
					"numoutlets" : 2,
					"triscale" : 0.9,
					"id" : "obj-155",
					"outlettype" : [ "int", "bang" ],
					"fontsize" : 11.595187,
					"numinlets" : 1,
					"fontname" : "Arial"
				}

			}
, 			{
				"box" : 				{
					"maxclass" : "newobj",
					"text" : "print size",
					"patching_rect" : [ 953.0, 173.0, 57.0, 20.0 ],
					"numoutlets" : 0,
					"id" : "obj-156",
					"fontsize" : 11.595187,
					"numinlets" : 1,
					"fontname" : "Arial"
				}

			}
, 			{
				"box" : 				{
					"maxclass" : "newobj",
					"text" : "print pop",
					"patching_rect" : [ 895.0, 173.0, 56.0, 20.0 ],
					"numoutlets" : 0,
					"id" : "obj-159",
					"fontsize" : 11.595187,
					"numinlets" : 1,
					"fontname" : "Arial"
				}

			}
, 			{
				"box" : 				{
					"maxclass" : "button",
					"patching_rect" : [ 861.0, 109.0, 20.0, 20.0 ],
					"numoutlets" : 1,
					"id" : "obj-167",
					"outlettype" : [ "bang" ],
					"numinlets" : 1
				}

			}
, 			{
				"box" : 				{
					"maxclass" : "newobj",
					"text" : "zl stack",
					"patching_rect" : [ 895.0, 142.0, 49.0, 20.0 ],
					"numoutlets" : 2,
					"id" : "obj-170",
					"outlettype" : [ "", "" ],
					"fontsize" : 11.595187,
					"bgcolor" : [ 0.956863, 1.0, 0.552941, 1.0 ],
					"numinlets" : 2,
					"fontname" : "Arial"
				}

			}
, 			{
				"box" : 				{
					"maxclass" : "comment",
					"text" : "LIFO (Last In, First Out)",
					"patching_rect" : [ 859.0, 86.0, 148.0, 20.0 ],
					"numoutlets" : 0,
					"id" : "obj-171",
					"fontsize" : 11.595187,
					"numinlets" : 1,
					"fontname" : "Arial"
				}

			}
, 			{
				"box" : 				{
					"maxclass" : "button",
					"patching_rect" : [ 9.0, 428.0, 20.0, 20.0 ],
					"numoutlets" : 1,
					"id" : "obj-172",
					"outlettype" : [ "bang" ],
					"numinlets" : 1
				}

			}
, 			{
				"box" : 				{
					"maxclass" : "newobj",
					"text" : "print sliceb",
					"patching_rect" : [ 93.0, 486.0, 66.0, 20.0 ],
					"numoutlets" : 0,
					"id" : "obj-205",
					"fontsize" : 11.595187,
					"numinlets" : 1,
					"fontname" : "Arial"
				}

			}
, 			{
				"box" : 				{
					"maxclass" : "newobj",
					"text" : "print slicea",
					"patching_rect" : [ 32.0, 486.0, 66.0, 20.0 ],
					"numoutlets" : 0,
					"id" : "obj-206",
					"fontsize" : 11.595187,
					"numinlets" : 1,
					"fontname" : "Arial"
				}

			}
, 			{
				"box" : 				{
					"maxclass" : "number",
					"patching_rect" : [ 145.0, 428.0, 50.0, 20.0 ],
					"numoutlets" : 2,
					"id" : "obj-211",
					"outlettype" : [ "int", "bang" ],
					"fontsize" : 11.595187,
					"numinlets" : 1,
					"fontname" : "Arial"
				}

			}
, 			{
				"box" : 				{
					"maxclass" : "message",
					"text" : "1 2 3 4 5 6 7 8 9 10",
					"patching_rect" : [ 32.0, 428.0, 110.0, 18.0 ],
					"numoutlets" : 1,
					"id" : "obj-212",
					"outlettype" : [ "" ],
					"fontsize" : 11.595187,
					"numinlets" : 2,
					"fontname" : "Arial"
				}

			}
, 			{
				"box" : 				{
					"maxclass" : "newobj",
					"text" : "zl slice 1",
					"patching_rect" : [ 32.0, 457.0, 55.0, 20.0 ],
					"numoutlets" : 2,
					"id" : "obj-213",
					"outlettype" : [ "", "" ],
					"fontsize" : 11.595187,
					"bgcolor" : [ 0.956863, 1.0, 0.552941, 1.0 ],
					"numinlets" : 2,
					"fontname" : "Arial"
				}

			}
, 			{
				"box" : 				{
					"maxclass" : "comment",
					"text" : "slice, output first N out left outlet, rest out right outlet",
					"linecount" : 2,
					"patching_rect" : [ 13.0, 395.0, 174.0, 33.0 ],
					"numoutlets" : 0,
					"id" : "obj-214",
					"fontsize" : 11.595187,
					"numinlets" : 1,
					"fontname" : "Arial"
				}

			}
, 			{
				"box" : 				{
					"maxclass" : "comment",
					"text" : "scrambles the order of a list of items.",
					"patching_rect" : [ 845.0, 713.0, 198.0, 20.0 ],
					"numoutlets" : 0,
					"id" : "obj-215",
					"fontsize" : 11.595187,
					"numinlets" : 1,
					"fontname" : "Arial"
				}

			}
, 			{
				"box" : 				{
					"maxclass" : "newobj",
					"text" : "print scrambled",
					"patching_rect" : [ 884.090942, 781.0, 90.0, 20.0 ],
					"numoutlets" : 0,
					"id" : "obj-218",
					"fontsize" : 11.595187,
					"numinlets" : 1,
					"fontname" : "Arial"
				}

			}
, 			{
				"box" : 				{
					"maxclass" : "button",
					"patching_rect" : [ 864.090942, 733.0, 20.0, 20.0 ],
					"numoutlets" : 1,
					"id" : "obj-219",
					"outlettype" : [ "bang" ],
					"numinlets" : 1
				}

			}
, 			{
				"box" : 				{
					"maxclass" : "message",
					"text" : "1 2 3.4 toto titi tutu",
					"patching_rect" : [ 884.090942, 733.0, 106.0, 18.0 ],
					"numoutlets" : 1,
					"id" : "obj-220",
					"outlettype" : [ "" ],
					"fontsize" : 11.595187,
					"numinlets" : 2,
					"fontname" : "Arial"
				}

			}
, 			{
				"box" : 				{
					"maxclass" : "newobj",
					"text" : "zl scramble",
					"patching_rect" : [ 884.090942, 756.0, 69.0, 20.0 ],
					"numoutlets" : 2,
					"id" : "obj-221",
					"outlettype" : [ "", "" ],
					"fontsize" : 11.595187,
					"bgcolor" : [ 0.956863, 1.0, 0.552941, 1.0 ],
					"numinlets" : 2,
					"fontname" : "Arial"
				}

			}
, 			{
				"box" : 				{
					"maxclass" : "button",
					"patching_rect" : [ 643.0, 447.0, 20.0, 20.0 ],
					"numoutlets" : 1,
					"id" : "obj-222",
					"outlettype" : [ "bang" ],
					"numinlets" : 1
				}

			}
, 			{
				"box" : 				{
					"maxclass" : "message",
					"text" : "d d d",
					"patching_rect" : [ 665.0, 447.0, 36.0, 18.0 ],
					"numoutlets" : 1,
					"id" : "obj-223",
					"outlettype" : [ "" ],
					"fontsize" : 11.595187,
					"numinlets" : 2,
					"fontname" : "Arial"
				}

			}
, 			{
				"box" : 				{
					"maxclass" : "message",
					"text" : "b c f",
					"patching_rect" : [ 765.0, 447.0, 32.5, 18.0 ],
					"numoutlets" : 1,
					"id" : "obj-224",
					"outlettype" : [ "" ],
					"fontsize" : 11.595187,
					"numinlets" : 2,
					"fontname" : "Arial"
				}

			}
, 			{
				"box" : 				{
					"maxclass" : "newobj",
					"text" : "print sect",
					"patching_rect" : [ 703.0, 498.0, 58.0, 20.0 ],
					"numoutlets" : 0,
					"id" : "obj-225",
					"fontsize" : 11.595187,
					"numinlets" : 1,
					"fontname" : "Arial"
				}

			}
, 			{
				"box" : 				{
					"maxclass" : "message",
					"text" : "d e f",
					"patching_rect" : [ 798.0, 447.0, 33.0, 18.0 ],
					"numoutlets" : 1,
					"id" : "obj-226",
					"outlettype" : [ "" ],
					"fontsize" : 11.595187,
					"numinlets" : 2,
					"fontname" : "Arial"
				}

			}
, 			{
				"box" : 				{
					"maxclass" : "message",
					"text" : "a b c",
					"patching_rect" : [ 703.0, 447.0, 36.0, 18.0 ],
					"numoutlets" : 1,
					"id" : "obj-227",
					"outlettype" : [ "" ],
					"fontsize" : 11.595187,
					"numinlets" : 2,
					"fontname" : "Arial"
				}

			}
, 			{
				"box" : 				{
					"maxclass" : "newobj",
					"text" : "zl sect",
					"patching_rect" : [ 703.0, 474.0, 81.0, 20.0 ],
					"numoutlets" : 2,
					"id" : "obj-228",
					"outlettype" : [ "", "" ],
					"fontsize" : 11.595187,
					"bgcolor" : [ 0.956863, 1.0, 0.552941, 1.0 ],
					"numinlets" : 2,
					"fontname" : "Arial"
				}

			}
, 			{
				"box" : 				{
					"maxclass" : "button",
					"patching_rect" : [ 452.0, 519.0, 20.0, 20.0 ],
					"numoutlets" : 1,
					"id" : "obj-229",
					"outlettype" : [ "bang" ],
					"numinlets" : 1
				}

			}
, 			{
				"box" : 				{
					"maxclass" : "number",
					"patching_rect" : [ 522.0, 519.0, 50.0, 20.0 ],
					"numoutlets" : 2,
					"id" : "obj-230",
					"outlettype" : [ "int", "bang" ],
					"fontsize" : 11.595187,
					"numinlets" : 1,
					"fontname" : "Arial"
				}

			}
, 			{
				"box" : 				{
					"maxclass" : "message",
					"text" : "2 3 4 5",
					"patching_rect" : [ 473.0, 519.0, 46.0, 18.0 ],
					"numoutlets" : 1,
					"id" : "obj-231",
					"outlettype" : [ "" ],
					"fontsize" : 11.595187,
					"numinlets" : 2,
					"fontname" : "Arial"
				}

			}
, 			{
				"box" : 				{
					"maxclass" : "newobj",
					"text" : "print rot",
					"patching_rect" : [ 473.0, 567.0, 50.0, 20.0 ],
					"numoutlets" : 0,
					"id" : "obj-232",
					"fontsize" : 11.595187,
					"numinlets" : 1,
					"fontname" : "Arial"
				}

			}
, 			{
				"box" : 				{
					"maxclass" : "newobj",
					"text" : "zl rot 3",
					"patching_rect" : [ 473.0, 542.0, 68.0, 20.0 ],
					"numoutlets" : 2,
					"id" : "obj-233",
					"outlettype" : [ "", "" ],
					"fontsize" : 11.595187,
					"bgcolor" : [ 0.956863, 1.0, 0.552941, 1.0 ],
					"numinlets" : 2,
					"fontname" : "Arial"
				}

			}
, 			{
				"box" : 				{
					"maxclass" : "comment",
					"text" : "rotate, rotate a list by N places (N can be negative)",
					"linecount" : 2,
					"patching_rect" : [ 446.0, 485.0, 146.0, 33.0 ],
					"numoutlets" : 0,
					"id" : "obj-234",
					"fontsize" : 11.595187,
					"numinlets" : 1,
					"fontname" : "Arial"
				}

			}
, 			{
				"box" : 				{
					"maxclass" : "comment",
					"text" : "what's in common in two lists",
					"patching_rect" : [ 647.0, 425.0, 185.0, 20.0 ],
					"numoutlets" : 0,
					"id" : "obj-235",
					"fontsize" : 11.595187,
					"numinlets" : 1,
					"fontname" : "Arial"
				}

			}
, 			{
				"box" : 				{
					"maxclass" : "message",
					"text" : "5",
					"patching_rect" : [ 712.0, 135.0, 22.5, 18.0 ],
					"numoutlets" : 1,
					"id" : "obj-61",
					"outlettype" : [ "" ],
					"fontsize" : 11.595187,
					"numinlets" : 2,
					"fontname" : "Arial"
				}

			}
, 			{
				"box" : 				{
					"maxclass" : "comment",
					"text" : "sum, return the sum of a list of numbers",
					"patching_rect" : [ 415.0, 589.0, 213.0, 20.0 ],
					"numoutlets" : 0,
					"id" : "obj-217",
					"fontsize" : 11.595187,
					"numinlets" : 1,
					"fontname" : "Arial"
				}

			}
, 			{
				"box" : 				{
					"maxclass" : "comment",
					"text" : "stream, make a list with the last N items",
					"patching_rect" : [ 861.0, 322.0, 213.0, 20.0 ],
					"numoutlets" : 0,
					"id" : "obj-149",
					"fontsize" : 11.595187,
					"numinlets" : 1,
					"fontname" : "Arial"
				}

			}
, 			{
				"box" : 				{
					"maxclass" : "message",
					"text" : "6 1 3",
					"patching_rect" : [ 546.0, 611.727234, 36.0, 18.0 ],
					"numoutlets" : 1,
					"id" : "obj-157",
					"outlettype" : [ "" ],
					"fontsize" : 11.595187,
					"numinlets" : 2,
					"fontname" : "Arial"
				}

			}
, 			{
				"box" : 				{
					"maxclass" : "flonum",
					"patching_rect" : [ 438.0, 660.727234, 50.0, 20.0 ],
					"numoutlets" : 2,
					"id" : "obj-158",
					"outlettype" : [ "float", "bang" ],
					"fontsize" : 11.595187,
					"numinlets" : 1,
					"fontname" : "Arial"
				}

			}
, 			{
				"box" : 				{
					"maxclass" : "toggle",
					"patching_rect" : [ 1045.0, 406.545471, 20.0, 20.0 ],
					"numoutlets" : 1,
					"id" : "obj-160",
					"outlettype" : [ "int" ],
					"numinlets" : 1
				}

			}
, 			{
				"box" : 				{
					"maxclass" : "message",
					"text" : "4 5 6 7 8",
					"patching_rect" : [ 864.272766, 406.545471, 86.0, 18.0 ],
					"numoutlets" : 1,
					"id" : "obj-161",
					"outlettype" : [ "" ],
					"fontsize" : 11.595187,
					"numinlets" : 2,
					"fontname" : "Arial"
				}

			}
, 			{
				"box" : 				{
					"maxclass" : "newobj",
					"text" : "zl stream -5",
					"patching_rect" : [ 864.272766, 375.909058, 69.0, 20.0 ],
					"numoutlets" : 2,
					"id" : "obj-162",
					"outlettype" : [ "", "" ],
					"fontsize" : 11.595187,
					"bgcolor" : [ 0.956863, 1.0, 0.552941, 1.0 ],
					"numinlets" : 2,
					"fontname" : "Arial"
				}

			}
, 			{
				"box" : 				{
					"maxclass" : "comment",
					"text" : "those items in the left input that are not contained in the right input",
					"linecount" : 2,
					"patching_rect" : [ 648.0, 673.0, 187.0, 33.0 ],
					"numoutlets" : 0,
					"id" : "obj-166",
					"fontsize" : 11.595187,
					"numinlets" : 1,
					"fontname" : "Arial"
				}

			}
, 			{
				"box" : 				{
					"maxclass" : "newobj",
					"text" : "print unique",
					"patching_rect" : [ 670.0, 780.0, 71.0, 20.0 ],
					"numoutlets" : 0,
					"id" : "obj-168",
					"fontsize" : 11.595187,
					"numinlets" : 1,
					"fontname" : "Arial"
				}

			}
, 			{
				"box" : 				{
					"maxclass" : "newobj",
					"text" : "print thin",
					"patching_rect" : [ 892.0, 507.090942, 55.0, 20.0 ],
					"numoutlets" : 0,
					"id" : "obj-169",
					"fontsize" : 11.595187,
					"numinlets" : 1,
					"fontname" : "Arial"
				}

			}
, 			{
				"box" : 				{
					"maxclass" : "comment",
					"text" : "Thin, remove all the duplicates from an input list",
					"linecount" : 2,
					"patching_rect" : [ 870.0, 431.0, 149.0, 33.0 ],
					"numoutlets" : 0,
					"id" : "obj-174",
					"fontsize" : 11.595187,
					"numinlets" : 1,
					"fontname" : "Arial"
				}

			}
, 			{
				"box" : 				{
					"maxclass" : "message",
					"text" : "zlclear",
					"patching_rect" : [ 863.909058, 346.438049, 42.0, 18.0 ],
					"numoutlets" : 1,
					"id" : "obj-179",
					"outlettype" : [ "" ],
					"fontsize" : 11.595187,
					"numinlets" : 2,
					"fontname" : "Arial"
				}

			}
, 			{
				"box" : 				{
					"maxclass" : "message",
					"text" : "tata titi",
					"patching_rect" : [ 738.0, 708.0, 45.0, 18.0 ],
					"numoutlets" : 1,
					"id" : "obj-180",
					"outlettype" : [ "" ],
					"fontsize" : 11.595187,
					"numinlets" : 2,
					"fontname" : "Arial"
				}

			}
, 			{
				"box" : 				{
					"maxclass" : "message",
					"text" : "4 7 9 1",
					"patching_rect" : [ 752.0, 730.0, 46.0, 18.0 ],
					"numoutlets" : 1,
					"id" : "obj-181",
					"outlettype" : [ "" ],
					"fontsize" : 11.595187,
					"numinlets" : 2,
					"fontname" : "Arial"
				}

			}
, 			{
				"box" : 				{
					"maxclass" : "message",
					"text" : "1 3 5 9",
					"patching_rect" : [ 684.0, 730.0, 46.0, 18.0 ],
					"numoutlets" : 1,
					"id" : "obj-182",
					"outlettype" : [ "" ],
					"fontsize" : 11.595187,
					"numinlets" : 2,
					"fontname" : "Arial"
				}

			}
, 			{
				"box" : 				{
					"maxclass" : "message",
					"text" : "toto titi tutu",
					"patching_rect" : [ 670.0, 708.0, 67.0, 18.0 ],
					"numoutlets" : 1,
					"id" : "obj-183",
					"outlettype" : [ "" ],
					"fontsize" : 11.595187,
					"numinlets" : 2,
					"fontname" : "Arial"
				}

			}
, 			{
				"box" : 				{
					"maxclass" : "newobj",
					"text" : "zl unique",
					"patching_rect" : [ 670.0, 755.0, 88.0, 20.0 ],
					"numoutlets" : 2,
					"id" : "obj-184",
					"outlettype" : [ "", "" ],
					"fontsize" : 11.595187,
					"bgcolor" : [ 0.956863, 1.0, 0.552941, 1.0 ],
					"numinlets" : 2,
					"fontname" : "Arial"
				}

			}
, 			{
				"box" : 				{
					"maxclass" : "message",
					"text" : "8 7 6 5 4",
					"patching_rect" : [ 953.363647, 406.545471, 88.0, 18.0 ],
					"numoutlets" : 1,
					"id" : "obj-189",
					"outlettype" : [ "" ],
					"fontsize" : 11.595187,
					"numinlets" : 2,
					"fontname" : "Arial"
				}

			}
, 			{
				"box" : 				{
					"maxclass" : "newobj",
					"text" : "zl stream 5",
					"patching_rect" : [ 953.363647, 375.0, 111.0, 20.0 ],
					"numoutlets" : 2,
					"id" : "obj-190",
					"outlettype" : [ "", "" ],
					"fontsize" : 11.595187,
					"bgcolor" : [ 0.956863, 1.0, 0.552941, 1.0 ],
					"numinlets" : 2,
					"fontname" : "Arial"
				}

			}
, 			{
				"box" : 				{
					"maxclass" : "newobj",
					"text" : "zl sum",
					"patching_rect" : [ 438.0, 636.727234, 44.0, 20.0 ],
					"numoutlets" : 2,
					"id" : "obj-200",
					"outlettype" : [ "", "" ],
					"fontsize" : 11.595187,
					"bgcolor" : [ 0.956863, 1.0, 0.552941, 1.0 ],
					"numinlets" : 2,
					"fontname" : "Arial"
				}

			}
, 			{
				"box" : 				{
					"maxclass" : "number",
					"patching_rect" : [ 952.636292, 346.438049, 50.0, 20.0 ],
					"numoutlets" : 2,
					"id" : "obj-201",
					"outlettype" : [ "int", "bang" ],
					"fontsize" : 11.595187,
					"numinlets" : 1,
					"fontname" : "Arial"
				}

			}
, 			{
				"box" : 				{
					"maxclass" : "message",
					"text" : "1 2 2 5.5 7 5 7 7 7",
					"patching_rect" : [ 438.0, 611.727234, 104.0, 18.0 ],
					"numoutlets" : 1,
					"id" : "obj-202",
					"outlettype" : [ "" ],
					"fontsize" : 11.595187,
					"numinlets" : 2,
					"fontname" : "Arial"
				}

			}
, 			{
				"box" : 				{
					"maxclass" : "message",
					"text" : "a b e c e b b",
					"patching_rect" : [ 892.0, 464.0, 74.0, 18.0 ],
					"numoutlets" : 1,
					"id" : "obj-203",
					"outlettype" : [ "" ],
					"fontsize" : 11.595187,
					"numinlets" : 2,
					"fontname" : "Arial"
				}

			}
, 			{
				"box" : 				{
					"maxclass" : "newobj",
					"text" : "zl thin",
					"patching_rect" : [ 892.0, 483.636353, 41.0, 20.0 ],
					"numoutlets" : 2,
					"id" : "obj-204",
					"outlettype" : [ "", "" ],
					"fontsize" : 11.595187,
					"bgcolor" : [ 0.956863, 1.0, 0.552941, 1.0 ],
					"numinlets" : 2,
					"fontname" : "Arial"
				}

			}
, 			{
				"box" : 				{
					"maxclass" : "newobj",
					"text" : "print found",
					"patching_rect" : [ 756.0, 189.0, 65.0, 20.0 ],
					"numoutlets" : 0,
					"id" : "obj-62",
					"fontsize" : 11.595187,
					"numinlets" : 1,
					"fontname" : "Arial"
				}

			}
, 			{
				"box" : 				{
					"maxclass" : "comment",
					"text" : "position for each occurance of right list in left",
					"linecount" : 2,
					"patching_rect" : [ 672.0, 77.0, 157.0, 33.0 ],
					"numoutlets" : 0,
					"id" : "obj-63",
					"fontsize" : 11.595187,
					"numinlets" : 1,
					"fontname" : "Arial"
				}

			}
, 			{
				"box" : 				{
					"maxclass" : "message",
					"text" : "11",
					"patching_rect" : [ 738.0, 135.0, 22.5, 18.0 ],
					"numoutlets" : 1,
					"id" : "obj-64",
					"outlettype" : [ "" ],
					"fontsize" : 11.595187,
					"numinlets" : 2,
					"fontname" : "Arial"
				}

			}
, 			{
				"box" : 				{
					"maxclass" : "message",
					"text" : "7 8 9",
					"patching_rect" : [ 764.0, 135.0, 36.0, 18.0 ],
					"numoutlets" : 1,
					"id" : "obj-65",
					"outlettype" : [ "" ],
					"fontsize" : 11.595187,
					"numinlets" : 2,
					"fontname" : "Arial"
				}

			}
, 			{
				"box" : 				{
					"maxclass" : "button",
					"patching_rect" : [ 666.0, 113.0, 20.0, 20.0 ],
					"numoutlets" : 1,
					"id" : "obj-66",
					"outlettype" : [ "bang" ],
					"numinlets" : 1
				}

			}
, 			{
				"box" : 				{
					"maxclass" : "newobj",
					"text" : "print offset",
					"patching_rect" : [ 688.0, 188.0, 65.0, 20.0 ],
					"numoutlets" : 0,
					"id" : "obj-67",
					"fontsize" : 11.595187,
					"numinlets" : 1,
					"fontname" : "Arial"
				}

			}
, 			{
				"box" : 				{
					"maxclass" : "message",
					"text" : "1 2 3 4 5 6 7 8 9 5 5 5",
					"patching_rect" : [ 688.0, 113.0, 123.0, 18.0 ],
					"numoutlets" : 1,
					"id" : "obj-69",
					"outlettype" : [ "" ],
					"fontsize" : 11.595187,
					"numinlets" : 2,
					"fontname" : "Arial"
				}

			}
, 			{
				"box" : 				{
					"maxclass" : "newobj",
					"text" : "zl sub",
					"patching_rect" : [ 688.0, 161.0, 43.0, 20.0 ],
					"numoutlets" : 2,
					"id" : "obj-70",
					"outlettype" : [ "", "" ],
					"fontsize" : 11.595187,
					"bgcolor" : [ 0.956863, 1.0, 0.552941, 1.0 ],
					"numinlets" : 2,
					"fontname" : "Arial"
				}

			}
, 			{
				"box" : 				{
					"maxclass" : "button",
					"patching_rect" : [ 632.0, 606.0, 20.0, 20.0 ],
					"numoutlets" : 1,
					"id" : "obj-71",
					"outlettype" : [ "bang" ],
					"numinlets" : 1
				}

			}
, 			{
				"box" : 				{
					"maxclass" : "newobj",
					"text" : "print union",
					"patching_rect" : [ 654.0, 652.0, 65.0, 20.0 ],
					"numoutlets" : 0,
					"id" : "obj-72",
					"fontsize" : 11.595187,
					"numinlets" : 1,
					"fontname" : "Arial"
				}

			}
, 			{
				"box" : 				{
					"maxclass" : "message",
					"text" : "6.5 4 2.3 2 2 8",
					"patching_rect" : [ 718.0, 607.0, 85.0, 18.0 ],
					"numoutlets" : 1,
					"id" : "obj-73",
					"outlettype" : [ "" ],
					"fontsize" : 11.595187,
					"numinlets" : 2,
					"fontname" : "Arial"
				}

			}
, 			{
				"box" : 				{
					"maxclass" : "message",
					"text" : "2.3 7 6.5",
					"patching_rect" : [ 654.0, 607.0, 56.0, 18.0 ],
					"numoutlets" : 1,
					"id" : "obj-112",
					"outlettype" : [ "" ],
					"fontsize" : 11.595187,
					"numinlets" : 2,
					"fontname" : "Arial"
				}

			}
, 			{
				"box" : 				{
					"maxclass" : "newobj",
					"text" : "zl union",
					"patching_rect" : [ 654.0, 630.0, 83.0, 20.0 ],
					"numoutlets" : 2,
					"id" : "obj-113",
					"outlettype" : [ "", "" ],
					"fontsize" : 11.595187,
					"bgcolor" : [ 0.956863, 1.0, 0.552941, 1.0 ],
					"numinlets" : 2,
					"fontname" : "Arial"
				}

			}
, 			{
				"box" : 				{
					"maxclass" : "comment",
					"text" : "union, the stuff in two lists, does not duplicate things in list 2 that are in list 1",
					"linecount" : 2,
					"patching_rect" : [ 639.0, 550.0, 210.0, 33.0 ],
					"numoutlets" : 0,
					"id" : "obj-115",
					"fontsize" : 11.595187,
					"numinlets" : 1,
					"fontname" : "Arial"
				}

			}
, 			{
				"box" : 				{
					"maxclass" : "comment",
					"text" : "remove items in a list",
					"patching_rect" : [ 673.0, 212.0, 148.0, 20.0 ],
					"numoutlets" : 0,
					"id" : "obj-4",
					"fontsize" : 11.595187,
					"numinlets" : 1,
					"fontname" : "Arial"
				}

			}
, 			{
				"box" : 				{
					"maxclass" : "newobj",
					"text" : "print \"filter index\"",
					"patching_rect" : [ 736.0, 312.0, 97.0, 20.0 ],
					"numoutlets" : 0,
					"id" : "obj-36",
					"fontsize" : 11.595187,
					"numinlets" : 1,
					"fontname" : "Arial"
				}

			}
, 			{
				"box" : 				{
					"maxclass" : "newobj",
					"text" : "print filter",
					"patching_rect" : [ 664.0, 312.0, 58.0, 20.0 ],
					"numoutlets" : 0,
					"id" : "obj-35",
					"fontsize" : 11.595187,
					"numinlets" : 1,
					"fontname" : "Arial"
				}

			}
, 			{
				"box" : 				{
					"maxclass" : "button",
					"patching_rect" : [ 640.0, 237.0, 20.0, 20.0 ],
					"numoutlets" : 1,
					"id" : "obj-11",
					"outlettype" : [ "bang" ],
					"numinlets" : 1
				}

			}
, 			{
				"box" : 				{
					"maxclass" : "message",
					"text" : "toto titi",
					"patching_rect" : [ 783.0, 233.0, 45.0, 18.0 ],
					"numoutlets" : 1,
					"id" : "obj-22",
					"outlettype" : [ "" ],
					"fontsize" : 11.595187,
					"numinlets" : 2,
					"fontname" : "Arial"
				}

			}
, 			{
				"box" : 				{
					"maxclass" : "message",
					"text" : "truc 1",
					"patching_rect" : [ 807.0, 260.0, 40.0, 18.0 ],
					"numoutlets" : 1,
					"id" : "obj-24",
					"outlettype" : [ "" ],
					"fontsize" : 11.595187,
					"numinlets" : 2,
					"fontname" : "Arial"
				}

			}
, 			{
				"box" : 				{
					"maxclass" : "message",
					"text" : "truc machin 2 3.4 1",
					"patching_rect" : [ 664.0, 233.0, 109.0, 18.0 ],
					"numoutlets" : 1,
					"id" : "obj-27",
					"outlettype" : [ "" ],
					"fontsize" : 11.595187,
					"numinlets" : 2,
					"fontname" : "Arial"
				}

			}
, 			{
				"box" : 				{
					"maxclass" : "message",
					"text" : "a b toto c titi 1 toto",
					"patching_rect" : [ 680.0, 260.0, 105.0, 18.0 ],
					"numoutlets" : 1,
					"id" : "obj-28",
					"outlettype" : [ "" ],
					"fontsize" : 11.595187,
					"numinlets" : 2,
					"fontname" : "Arial"
				}

			}
, 			{
				"box" : 				{
					"maxclass" : "newobj",
					"text" : "zl filter toto titi",
					"patching_rect" : [ 664.0, 284.0, 138.0, 20.0 ],
					"numoutlets" : 2,
					"id" : "obj-33",
					"outlettype" : [ "", "" ],
					"fontsize" : 11.595187,
					"bgcolor" : [ 0.956863, 1.0, 0.552941, 1.0 ],
					"numinlets" : 2,
					"fontname" : "Arial"
				}

			}
, 			{
				"box" : 				{
					"maxclass" : "button",
					"patching_rect" : [ 10.0, 228.0, 20.0, 20.0 ],
					"numoutlets" : 1,
					"id" : "obj-48",
					"outlettype" : [ "bang" ],
					"numinlets" : 1
				}

			}
, 			{
				"box" : 				{
					"maxclass" : "message",
					"text" : "3 4 5",
					"patching_rect" : [ 30.0, 228.0, 36.0, 18.0 ],
					"numoutlets" : 1,
					"id" : "obj-95",
					"outlettype" : [ "" ],
					"fontsize" : 11.595187,
					"numinlets" : 2,
					"fontname" : "Arial"
				}

			}
, 			{
				"box" : 				{
					"maxclass" : "message",
					"text" : "bob joe frank",
					"patching_rect" : [ 115.0, 228.0, 78.0, 18.0 ],
					"numoutlets" : 1,
					"id" : "obj-96",
					"outlettype" : [ "" ],
					"fontsize" : 11.595187,
					"numinlets" : 2,
					"fontname" : "Arial"
				}

			}
, 			{
				"box" : 				{
					"maxclass" : "message",
					"text" : "1 2 3 4",
					"patching_rect" : [ 67.0, 228.0, 46.0, 18.0 ],
					"numoutlets" : 1,
					"id" : "obj-97",
					"outlettype" : [ "" ],
					"fontsize" : 11.595187,
					"numinlets" : 2,
					"fontname" : "Arial"
				}

			}
, 			{
				"box" : 				{
					"maxclass" : "newobj",
					"text" : "zl join",
					"patching_rect" : [ 67.0, 257.0, 67.0, 20.0 ],
					"numoutlets" : 2,
					"id" : "obj-98",
					"outlettype" : [ "", "" ],
					"fontsize" : 11.595187,
					"bgcolor" : [ 0.956863, 1.0, 0.552941, 1.0 ],
					"numinlets" : 2,
					"fontname" : "Arial"
				}

			}
, 			{
				"box" : 				{
					"maxclass" : "newobj",
					"text" : "print join",
					"patching_rect" : [ 67.0, 282.0, 54.0, 20.0 ],
					"numoutlets" : 0,
					"id" : "obj-103",
					"fontsize" : 11.595187,
					"numinlets" : 1,
					"fontname" : "Arial"
				}

			}
, 			{
				"box" : 				{
					"maxclass" : "comment",
					"text" : "join, combine two lists",
					"patching_rect" : [ 19.0, 205.0, 121.0, 20.0 ],
					"numoutlets" : 0,
					"id" : "obj-107",
					"fontsize" : 11.595187,
					"numinlets" : 1,
					"fontname" : "Arial"
				}

			}
, 			{
				"box" : 				{
					"maxclass" : "comment",
					"text" : "lace, interleave two lists",
					"patching_rect" : [ 868.0, 531.090942, 131.0, 20.0 ],
					"numoutlets" : 0,
					"id" : "obj-148",
					"fontsize" : 11.595187,
					"numinlets" : 1,
					"fontname" : "Arial"
				}

			}
, 			{
				"box" : 				{
					"maxclass" : "newobj",
					"text" : "print lace",
					"patching_rect" : [ 867.0, 604.090942, 56.0, 20.0 ],
					"numoutlets" : 0,
					"id" : "obj-164",
					"fontsize" : 11.595187,
					"numinlets" : 1,
					"fontname" : "Arial"
				}

			}
, 			{
				"box" : 				{
					"maxclass" : "newobj",
					"text" : "print lookup",
					"patching_rect" : [ 657.0, 405.818176, 68.0, 20.0 ],
					"numoutlets" : 0,
					"id" : "obj-165",
					"fontsize" : 11.595187,
					"numinlets" : 1,
					"fontname" : "Arial"
				}

			}
, 			{
				"box" : 				{
					"maxclass" : "comment",
					"text" : "nth element(s) of the right list",
					"patching_rect" : [ 638.0, 336.090942, 223.0, 20.0 ],
					"numoutlets" : 0,
					"id" : "obj-173",
					"fontsize" : 11.595187,
					"numinlets" : 1,
					"fontname" : "Arial"
				}

			}
, 			{
				"box" : 				{
					"maxclass" : "message",
					"text" : "a b 1 4",
					"patching_rect" : [ 752.0, 353.818176, 44.0, 18.0 ],
					"numoutlets" : 1,
					"id" : "obj-175",
					"outlettype" : [ "" ],
					"fontsize" : 11.595187,
					"numinlets" : 2,
					"fontname" : "Arial"
				}

			}
, 			{
				"box" : 				{
					"maxclass" : "message",
					"text" : "0 2",
					"patching_rect" : [ 696.0, 353.818176, 25.0, 18.0 ],
					"numoutlets" : 1,
					"id" : "obj-176",
					"outlettype" : [ "" ],
					"fontsize" : 11.595187,
					"numinlets" : 2,
					"fontname" : "Arial"
				}

			}
, 			{
				"box" : 				{
					"maxclass" : "number",
					"patching_rect" : [ 657.0, 353.818176, 35.0, 20.0 ],
					"numoutlets" : 2,
					"htextcolor" : [ 0.870588, 0.870588, 0.870588, 1.0 ],
					"triscale" : 0.9,
					"id" : "obj-177",
					"outlettype" : [ "int", "bang" ],
					"fontsize" : 11.595187,
					"numinlets" : 1,
					"fontname" : "Arial"
				}

			}
, 			{
				"box" : 				{
					"maxclass" : "newobj",
					"text" : "zl lookup toto titi tutu",
					"patching_rect" : [ 657.0, 380.818176, 114.0, 20.0 ],
					"numoutlets" : 2,
					"id" : "obj-178",
					"outlettype" : [ "", "" ],
					"fontsize" : 11.595187,
					"bgcolor" : [ 0.956863, 1.0, 0.552941, 1.0 ],
					"numinlets" : 2,
					"fontname" : "Arial"
				}

			}
, 			{
				"box" : 				{
					"maxclass" : "message",
					"text" : "a b e c e",
					"patching_rect" : [ 867.0, 554.090942, 53.0, 18.0 ],
					"numoutlets" : 1,
					"id" : "obj-185",
					"outlettype" : [ "" ],
					"fontsize" : 11.595187,
					"numinlets" : 2,
					"fontname" : "Arial"
				}

			}
, 			{
				"box" : 				{
					"maxclass" : "message",
					"text" : "1 2 2 5.5 7 5 7 7 7",
					"patching_rect" : [ 923.0, 555.090942, 102.0, 18.0 ],
					"numoutlets" : 1,
					"id" : "obj-186",
					"outlettype" : [ "" ],
					"fontsize" : 11.595187,
					"numinlets" : 2,
					"fontname" : "Arial"
				}

			}
, 			{
				"box" : 				{
					"maxclass" : "newobj",
					"text" : "zl lace",
					"patching_rect" : [ 867.0, 578.090942, 75.0, 20.0 ],
					"numoutlets" : 2,
					"id" : "obj-199",
					"outlettype" : [ "", "" ],
					"fontsize" : 11.595187,
					"bgcolor" : [ 0.956863, 1.0, 0.552941, 1.0 ],
					"numinlets" : 2,
					"fontname" : "Arial"
				}

			}
, 			{
				"box" : 				{
					"maxclass" : "button",
					"patching_rect" : [ 21.0, 329.090942, 20.0, 20.0 ],
					"numoutlets" : 1,
					"id" : "obj-29",
					"outlettype" : [ "bang" ],
					"numinlets" : 1
				}

			}
, 			{
				"box" : 				{
					"maxclass" : "message",
					"text" : "had enough",
					"patching_rect" : [ 120.0, 329.090942, 70.0, 18.0 ],
					"numoutlets" : 1,
					"id" : "obj-87",
					"outlettype" : [ "" ],
					"fontsize" : 11.595187,
					"numinlets" : 2,
					"fontname" : "Arial"
				}

			}
, 			{
				"box" : 				{
					"maxclass" : "message",
					"text" : "3 4 5",
					"patching_rect" : [ 44.0, 329.090942, 34.0, 18.0 ],
					"numoutlets" : 1,
					"id" : "obj-88",
					"outlettype" : [ "" ],
					"fontsize" : 11.595187,
					"numinlets" : 2,
					"fontname" : "Arial"
				}

			}
, 			{
				"box" : 				{
					"maxclass" : "number",
					"patching_rect" : [ 81.0, 329.090942, 35.0, 20.0 ],
					"numoutlets" : 2,
					"triscale" : 0.9,
					"id" : "obj-89",
					"outlettype" : [ "int", "bang" ],
					"fontsize" : 11.595187,
					"numinlets" : 1,
					"fontname" : "Arial"
				}

			}
, 			{
				"box" : 				{
					"maxclass" : "number",
					"patching_rect" : [ 81.0, 380.090942, 35.0, 20.0 ],
					"numoutlets" : 2,
					"triscale" : 0.9,
					"id" : "obj-90",
					"outlettype" : [ "int", "bang" ],
					"fontsize" : 11.595187,
					"numinlets" : 1,
					"fontname" : "Arial"
				}

			}
, 			{
				"box" : 				{
					"maxclass" : "newobj",
					"text" : "zl len",
					"patching_rect" : [ 81.0, 356.090942, 38.0, 20.0 ],
					"numoutlets" : 2,
					"id" : "obj-91",
					"outlettype" : [ "", "" ],
					"fontsize" : 11.595187,
					"bgcolor" : [ 0.956863, 1.0, 0.552941, 1.0 ],
					"numinlets" : 2,
					"fontname" : "Arial"
				}

			}
, 			{
				"box" : 				{
					"maxclass" : "comment",
					"text" : "len, how long is a list?",
					"patching_rect" : [ 25.0, 308.090942, 130.0, 20.0 ],
					"numoutlets" : 0,
					"id" : "obj-109",
					"fontsize" : 11.595187,
					"numinlets" : 1,
					"fontname" : "Arial"
				}

			}
, 			{
				"box" : 				{
					"maxclass" : "message",
					"text" : "3.14",
					"patching_rect" : [ 974.0, 227.0, 31.0, 18.0 ],
					"numoutlets" : 1,
					"id" : "obj-30",
					"outlettype" : [ "" ],
					"fontsize" : 11.595187,
					"numinlets" : 2,
					"fontname" : "Arial"
				}

			}
, 			{
				"box" : 				{
					"maxclass" : "message",
					"text" : "beep",
					"patching_rect" : [ 937.0, 227.0, 34.0, 18.0 ],
					"numoutlets" : 1,
					"id" : "obj-31",
					"outlettype" : [ "" ],
					"fontsize" : 11.595187,
					"numinlets" : 2,
					"fontname" : "Arial"
				}

			}
, 			{
				"box" : 				{
					"maxclass" : "number",
					"patching_rect" : [ 897.0, 227.0, 38.0, 20.0 ],
					"numoutlets" : 2,
					"triscale" : 0.9,
					"id" : "obj-123",
					"outlettype" : [ "int", "bang" ],
					"fontsize" : 11.595187,
					"numinlets" : 1,
					"fontname" : "Arial"
				}

			}
, 			{
				"box" : 				{
					"maxclass" : "newobj",
					"text" : "print size",
					"patching_rect" : [ 957.0, 291.0, 55.0, 20.0 ],
					"numoutlets" : 0,
					"id" : "obj-32",
					"fontsize" : 11.595187,
					"numinlets" : 1,
					"fontname" : "Arial"
				}

			}
, 			{
				"box" : 				{
					"maxclass" : "newobj",
					"text" : "print next",
					"patching_rect" : [ 897.0, 291.0, 56.0, 20.0 ],
					"numoutlets" : 0,
					"id" : "obj-37",
					"fontsize" : 11.595187,
					"numinlets" : 1,
					"fontname" : "Arial"
				}

			}
, 			{
				"box" : 				{
					"maxclass" : "button",
					"patching_rect" : [ 874.0, 227.0, 20.0, 20.0 ],
					"numoutlets" : 1,
					"id" : "obj-126",
					"outlettype" : [ "bang" ],
					"numinlets" : 1
				}

			}
, 			{
				"box" : 				{
					"maxclass" : "newobj",
					"text" : "zl queue",
					"patching_rect" : [ 897.0, 260.0, 54.0, 20.0 ],
					"numoutlets" : 2,
					"id" : "obj-127",
					"outlettype" : [ "", "" ],
					"fontsize" : 11.595187,
					"bgcolor" : [ 0.956863, 1.0, 0.552941, 1.0 ],
					"numinlets" : 2,
					"fontname" : "Arial"
				}

			}
, 			{
				"box" : 				{
					"maxclass" : "comment",
					"text" : "FIFO (First In, First Out)",
					"patching_rect" : [ 866.0, 202.0, 145.0, 20.0 ],
					"numoutlets" : 0,
					"id" : "obj-128",
					"fontsize" : 11.595187,
					"numinlets" : 1,
					"fontname" : "Arial"
				}

			}
, 			{
				"box" : 				{
					"maxclass" : "button",
					"patching_rect" : [ 241.0, 664.0, 20.0, 20.0 ],
					"numoutlets" : 1,
					"id" : "obj-75",
					"outlettype" : [ "bang" ],
					"numinlets" : 1
				}

			}
, 			{
				"box" : 				{
					"maxclass" : "newobj",
					"text" : "print rev",
					"patching_rect" : [ 267.0, 713.0, 50.0, 20.0 ],
					"numoutlets" : 0,
					"id" : "obj-77",
					"fontsize" : 11.595187,
					"numinlets" : 1,
					"fontname" : "Arial"
				}

			}
, 			{
				"box" : 				{
					"maxclass" : "message",
					"text" : "1 2 3 4 5 6 7 8 9",
					"patching_rect" : [ 267.0, 664.0, 92.0, 18.0 ],
					"numoutlets" : 1,
					"id" : "obj-78",
					"outlettype" : [ "" ],
					"fontsize" : 11.595187,
					"numinlets" : 2,
					"fontname" : "Arial"
				}

			}
, 			{
				"box" : 				{
					"maxclass" : "newobj",
					"text" : "zl rev",
					"patching_rect" : [ 267.0, 689.0, 38.0, 20.0 ],
					"numoutlets" : 2,
					"id" : "obj-79",
					"outlettype" : [ "", "" ],
					"fontsize" : 11.595187,
					"bgcolor" : [ 0.956863, 1.0, 0.552941, 1.0 ],
					"numinlets" : 2,
					"fontname" : "Arial"
				}

			}
, 			{
				"box" : 				{
					"maxclass" : "button",
					"patching_rect" : [ 12.0, 115.0, 20.0, 20.0 ],
					"numoutlets" : 1,
					"id" : "obj-80",
					"outlettype" : [ "bang" ],
					"numinlets" : 1
				}

			}
, 			{
				"box" : 				{
					"maxclass" : "number",
					"patching_rect" : [ 34.0, 115.0, 35.0, 20.0 ],
					"numoutlets" : 2,
					"triscale" : 0.9,
					"id" : "obj-81",
					"outlettype" : [ "int", "bang" ],
					"fontsize" : 11.595187,
					"numinlets" : 1,
					"fontname" : "Arial"
				}

			}
, 			{
				"box" : 				{
					"maxclass" : "newobj",
					"text" : "print reg",
					"patching_rect" : [ 34.0, 163.0, 51.0, 20.0 ],
					"numoutlets" : 0,
					"id" : "obj-82",
					"fontsize" : 11.595187,
					"numinlets" : 1,
					"fontname" : "Arial"
				}

			}
, 			{
				"box" : 				{
					"maxclass" : "message",
					"text" : "df df",
					"patching_rect" : [ 71.0, 115.0, 31.0, 18.0 ],
					"numoutlets" : 1,
					"id" : "obj-83",
					"outlettype" : [ "" ],
					"fontsize" : 11.595187,
					"numinlets" : 2,
					"fontname" : "Arial"
				}

			}
, 			{
				"box" : 				{
					"maxclass" : "message",
					"text" : "5 6 7",
					"patching_rect" : [ 108.0, 115.0, 34.0, 18.0 ],
					"numoutlets" : 1,
					"id" : "obj-84",
					"outlettype" : [ "" ],
					"fontsize" : 11.595187,
					"numinlets" : 2,
					"fontname" : "Arial"
				}

			}
, 			{
				"box" : 				{
					"maxclass" : "message",
					"text" : "er 56",
					"patching_rect" : [ 144.0, 115.0, 35.0, 18.0 ],
					"numoutlets" : 1,
					"id" : "obj-85",
					"outlettype" : [ "" ],
					"fontsize" : 11.595187,
					"numinlets" : 2,
					"fontname" : "Arial"
				}

			}
, 			{
				"box" : 				{
					"maxclass" : "newobj",
					"text" : "zl reg now takes init",
					"patching_rect" : [ 34.0, 141.0, 129.0, 20.0 ],
					"numoutlets" : 2,
					"id" : "obj-86",
					"outlettype" : [ "", "" ],
					"fontsize" : 11.595187,
					"bgcolor" : [ 0.956863, 1.0, 0.552941, 1.0 ],
					"numinlets" : 2,
					"fontname" : "Arial"
				}

			}
, 			{
				"box" : 				{
					"maxclass" : "comment",
					"text" : "reg, store a list in right inlet, bang it out later",
					"linecount" : 2,
					"patching_rect" : [ 23.0, 80.0, 141.0, 33.0 ],
					"numoutlets" : 0,
					"id" : "obj-110",
					"fontsize" : 11.595187,
					"numinlets" : 1,
					"fontname" : "Arial"
				}

			}
, 			{
				"box" : 				{
					"maxclass" : "comment",
					"text" : "rev, reverse a list",
					"patching_rect" : [ 243.0, 632.0, 100.0, 20.0 ],
					"numoutlets" : 0,
					"id" : "obj-111",
					"fontsize" : 11.595187,
					"numinlets" : 1,
					"fontname" : "Arial"
				}

			}
, 			{
				"box" : 				{
					"maxclass" : "comment",
					"text" : "median of a list of numbers",
					"patching_rect" : [ 438.0, 686.0, 149.0, 20.0 ],
					"numoutlets" : 0,
					"id" : "obj-216",
					"fontsize" : 11.595187,
					"numinlets" : 1,
					"fontname" : "Arial"
				}

			}
, 			{
				"box" : 				{
					"maxclass" : "message",
					"text" : "6 1 3",
					"patching_rect" : [ 541.0, 703.727234, 34.0, 18.0 ],
					"numoutlets" : 1,
					"id" : "obj-207",
					"outlettype" : [ "" ],
					"fontsize" : 11.595187,
					"numinlets" : 2,
					"fontname" : "Arial"
				}

			}
, 			{
				"box" : 				{
					"maxclass" : "flonum",
					"patching_rect" : [ 436.0, 755.727234, 35.0, 20.0 ],
					"numoutlets" : 2,
					"id" : "obj-208",
					"outlettype" : [ "float", "bang" ],
					"fontsize" : 11.595187,
					"numinlets" : 1,
					"fontname" : "Arial"
				}

			}
, 			{
				"box" : 				{
					"maxclass" : "newobj",
					"text" : "zl median",
					"patching_rect" : [ 436.0, 730.727234, 58.0, 20.0 ],
					"numoutlets" : 2,
					"id" : "obj-209",
					"outlettype" : [ "", "" ],
					"fontsize" : 11.595187,
					"bgcolor" : [ 0.956863, 1.0, 0.552941, 1.0 ],
					"numinlets" : 2,
					"fontname" : "Arial"
				}

			}
, 			{
				"box" : 				{
					"maxclass" : "message",
					"text" : "1 2 2 5.5 7 5 7 7 7",
					"patching_rect" : [ 436.0, 703.727234, 102.0, 18.0 ],
					"numoutlets" : 1,
					"id" : "obj-210",
					"outlettype" : [ "" ],
					"fontsize" : 11.595187,
					"numinlets" : 2,
					"fontname" : "Arial"
				}

			}
, 			{
				"box" : 				{
					"maxclass" : "comment",
					"text" : "an additional feature for nth",
					"patching_rect" : [ 238.0, 81.0, 150.0, 20.0 ],
					"numoutlets" : 0,
					"id" : "obj-38",
					"fontsize" : 11.595187,
					"numinlets" : 1,
					"fontname" : "Arial"
				}

			}
, 			{
				"box" : 				{
					"maxclass" : "newobj",
					"text" : "t b l",
					"patching_rect" : [ 263.0, 167.0, 32.5, 20.0 ],
					"numoutlets" : 2,
					"id" : "obj-137",
					"outlettype" : [ "bang", "" ],
					"fontsize" : 11.595187,
					"numinlets" : 1,
					"fontname" : "Arial"
				}

			}
, 			{
				"box" : 				{
					"maxclass" : "message",
					"text" : "$1 0.5",
					"patching_rect" : [ 263.0, 147.0, 41.0, 18.0 ],
					"numoutlets" : 1,
					"id" : "obj-138",
					"outlettype" : [ "" ],
					"fontsize" : 11.595187,
					"numinlets" : 2,
					"fontname" : "Arial"
				}

			}
, 			{
				"box" : 				{
					"maxclass" : "number",
					"patching_rect" : [ 263.0, 125.0, 38.0, 20.0 ],
					"numoutlets" : 2,
					"triscale" : 0.9,
					"id" : "obj-139",
					"outlettype" : [ "int", "bang" ],
					"fontsize" : 11.595187,
					"numinlets" : 1,
					"fontname" : "Arial"
				}

			}
, 			{
				"box" : 				{
					"maxclass" : "message",
					"text" : "2 hi",
					"patching_rect" : [ 298.0, 167.0, 27.0, 18.0 ],
					"numoutlets" : 1,
					"id" : "obj-140",
					"outlettype" : [ "" ],
					"fontsize" : 11.595187,
					"numinlets" : 2,
					"fontname" : "Arial"
				}

			}
, 			{
				"box" : 				{
					"maxclass" : "newobj",
					"text" : "print nthless",
					"patching_rect" : [ 290.0, 221.0, 71.0, 20.0 ],
					"numoutlets" : 0,
					"id" : "obj-141",
					"fontsize" : 11.595187,
					"numinlets" : 1,
					"fontname" : "Arial"
				}

			}
, 			{
				"box" : 				{
					"maxclass" : "newobj",
					"text" : "print nth",
					"patching_rect" : [ 237.0, 221.0, 50.0, 20.0 ],
					"numoutlets" : 0,
					"id" : "obj-142",
					"fontsize" : 11.595187,
					"numinlets" : 1,
					"fontname" : "Arial"
				}

			}
, 			{
				"box" : 				{
					"maxclass" : "button",
					"patching_rect" : [ 223.0, 166.0, 20.0, 20.0 ],
					"numoutlets" : 1,
					"id" : "obj-143",
					"outlettype" : [ "bang" ],
					"numinlets" : 1
				}

			}
, 			{
				"box" : 				{
					"maxclass" : "message",
					"text" : "5 6 7 8 9 10 11",
					"patching_rect" : [ 237.0, 103.0, 86.0, 18.0 ],
					"numoutlets" : 1,
					"id" : "obj-144",
					"outlettype" : [ "" ],
					"fontsize" : 11.595187,
					"numinlets" : 2,
					"fontname" : "Arial"
				}

			}
, 			{
				"box" : 				{
					"maxclass" : "newobj",
					"text" : "zl nth 3",
					"patching_rect" : [ 237.0, 191.0, 59.0, 20.0 ],
					"numoutlets" : 2,
					"id" : "obj-145",
					"outlettype" : [ "", "" ],
					"fontsize" : 11.595187,
					"bgcolor" : [ 0.956863, 1.0, 0.552941, 1.0 ],
					"numinlets" : 2,
					"fontname" : "Arial"
				}

			}
, 			{
				"box" : 				{
					"maxclass" : "comment",
					"text" : "extra argument to right inlet specifies <value>. nth element will be replaced with <value> in right oulet list.",
					"linecount" : 7,
					"patching_rect" : [ 323.0, 107.0, 107.0, 100.0 ],
					"numoutlets" : 0,
					"id" : "obj-146",
					"fontsize" : 11.595187,
					"numinlets" : 1,
					"fontname" : "Arial"
				}

			}
, 			{
				"box" : 				{
					"maxclass" : "newobj",
					"text" : "print mthless",
					"patching_rect" : [ 303.0, 335.0, 74.0, 20.0 ],
					"numoutlets" : 0,
					"id" : "obj-39",
					"fontsize" : 11.595187,
					"numinlets" : 1,
					"fontname" : "Arial"
				}

			}
, 			{
				"box" : 				{
					"maxclass" : "newobj",
					"text" : "print mth",
					"patching_rect" : [ 241.0, 335.0, 54.0, 20.0 ],
					"numoutlets" : 0,
					"id" : "obj-40",
					"fontsize" : 11.595187,
					"numinlets" : 1,
					"fontname" : "Arial"
				}

			}
, 			{
				"box" : 				{
					"maxclass" : "button",
					"patching_rect" : [ 219.0, 281.727234, 20.0, 20.0 ],
					"numoutlets" : 1,
					"id" : "obj-41",
					"outlettype" : [ "bang" ],
					"numinlets" : 1
				}

			}
, 			{
				"box" : 				{
					"maxclass" : "number",
					"patching_rect" : [ 330.0, 281.727234, 35.0, 20.0 ],
					"numoutlets" : 2,
					"triscale" : 0.9,
					"id" : "obj-49",
					"outlettype" : [ "int", "bang" ],
					"fontsize" : 11.595187,
					"numinlets" : 1,
					"fontname" : "Arial"
				}

			}
, 			{
				"box" : 				{
					"maxclass" : "message",
					"text" : "11 12 13 14 15",
					"patching_rect" : [ 241.0, 281.727234, 86.0, 18.0 ],
					"numoutlets" : 1,
					"id" : "obj-50",
					"outlettype" : [ "" ],
					"fontsize" : 11.595187,
					"numinlets" : 2,
					"fontname" : "Arial"
				}

			}
, 			{
				"box" : 				{
					"maxclass" : "newobj",
					"text" : "zl mth 3",
					"patching_rect" : [ 241.0, 308.0, 81.0, 20.0 ],
					"numoutlets" : 2,
					"id" : "obj-51",
					"outlettype" : [ "", "" ],
					"fontsize" : 11.595187,
					"bgcolor" : [ 0.956863, 1.0, 0.552941, 1.0 ],
					"numinlets" : 2,
					"fontname" : "Arial"
				}

			}
, 			{
				"box" : 				{
					"maxclass" : "comment",
					"text" : "mth, output nth element of list (count from zero)",
					"linecount" : 2,
					"patching_rect" : [ 231.0, 247.0, 134.0, 33.0 ],
					"numoutlets" : 0,
					"id" : "obj-52",
					"fontsize" : 11.595187,
					"numinlets" : 1,
					"fontname" : "Arial"
				}

			}
, 			{
				"box" : 				{
					"maxclass" : "toggle",
					"patching_rect" : [ 431.0, 454.528931, 20.0, 20.0 ],
					"numoutlets" : 1,
					"id" : "obj-26",
					"outlettype" : [ "int" ],
					"numinlets" : 1
				}

			}
, 			{
				"box" : 				{
					"maxclass" : "comment",
					"text" : "compare, compare two lists",
					"patching_rect" : [ 430.0, 381.0, 152.0, 20.0 ],
					"numoutlets" : 0,
					"id" : "obj-25",
					"fontsize" : 11.595187,
					"numinlets" : 1,
					"fontname" : "Arial"
				}

			}
, 			{
				"box" : 				{
					"maxclass" : "message",
					"text" : "a b c d",
					"patching_rect" : [ 556.0, 404.528931, 45.0, 18.0 ],
					"numoutlets" : 1,
					"id" : "obj-12",
					"outlettype" : [ "" ],
					"fontsize" : 11.595187,
					"numinlets" : 2,
					"fontname" : "Arial"
				}

			}
, 			{
				"box" : 				{
					"maxclass" : "message",
					"text" : "a b c d",
					"patching_rect" : [ 467.0, 403.528931, 45.0, 18.0 ],
					"numoutlets" : 1,
					"id" : "obj-16",
					"outlettype" : [ "" ],
					"fontsize" : 11.595187,
					"numinlets" : 2,
					"fontname" : "Arial"
				}

			}
, 			{
				"box" : 				{
					"maxclass" : "message",
					"text" : "a b c",
					"patching_rect" : [ 431.0, 403.528931, 36.0, 18.0 ],
					"numoutlets" : 1,
					"id" : "obj-19",
					"outlettype" : [ "" ],
					"fontsize" : 11.595187,
					"numinlets" : 2,
					"fontname" : "Arial"
				}

			}
, 			{
				"box" : 				{
					"maxclass" : "message",
					"text" : "a b c",
					"patching_rect" : [ 519.0, 403.528931, 36.0, 18.0 ],
					"numoutlets" : 1,
					"id" : "obj-20",
					"outlettype" : [ "" ],
					"fontsize" : 11.595187,
					"numinlets" : 2,
					"fontname" : "Arial"
				}

			}
, 			{
				"box" : 				{
					"maxclass" : "newobj",
					"text" : "print idx of non equals",
					"patching_rect" : [ 519.0, 454.528931, 124.0, 20.0 ],
					"numoutlets" : 0,
					"id" : "obj-21",
					"fontsize" : 11.595187,
					"numinlets" : 1,
					"fontname" : "Arial"
				}

			}
, 			{
				"box" : 				{
					"maxclass" : "newobj",
					"text" : "zl compare a b c",
					"patching_rect" : [ 431.0, 430.528931, 107.0, 20.0 ],
					"numoutlets" : 2,
					"id" : "obj-23",
					"outlettype" : [ "", "" ],
					"fontsize" : 11.595187,
					"bgcolor" : [ 0.956863, 1.0, 0.552941, 1.0 ],
					"numinlets" : 2,
					"fontname" : "Arial"
				}

			}
, 			{
				"box" : 				{
					"maxclass" : "comment",
					"text" : "An optional integer arg sets the maximum list length for all modes of operation for the zl object. The default list length is 256.",
					"linecount" : 4,
					"patching_rect" : [ 256.0, 495.0, 186.0, 60.0 ],
					"numoutlets" : 0,
					"id" : "obj-18",
					"fontsize" : 11.595187,
					"numinlets" : 1,
					"fontname" : "Arial"
				}

			}
, 			{
				"box" : 				{
					"maxclass" : "button",
					"patching_rect" : [ 236.0, 529.0, 20.0, 20.0 ],
					"numoutlets" : 1,
					"id" : "obj-17",
					"outlettype" : [ "bang" ],
					"numinlets" : 1
				}

			}
, 			{
				"box" : 				{
					"maxclass" : "newobj",
					"text" : "uzi 1024",
					"patching_rect" : [ 236.0, 555.0, 56.0, 20.0 ],
					"numoutlets" : 3,
					"id" : "obj-15",
					"outlettype" : [ "bang", "bang", "int" ],
					"fontsize" : 11.595187,
					"numinlets" : 2,
					"fontname" : "Arial"
				}

			}
, 			{
				"box" : 				{
					"maxclass" : "newobj",
					"text" : "print longgroup",
					"patching_rect" : [ 235.0, 603.0, 91.0, 20.0 ],
					"numoutlets" : 0,
					"id" : "obj-13",
					"fontsize" : 11.595187,
					"numinlets" : 1,
					"fontname" : "Arial"
				}

			}
, 			{
				"box" : 				{
					"maxclass" : "newobj",
					"text" : "zl 512 group",
					"patching_rect" : [ 236.0, 577.0, 80.0, 20.0 ],
					"numoutlets" : 2,
					"id" : "obj-14",
					"outlettype" : [ "", "" ],
					"fontsize" : 11.595187,
					"bgcolor" : [ 0.956863, 1.0, 0.552941, 1.0 ],
					"numinlets" : 2,
					"fontname" : "Arial"
				}

			}
, 			{
				"box" : 				{
					"maxclass" : "newobj",
					"text" : "autohelp",
					"patching_rect" : [ 239.0, 767.0, 55.0, 20.0 ],
					"numoutlets" : 0,
					"id" : "obj-1",
					"hidden" : 1,
					"fontsize" : 11.595187,
					"numinlets" : 1,
					"fontname" : "Arial"
				}

			}
, 			{
				"box" : 				{
					"maxclass" : "message",
					"text" : "zlclear",
					"patching_rect" : [ 228.0, 429.0, 42.0, 18.0 ],
					"numoutlets" : 1,
					"id" : "obj-119",
					"outlettype" : [ "" ],
					"fontsize" : 11.595187,
					"numinlets" : 2,
					"fontname" : "Arial"
				}

			}
, 			{
				"box" : 				{
					"maxclass" : "newobj",
					"text" : "print iter",
					"patching_rect" : [ 44.0, 721.0, 50.0, 20.0 ],
					"numoutlets" : 0,
					"id" : "obj-54",
					"fontsize" : 11.595187,
					"numinlets" : 1,
					"fontname" : "Arial"
				}

			}
, 			{
				"box" : 				{
					"maxclass" : "button",
					"patching_rect" : [ 23.0, 664.0, 20.0, 20.0 ],
					"numoutlets" : 1,
					"id" : "obj-74",
					"outlettype" : [ "bang" ],
					"numinlets" : 1
				}

			}
, 			{
				"box" : 				{
					"maxclass" : "number",
					"patching_rect" : [ 139.0, 665.0, 50.0, 20.0 ],
					"numoutlets" : 2,
					"triscale" : 0.9,
					"id" : "obj-92",
					"outlettype" : [ "int", "bang" ],
					"fontsize" : 11.595187,
					"presentation_rect" : [ 0.0, 0.0, 50.0, 20.0 ],
					"numinlets" : 1,
					"fontname" : "Arial"
				}

			}
, 			{
				"box" : 				{
					"maxclass" : "message",
					"text" : "5 6 7 8 9 10 11",
					"patching_rect" : [ 44.0, 665.0, 86.0, 18.0 ],
					"numoutlets" : 1,
					"id" : "obj-93",
					"outlettype" : [ "" ],
					"fontsize" : 11.595187,
					"numinlets" : 2,
					"fontname" : "Arial"
				}

			}
, 			{
				"box" : 				{
					"maxclass" : "newobj",
					"text" : "zl iter 3",
					"patching_rect" : [ 44.0, 693.0, 48.0, 20.0 ],
					"numoutlets" : 2,
					"id" : "obj-94",
					"outlettype" : [ "", "" ],
					"fontsize" : 11.595187,
					"bgcolor" : [ 0.956863, 1.0, 0.552941, 1.0 ],
					"numinlets" : 2,
					"fontname" : "Arial"
				}

			}
, 			{
				"box" : 				{
					"maxclass" : "number",
					"patching_rect" : [ 330.0, 397.0, 50.0, 20.0 ],
					"numoutlets" : 2,
					"triscale" : 0.9,
					"id" : "obj-99",
					"outlettype" : [ "int", "bang" ],
					"fontsize" : 11.595187,
					"presentation_rect" : [ 0.0, 0.0, 50.0, 20.0 ],
					"numinlets" : 1,
					"fontname" : "Arial"
				}

			}
, 			{
				"box" : 				{
					"maxclass" : "button",
					"patching_rect" : [ 231.0, 396.0, 20.0, 20.0 ],
					"numoutlets" : 1,
					"id" : "obj-100",
					"outlettype" : [ "bang" ],
					"numinlets" : 1
				}

			}
, 			{
				"box" : 				{
					"maxclass" : "number",
					"patching_rect" : [ 252.0, 397.0, 35.0, 20.0 ],
					"numoutlets" : 2,
					"triscale" : 0.9,
					"id" : "obj-101",
					"outlettype" : [ "int", "bang" ],
					"fontsize" : 11.595187,
					"numinlets" : 1,
					"fontname" : "Arial"
				}

			}
, 			{
				"box" : 				{
					"maxclass" : "message",
					"text" : "1 2 3",
					"patching_rect" : [ 287.0, 397.0, 34.0, 18.0 ],
					"numoutlets" : 1,
					"id" : "obj-102",
					"outlettype" : [ "" ],
					"fontsize" : 11.595187,
					"numinlets" : 2,
					"fontname" : "Arial"
				}

			}
, 			{
				"box" : 				{
					"maxclass" : "newobj",
					"text" : "print group",
					"patching_rect" : [ 287.0, 477.0, 66.0, 20.0 ],
					"numoutlets" : 0,
					"id" : "obj-104",
					"fontsize" : 11.595187,
					"numinlets" : 1,
					"fontname" : "Arial"
				}

			}
, 			{
				"box" : 				{
					"maxclass" : "newobj",
					"text" : "zl group 4",
					"patching_rect" : [ 287.0, 452.0, 62.0, 20.0 ],
					"numoutlets" : 2,
					"id" : "obj-105",
					"outlettype" : [ "", "" ],
					"fontsize" : 11.595187,
					"bgcolor" : [ 0.956863, 1.0, 0.552941, 1.0 ],
					"numinlets" : 2,
					"fontname" : "Arial"
				}

			}
, 			{
				"box" : 				{
					"maxclass" : "comment",
					"text" : "group, output a list after N items are recevied",
					"linecount" : 2,
					"patching_rect" : [ 234.0, 362.0, 134.0, 33.0 ],
					"numoutlets" : 0,
					"id" : "obj-106",
					"fontsize" : 11.595187,
					"numinlets" : 1,
					"fontname" : "Arial"
				}

			}
, 			{
				"box" : 				{
					"maxclass" : "comment",
					"text" : "iter, put out lists of size N successively",
					"linecount" : 2,
					"patching_rect" : [ 29.0, 630.0, 109.0, 33.0 ],
					"numoutlets" : 0,
					"id" : "obj-108",
					"fontsize" : 11.595187,
					"numinlets" : 1,
					"fontname" : "Arial"
				}

			}
, 			{
				"box" : 				{
					"maxclass" : "comment",
					"text" : "ecils slices a list in reverse order: output last N out right outlet, rest out left. right outlet still comes out first.",
					"linecount" : 3,
					"patching_rect" : [ 12.0, 512.0, 200.0, 46.0 ],
					"numoutlets" : 0,
					"id" : "obj-34",
					"fontsize" : 11.595187,
					"numinlets" : 1,
					"fontname" : "Arial"
				}

			}
, 			{
				"box" : 				{
					"maxclass" : "button",
					"patching_rect" : [ 7.0, 554.0, 20.0, 20.0 ],
					"numoutlets" : 1,
					"id" : "obj-42",
					"outlettype" : [ "bang" ],
					"numinlets" : 1
				}

			}
, 			{
				"box" : 				{
					"maxclass" : "newobj",
					"text" : "print sliceb",
					"patching_rect" : [ 97.0, 607.0, 66.0, 20.0 ],
					"numoutlets" : 0,
					"id" : "obj-43",
					"fontsize" : 11.595187,
					"numinlets" : 1,
					"fontname" : "Arial"
				}

			}
, 			{
				"box" : 				{
					"maxclass" : "newobj",
					"text" : "print slicea",
					"patching_rect" : [ 30.0, 607.0, 66.0, 20.0 ],
					"numoutlets" : 0,
					"id" : "obj-44",
					"fontsize" : 11.595187,
					"numinlets" : 1,
					"fontname" : "Arial"
				}

			}
, 			{
				"box" : 				{
					"maxclass" : "number",
					"patching_rect" : [ 142.0, 555.0, 50.0, 20.0 ],
					"numoutlets" : 2,
					"triscale" : 0.9,
					"id" : "obj-45",
					"outlettype" : [ "int", "bang" ],
					"fontsize" : 11.595187,
					"presentation_rect" : [ 0.0, 0.0, 50.0, 20.0 ],
					"numinlets" : 1,
					"fontname" : "Arial"
				}

			}
, 			{
				"box" : 				{
					"maxclass" : "message",
					"text" : "1 2 3 4 5 6 7 8 9 10",
					"patching_rect" : [ 30.0, 555.0, 108.0, 18.0 ],
					"numoutlets" : 1,
					"id" : "obj-46",
					"outlettype" : [ "" ],
					"fontsize" : 11.595187,
					"numinlets" : 2,
					"fontname" : "Arial"
				}

			}
, 			{
				"box" : 				{
					"maxclass" : "newobj",
					"text" : "zl ecils 1",
					"patching_rect" : [ 30.0, 580.0, 77.0, 20.0 ],
					"numoutlets" : 2,
					"id" : "obj-47",
					"outlettype" : [ "", "" ],
					"fontsize" : 11.595187,
					"bgcolor" : [ 0.956863, 1.0, 0.552941, 1.0 ],
					"numinlets" : 2,
					"fontname" : "Arial"
				}

			}
, 			{
				"box" : 				{
					"maxclass" : "comment",
					"text" : "delace, de-interleave a list",
					"patching_rect" : [ 864.0, 624.0, 143.0, 20.0 ],
					"numoutlets" : 0,
					"id" : "obj-147",
					"fontsize" : 11.595187,
					"numinlets" : 1,
					"fontname" : "Arial"
				}

			}
, 			{
				"box" : 				{
					"maxclass" : "message",
					"text" : "a 1 b 2 e 2 c 5.5 e 7",
					"patching_rect" : [ 866.0, 644.544678, 111.0, 18.0 ],
					"numoutlets" : 1,
					"id" : "obj-163",
					"outlettype" : [ "" ],
					"fontsize" : 11.595187,
					"numinlets" : 2,
					"fontname" : "Arial"
				}

			}
, 			{
				"box" : 				{
					"maxclass" : "newobj",
					"text" : "print delace2",
					"patching_rect" : [ 948.0, 692.0, 77.0, 20.0 ],
					"numoutlets" : 0,
					"id" : "obj-187",
					"fontsize" : 11.595187,
					"numinlets" : 1,
					"fontname" : "Arial"
				}

			}
, 			{
				"box" : 				{
					"maxclass" : "newobj",
					"text" : "print delace1",
					"patching_rect" : [ 866.0, 692.0, 77.0, 20.0 ],
					"numoutlets" : 0,
					"id" : "obj-188",
					"fontsize" : 11.595187,
					"numinlets" : 1,
					"fontname" : "Arial"
				}

			}
, 			{
				"box" : 				{
					"maxclass" : "newobj",
					"text" : "zl delace",
					"patching_rect" : [ 866.0, 668.0, 101.0, 20.0 ],
					"numoutlets" : 2,
					"id" : "obj-198",
					"outlettype" : [ "", "" ],
					"fontsize" : 11.595187,
					"bgcolor" : [ 0.956863, 1.0, 0.552941, 1.0 ],
					"numinlets" : 2,
					"fontname" : "Arial"
				}

			}
, 			{
				"box" : 				{
					"maxclass" : "comment",
					"text" : "change, filter out list repetitions",
					"patching_rect" : [ 444.0, 239.0, 168.0, 20.0 ],
					"numoutlets" : 0,
					"id" : "obj-150",
					"fontsize" : 11.595187,
					"numinlets" : 1,
					"fontname" : "Arial"
				}

			}
, 			{
				"box" : 				{
					"maxclass" : "toggle",
					"patching_rect" : [ 551.0, 352.528931, 20.0, 20.0 ],
					"numoutlets" : 1,
					"id" : "obj-191",
					"outlettype" : [ "int" ],
					"numinlets" : 1
				}

			}
, 			{
				"box" : 				{
					"maxclass" : "newobj",
					"text" : "p l==",
					"patching_rect" : [ 551.0, 323.528931, 34.0, 20.0 ],
					"numoutlets" : 1,
					"id" : "obj-192",
					"outlettype" : [ "int" ],
					"fontsize" : 11.595187,
					"numinlets" : 1,
					"fontname" : "Arial",
					"patcher" : 					{
						"fileversion" : 1,
						"rect" : [ 10.0, 59.0, 128.0, 161.0 ],
						"bglocked" : 0,
						"defrect" : [ 10.0, 59.0, 128.0, 161.0 ],
						"openrect" : [ 0.0, 0.0, 0.0, 0.0 ],
						"openinpresentation" : 0,
						"default_fontsize" : 10.0,
						"default_fontface" : 0,
						"default_fontname" : "Arial",
						"gridonopen" : 0,
						"gridsize" : [ 15.0, 15.0 ],
						"gridsnaponopen" : 0,
						"toolbarvisible" : 1,
						"boxanimatetime" : 200,
						"imprint" : 0,
						"enablehscroll" : 1,
						"enablevscroll" : 1,
						"devicewidth" : 0.0,
						"boxes" : [ 							{
								"box" : 								{
									"maxclass" : "newobj",
									"text" : "!- 1",
									"patching_rect" : [ 50.0, 92.0, 27.0, 20.0 ],
									"numoutlets" : 1,
									"id" : "obj-1",
									"outlettype" : [ "int" ],
									"fontsize" : 11.595187,
									"numinlets" : 2,
									"fontname" : "Arial"
								}

							}
, 							{
								"box" : 								{
									"maxclass" : "newobj",
									"text" : "zl change",
									"patching_rect" : [ 50.0, 61.0, 58.0, 20.0 ],
									"numoutlets" : 2,
									"id" : "obj-2",
									"outlettype" : [ "", "" ],
									"fontsize" : 11.595187,
									"numinlets" : 2,
									"fontname" : "Arial"
								}

							}
, 							{
								"box" : 								{
									"maxclass" : "inlet",
									"patching_rect" : [ 50.0, 30.0, 15.0, 15.0 ],
									"numoutlets" : 1,
									"id" : "obj-3",
									"outlettype" : [ "" ],
									"numinlets" : 0,
									"comment" : ""
								}

							}
, 							{
								"box" : 								{
									"maxclass" : "outlet",
									"patching_rect" : [ 50.0, 123.0, 15.0, 15.0 ],
									"numoutlets" : 0,
									"id" : "obj-4",
									"numinlets" : 1,
									"comment" : ""
								}

							}
 ],
						"lines" : [ 							{
								"patchline" : 								{
									"source" : [ "obj-3", 0 ],
									"destination" : [ "obj-2", 0 ],
									"hidden" : 0,
									"midpoints" : [  ]
								}

							}
, 							{
								"patchline" : 								{
									"source" : [ "obj-2", 1 ],
									"destination" : [ "obj-1", 0 ],
									"hidden" : 0,
									"midpoints" : [  ]
								}

							}
, 							{
								"patchline" : 								{
									"source" : [ "obj-1", 0 ],
									"destination" : [ "obj-4", 0 ],
									"hidden" : 0,
									"midpoints" : [  ]
								}

							}
 ]
					}
,
					"saved_object_attributes" : 					{
						"default_fontsize" : 10.0,
						"fontface" : 0,
						"fontsize" : 10.0,
						"globalpatchername" : "",
						"default_fontface" : 0,
						"default_fontname" : "Arial",
						"fontname" : "Arial"
					}

				}

			}
, 			{
				"box" : 				{
					"maxclass" : "newobj",
					"text" : "zl change",
					"patching_rect" : [ 452.0, 323.528931, 58.0, 20.0 ],
					"numoutlets" : 2,
					"id" : "obj-193",
					"outlettype" : [ "", "" ],
					"fontsize" : 11.595187,
					"bgcolor" : [ 0.956863, 1.0, 0.552941, 1.0 ],
					"numinlets" : 2,
					"fontname" : "Arial"
				}

			}
, 			{
				"box" : 				{
					"maxclass" : "toggle",
					"patching_rect" : [ 525.0, 352.528931, 20.0, 20.0 ],
					"numoutlets" : 1,
					"id" : "obj-194",
					"outlettype" : [ "int" ],
					"numinlets" : 1
				}

			}
, 			{
				"box" : 				{
					"maxclass" : "message",
					"text" : "a b e c e",
					"patching_rect" : [ 452.0, 260.528931, 53.0, 18.0 ],
					"numoutlets" : 1,
					"id" : "obj-195",
					"outlettype" : [ "" ],
					"fontsize" : 11.595187,
					"numinlets" : 2,
					"fontname" : "Arial"
				}

			}
, 			{
				"box" : 				{
					"maxclass" : "newobj",
					"text" : "print change",
					"patching_rect" : [ 452.0, 352.528931, 72.0, 20.0 ],
					"numoutlets" : 0,
					"id" : "obj-196",
					"fontsize" : 11.595187,
					"numinlets" : 1,
					"fontname" : "Arial"
				}

			}
, 			{
				"box" : 				{
					"maxclass" : "message",
					"text" : "1 2 2 5.5 7 5 7 7 7",
					"patching_rect" : [ 466.0, 289.528931, 102.0, 18.0 ],
					"numoutlets" : 1,
					"id" : "obj-197",
					"outlettype" : [ "" ],
					"fontsize" : 11.595187,
					"numinlets" : 2,
					"fontname" : "Arial"
				}

			}
, 			{
				"box" : 				{
					"maxclass" : "textbutton",
					"varname" : "autohelp_top_ref",
					"patching_rect" : [ 387.091309, 22.0, 112.908691, 14.666666 ],
					"numoutlets" : 3,
					"id" : "obj-5",
					"fontlink" : 1,
					"textovercolor" : [ 0.4, 0.5, 0.65, 1.0 ],
					"underline" : 1,
					"textcolor" : [ 0.309, 0.395, 0.524, 1.0 ],
					"outlettype" : [ "", "", "int" ],
					"fontface" : 3,
					"bgovercolor" : [ 0.0, 0.0, 0.0, 0.0 ],
					"fontsize" : 12.754705,
					"bgoveroncolor" : [ 0.0, 0.0, 0.0, 0.0 ],
					"bordercolor" : [ 0.0, 0.0, 0.0, 0.0 ],
					"presentation_rect" : [ 0.0, 0.0, 112.908691, 14.666666 ],
					"text" : "open zl reference",
					"spacing_x" : 0.0,
					"bgcolor" : [ 0.0, 0.0, 0.0, 0.0 ],
					"bgoncolor" : [ 0.0, 0.0, 0.0, 0.0 ],
					"numinlets" : 1,
					"fontname" : "Arial",
					"spacing_y" : 0.0,
					"textoncolor" : [ 0.27, 0.35, 0.47, 1.0 ]
				}

			}
, 			{
				"box" : 				{
					"maxclass" : "comment",
					"varname" : "autohelp_top_title",
					"text" : "ObjectName",
					"patching_rect" : [ 10.0, 8.0, 485.0, 30.0 ],
					"numoutlets" : 0,
					"id" : "obj-2",
					"textcolor" : [ 0.93, 0.93, 0.97, 1.0 ],
					"fontface" : 3,
					"fontsize" : 20.871338,
					"frgb" : [ 0.93, 0.93, 0.97, 1.0 ],
					"numinlets" : 1,
					"fontname" : "Arial"
				}

			}
, 			{
				"box" : 				{
					"maxclass" : "comment",
					"varname" : "autohelp_top_digest",
					"patching_rect" : [ 10.0, 36.0, 485.0, 21.0 ],
					"numoutlets" : 0,
					"id" : "obj-3",
					"textcolor" : [ 0.93, 0.93, 0.97, 1.0 ],
					"fontsize" : 12.754705,
					"frgb" : [ 0.93, 0.93, 0.97, 1.0 ],
					"numinlets" : 1,
					"fontname" : "Arial"
				}

			}
, 			{
				"box" : 				{
					"maxclass" : "comment",
					"varname" : "autohelp_top_description",
					"patching_rect" : [ 10.0, 57.0, 485.0, 20.0 ],
					"numoutlets" : 0,
					"id" : "obj-6",
					"fontsize" : 11.595187,
					"numinlets" : 1,
					"fontname" : "Arial"
				}

			}
, 			{
				"box" : 				{
					"maxclass" : "comment",
					"varname" : "autohelp_see_title",
					"text" : "See Also:",
					"patching_rect" : [ 244.0, 698.0, 100.0, 20.0 ],
					"numoutlets" : 0,
					"id" : "obj-8",
					"fontface" : 1,
					"fontsize" : 11.595187,
					"numinlets" : 1,
					"fontname" : "Arial"
				}

			}
, 			{
				"box" : 				{
					"maxclass" : "umenu",
					"varname" : "autohelp_see_menu",
					"types" : [  ],
					"patching_rect" : [ 244.0, 718.0, 130.0, 20.0 ],
					"numoutlets" : 3,
					"id" : "obj-9",
					"outlettype" : [ "int", "", "" ],
					"fontsize" : 11.595187,
					"items" : [  ],
					"numinlets" : 1,
					"fontname" : "Arial"
				}

			}
, 			{
				"box" : 				{
					"maxclass" : "panel",
					"varname" : "autohelp_top_panel",
					"patching_rect" : [ 5.0, 5.0, 495.0, 52.0 ],
					"numoutlets" : 0,
					"id" : "obj-7",
					"grad1" : [ 0.27, 0.35, 0.47, 1.0 ],
					"mode" : 1,
					"grad2" : [ 0.85, 0.85, 0.85, 1.0 ],
					"numinlets" : 1,
					"background" : 1
				}

			}
, 			{
				"box" : 				{
					"maxclass" : "panel",
					"varname" : "autohelp_see_panel",
					"patching_rect" : [ 239.0, 694.0, 140.0, 50.0 ],
					"numoutlets" : 0,
					"id" : "obj-53",
					"border" : 2,
					"bordercolor" : [ 0.5, 0.5, 0.5, 0.75 ],
					"bgcolor" : [ 0.85, 0.85, 0.85, 0.75 ],
					"numinlets" : 1,
					"background" : 1
				}

			}
 ],
		"lines" : [ 			{
				"patchline" : 				{
					"source" : [ "obj-99", 0 ],
					"destination" : [ "obj-105", 1 ],
					"hidden" : 0,
					"midpoints" : [  ]
				}

			}
, 			{
				"patchline" : 				{
					"source" : [ "obj-98", 0 ],
					"destination" : [ "obj-103", 0 ],
					"hidden" : 0,
					"midpoints" : [  ]
				}

			}
, 			{
				"patchline" : 				{
					"source" : [ "obj-97", 0 ],
					"destination" : [ "obj-98", 0 ],
					"hidden" : 0,
					"midpoints" : [  ]
				}

			}
, 			{
				"patchline" : 				{
					"source" : [ "obj-96", 0 ],
					"destination" : [ "obj-98", 1 ],
					"hidden" : 0,
					"midpoints" : [  ]
				}

			}
, 			{
				"patchline" : 				{
					"source" : [ "obj-95", 0 ],
					"destination" : [ "obj-98", 0 ],
					"hidden" : 0,
					"midpoints" : [  ]
				}

			}
, 			{
				"patchline" : 				{
					"source" : [ "obj-94", 0 ],
					"destination" : [ "obj-54", 0 ],
					"hidden" : 0,
					"midpoints" : [  ]
				}

			}
, 			{
				"patchline" : 				{
					"source" : [ "obj-93", 0 ],
					"destination" : [ "obj-94", 0 ],
					"hidden" : 0,
					"midpoints" : [  ]
				}

			}
, 			{
				"patchline" : 				{
					"source" : [ "obj-92", 0 ],
					"destination" : [ "obj-94", 1 ],
					"hidden" : 0,
					"midpoints" : [ 148.5, 687.0, 82.5, 687.0 ]
				}

			}
, 			{
				"patchline" : 				{
					"source" : [ "obj-91", 0 ],
					"destination" : [ "obj-90", 0 ],
					"hidden" : 0,
					"midpoints" : [  ]
				}

			}
, 			{
				"patchline" : 				{
					"source" : [ "obj-89", 0 ],
					"destination" : [ "obj-91", 0 ],
					"hidden" : 0,
					"midpoints" : [  ]
				}

			}
, 			{
				"patchline" : 				{
					"source" : [ "obj-88", 0 ],
					"destination" : [ "obj-91", 0 ],
					"hidden" : 0,
					"midpoints" : [  ]
				}

			}
, 			{
				"patchline" : 				{
					"source" : [ "obj-87", 0 ],
					"destination" : [ "obj-91", 0 ],
					"hidden" : 0,
					"midpoints" : [  ]
				}

			}
, 			{
				"patchline" : 				{
					"source" : [ "obj-86", 0 ],
					"destination" : [ "obj-82", 0 ],
					"hidden" : 0,
					"midpoints" : [  ]
				}

			}
, 			{
				"patchline" : 				{
					"source" : [ "obj-85", 0 ],
					"destination" : [ "obj-86", 1 ],
					"hidden" : 0,
					"midpoints" : [  ]
				}

			}
, 			{
				"patchline" : 				{
					"source" : [ "obj-84", 0 ],
					"destination" : [ "obj-86", 1 ],
					"hidden" : 0,
					"midpoints" : [  ]
				}

			}
, 			{
				"patchline" : 				{
					"source" : [ "obj-83", 0 ],
					"destination" : [ "obj-86", 0 ],
					"hidden" : 0,
					"midpoints" : [  ]
				}

			}
, 			{
				"patchline" : 				{
					"source" : [ "obj-81", 0 ],
					"destination" : [ "obj-86", 0 ],
					"hidden" : 0,
					"midpoints" : [  ]
				}

			}
, 			{
				"patchline" : 				{
					"source" : [ "obj-80", 0 ],
					"destination" : [ "obj-86", 0 ],
					"hidden" : 0,
					"midpoints" : [  ]
				}

			}
, 			{
				"patchline" : 				{
					"source" : [ "obj-79", 0 ],
					"destination" : [ "obj-77", 0 ],
					"hidden" : 0,
					"midpoints" : [  ]
				}

			}
, 			{
				"patchline" : 				{
					"source" : [ "obj-78", 0 ],
					"destination" : [ "obj-79", 0 ],
					"hidden" : 0,
					"midpoints" : [  ]
				}

			}
, 			{
				"patchline" : 				{
					"source" : [ "obj-75", 0 ],
					"destination" : [ "obj-79", 0 ],
					"hidden" : 0,
					"midpoints" : [  ]
				}

			}
, 			{
				"patchline" : 				{
					"source" : [ "obj-74", 0 ],
					"destination" : [ "obj-94", 0 ],
					"hidden" : 0,
					"midpoints" : [  ]
				}

			}
, 			{
				"patchline" : 				{
					"source" : [ "obj-73", 0 ],
					"destination" : [ "obj-113", 1 ],
					"hidden" : 0,
					"midpoints" : [  ]
				}

			}
, 			{
				"patchline" : 				{
					"source" : [ "obj-71", 0 ],
					"destination" : [ "obj-113", 0 ],
					"hidden" : 0,
					"midpoints" : [  ]
				}

			}
, 			{
				"patchline" : 				{
					"source" : [ "obj-70", 0 ],
					"destination" : [ "obj-67", 0 ],
					"hidden" : 0,
					"midpoints" : [  ]
				}

			}
, 			{
				"patchline" : 				{
					"source" : [ "obj-70", 1 ],
					"destination" : [ "obj-62", 0 ],
					"hidden" : 0,
					"midpoints" : [ 721.5, 183.0, 765.5, 183.0 ]
				}

			}
, 			{
				"patchline" : 				{
					"source" : [ "obj-69", 0 ],
					"destination" : [ "obj-70", 0 ],
					"hidden" : 0,
					"midpoints" : [  ]
				}

			}
, 			{
				"patchline" : 				{
					"source" : [ "obj-66", 0 ],
					"destination" : [ "obj-70", 0 ],
					"hidden" : 0,
					"midpoints" : [  ]
				}

			}
, 			{
				"patchline" : 				{
					"source" : [ "obj-65", 0 ],
					"destination" : [ "obj-70", 1 ],
					"hidden" : 0,
					"midpoints" : [  ]
				}

			}
, 			{
				"patchline" : 				{
					"source" : [ "obj-64", 0 ],
					"destination" : [ "obj-70", 1 ],
					"hidden" : 0,
					"midpoints" : [  ]
				}

			}
, 			{
				"patchline" : 				{
					"source" : [ "obj-61", 0 ],
					"destination" : [ "obj-70", 1 ],
					"hidden" : 0,
					"midpoints" : [  ]
				}

			}
, 			{
				"patchline" : 				{
					"source" : [ "obj-51", 0 ],
					"destination" : [ "obj-40", 0 ],
					"hidden" : 0,
					"midpoints" : [  ]
				}

			}
, 			{
				"patchline" : 				{
					"source" : [ "obj-51", 1 ],
					"destination" : [ "obj-39", 0 ],
					"hidden" : 0,
					"midpoints" : [  ]
				}

			}
, 			{
				"patchline" : 				{
					"source" : [ "obj-50", 0 ],
					"destination" : [ "obj-51", 0 ],
					"hidden" : 0,
					"midpoints" : [  ]
				}

			}
, 			{
				"patchline" : 				{
					"source" : [ "obj-49", 0 ],
					"destination" : [ "obj-51", 1 ],
					"hidden" : 0,
					"midpoints" : [ 339.5, 303.0, 312.5, 303.0 ]
				}

			}
, 			{
				"patchline" : 				{
					"source" : [ "obj-48", 0 ],
					"destination" : [ "obj-98", 0 ],
					"hidden" : 0,
					"midpoints" : [  ]
				}

			}
, 			{
				"patchline" : 				{
					"source" : [ "obj-47", 0 ],
					"destination" : [ "obj-44", 0 ],
					"hidden" : 0,
					"midpoints" : [  ]
				}

			}
, 			{
				"patchline" : 				{
					"source" : [ "obj-47", 1 ],
					"destination" : [ "obj-43", 0 ],
					"hidden" : 0,
					"midpoints" : [ 97.5, 602.0, 106.5, 602.0 ]
				}

			}
, 			{
				"patchline" : 				{
					"source" : [ "obj-46", 0 ],
					"destination" : [ "obj-47", 0 ],
					"hidden" : 0,
					"midpoints" : [  ]
				}

			}
, 			{
				"patchline" : 				{
					"source" : [ "obj-45", 0 ],
					"destination" : [ "obj-47", 1 ],
					"hidden" : 0,
					"midpoints" : [ 151.5, 576.0, 97.5, 576.0 ]
				}

			}
, 			{
				"patchline" : 				{
					"source" : [ "obj-42", 0 ],
					"destination" : [ "obj-47", 0 ],
					"hidden" : 0,
					"midpoints" : [  ]
				}

			}
, 			{
				"patchline" : 				{
					"source" : [ "obj-41", 0 ],
					"destination" : [ "obj-51", 0 ],
					"hidden" : 0,
					"midpoints" : [  ]
				}

			}
, 			{
				"patchline" : 				{
					"source" : [ "obj-33", 1 ],
					"destination" : [ "obj-36", 0 ],
					"hidden" : 0,
					"midpoints" : [ 792.5, 308.0, 745.5, 308.0 ]
				}

			}
, 			{
				"patchline" : 				{
					"source" : [ "obj-33", 0 ],
					"destination" : [ "obj-35", 0 ],
					"hidden" : 0,
					"midpoints" : [  ]
				}

			}
, 			{
				"patchline" : 				{
					"source" : [ "obj-31", 0 ],
					"destination" : [ "obj-127", 0 ],
					"hidden" : 0,
					"midpoints" : [  ]
				}

			}
, 			{
				"patchline" : 				{
					"source" : [ "obj-30", 0 ],
					"destination" : [ "obj-127", 0 ],
					"hidden" : 0,
					"midpoints" : [  ]
				}

			}
, 			{
				"patchline" : 				{
					"source" : [ "obj-29", 0 ],
					"destination" : [ "obj-91", 0 ],
					"hidden" : 0,
					"midpoints" : [  ]
				}

			}
, 			{
				"patchline" : 				{
					"source" : [ "obj-28", 0 ],
					"destination" : [ "obj-33", 0 ],
					"hidden" : 0,
					"midpoints" : [  ]
				}

			}
, 			{
				"patchline" : 				{
					"source" : [ "obj-27", 0 ],
					"destination" : [ "obj-33", 0 ],
					"hidden" : 0,
					"midpoints" : [  ]
				}

			}
, 			{
				"patchline" : 				{
					"source" : [ "obj-24", 0 ],
					"destination" : [ "obj-33", 1 ],
					"hidden" : 0,
					"midpoints" : [  ]
				}

			}
, 			{
				"patchline" : 				{
					"source" : [ "obj-239", 0 ],
					"destination" : [ "obj-113", 0 ],
					"hidden" : 0,
					"midpoints" : [  ]
				}

			}
, 			{
				"patchline" : 				{
					"source" : [ "obj-237", 0 ],
					"destination" : [ "obj-113", 1 ],
					"hidden" : 0,
					"midpoints" : [  ]
				}

			}
, 			{
				"patchline" : 				{
					"source" : [ "obj-233", 0 ],
					"destination" : [ "obj-232", 0 ],
					"hidden" : 0,
					"midpoints" : [  ]
				}

			}
, 			{
				"patchline" : 				{
					"source" : [ "obj-231", 0 ],
					"destination" : [ "obj-233", 0 ],
					"hidden" : 0,
					"midpoints" : [  ]
				}

			}
, 			{
				"patchline" : 				{
					"source" : [ "obj-230", 0 ],
					"destination" : [ "obj-233", 1 ],
					"hidden" : 0,
					"midpoints" : [  ]
				}

			}
, 			{
				"patchline" : 				{
					"source" : [ "obj-23", 0 ],
					"destination" : [ "obj-26", 0 ],
					"hidden" : 0,
					"midpoints" : [  ]
				}

			}
, 			{
				"patchline" : 				{
					"source" : [ "obj-23", 1 ],
					"destination" : [ "obj-21", 0 ],
					"hidden" : 0,
					"midpoints" : [  ]
				}

			}
, 			{
				"patchline" : 				{
					"source" : [ "obj-229", 0 ],
					"destination" : [ "obj-233", 0 ],
					"hidden" : 0,
					"midpoints" : [  ]
				}

			}
, 			{
				"patchline" : 				{
					"source" : [ "obj-228", 0 ],
					"destination" : [ "obj-225", 0 ],
					"hidden" : 0,
					"midpoints" : [  ]
				}

			}
, 			{
				"patchline" : 				{
					"source" : [ "obj-228", 1 ],
					"destination" : [ "obj-116", 0 ],
					"hidden" : 0,
					"midpoints" : [  ]
				}

			}
, 			{
				"patchline" : 				{
					"source" : [ "obj-227", 0 ],
					"destination" : [ "obj-228", 0 ],
					"hidden" : 0,
					"midpoints" : [  ]
				}

			}
, 			{
				"patchline" : 				{
					"source" : [ "obj-226", 0 ],
					"destination" : [ "obj-228", 1 ],
					"hidden" : 0,
					"midpoints" : [  ]
				}

			}
, 			{
				"patchline" : 				{
					"source" : [ "obj-224", 0 ],
					"destination" : [ "obj-228", 1 ],
					"hidden" : 0,
					"midpoints" : [  ]
				}

			}
, 			{
				"patchline" : 				{
					"source" : [ "obj-223", 0 ],
					"destination" : [ "obj-228", 0 ],
					"hidden" : 0,
					"midpoints" : [  ]
				}

			}
, 			{
				"patchline" : 				{
					"source" : [ "obj-222", 0 ],
					"destination" : [ "obj-228", 0 ],
					"hidden" : 0,
					"midpoints" : [  ]
				}

			}
, 			{
				"patchline" : 				{
					"source" : [ "obj-221", 0 ],
					"destination" : [ "obj-218", 0 ],
					"hidden" : 0,
					"midpoints" : [  ]
				}

			}
, 			{
				"patchline" : 				{
					"source" : [ "obj-220", 0 ],
					"destination" : [ "obj-221", 0 ],
					"hidden" : 0,
					"midpoints" : [  ]
				}

			}
, 			{
				"patchline" : 				{
					"source" : [ "obj-22", 0 ],
					"destination" : [ "obj-33", 1 ],
					"hidden" : 0,
					"midpoints" : [  ]
				}

			}
, 			{
				"patchline" : 				{
					"source" : [ "obj-219", 0 ],
					"destination" : [ "obj-221", 0 ],
					"hidden" : 0,
					"midpoints" : [  ]
				}

			}
, 			{
				"patchline" : 				{
					"source" : [ "obj-213", 0 ],
					"destination" : [ "obj-206", 0 ],
					"hidden" : 0,
					"midpoints" : [  ]
				}

			}
, 			{
				"patchline" : 				{
					"source" : [ "obj-213", 1 ],
					"destination" : [ "obj-205", 0 ],
					"hidden" : 0,
					"midpoints" : [ 77.5, 480.0, 102.5, 480.0 ]
				}

			}
, 			{
				"patchline" : 				{
					"source" : [ "obj-212", 0 ],
					"destination" : [ "obj-213", 0 ],
					"hidden" : 0,
					"midpoints" : [  ]
				}

			}
, 			{
				"patchline" : 				{
					"source" : [ "obj-211", 0 ],
					"destination" : [ "obj-213", 1 ],
					"hidden" : 0,
					"midpoints" : [ 154.5, 449.0, 77.5, 449.0 ]
				}

			}
, 			{
				"patchline" : 				{
					"source" : [ "obj-210", 0 ],
					"destination" : [ "obj-209", 0 ],
					"hidden" : 0,
					"midpoints" : [  ]
				}

			}
, 			{
				"patchline" : 				{
					"source" : [ "obj-209", 0 ],
					"destination" : [ "obj-208", 0 ],
					"hidden" : 0,
					"midpoints" : [  ]
				}

			}
, 			{
				"patchline" : 				{
					"source" : [ "obj-207", 0 ],
					"destination" : [ "obj-209", 0 ],
					"hidden" : 0,
					"midpoints" : [ 550.5, 726.0, 445.5, 726.0 ]
				}

			}
, 			{
				"patchline" : 				{
					"source" : [ "obj-204", 0 ],
					"destination" : [ "obj-169", 0 ],
					"hidden" : 0,
					"midpoints" : [  ]
				}

			}
, 			{
				"patchline" : 				{
					"source" : [ "obj-203", 0 ],
					"destination" : [ "obj-204", 0 ],
					"hidden" : 0,
					"midpoints" : [  ]
				}

			}
, 			{
				"patchline" : 				{
					"source" : [ "obj-202", 0 ],
					"destination" : [ "obj-200", 0 ],
					"hidden" : 0,
					"midpoints" : [  ]
				}

			}
, 			{
				"patchline" : 				{
					"source" : [ "obj-201", 0 ],
					"destination" : [ "obj-190", 0 ],
					"hidden" : 0,
					"midpoints" : [  ]
				}

			}
, 			{
				"patchline" : 				{
					"source" : [ "obj-201", 0 ],
					"destination" : [ "obj-162", 0 ],
					"hidden" : 0,
					"midpoints" : [  ]
				}

			}
, 			{
				"patchline" : 				{
					"source" : [ "obj-200", 0 ],
					"destination" : [ "obj-158", 0 ],
					"hidden" : 0,
					"midpoints" : [  ]
				}

			}
, 			{
				"patchline" : 				{
					"source" : [ "obj-20", 0 ],
					"destination" : [ "obj-23", 1 ],
					"hidden" : 0,
					"midpoints" : [  ]
				}

			}
, 			{
				"patchline" : 				{
					"source" : [ "obj-199", 0 ],
					"destination" : [ "obj-164", 0 ],
					"hidden" : 0,
					"midpoints" : [  ]
				}

			}
, 			{
				"patchline" : 				{
					"source" : [ "obj-198", 0 ],
					"destination" : [ "obj-188", 0 ],
					"hidden" : 0,
					"midpoints" : [  ]
				}

			}
, 			{
				"patchline" : 				{
					"source" : [ "obj-198", 1 ],
					"destination" : [ "obj-187", 0 ],
					"hidden" : 0,
					"midpoints" : [  ]
				}

			}
, 			{
				"patchline" : 				{
					"source" : [ "obj-197", 0 ],
					"destination" : [ "obj-193", 0 ],
					"hidden" : 0,
					"midpoints" : [  ]
				}

			}
, 			{
				"patchline" : 				{
					"source" : [ "obj-197", 0 ],
					"destination" : [ "obj-192", 0 ],
					"hidden" : 0,
					"color" : [ 0.537255, 0.537255, 0.537255, 1.0 ],
					"midpoints" : [  ]
				}

			}
, 			{
				"patchline" : 				{
					"source" : [ "obj-195", 0 ],
					"destination" : [ "obj-193", 0 ],
					"hidden" : 0,
					"midpoints" : [  ]
				}

			}
, 			{
				"patchline" : 				{
					"source" : [ "obj-195", 0 ],
					"destination" : [ "obj-192", 0 ],
					"hidden" : 0,
					"color" : [ 0.537255, 0.537255, 0.537255, 1.0 ],
					"midpoints" : [  ]
				}

			}
, 			{
				"patchline" : 				{
					"source" : [ "obj-193", 0 ],
					"destination" : [ "obj-196", 0 ],
					"hidden" : 0,
					"midpoints" : [  ]
				}

			}
, 			{
				"patchline" : 				{
					"source" : [ "obj-193", 1 ],
					"destination" : [ "obj-194", 0 ],
					"hidden" : 0,
					"midpoints" : [ 500.5, 348.528931, 534.5, 348.528931 ]
				}

			}
, 			{
				"patchline" : 				{
					"source" : [ "obj-192", 0 ],
					"destination" : [ "obj-191", 0 ],
					"hidden" : 0,
					"midpoints" : [  ]
				}

			}
, 			{
				"patchline" : 				{
					"source" : [ "obj-190", 0 ],
					"destination" : [ "obj-189", 1 ],
					"hidden" : 0,
					"midpoints" : [ 962.863647, 399.0, 1031.863647, 399.0 ]
				}

			}
, 			{
				"patchline" : 				{
					"source" : [ "obj-190", 1 ],
					"destination" : [ "obj-160", 0 ],
					"hidden" : 0,
					"midpoints" : [  ]
				}

			}
, 			{
				"patchline" : 				{
					"source" : [ "obj-19", 0 ],
					"destination" : [ "obj-23", 0 ],
					"hidden" : 0,
					"midpoints" : [  ]
				}

			}
, 			{
				"patchline" : 				{
					"source" : [ "obj-186", 0 ],
					"destination" : [ "obj-199", 1 ],
					"hidden" : 0,
					"midpoints" : [  ]
				}

			}
, 			{
				"patchline" : 				{
					"source" : [ "obj-185", 0 ],
					"destination" : [ "obj-199", 0 ],
					"hidden" : 0,
					"midpoints" : [  ]
				}

			}
, 			{
				"patchline" : 				{
					"source" : [ "obj-184", 0 ],
					"destination" : [ "obj-168", 0 ],
					"hidden" : 0,
					"midpoints" : [  ]
				}

			}
, 			{
				"patchline" : 				{
					"source" : [ "obj-183", 0 ],
					"destination" : [ "obj-184", 0 ],
					"hidden" : 0,
					"midpoints" : [  ]
				}

			}
, 			{
				"patchline" : 				{
					"source" : [ "obj-182", 0 ],
					"destination" : [ "obj-184", 0 ],
					"hidden" : 0,
					"midpoints" : [  ]
				}

			}
, 			{
				"patchline" : 				{
					"source" : [ "obj-181", 0 ],
					"destination" : [ "obj-184", 1 ],
					"hidden" : 0,
					"midpoints" : [  ]
				}

			}
, 			{
				"patchline" : 				{
					"source" : [ "obj-180", 0 ],
					"destination" : [ "obj-184", 1 ],
					"hidden" : 0,
					"midpoints" : [  ]
				}

			}
, 			{
				"patchline" : 				{
					"source" : [ "obj-179", 0 ],
					"destination" : [ "obj-190", 0 ],
					"hidden" : 0,
					"midpoints" : [  ]
				}

			}
, 			{
				"patchline" : 				{
					"source" : [ "obj-179", 0 ],
					"destination" : [ "obj-162", 0 ],
					"hidden" : 0,
					"midpoints" : [  ]
				}

			}
, 			{
				"patchline" : 				{
					"source" : [ "obj-178", 0 ],
					"destination" : [ "obj-165", 0 ],
					"hidden" : 0,
					"midpoints" : [  ]
				}

			}
, 			{
				"patchline" : 				{
					"source" : [ "obj-177", 0 ],
					"destination" : [ "obj-178", 0 ],
					"hidden" : 0,
					"midpoints" : [  ]
				}

			}
, 			{
				"patchline" : 				{
					"source" : [ "obj-176", 0 ],
					"destination" : [ "obj-178", 0 ],
					"hidden" : 0,
					"midpoints" : [  ]
				}

			}
, 			{
				"patchline" : 				{
					"source" : [ "obj-175", 0 ],
					"destination" : [ "obj-178", 1 ],
					"hidden" : 0,
					"midpoints" : [  ]
				}

			}
, 			{
				"patchline" : 				{
					"source" : [ "obj-172", 0 ],
					"destination" : [ "obj-213", 0 ],
					"hidden" : 0,
					"midpoints" : [  ]
				}

			}
, 			{
				"patchline" : 				{
					"source" : [ "obj-170", 0 ],
					"destination" : [ "obj-159", 0 ],
					"hidden" : 0,
					"midpoints" : [  ]
				}

			}
, 			{
				"patchline" : 				{
					"source" : [ "obj-170", 1 ],
					"destination" : [ "obj-156", 0 ],
					"hidden" : 0,
					"midpoints" : [ 934.5, 165.0, 962.5, 165.0 ]
				}

			}
, 			{
				"patchline" : 				{
					"source" : [ "obj-17", 0 ],
					"destination" : [ "obj-15", 0 ],
					"hidden" : 0,
					"midpoints" : [  ]
				}

			}
, 			{
				"patchline" : 				{
					"source" : [ "obj-167", 0 ],
					"destination" : [ "obj-170", 0 ],
					"hidden" : 0,
					"midpoints" : [  ]
				}

			}
, 			{
				"patchline" : 				{
					"source" : [ "obj-163", 0 ],
					"destination" : [ "obj-198", 0 ],
					"hidden" : 0,
					"midpoints" : [  ]
				}

			}
, 			{
				"patchline" : 				{
					"source" : [ "obj-162", 0 ],
					"destination" : [ "obj-161", 1 ],
					"hidden" : 0,
					"midpoints" : [ 873.772766, 400.909119, 940.772766, 400.909119 ]
				}

			}
, 			{
				"patchline" : 				{
					"source" : [ "obj-16", 0 ],
					"destination" : [ "obj-23", 0 ],
					"hidden" : 0,
					"midpoints" : [  ]
				}

			}
, 			{
				"patchline" : 				{
					"source" : [ "obj-157", 0 ],
					"destination" : [ "obj-200", 0 ],
					"hidden" : 0,
					"midpoints" : [ 555.5, 632.0, 447.5, 632.0 ]
				}

			}
, 			{
				"patchline" : 				{
					"source" : [ "obj-155", 0 ],
					"destination" : [ "obj-170", 0 ],
					"hidden" : 0,
					"midpoints" : [  ]
				}

			}
, 			{
				"patchline" : 				{
					"source" : [ "obj-154", 0 ],
					"destination" : [ "obj-170", 0 ],
					"hidden" : 0,
					"midpoints" : [  ]
				}

			}
, 			{
				"patchline" : 				{
					"source" : [ "obj-153", 0 ],
					"destination" : [ "obj-170", 0 ],
					"hidden" : 0,
					"midpoints" : [  ]
				}

			}
, 			{
				"patchline" : 				{
					"source" : [ "obj-151", 0 ],
					"destination" : [ "obj-135", 0 ],
					"hidden" : 0,
					"midpoints" : [  ]
				}

			}
, 			{
				"patchline" : 				{
					"source" : [ "obj-151", 1 ],
					"destination" : [ "obj-129", 0 ],
					"hidden" : 0,
					"midpoints" : [ 495.5, 173.0, 542.5, 173.0 ]
				}

			}
, 			{
				"patchline" : 				{
					"source" : [ "obj-15", 2 ],
					"destination" : [ "obj-14", 0 ],
					"hidden" : 0,
					"midpoints" : [  ]
				}

			}
, 			{
				"patchline" : 				{
					"source" : [ "obj-145", 0 ],
					"destination" : [ "obj-142", 0 ],
					"hidden" : 0,
					"midpoints" : [  ]
				}

			}
, 			{
				"patchline" : 				{
					"source" : [ "obj-145", 1 ],
					"destination" : [ "obj-141", 0 ],
					"hidden" : 0,
					"midpoints" : [ 286.5, 215.0, 299.5, 215.0 ]
				}

			}
, 			{
				"patchline" : 				{
					"source" : [ "obj-144", 0 ],
					"destination" : [ "obj-145", 0 ],
					"hidden" : 0,
					"midpoints" : [  ]
				}

			}
, 			{
				"patchline" : 				{
					"source" : [ "obj-143", 0 ],
					"destination" : [ "obj-145", 0 ],
					"hidden" : 0,
					"midpoints" : [  ]
				}

			}
, 			{
				"patchline" : 				{
					"source" : [ "obj-140", 0 ],
					"destination" : [ "obj-145", 1 ],
					"hidden" : 0,
					"midpoints" : [  ]
				}

			}
, 			{
				"patchline" : 				{
					"source" : [ "obj-14", 0 ],
					"destination" : [ "obj-13", 0 ],
					"hidden" : 0,
					"midpoints" : [  ]
				}

			}
, 			{
				"patchline" : 				{
					"source" : [ "obj-139", 0 ],
					"destination" : [ "obj-138", 0 ],
					"hidden" : 0,
					"midpoints" : [  ]
				}

			}
, 			{
				"patchline" : 				{
					"source" : [ "obj-138", 0 ],
					"destination" : [ "obj-137", 0 ],
					"hidden" : 0,
					"midpoints" : [  ]
				}

			}
, 			{
				"patchline" : 				{
					"source" : [ "obj-137", 0 ],
					"destination" : [ "obj-145", 0 ],
					"hidden" : 0,
					"midpoints" : [  ]
				}

			}
, 			{
				"patchline" : 				{
					"source" : [ "obj-137", 1 ],
					"destination" : [ "obj-145", 1 ],
					"hidden" : 0,
					"midpoints" : [  ]
				}

			}
, 			{
				"patchline" : 				{
					"source" : [ "obj-136", 0 ],
					"destination" : [ "obj-151", 0 ],
					"hidden" : 0,
					"midpoints" : [  ]
				}

			}
, 			{
				"patchline" : 				{
					"source" : [ "obj-134", 0 ],
					"destination" : [ "obj-151", 0 ],
					"hidden" : 0,
					"midpoints" : [  ]
				}

			}
, 			{
				"patchline" : 				{
					"source" : [ "obj-131", 0 ],
					"destination" : [ "obj-151", 1 ],
					"hidden" : 0,
					"midpoints" : [ 588.5, 146.0, 495.5, 146.0 ]
				}

			}
, 			{
				"patchline" : 				{
					"source" : [ "obj-127", 0 ],
					"destination" : [ "obj-37", 0 ],
					"hidden" : 0,
					"midpoints" : [  ]
				}

			}
, 			{
				"patchline" : 				{
					"source" : [ "obj-127", 1 ],
					"destination" : [ "obj-32", 0 ],
					"hidden" : 0,
					"midpoints" : [ 941.5, 284.0, 966.5, 284.0 ]
				}

			}
, 			{
				"patchline" : 				{
					"source" : [ "obj-126", 0 ],
					"destination" : [ "obj-127", 0 ],
					"hidden" : 0,
					"midpoints" : [  ]
				}

			}
, 			{
				"patchline" : 				{
					"source" : [ "obj-124", 0 ],
					"destination" : [ "obj-145", 1 ],
					"hidden" : 0,
					"midpoints" : [  ]
				}

			}
, 			{
				"patchline" : 				{
					"source" : [ "obj-123", 0 ],
					"destination" : [ "obj-127", 0 ],
					"hidden" : 0,
					"midpoints" : [  ]
				}

			}
, 			{
				"patchline" : 				{
					"source" : [ "obj-12", 0 ],
					"destination" : [ "obj-23", 1 ],
					"hidden" : 0,
					"midpoints" : [  ]
				}

			}
, 			{
				"patchline" : 				{
					"source" : [ "obj-119", 0 ],
					"destination" : [ "obj-105", 0 ],
					"hidden" : 0,
					"midpoints" : [  ]
				}

			}
, 			{
				"patchline" : 				{
					"source" : [ "obj-113", 0 ],
					"destination" : [ "obj-72", 0 ],
					"hidden" : 0,
					"midpoints" : [  ]
				}

			}
, 			{
				"patchline" : 				{
					"source" : [ "obj-112", 0 ],
					"destination" : [ "obj-113", 0 ],
					"hidden" : 0,
					"midpoints" : [  ]
				}

			}
, 			{
				"patchline" : 				{
					"source" : [ "obj-11", 0 ],
					"destination" : [ "obj-33", 0 ],
					"hidden" : 0,
					"midpoints" : [  ]
				}

			}
, 			{
				"patchline" : 				{
					"source" : [ "obj-105", 0 ],
					"destination" : [ "obj-104", 0 ],
					"hidden" : 0,
					"midpoints" : [  ]
				}

			}
, 			{
				"patchline" : 				{
					"source" : [ "obj-102", 0 ],
					"destination" : [ "obj-105", 0 ],
					"hidden" : 0,
					"midpoints" : [  ]
				}

			}
, 			{
				"patchline" : 				{
					"source" : [ "obj-101", 0 ],
					"destination" : [ "obj-105", 0 ],
					"hidden" : 0,
					"midpoints" : [  ]
				}

			}
, 			{
				"patchline" : 				{
					"source" : [ "obj-100", 0 ],
					"destination" : [ "obj-105", 0 ],
					"hidden" : 0,
					"midpoints" : [  ]
				}

			}
, 			{
				"patchline" : 				{
					"source" : [ "obj-10", 0 ],
					"destination" : [ "obj-151", 1 ],
					"hidden" : 0,
					"midpoints" : [ 588.5, 149.0, 495.5, 149.0 ]
				}

			}
 ]
	}

}
