{
    "patcher": {
        "fileversion": 1,
        "appversion": {
            "major": 9,
            "minor": 1,
            "revision": 1,
            "architecture": "x64",
            "modernui": 1
        },
        "classnamespace": "box",
        "rect": [ 111.0, 290.0, 574.0, 491.0 ],
        "boxes": [
            {
                "box": {
                    "id": "obj-18",
                    "maxclass": "comment",
                    "numinlets": 1,
                    "numoutlets": 0,
                    "patching_rect": [ 154.0, 85.0, 87.0, 20.0 ],
                    "text": "argument == 1"
                }
            },
            {
                "box": {
                    "filename": "ll.allacts.js",
                    "id": "obj-10",
                    "maxclass": "newobj",
                    "numinlets": 1,
                    "numoutlets": 2,
                    "outlettype": [ "", "" ],
                    "patching_rect": [ 44.0, 186.0, 67.0, 22.0 ],
                    "saved_object_attributes": {
                        "parameter_enable": 0
                    },
                    "text": "v8 ll.allacts",
                    "textfile": {
                        "filename": "ll.allacts.js",
                        "flags": 0,
                        "embed": 0,
                        "autowatch": 1
                    }
                }
            },
            {
                "box": {
                    "comment": "act list iterated",
                    "id": "obj-5",
                    "index": 0,
                    "maxclass": "outlet",
                    "numinlets": 1,
                    "numoutlets": 0,
                    "patching_rect": [ 92.0, 221.0, 25.0, 25.0 ]
                }
            },
            {
                "box": {
                    "id": "obj-2",
                    "maxclass": "newobj",
                    "numinlets": 2,
                    "numoutlets": 1,
                    "outlettype": [ "" ],
                    "patching_rect": [ 111.0, 84.0, 32.0, 22.0 ],
                    "text": "gate"
                }
            },
            {
                "box": {
                    "id": "obj-1",
                    "maxclass": "newobj",
                    "numinlets": 1,
                    "numoutlets": 1,
                    "outlettype": [ "" ],
                    "patching_rect": [ 111.0, 20.0, 77.0, 22.0 ],
                    "text": "loadmess #1"
                }
            },
            {
                "box": {
                    "id": "obj-14",
                    "maxclass": "newobj",
                    "numinlets": 1,
                    "numoutlets": 1,
                    "outlettype": [ "iter" ],
                    "patching_rect": [ 111.0, 120.0, 32.0, 22.0 ],
                    "text": "t iter"
                }
            },
            {
                "box": {
                    "comment": "",
                    "id": "obj-6",
                    "index": 0,
                    "maxclass": "inlet",
                    "numinlets": 0,
                    "numoutlets": 1,
                    "outlettype": [ "" ],
                    "patching_rect": [ 44.0, 67.0, 25.0, 25.0 ]
                }
            },
            {
                "box": {
                    "fontname": "Arial",
                    "fontsize": 12.0,
                    "id": "obj-9",
                    "maxclass": "newobj",
                    "numinlets": 1,
                    "numoutlets": 1,
                    "outlettype": [ "" ],
                    "patching_rect": [ 111.0, 150.0, 54.0, 22.0 ],
                    "text": "deferlow"
                }
            },
            {
                "box": {
                    "comment": "act list",
                    "id": "obj-8",
                    "index": 0,
                    "maxclass": "outlet",
                    "numinlets": 1,
                    "numoutlets": 0,
                    "patching_rect": [ 44.0, 221.0, 25.0, 25.0 ]
                }
            },
            {
                "box": {
                    "id": "obj-7",
                    "maxclass": "newobj",
                    "numinlets": 1,
                    "numoutlets": 1,
                    "outlettype": [ "iter" ],
                    "patching_rect": [ 44.0, 121.0, 32.0, 22.0 ],
                    "text": "t iter"
                }
            },
            {
                "box": {
                    "fontname": "Arial",
                    "fontsize": 12.0,
                    "id": "obj-3",
                    "maxclass": "newobj",
                    "numinlets": 0,
                    "numoutlets": 1,
                    "outlettype": [ "" ],
                    "patching_rect": [ 124.0, 51.0, 51.0, 22.0 ],
                    "text": "r acting"
                }
            }
        ],
        "lines": [
            {
                "patchline": {
                    "destination": [ "obj-2", 0 ],
                    "source": [ "obj-1", 0 ]
                }
            },
            {
                "patchline": {
                    "destination": [ "obj-5", 0 ],
                    "source": [ "obj-10", 1 ]
                }
            },
            {
                "patchline": {
                    "destination": [ "obj-8", 0 ],
                    "source": [ "obj-10", 0 ]
                }
            },
            {
                "patchline": {
                    "destination": [ "obj-9", 0 ],
                    "source": [ "obj-14", 0 ]
                }
            },
            {
                "patchline": {
                    "destination": [ "obj-14", 0 ],
                    "source": [ "obj-2", 0 ]
                }
            },
            {
                "patchline": {
                    "destination": [ "obj-2", 1 ],
                    "source": [ "obj-3", 0 ]
                }
            },
            {
                "patchline": {
                    "destination": [ "obj-7", 0 ],
                    "source": [ "obj-6", 0 ]
                }
            },
            {
                "patchline": {
                    "destination": [ "obj-10", 0 ],
                    "source": [ "obj-7", 0 ]
                }
            },
            {
                "patchline": {
                    "destination": [ "obj-10", 0 ],
                    "source": [ "obj-9", 0 ]
                }
            }
        ],
        "autosave": 0
    }
}