{
    "patcher": {
        "fileversion": 1,
        "appversion": {
            "major": 9,
            "minor": 1,
            "revision": 0,
            "architecture": "x64",
            "modernui": 1
        },
        "classnamespace": "box",
        "rect": [ 543.0, 271.0, 674.0, 510.0 ],
        "boxes": [
            {
                "box": {
                    "id": "obj-54",
                    "maxclass": "comment",
                    "numinlets": 1,
                    "numoutlets": 0,
                    "patching_rect": [ 47.5, 375.0, 150.0, 20.0 ],
                    "text": "todo!"
                }
            },
            {
                "box": {
                    "id": "obj-50",
                    "maxclass": "comment",
                    "numinlets": 1,
                    "numoutlets": 0,
                    "patching_rect": [ 352.0, 45.0, 77.0, 20.0 ],
                    "text": "==loadbang"
                }
            },
            {
                "box": {
                    "fontname": "Arial",
                    "fontsize": 12.0,
                    "id": "obj-22",
                    "maxclass": "newobj",
                    "numinlets": 1,
                    "numoutlets": 1,
                    "outlettype": [ "" ],
                    "patching_rect": [ 343.0, 183.0, 56.0, 22.0 ],
                    "text": "deferlow"
                }
            },
            {
                "box": {
                    "id": "obj-35",
                    "maxclass": "newobj",
                    "numinlets": 1,
                    "numoutlets": 1,
                    "outlettype": [ "" ],
                    "patching_rect": [ 259.0, 108.0, 87.0, 22.0 ],
                    "text": "prepend select"
                }
            },
            {
                "box": {
                    "id": "obj-16",
                    "maxclass": "newobj",
                    "numinlets": 4,
                    "numoutlets": 4,
                    "outlettype": [ "", "", "", "" ],
                    "patching_rect": [ 28.0, 78.0, 250.0, 22.0 ],
                    "text": "routepass clear_all clear_selected add_folder"
                }
            },
            {
                "box": {
                    "id": "obj-47",
                    "maxclass": "newobj",
                    "numinlets": 1,
                    "numoutlets": 0,
                    "patcher": {
                        "fileversion": 1,
                        "appversion": {
                            "major": 9,
                            "minor": 1,
                            "revision": 0,
                            "architecture": "x64",
                            "modernui": 1
                        },
                        "classnamespace": "box",
                        "rect": [ 283.0, 418.0, 409.0, 325.0 ],
                        "boxes": [
                            {
                                "box": {
                                    "fontname": "Arial",
                                    "fontsize": 12.0,
                                    "id": "obj-17",
                                    "maxclass": "newobj",
                                    "numinlets": 3,
                                    "numoutlets": 2,
                                    "outlettype": [ "", "bang" ],
                                    "patching_rect": [ 90.0, 217.0, 106.0, 22.0 ],
                                    "text": "ll.pf file_menu_out"
                                }
                            },
                            {
                                "box": {
                                    "id": "obj-2",
                                    "maxclass": "newobj",
                                    "numinlets": 3,
                                    "numoutlets": 2,
                                    "outlettype": [ "", "bang" ],
                                    "patching_rect": [ 50.0, 258.0, 97.0, 22.0 ],
                                    "text": "ll.pf folder_menu"
                                }
                            },
                            {
                                "box": {
                                    "id": "obj-1",
                                    "maxclass": "newobj",
                                    "numinlets": 3,
                                    "numoutlets": 2,
                                    "outlettype": [ "", "bang" ],
                                    "patching_rect": [ 136.0, 161.0, 83.0, 22.0 ],
                                    "text": "ll.pf file_menu"
                                }
                            },
                            {
                                "box": {
                                    "id": "obj-19",
                                    "maxclass": "button",
                                    "numinlets": 1,
                                    "numoutlets": 1,
                                    "outlettype": [ "bang" ],
                                    "parameter_enable": 0,
                                    "patching_rect": [ 93.0, 100.0, 20.0, 20.0 ]
                                }
                            },
                            {
                                "box": {
                                    "fontname": "Arial",
                                    "fontsize": 12.0,
                                    "id": "obj-4",
                                    "maxclass": "message",
                                    "numinlets": 2,
                                    "numoutlets": 1,
                                    "outlettype": [ "" ],
                                    "patching_rect": [ 90.0, 125.0, 32.5, 22.0 ],
                                    "text": "/"
                                }
                            },
                            {
                                "box": {
                                    "fontname": "Arial",
                                    "fontsize": 12.0,
                                    "id": "obj-7",
                                    "maxclass": "message",
                                    "numinlets": 2,
                                    "numoutlets": 1,
                                    "outlettype": [ "" ],
                                    "patching_rect": [ 136.0, 125.0, 210.0, 22.0 ],
                                    "text": "clear, append /, symbol /, clear, prefix"
                                }
                            },
                            {
                                "box": {
                                    "fontname": "Arial",
                                    "fontsize": 12.0,
                                    "id": "obj-15",
                                    "maxclass": "message",
                                    "numinlets": 2,
                                    "numoutlets": 1,
                                    "outlettype": [ "" ],
                                    "patching_rect": [ 50.0, 125.0, 37.0, 22.0 ],
                                    "text": "clear"
                                }
                            },
                            {
                                "box": {
                                    "comment": "",
                                    "id": "obj-43",
                                    "index": 1,
                                    "maxclass": "inlet",
                                    "numinlets": 0,
                                    "numoutlets": 1,
                                    "outlettype": [ "" ],
                                    "patching_rect": [ 93.0, 40.0, 30.0, 30.0 ]
                                }
                            }
                        ],
                        "lines": [
                            {
                                "patchline": {
                                    "destination": [ "obj-2", 0 ],
                                    "source": [ "obj-15", 0 ]
                                }
                            },
                            {
                                "patchline": {
                                    "destination": [ "obj-15", 0 ],
                                    "order": 2,
                                    "source": [ "obj-19", 0 ]
                                }
                            },
                            {
                                "patchline": {
                                    "destination": [ "obj-4", 0 ],
                                    "order": 1,
                                    "source": [ "obj-19", 0 ]
                                }
                            },
                            {
                                "patchline": {
                                    "destination": [ "obj-7", 0 ],
                                    "order": 0,
                                    "source": [ "obj-19", 0 ]
                                }
                            },
                            {
                                "patchline": {
                                    "destination": [ "obj-17", 0 ],
                                    "source": [ "obj-4", 0 ]
                                }
                            },
                            {
                                "patchline": {
                                    "destination": [ "obj-19", 0 ],
                                    "source": [ "obj-43", 0 ]
                                }
                            },
                            {
                                "patchline": {
                                    "destination": [ "obj-1", 0 ],
                                    "source": [ "obj-7", 0 ]
                                }
                            }
                        ]
                    },
                    "patching_rect": [ 482.0, 57.0, 110.0, 22.0 ],
                    "text": "p ?inlet_not_used?"
                }
            },
            {
                "box": {
                    "id": "obj-32",
                    "maxclass": "message",
                    "numinlets": 2,
                    "numoutlets": 1,
                    "outlettype": [ "" ],
                    "patching_rect": [ 343.0, 220.5, 135.0, 22.0 ],
                    "text": "f_refresh #1"
                }
            },
            {
                "box": {
                    "bgcolor": [ 0.09411764705882353, 0.09411764705882353, 0.592156862745098, 1.0 ],
                    "filename": "ll.fff.js",
                    "fontsize": 14.0,
                    "id": "obj-26",
                    "maxclass": "newobj",
                    "numinlets": 1,
                    "numoutlets": 1,
                    "outlettype": [ "" ],
                    "patching_rect": [ 182.0, 288.0, 62.0, 24.0 ],
                    "saved_object_attributes": {
                        "parameter_enable": 0
                    },
                    "text": "v8 ll.fff.js",
                    "textfile": {
                        "filename": "ll.fff.js",
                        "flags": 0,
                        "embed": 0,
                        "autowatch": 1
                    },
                    "varname": "v8_AA"
                }
            },
            {
                "box": {
                    "fontname": "Arial",
                    "fontsize": 12.0,
                    "id": "obj-18",
                    "maxclass": "newobj",
                    "numinlets": 1,
                    "numoutlets": 0,
                    "patching_rect": [ 481.0, 146.0, 160.0, 22.0 ],
                    "text": "print ll.fff_missing_argument"
                }
            },
            {
                "box": {
                    "fontname": "Arial",
                    "fontsize": 12.0,
                    "id": "obj-13",
                    "maxclass": "newobj",
                    "numinlets": 2,
                    "numoutlets": 2,
                    "outlettype": [ "bang", "" ],
                    "patching_rect": [ 481.0, 118.0, 36.0, 22.0 ],
                    "text": "sel 0"
                }
            },
            {
                "box": {
                    "fontname": "Arial",
                    "fontsize": 12.0,
                    "id": "obj-5",
                    "maxclass": "newobj",
                    "numinlets": 1,
                    "numoutlets": 1,
                    "outlettype": [ "" ],
                    "patching_rect": [ 482.0, 89.0, 139.0, 22.0 ],
                    "text": "loadmess #1"
                }
            },
            {
                "box": {
                    "fontname": "Arial",
                    "fontsize": 12.0,
                    "id": "obj-1",
                    "maxclass": "newobj",
                    "numinlets": 2,
                    "numoutlets": 2,
                    "outlettype": [ "int", "" ],
                    "patcher": {
                        "fileversion": 1,
                        "appversion": {
                            "major": 9,
                            "minor": 1,
                            "revision": 0,
                            "architecture": "x64",
                            "modernui": 1
                        },
                        "classnamespace": "box",
                        "rect": [ 739.0, 347.0, 690.0, 575.0 ],
                        "boxes": [
                            {
                                "box": {
                                    "comment": "",
                                    "id": "obj-22",
                                    "index": 1,
                                    "maxclass": "outlet",
                                    "numinlets": 1,
                                    "numoutlets": 0,
                                    "patching_rect": [ 104.0, 428.0, 25.0, 25.0 ]
                                }
                            },
                            {
                                "box": {
                                    "fontname": "Arial",
                                    "fontsize": 12.0,
                                    "id": "obj-21",
                                    "linecount": 3,
                                    "maxclass": "newobj",
                                    "numinlets": 2,
                                    "numoutlets": 2,
                                    "outlettype": [ "", "" ],
                                    "patching_rect": [ 25.0, 297.0, 55.0, 49.0 ],
                                    "text": "route #1"
                                }
                            },
                            {
                                "box": {
                                    "fontname": "Arial",
                                    "fontsize": 12.0,
                                    "id": "obj-5",
                                    "linecount": 3,
                                    "maxclass": "newobj",
                                    "numinlets": 1,
                                    "numoutlets": 1,
                                    "outlettype": [ "" ],
                                    "patching_rect": [ 25.0, 228.0, 71.0, 49.0 ],
                                    "text": "prepend #1"
                                }
                            },
                            {
                                "box": {
                                    "fontname": "Arial",
                                    "fontsize": 12.0,
                                    "id": "obj-20",
                                    "maxclass": "newobj",
                                    "numinlets": 2,
                                    "numoutlets": 2,
                                    "outlettype": [ "bang", "" ],
                                    "patching_rect": [ 150.0, 337.0, 36.0, 22.0 ],
                                    "text": "sel 1"
                                }
                            },
                            {
                                "box": {
                                    "fontname": "Arial",
                                    "fontsize": 12.0,
                                    "id": "obj-19",
                                    "maxclass": "newobj",
                                    "numinlets": 2,
                                    "numoutlets": 2,
                                    "outlettype": [ "", "" ],
                                    "patching_rect": [ 150.0, 365.0, 40.0, 22.0 ],
                                    "text": "zl reg"
                                }
                            },
                            {
                                "box": {
                                    "fontname": "Arial",
                                    "fontsize": 12.0,
                                    "id": "obj-18",
                                    "maxclass": "message",
                                    "numinlets": 2,
                                    "numoutlets": 1,
                                    "outlettype": [ "" ],
                                    "patching_rect": [ 256.0, 256.0, 183.0, 22.0 ]
                                }
                            },
                            {
                                "box": {
                                    "fontname": "Arial",
                                    "fontsize": 12.0,
                                    "id": "obj-17",
                                    "linecount": 3,
                                    "maxclass": "message",
                                    "numinlets": 2,
                                    "numoutlets": 1,
                                    "outlettype": [ "" ],
                                    "patching_rect": [ 250.0, 138.0, 179.0, 49.0 ],
                                    "text": "prefix \"Macintosh HD:/Users/klaus/Music/ischl_rec/\""
                                }
                            },
                            {
                                "box": {
                                    "fontname": "Arial",
                                    "fontsize": 12.0,
                                    "id": "obj-7",
                                    "maxclass": "message",
                                    "numinlets": 2,
                                    "numoutlets": 1,
                                    "outlettype": [ "" ],
                                    "patching_rect": [ 250.0, 343.0, 183.0, 22.0 ]
                                }
                            },
                            {
                                "box": {
                                    "fontname": "Arial",
                                    "fontsize": 12.0,
                                    "id": "obj-16",
                                    "maxclass": "newobj",
                                    "numinlets": 1,
                                    "numoutlets": 0,
                                    "patching_rect": [ 24.0, 251.0, 88.0, 22.0 ],
                                    "text": "s llfff_filewatch"
                                }
                            },
                            {
                                "box": {
                                    "fontname": "Arial",
                                    "fontsize": 12.0,
                                    "id": "obj-15",
                                    "maxclass": "newobj",
                                    "numinlets": 2,
                                    "numoutlets": 2,
                                    "outlettype": [ "", "" ],
                                    "patching_rect": [ 149.0, 203.0, 40.0, 22.0 ],
                                    "text": "zl reg"
                                }
                            },
                            {
                                "box": {
                                    "fontname": "Arial",
                                    "fontsize": 12.0,
                                    "id": "obj-14",
                                    "maxclass": "newobj",
                                    "numinlets": 2,
                                    "numoutlets": 2,
                                    "outlettype": [ "", "" ],
                                    "patching_rect": [ 149.0, 309.0, 69.0, 22.0 ],
                                    "text": "zl compare"
                                }
                            },
                            {
                                "box": {
                                    "fontname": "Arial",
                                    "fontsize": 12.0,
                                    "id": "obj-9",
                                    "maxclass": "newobj",
                                    "numinlets": 0,
                                    "numoutlets": 1,
                                    "outlettype": [ "" ],
                                    "patching_rect": [ 25.0, 273.0, 86.0, 22.0 ],
                                    "text": "r llfff_filewatch"
                                }
                            },
                            {
                                "box": {
                                    "fontname": "Arial",
                                    "fontsize": 12.0,
                                    "id": "obj-13",
                                    "maxclass": "newobj",
                                    "numinlets": 1,
                                    "numoutlets": 1,
                                    "outlettype": [ "" ],
                                    "patching_rect": [ 153.0, 462.0, 96.0, 22.0 ],
                                    "text": "prepend symbol"
                                }
                            },
                            {
                                "box": {
                                    "comment": "",
                                    "id": "obj-12",
                                    "index": 2,
                                    "maxclass": "outlet",
                                    "numinlets": 1,
                                    "numoutlets": 0,
                                    "patching_rect": [ 200.0, 509.0, 25.0, 25.0 ]
                                }
                            },
                            {
                                "box": {
                                    "fontname": "Arial",
                                    "fontsize": 12.0,
                                    "id": "obj-11",
                                    "maxclass": "newobj",
                                    "numinlets": 1,
                                    "numoutlets": 4,
                                    "outlettype": [ "int", "bang", "", "int" ],
                                    "patching_rect": [ 150.0, 390.0, 59.5, 22.0 ],
                                    "text": "t 1 b l 0"
                                }
                            },
                            {
                                "box": {
                                    "fontname": "Arial",
                                    "fontsize": 12.0,
                                    "id": "obj-10",
                                    "maxclass": "message",
                                    "numinlets": 2,
                                    "numoutlets": 1,
                                    "outlettype": [ "" ],
                                    "patching_rect": [ 162.0, 432.0, 181.0, 22.0 ],
                                    "text": "ischl3.WAV"
                                }
                            },
                            {
                                "box": {
                                    "comment": "",
                                    "id": "obj-8",
                                    "index": 2,
                                    "maxclass": "inlet",
                                    "numinlets": 0,
                                    "numoutlets": 1,
                                    "outlettype": [ "" ],
                                    "patching_rect": [ 311.0, 40.0, 25.0, 25.0 ]
                                }
                            },
                            {
                                "box": {
                                    "id": "obj-6",
                                    "maxclass": "button",
                                    "numinlets": 1,
                                    "numoutlets": 1,
                                    "outlettype": [ "bang" ],
                                    "parameter_enable": 0,
                                    "patching_rect": [ 149.0, 175.0, 20.0, 20.0 ]
                                }
                            },
                            {
                                "box": {
                                    "fontname": "Arial",
                                    "fontsize": 12.0,
                                    "id": "obj-4",
                                    "maxclass": "newobj",
                                    "numinlets": 1,
                                    "numoutlets": 2,
                                    "outlettype": [ "int", "" ],
                                    "patching_rect": [ 149.0, 97.0, 32.5, 22.0 ],
                                    "text": "t 1 l"
                                }
                            },
                            {
                                "box": {
                                    "fontname": "Arial",
                                    "fontsize": 12.0,
                                    "id": "obj-3",
                                    "maxclass": "newobj",
                                    "numinlets": 2,
                                    "numoutlets": 2,
                                    "outlettype": [ "", "" ],
                                    "patching_rect": [ 149.0, 69.0, 71.0, 22.0 ],
                                    "text": "route prefix"
                                }
                            },
                            {
                                "box": {
                                    "comment": "",
                                    "id": "obj-2",
                                    "index": 1,
                                    "maxclass": "inlet",
                                    "numinlets": 0,
                                    "numoutlets": 1,
                                    "outlettype": [ "" ],
                                    "patching_rect": [ 171.0, 14.0, 25.0, 25.0 ]
                                }
                            },
                            {
                                "box": {
                                    "fontname": "Arial",
                                    "fontsize": 12.0,
                                    "id": "obj-1",
                                    "maxclass": "newobj",
                                    "numinlets": 1,
                                    "numoutlets": 1,
                                    "outlettype": [ "bang" ],
                                    "patching_rect": [ 149.0, 145.0, 57.0, 22.0 ],
                                    "text": "filewatch"
                                }
                            }
                        ],
                        "lines": [
                            {
                                "patchline": {
                                    "destination": [ "obj-6", 0 ],
                                    "source": [ "obj-1", 0 ]
                                }
                            },
                            {
                                "patchline": {
                                    "destination": [ "obj-13", 0 ],
                                    "source": [ "obj-10", 0 ]
                                }
                            },
                            {
                                "patchline": {
                                    "destination": [ "obj-10", 0 ],
                                    "source": [ "obj-11", 1 ]
                                }
                            },
                            {
                                "patchline": {
                                    "destination": [ "obj-12", 0 ],
                                    "source": [ "obj-11", 2 ]
                                }
                            },
                            {
                                "patchline": {
                                    "destination": [ "obj-22", 0 ],
                                    "source": [ "obj-11", 3 ]
                                }
                            },
                            {
                                "patchline": {
                                    "destination": [ "obj-22", 0 ],
                                    "source": [ "obj-11", 0 ]
                                }
                            },
                            {
                                "patchline": {
                                    "destination": [ "obj-12", 0 ],
                                    "source": [ "obj-13", 0 ]
                                }
                            },
                            {
                                "patchline": {
                                    "destination": [ "obj-20", 0 ],
                                    "order": 1,
                                    "source": [ "obj-14", 0 ]
                                }
                            },
                            {
                                "patchline": {
                                    "destination": [ "obj-7", 1 ],
                                    "order": 0,
                                    "source": [ "obj-14", 0 ]
                                }
                            },
                            {
                                "patchline": {
                                    "destination": [ "obj-18", 1 ],
                                    "order": 0,
                                    "source": [ "obj-15", 0 ]
                                }
                            },
                            {
                                "patchline": {
                                    "destination": [ "obj-5", 0 ],
                                    "order": 1,
                                    "source": [ "obj-15", 0 ]
                                }
                            },
                            {
                                "patchline": {
                                    "destination": [ "obj-11", 0 ],
                                    "source": [ "obj-19", 0 ]
                                }
                            },
                            {
                                "patchline": {
                                    "destination": [ "obj-14", 1 ],
                                    "order": 1,
                                    "source": [ "obj-2", 0 ]
                                }
                            },
                            {
                                "patchline": {
                                    "destination": [ "obj-15", 1 ],
                                    "order": 3,
                                    "source": [ "obj-2", 0 ]
                                }
                            },
                            {
                                "patchline": {
                                    "destination": [ "obj-17", 1 ],
                                    "order": 0,
                                    "source": [ "obj-2", 0 ]
                                }
                            },
                            {
                                "patchline": {
                                    "destination": [ "obj-19", 1 ],
                                    "order": 2,
                                    "source": [ "obj-2", 0 ]
                                }
                            },
                            {
                                "patchline": {
                                    "destination": [ "obj-3", 0 ],
                                    "order": 4,
                                    "source": [ "obj-2", 0 ]
                                }
                            },
                            {
                                "patchline": {
                                    "destination": [ "obj-19", 0 ],
                                    "source": [ "obj-20", 0 ]
                                }
                            },
                            {
                                "patchline": {
                                    "destination": [ "obj-14", 0 ],
                                    "source": [ "obj-21", 0 ]
                                }
                            },
                            {
                                "patchline": {
                                    "destination": [ "obj-4", 0 ],
                                    "source": [ "obj-3", 0 ]
                                }
                            },
                            {
                                "patchline": {
                                    "destination": [ "obj-1", 0 ],
                                    "source": [ "obj-4", 1 ]
                                }
                            },
                            {
                                "patchline": {
                                    "destination": [ "obj-1", 0 ],
                                    "source": [ "obj-4", 0 ]
                                }
                            },
                            {
                                "patchline": {
                                    "destination": [ "obj-16", 0 ],
                                    "source": [ "obj-5", 0 ]
                                }
                            },
                            {
                                "patchline": {
                                    "destination": [ "obj-15", 0 ],
                                    "source": [ "obj-6", 0 ]
                                }
                            },
                            {
                                "patchline": {
                                    "destination": [ "obj-10", 1 ],
                                    "source": [ "obj-8", 0 ]
                                }
                            },
                            {
                                "patchline": {
                                    "destination": [ "obj-21", 0 ],
                                    "source": [ "obj-9", 0 ]
                                }
                            }
                        ]
                    },
                    "patching_rect": [ 40.5, 406.0, 67.0, 22.0 ],
                    "text": "p filewatch"
                }
            },
            {
                "box": {
                    "comment": "",
                    "id": "obj-20",
                    "index": 1,
                    "maxclass": "inlet",
                    "numinlets": 0,
                    "numoutlets": 1,
                    "outlettype": [ "" ],
                    "patching_rect": [ 482.0, 24.0, 25.0, 25.0 ]
                }
            },
            {
                "box": {
                    "fontname": "Arial",
                    "fontsize": 12.0,
                    "id": "obj-27",
                    "maxclass": "newobj",
                    "numinlets": 0,
                    "numoutlets": 1,
                    "outlettype": [ "" ],
                    "patcher": {
                        "fileversion": 1,
                        "appversion": {
                            "major": 9,
                            "minor": 1,
                            "revision": 0,
                            "architecture": "x64",
                            "modernui": 1
                        },
                        "classnamespace": "box",
                        "rect": [ 1215.0, 351.0, 640.0, 480.0 ],
                        "boxes": [
                            {
                                "box": {
                                    "id": "obj-2",
                                    "maxclass": "newobj",
                                    "numinlets": 1,
                                    "numoutlets": 1,
                                    "outlettype": [ "clearchecks" ],
                                    "patching_rect": [ 149.0, 197.0, 79.0, 22.0 ],
                                    "text": "t clearchecks"
                                }
                            },
                            {
                                "box": {
                                    "fontname": "Arial",
                                    "fontsize": 12.0,
                                    "id": "obj-12",
                                    "maxclass": "newobj",
                                    "numinlets": 3,
                                    "numoutlets": 2,
                                    "outlettype": [ "", "bang" ],
                                    "patching_rect": [ 149.0, 235.0, 99.0, 22.0 ],
                                    "text": "ll.pf folder_menu"
                                }
                            },
                            {
                                "box": {
                                    "id": "obj-1",
                                    "maxclass": "newobj",
                                    "numinlets": 1,
                                    "numoutlets": 2,
                                    "outlettype": [ "", "bang" ],
                                    "patching_rect": [ 50.0, 88.0, 65.0, 22.0 ],
                                    "text": "ll.r open! 1"
                                }
                            },
                            {
                                "box": {
                                    "id": "obj-22",
                                    "maxclass": "button",
                                    "numinlets": 1,
                                    "numoutlets": 1,
                                    "outlettype": [ "bang" ],
                                    "parameter_enable": 0,
                                    "patching_rect": [ 50.0, 123.0, 20.0, 20.0 ]
                                }
                            },
                            {
                                "box": {
                                    "fontname": "Arial",
                                    "fontsize": 12.0,
                                    "id": "obj-20",
                                    "maxclass": "newobj",
                                    "numinlets": 1,
                                    "numoutlets": 2,
                                    "outlettype": [ "", "bang" ],
                                    "patching_rect": [ 50.0, 150.0, 69.0, 22.0 ],
                                    "text": "opendialog"
                                }
                            },
                            {
                                "box": {
                                    "comment": "",
                                    "id": "obj-24",
                                    "index": 1,
                                    "maxclass": "outlet",
                                    "numinlets": 1,
                                    "numoutlets": 0,
                                    "patching_rect": [ 50.0, 330.0, 25.0, 25.0 ]
                                }
                            }
                        ],
                        "lines": [
                            {
                                "patchline": {
                                    "destination": [ "obj-22", 0 ],
                                    "source": [ "obj-1", 0 ]
                                }
                            },
                            {
                                "patchline": {
                                    "destination": [ "obj-12", 0 ],
                                    "source": [ "obj-2", 0 ]
                                }
                            },
                            {
                                "patchline": {
                                    "destination": [ "obj-2", 0 ],
                                    "order": 0,
                                    "source": [ "obj-20", 0 ]
                                }
                            },
                            {
                                "patchline": {
                                    "destination": [ "obj-24", 0 ],
                                    "order": 1,
                                    "source": [ "obj-20", 0 ]
                                }
                            },
                            {
                                "patchline": {
                                    "destination": [ "obj-20", 0 ],
                                    "source": [ "obj-22", 0 ]
                                }
                            }
                        ]
                    },
                    "patching_rect": [ 436.0, 383.0, 47.0, 22.0 ],
                    "text": "p open"
                }
            },
            {
                "box": {
                    "fontname": "Arial",
                    "fontsize": 12.0,
                    "id": "obj-2",
                    "maxclass": "comment",
                    "numinlets": 1,
                    "numoutlets": 0,
                    "patching_rect": [ 322.0, 364.0, 64.0, 20.0 ],
                    "text": "the path:::"
                }
            },
            {
                "box": {
                    "fontname": "Arial",
                    "fontsize": 12.0,
                    "id": "obj-17",
                    "maxclass": "newobj",
                    "numinlets": 1,
                    "numoutlets": 2,
                    "outlettype": [ "", "bang" ],
                    "patching_rect": [ 306.0, 383.0, 100.0, 22.0 ],
                    "text": "ll.r file_menu_out"
                }
            },
            {
                "box": {
                    "fontname": "Arial",
                    "fontsize": 12.0,
                    "id": "obj-10",
                    "maxclass": "newobj",
                    "numinlets": 1,
                    "numoutlets": 2,
                    "outlettype": [ "", "bang" ],
                    "patching_rect": [ 28.0, 16.0, 334.0, 22.0 ],
                    "text": "ll.r folder_menu"
                }
            },
            {
                "box": {
                    "comment": "file_path",
                    "id": "obj-8",
                    "index": 1,
                    "maxclass": "outlet",
                    "numinlets": 1,
                    "numoutlets": 0,
                    "patching_rect": [ 306.0, 458.0, 25.0, 25.0 ]
                }
            },
            {
                "box": {
                    "fontname": "Arial",
                    "fontsize": 12.0,
                    "id": "obj-6",
                    "maxclass": "newobj",
                    "numinlets": 3,
                    "numoutlets": 2,
                    "outlettype": [ "", "bang" ],
                    "patching_rect": [ 112.5, 407.0, 81.0, 22.0 ],
                    "text": "ll.p file_menu"
                }
            },
            {
                "box": {
                    "fontname": "Arial",
                    "fontsize": 12.0,
                    "id": "obj-37",
                    "maxclass": "newobj",
                    "numinlets": 1,
                    "numoutlets": 1,
                    "outlettype": [ "" ],
                    "patcher": {
                        "fileversion": 1,
                        "appversion": {
                            "major": 9,
                            "minor": 1,
                            "revision": 0,
                            "architecture": "x64",
                            "modernui": 1
                        },
                        "classnamespace": "box",
                        "rect": [ 800.0, 213.0, 444.0, 500.0 ],
                        "boxes": [
                            {
                                "box": {
                                    "comment": "",
                                    "id": "obj-30",
                                    "index": 1,
                                    "maxclass": "inlet",
                                    "numinlets": 0,
                                    "numoutlets": 1,
                                    "outlettype": [ "" ],
                                    "patching_rect": [ 193.0, 43.0, 30.0, 30.0 ]
                                }
                            },
                            {
                                "box": {
                                    "id": "obj-28",
                                    "maxclass": "newobj",
                                    "numinlets": 1,
                                    "numoutlets": 1,
                                    "outlettype": [ "" ],
                                    "patching_rect": [ 47.0, 213.0, 113.0, 22.0 ],
                                    "text": "prepend add_folder"
                                }
                            },
                            {
                                "box": {
                                    "comment": "",
                                    "id": "obj-27",
                                    "index": 1,
                                    "maxclass": "outlet",
                                    "numinlets": 1,
                                    "numoutlets": 0,
                                    "patching_rect": [ 47.0, 292.0, 30.0, 30.0 ]
                                }
                            },
                            {
                                "box": {
                                    "id": "obj-23",
                                    "maxclass": "message",
                                    "numinlets": 2,
                                    "numoutlets": 1,
                                    "outlettype": [ "" ],
                                    "patching_rect": [ 98.0, 244.0, 94.0, 22.0 ],
                                    "text": "add_folder soso"
                                }
                            },
                            {
                                "box": {
                                    "id": "obj-19",
                                    "maxclass": "newobj",
                                    "numinlets": 1,
                                    "numoutlets": 2,
                                    "outlettype": [ "", "bang" ],
                                    "patching_rect": [ 225.5, 117.0, 41.0, 22.0 ],
                                    "text": "ll.r ff 1"
                                }
                            },
                            {
                                "box": {
                                    "id": "obj-1",
                                    "maxclass": "newobj",
                                    "numinlets": 1,
                                    "numoutlets": 2,
                                    "outlettype": [ "", "bang" ],
                                    "patching_rect": [ 17.0, 24.0, 38.0, 22.0 ],
                                    "text": "ll.r f 1"
                                }
                            },
                            {
                                "box": {
                                    "fontname": "Arial",
                                    "fontsize": 12.0,
                                    "id": "obj-33",
                                    "maxclass": "newobj",
                                    "numinlets": 1,
                                    "numoutlets": 2,
                                    "outlettype": [ "", "bang" ],
                                    "patching_rect": [ 64.0, 24.0, 91.0, 22.0 ],
                                    "text": "ll.r folder_menu"
                                }
                            },
                            {
                                "box": {
                                    "fontname": "Arial",
                                    "fontsize": 12.0,
                                    "id": "obj-25",
                                    "maxclass": "newobj",
                                    "numinlets": 2,
                                    "numoutlets": 2,
                                    "outlettype": [ "", "" ],
                                    "patching_rect": [ 64.0, 54.0, 98.0, 22.0 ],
                                    "text": "route add_folder"
                                }
                            },
                            {
                                "box": {
                                    "fontname": "Arial",
                                    "fontsize": 12.0,
                                    "id": "obj-38",
                                    "maxclass": "newobj",
                                    "numinlets": 1,
                                    "numoutlets": 1,
                                    "outlettype": [ "" ],
                                    "patcher": {
                                        "fileversion": 1,
                                        "appversion": {
                                            "major": 9,
                                            "minor": 1,
                                            "revision": 0,
                                            "architecture": "x64",
                                            "modernui": 1
                                        },
                                        "classnamespace": "box",
                                        "rect": [ 485.0, 182.0, 556.0, 485.0 ],
                                        "boxes": [
                                            {
                                                "box": {
                                                    "fontname": "Arial",
                                                    "fontsize": 12.0,
                                                    "id": "obj-1",
                                                    "maxclass": "newobj",
                                                    "numinlets": 1,
                                                    "numoutlets": 0,
                                                    "patching_rect": [ 280.0, 87.0, 86.0, 22.0 ],
                                                    "text": "n opendialog2"
                                                }
                                            },
                                            {
                                                "box": {
                                                    "fontname": "Arial",
                                                    "fontsize": 12.0,
                                                    "id": "obj-4",
                                                    "maxclass": "newobj",
                                                    "numinlets": 1,
                                                    "numoutlets": 2,
                                                    "outlettype": [ "bang", "" ],
                                                    "patching_rect": [ 167.0, 234.0, 33.0, 22.0 ],
                                                    "text": "t b s"
                                                }
                                            },
                                            {
                                                "box": {
                                                    "fontname": "Arial",
                                                    "fontsize": 12.0,
                                                    "id": "obj-2",
                                                    "maxclass": "newobj",
                                                    "numinlets": 2,
                                                    "numoutlets": 2,
                                                    "outlettype": [ "", "" ],
                                                    "patching_rect": [ 167.0, 267.0, 40.0, 22.0 ],
                                                    "text": "zl reg"
                                                }
                                            },
                                            {
                                                "box": {
                                                    "id": "obj-21",
                                                    "maxclass": "button",
                                                    "numinlets": 1,
                                                    "numoutlets": 1,
                                                    "outlettype": [ "bang" ],
                                                    "parameter_enable": 0,
                                                    "patching_rect": [ 213.0, 80.0, 20.0, 20.0 ]
                                                }
                                            },
                                            {
                                                "box": {
                                                    "comment": "",
                                                    "id": "obj-3",
                                                    "index": 1,
                                                    "maxclass": "inlet",
                                                    "numinlets": 0,
                                                    "numoutlets": 1,
                                                    "outlettype": [ "" ],
                                                    "patching_rect": [ 167.0, 45.0, 25.0, 25.0 ]
                                                }
                                            },
                                            {
                                                "box": {
                                                    "fontname": "Arial",
                                                    "fontsize": 9.0,
                                                    "id": "obj-7",
                                                    "maxclass": "newobj",
                                                    "numinlets": 1,
                                                    "numoutlets": 1,
                                                    "outlettype": [ "" ],
                                                    "patching_rect": [ 167.0, 317.0, 49.0, 19.0 ],
                                                    "text": "tosymbol"
                                                }
                                            },
                                            {
                                                "box": {
                                                    "fontname": "Arial",
                                                    "fontsize": 9.0,
                                                    "id": "obj-8",
                                                    "maxclass": "newobj",
                                                    "numinlets": 1,
                                                    "numoutlets": 1,
                                                    "outlettype": [ "bang" ],
                                                    "patching_rect": [ 167.0, 74.0, 20.0, 19.0 ],
                                                    "text": "t b"
                                                }
                                            },
                                            {
                                                "box": {
                                                    "comment": "",
                                                    "id": "obj-10",
                                                    "index": 1,
                                                    "maxclass": "outlet",
                                                    "numinlets": 1,
                                                    "numoutlets": 0,
                                                    "patching_rect": [ 167.0, 356.0, 15.0, 15.0 ]
                                                }
                                            },
                                            {
                                                "box": {
                                                    "fontname": "Arial",
                                                    "fontsize": 9.0,
                                                    "id": "obj-11",
                                                    "linecount": 2,
                                                    "maxclass": "newobj",
                                                    "numinlets": 1,
                                                    "numoutlets": 1,
                                                    "outlettype": [ "bang" ],
                                                    "patching_rect": [ 89.0, 102.0, 45.0, 29.0 ],
                                                    "text": "loadbang"
                                                }
                                            },
                                            {
                                                "box": {
                                                    "fontname": "Arial",
                                                    "fontsize": 9.0,
                                                    "id": "obj-13",
                                                    "maxclass": "newobj",
                                                    "numinlets": 1,
                                                    "numoutlets": 3,
                                                    "outlettype": [ "bang", "", "" ],
                                                    "patching_rect": [ 167.0, 162.0, 40.0, 19.0 ],
                                                    "text": "t b s s"
                                                }
                                            },
                                            {
                                                "box": {
                                                    "fontname": "Arial",
                                                    "fontsize": 9.0,
                                                    "id": "obj-15",
                                                    "maxclass": "newobj",
                                                    "numinlets": 2,
                                                    "numoutlets": 1,
                                                    "outlettype": [ "" ],
                                                    "patching_rect": [ 167.0, 293.0, 75.0, 19.0 ],
                                                    "text": "sprintf %s%s/"
                                                }
                                            },
                                            {
                                                "box": {
                                                    "fontname": "Arial",
                                                    "fontsize": 9.0,
                                                    "id": "obj-16",
                                                    "maxclass": "newobj",
                                                    "numinlets": 2,
                                                    "numoutlets": 2,
                                                    "outlettype": [ "", "" ],
                                                    "patching_rect": [ 167.0, 212.0, 65.0, 19.0 ],
                                                    "text": "route append"
                                                }
                                            },
                                            {
                                                "box": {
                                                    "fontname": "Arial",
                                                    "fontsize": 9.0,
                                                    "id": "obj-18",
                                                    "maxclass": "message",
                                                    "numinlets": 2,
                                                    "numoutlets": 1,
                                                    "outlettype": [ "" ],
                                                    "patching_rect": [ 89.0, 168.0, 53.0, 19.0 ],
                                                    "text": "types fold"
                                                }
                                            },
                                            {
                                                "box": {
                                                    "color": [ 1.0, 0.890196, 0.090196, 1.0 ],
                                                    "fontname": "Arial",
                                                    "fontsize": 9.0,
                                                    "id": "obj-19",
                                                    "maxclass": "newobj",
                                                    "numinlets": 1,
                                                    "numoutlets": 2,
                                                    "outlettype": [ "", "bang" ],
                                                    "patching_rect": [ 167.0, 138.0, 74.0, 19.0 ],
                                                    "text": "opendialog fold"
                                                }
                                            },
                                            {
                                                "box": {
                                                    "fontname": "Arial",
                                                    "fontsize": 9.0,
                                                    "id": "obj-20",
                                                    "maxclass": "newobj",
                                                    "numinlets": 1,
                                                    "numoutlets": 2,
                                                    "outlettype": [ "", "int" ],
                                                    "patching_rect": [ 167.0, 188.0, 35.0, 19.0 ],
                                                    "text": "folder"
                                                }
                                            }
                                        ],
                                        "lines": [
                                            {
                                                "patchline": {
                                                    "destination": [ "obj-18", 0 ],
                                                    "source": [ "obj-11", 0 ]
                                                }
                                            },
                                            {
                                                "patchline": {
                                                    "destination": [ "obj-2", 1 ],
                                                    "source": [ "obj-13", 2 ]
                                                }
                                            },
                                            {
                                                "patchline": {
                                                    "destination": [ "obj-20", 0 ],
                                                    "source": [ "obj-13", 1 ]
                                                }
                                            },
                                            {
                                                "patchline": {
                                                    "destination": [ "obj-7", 0 ],
                                                    "source": [ "obj-15", 0 ]
                                                }
                                            },
                                            {
                                                "patchline": {
                                                    "destination": [ "obj-4", 0 ],
                                                    "source": [ "obj-16", 0 ]
                                                }
                                            },
                                            {
                                                "patchline": {
                                                    "destination": [ "obj-20", 0 ],
                                                    "source": [ "obj-18", 0 ]
                                                }
                                            },
                                            {
                                                "patchline": {
                                                    "destination": [ "obj-13", 0 ],
                                                    "source": [ "obj-19", 0 ]
                                                }
                                            },
                                            {
                                                "patchline": {
                                                    "destination": [ "obj-15", 0 ],
                                                    "source": [ "obj-2", 0 ]
                                                }
                                            },
                                            {
                                                "patchline": {
                                                    "destination": [ "obj-16", 0 ],
                                                    "source": [ "obj-20", 0 ]
                                                }
                                            },
                                            {
                                                "patchline": {
                                                    "destination": [ "obj-19", 0 ],
                                                    "source": [ "obj-21", 0 ]
                                                }
                                            },
                                            {
                                                "patchline": {
                                                    "destination": [ "obj-8", 0 ],
                                                    "source": [ "obj-3", 0 ]
                                                }
                                            },
                                            {
                                                "patchline": {
                                                    "destination": [ "obj-15", 1 ],
                                                    "source": [ "obj-4", 1 ]
                                                }
                                            },
                                            {
                                                "patchline": {
                                                    "destination": [ "obj-2", 0 ],
                                                    "source": [ "obj-4", 0 ]
                                                }
                                            },
                                            {
                                                "patchline": {
                                                    "destination": [ "obj-10", 0 ],
                                                    "source": [ "obj-7", 0 ]
                                                }
                                            },
                                            {
                                                "patchline": {
                                                    "destination": [ "obj-1", 0 ],
                                                    "order": 0,
                                                    "source": [ "obj-8", 0 ]
                                                }
                                            },
                                            {
                                                "patchline": {
                                                    "destination": [ "obj-19", 0 ],
                                                    "order": 1,
                                                    "source": [ "obj-8", 0 ]
                                                }
                                            }
                                        ]
                                    },
                                    "patching_rect": [ 225.5, 153.0, 62.0, 22.0 ],
                                    "text": "p ff"
                                }
                            },
                            {
                                "box": {
                                    "id": "obj-2",
                                    "maxclass": "button",
                                    "numinlets": 1,
                                    "numoutlets": 1,
                                    "outlettype": [ "bang" ],
                                    "parameter_enable": 0,
                                    "patching_rect": [ 17.0, 105.0, 20.0, 20.0 ]
                                }
                            },
                            {
                                "box": {
                                    "fontname": "Arial",
                                    "fontsize": 12.0,
                                    "id": "obj-7",
                                    "maxclass": "newobj",
                                    "numinlets": 1,
                                    "numoutlets": 1,
                                    "outlettype": [ "bang" ],
                                    "patching_rect": [ 47.0, 91.0, 24.0, 22.0 ],
                                    "text": "t b"
                                }
                            },
                            {
                                "box": {
                                    "color": [ 1.0, 0.890196, 0.090196, 1.0 ],
                                    "fontname": "Arial",
                                    "fontsize": 12.0,
                                    "id": "obj-12",
                                    "maxclass": "newobj",
                                    "numinlets": 1,
                                    "numoutlets": 2,
                                    "outlettype": [ "", "bang" ],
                                    "patching_rect": [ 47.0, 122.0, 96.0, 22.0 ],
                                    "text": "opendialog fold"
                                }
                            }
                        ],
                        "lines": [
                            {
                                "patchline": {
                                    "destination": [ "obj-7", 0 ],
                                    "source": [ "obj-1", 0 ]
                                }
                            },
                            {
                                "patchline": {
                                    "destination": [ "obj-28", 0 ],
                                    "source": [ "obj-12", 0 ]
                                }
                            },
                            {
                                "patchline": {
                                    "destination": [ "obj-38", 0 ],
                                    "source": [ "obj-19", 0 ]
                                }
                            },
                            {
                                "patchline": {
                                    "destination": [ "obj-12", 0 ],
                                    "source": [ "obj-2", 0 ]
                                }
                            },
                            {
                                "patchline": {
                                    "destination": [ "obj-27", 0 ],
                                    "source": [ "obj-23", 0 ]
                                }
                            },
                            {
                                "patchline": {
                                    "destination": [ "obj-7", 0 ],
                                    "source": [ "obj-25", 0 ]
                                }
                            },
                            {
                                "patchline": {
                                    "destination": [ "obj-27", 0 ],
                                    "source": [ "obj-28", 0 ]
                                }
                            },
                            {
                                "patchline": {
                                    "destination": [ "obj-7", 0 ],
                                    "source": [ "obj-30", 0 ]
                                }
                            },
                            {
                                "patchline": {
                                    "destination": [ "obj-25", 0 ],
                                    "source": [ "obj-33", 0 ]
                                }
                            },
                            {
                                "patchline": {
                                    "destination": [ "obj-28", 0 ],
                                    "source": [ "obj-38", 0 ]
                                }
                            },
                            {
                                "patchline": {
                                    "destination": [ "obj-12", 0 ],
                                    "source": [ "obj-7", 0 ]
                                }
                            }
                        ]
                    },
                    "patching_rect": [ 182.0, 146.0, 81.0, 22.0 ],
                    "text": "p f_ff_buttons"
                }
            }
        ],
        "lines": [
            {
                "patchline": {
                    "destination": [ "obj-6", 0 ],
                    "source": [ "obj-1", 1 ]
                }
            },
            {
                "patchline": {
                    "destination": [ "obj-16", 0 ],
                    "source": [ "obj-10", 0 ]
                }
            },
            {
                "patchline": {
                    "destination": [ "obj-22", 0 ],
                    "source": [ "obj-10", 1 ]
                }
            },
            {
                "patchline": {
                    "destination": [ "obj-18", 0 ],
                    "source": [ "obj-13", 0 ]
                }
            },
            {
                "patchline": {
                    "destination": [ "obj-26", 0 ],
                    "source": [ "obj-16", 1 ]
                }
            },
            {
                "patchline": {
                    "destination": [ "obj-26", 0 ],
                    "source": [ "obj-16", 0 ]
                }
            },
            {
                "patchline": {
                    "destination": [ "obj-35", 0 ],
                    "source": [ "obj-16", 3 ]
                }
            },
            {
                "patchline": {
                    "destination": [ "obj-37", 0 ],
                    "source": [ "obj-16", 2 ]
                }
            },
            {
                "patchline": {
                    "destination": [ "obj-8", 0 ],
                    "source": [ "obj-17", 0 ]
                }
            },
            {
                "patchline": {
                    "destination": [ "obj-47", 0 ],
                    "source": [ "obj-20", 0 ]
                }
            },
            {
                "patchline": {
                    "destination": [ "obj-32", 0 ],
                    "source": [ "obj-22", 0 ]
                }
            },
            {
                "patchline": {
                    "destination": [ "obj-8", 0 ],
                    "source": [ "obj-27", 0 ]
                }
            },
            {
                "patchline": {
                    "destination": [ "obj-26", 0 ],
                    "source": [ "obj-32", 0 ]
                }
            },
            {
                "patchline": {
                    "destination": [ "obj-26", 0 ],
                    "source": [ "obj-35", 0 ]
                }
            },
            {
                "patchline": {
                    "destination": [ "obj-26", 0 ],
                    "source": [ "obj-37", 0 ]
                }
            },
            {
                "patchline": {
                    "destination": [ "obj-13", 0 ],
                    "source": [ "obj-5", 0 ]
                }
            },
            {
                "patchline": {
                    "destination": [ "obj-1", 1 ],
                    "source": [ "obj-6", 0 ]
                }
            }
        ]
    }
}