{
	"patcher" : 	{
		"fileversion" : 1,
		"appversion" : 		{
			"major" : 8,
			"minor" : 6,
			"revision" : 0,
			"architecture" : "x64",
			"modernui" : 1
		}
,
		"classnamespace" : "box",
		"rect" : [ 320.0, 101.0, 935.0, 688.0 ],
		"bglocked" : 0,
		"openinpresentation" : 0,
		"default_fontsize" : 12.0,
		"default_fontface" : 0,
		"default_fontname" : "Arial",
		"gridonopen" : 1,
		"gridsize" : [ 15.0, 15.0 ],
		"gridsnaponopen" : 1,
		"objectsnaponopen" : 1,
		"statusbarvisible" : 2,
		"toolbarvisible" : 1,
		"lefttoolbarpinned" : 0,
		"toptoolbarpinned" : 0,
		"righttoolbarpinned" : 0,
		"bottomtoolbarpinned" : 0,
		"toolbars_unpinned_last_save" : 0,
		"tallnewobj" : 0,
		"boxanimatetime" : 200,
		"enablehscroll" : 1,
		"enablevscroll" : 1,
		"devicewidth" : 0.0,
		"description" : "",
		"digest" : "",
		"tags" : "",
		"style" : "",
		"subpatcher_template" : "",
		"assistshowspatchername" : 0,
		"boxes" : [ 			{
				"box" : 				{
					"id" : "obj-63",
					"maxclass" : "newobj",
					"numinlets" : 3,
					"numoutlets" : 0,
					"patcher" : 					{
						"fileversion" : 1,
						"appversion" : 						{
							"major" : 8,
							"minor" : 6,
							"revision" : 0,
							"architecture" : "x64",
							"modernui" : 1
						}
,
						"classnamespace" : "box",
						"rect" : [ 84.0, 131.0, 640.0, 480.0 ],
						"bglocked" : 0,
						"openinpresentation" : 0,
						"default_fontsize" : 12.0,
						"default_fontface" : 0,
						"default_fontname" : "Arial",
						"gridonopen" : 1,
						"gridsize" : [ 15.0, 15.0 ],
						"gridsnaponopen" : 1,
						"objectsnaponopen" : 1,
						"statusbarvisible" : 2,
						"toolbarvisible" : 1,
						"lefttoolbarpinned" : 0,
						"toptoolbarpinned" : 0,
						"righttoolbarpinned" : 0,
						"bottomtoolbarpinned" : 0,
						"toolbars_unpinned_last_save" : 0,
						"tallnewobj" : 0,
						"boxanimatetime" : 200,
						"enablehscroll" : 1,
						"enablevscroll" : 1,
						"devicewidth" : 0.0,
						"description" : "",
						"digest" : "",
						"tags" : "",
						"style" : "",
						"subpatcher_template" : "",
						"assistshowspatchername" : 0,
						"boxes" : [ 							{
								"box" : 								{
									"id" : "obj-37",
									"maxclass" : "newobj",
									"numinlets" : 1,
									"numoutlets" : 4,
									"outlettype" : [ "", "", "", "" ],
									"patching_rect" : [ 50.0, 172.0, 101.0, 22.0 ],
									"saved_object_attributes" : 									{
										"embed" : 0,
										"precision" : 6
									}
,
									"text" : "coll ppooll_syncs"
								}

							}
, 							{
								"box" : 								{
									"id" : "obj-36",
									"maxclass" : "message",
									"numinlets" : 2,
									"numoutlets" : 1,
									"outlettype" : [ "" ],
									"patching_rect" : [ 50.0, 141.0, 41.0, 22.0 ],
									"text" : "dump"
								}

							}
, 							{
								"box" : 								{
									"fontname" : "Arial",
									"fontsize" : 10.0,
									"id" : "obj-46",
									"linecount" : 3,
									"maxclass" : "message",
									"numinlets" : 2,
									"numoutlets" : 1,
									"outlettype" : [ "" ],
									"patching_rect" : [ 204.0, 121.0, 87.0, 42.0 ],
									"text" : "clear, append sync-off, append sync_in"
								}

							}
, 							{
								"box" : 								{
									"fontname" : "Arial",
									"fontsize" : 10.0,
									"id" : "obj-51",
									"maxclass" : "newobj",
									"numinlets" : 1,
									"numoutlets" : 1,
									"outlettype" : [ "" ],
									"patching_rect" : [ 112.0, 304.0, 83.0, 20.0 ],
									"text" : "prepend append"
								}

							}
, 							{
								"box" : 								{
									"fontname" : "Arial",
									"fontsize" : 9.0,
									"id" : "obj-25",
									"maxclass" : "newobj",
									"numinlets" : 3,
									"numoutlets" : 2,
									"outlettype" : [ "", "bang" ],
									"patching_rect" : [ 112.0, 345.0, 53.0, 19.0 ],
									"text" : "ll.pf syncto"
								}

							}
, 							{
								"box" : 								{
									"id" : "obj-10",
									"maxclass" : "newobj",
									"numinlets" : 2,
									"numoutlets" : 2,
									"outlettype" : [ "", "" ],
									"patching_rect" : [ 77.0, 208.0, 79.0, 22.0 ],
									"text" : "route symbol"
								}

							}
, 							{
								"box" : 								{
									"fontname" : "Arial",
									"fontsize" : 10.0,
									"id" : "obj-52",
									"maxclass" : "newobj",
									"numinlets" : 2,
									"numoutlets" : 2,
									"outlettype" : [ "", "" ],
									"patching_rect" : [ 77.0, 266.0, 54.0, 20.0 ],
									"text" : "routepass"
								}

							}
, 							{
								"box" : 								{
									"comment" : "",
									"id" : "obj-59",
									"index" : 1,
									"maxclass" : "inlet",
									"numinlets" : 0,
									"numoutlets" : 1,
									"outlettype" : [ "" ],
									"patching_rect" : [ 50.0, 40.0, 30.0, 30.0 ]
								}

							}
, 							{
								"box" : 								{
									"comment" : "",
									"id" : "obj-61",
									"index" : 3,
									"maxclass" : "inlet",
									"numinlets" : 0,
									"numoutlets" : 1,
									"outlettype" : [ "" ],
									"patching_rect" : [ 311.0, 212.0, 30.0, 30.0 ]
								}

							}
, 							{
								"box" : 								{
									"comment" : "",
									"id" : "obj-62",
									"index" : 2,
									"maxclass" : "inlet",
									"numinlets" : 0,
									"numoutlets" : 1,
									"outlettype" : [ "bang" ],
									"patching_rect" : [ 204.0, 61.0, 30.0, 30.0 ]
								}

							}
 ],
						"lines" : [ 							{
								"patchline" : 								{
									"destination" : [ "obj-52", 0 ],
									"source" : [ "obj-10", 0 ]
								}

							}
, 							{
								"patchline" : 								{
									"destination" : [ "obj-37", 0 ],
									"source" : [ "obj-36", 0 ]
								}

							}
, 							{
								"patchline" : 								{
									"destination" : [ "obj-10", 0 ],
									"source" : [ "obj-37", 1 ]
								}

							}
, 							{
								"patchline" : 								{
									"destination" : [ "obj-25", 0 ],
									"midpoints" : [ 213.5, 335.0, 121.5, 335.0 ],
									"source" : [ "obj-46", 0 ]
								}

							}
, 							{
								"patchline" : 								{
									"destination" : [ "obj-25", 0 ],
									"source" : [ "obj-51", 0 ]
								}

							}
, 							{
								"patchline" : 								{
									"destination" : [ "obj-51", 0 ],
									"source" : [ "obj-52", 1 ]
								}

							}
, 							{
								"patchline" : 								{
									"destination" : [ "obj-36", 0 ],
									"source" : [ "obj-59", 0 ]
								}

							}
, 							{
								"patchline" : 								{
									"destination" : [ "obj-52", 1 ],
									"source" : [ "obj-61", 0 ]
								}

							}
, 							{
								"patchline" : 								{
									"destination" : [ "obj-46", 0 ],
									"source" : [ "obj-62", 0 ]
								}

							}
 ]
					}
,
					"patching_rect" : [ 384.0, 261.0, 101.0, 22.0 ],
					"saved_object_attributes" : 					{
						"description" : "",
						"digest" : "",
						"globalpatchername" : "",
						"tags" : ""
					}
,
					"text" : "p fill menu"
				}

			}
, 			{
				"box" : 				{
					"id" : "obj-58",
					"maxclass" : "comment",
					"numinlets" : 1,
					"numoutlets" : 0,
					"patching_rect" : [ 378.0, 557.0, 86.0, 20.0 ],
					"text" : "thru@no_sync"
				}

			}
, 			{
				"box" : 				{
					"id" : "obj-54",
					"maxclass" : "newobj",
					"numinlets" : 2,
					"numoutlets" : 2,
					"outlettype" : [ "", "int" ],
					"patcher" : 					{
						"fileversion" : 1,
						"appversion" : 						{
							"major" : 8,
							"minor" : 6,
							"revision" : 0,
							"architecture" : "x64",
							"modernui" : 1
						}
,
						"classnamespace" : "box",
						"rect" : [ 59.0, 106.0, 640.0, 480.0 ],
						"bglocked" : 0,
						"openinpresentation" : 0,
						"default_fontsize" : 12.0,
						"default_fontface" : 0,
						"default_fontname" : "Arial",
						"gridonopen" : 1,
						"gridsize" : [ 15.0, 15.0 ],
						"gridsnaponopen" : 1,
						"objectsnaponopen" : 1,
						"statusbarvisible" : 2,
						"toolbarvisible" : 1,
						"lefttoolbarpinned" : 0,
						"toptoolbarpinned" : 0,
						"righttoolbarpinned" : 0,
						"bottomtoolbarpinned" : 0,
						"toolbars_unpinned_last_save" : 0,
						"tallnewobj" : 0,
						"boxanimatetime" : 200,
						"enablehscroll" : 1,
						"enablevscroll" : 1,
						"devicewidth" : 0.0,
						"description" : "",
						"digest" : "",
						"tags" : "",
						"style" : "",
						"subpatcher_template" : "",
						"assistshowspatchername" : 0,
						"boxes" : [ 							{
								"box" : 								{
									"id" : "obj-30",
									"maxclass" : "message",
									"numinlets" : 2,
									"numoutlets" : 1,
									"outlettype" : [ "" ],
									"patching_rect" : [ 85.0, 155.0, 29.5, 22.0 ],
									"text" : "off"
								}

							}
, 							{
								"box" : 								{
									"fontname" : "Arial",
									"fontsize" : 12.0,
									"id" : "obj-28",
									"maxclass" : "newobj",
									"numinlets" : 1,
									"numoutlets" : 1,
									"outlettype" : [ "" ],
									"patching_rect" : [ 100.0, 273.0, 128.0, 22.0 ],
									"text" : "sprintf set %s~sync_in"
								}

							}
, 							{
								"box" : 								{
									"id" : "obj-15",
									"maxclass" : "message",
									"numinlets" : 2,
									"numoutlets" : 1,
									"outlettype" : [ "" ],
									"patching_rect" : [ 100.0, 240.0, 120.0, 22.0 ],
									"text" : "modul.ator2"
								}

							}
, 							{
								"box" : 								{
									"fontname" : "Arial",
									"fontsize" : 9.0,
									"id" : "obj-12",
									"maxclass" : "newobj",
									"numinlets" : 1,
									"numoutlets" : 1,
									"outlettype" : [ "int" ],
									"patching_rect" : [ 405.0, 194.0, 21.0, 19.0 ],
									"text" : "t 1"
								}

							}
, 							{
								"box" : 								{
									"fontname" : "Arial",
									"fontsize" : 9.0,
									"id" : "obj-6",
									"maxclass" : "newobj",
									"numinlets" : 1,
									"numoutlets" : 1,
									"outlettype" : [ "int" ],
									"patching_rect" : [ 380.0, 194.0, 21.0, 19.0 ],
									"text" : "t 0"
								}

							}
, 							{
								"box" : 								{
									"fontname" : "Arial",
									"fontsize" : 12.0,
									"id" : "obj-14",
									"maxclass" : "newobj",
									"numinlets" : 3,
									"numoutlets" : 3,
									"outlettype" : [ "", "", "" ],
									"patching_rect" : [ 85.0, 100.0, 292.0, 22.0 ],
									"text" : "route sync-off sync_in"
								}

							}
, 							{
								"box" : 								{
									"fontname" : "Arial",
									"fontsize" : 12.0,
									"id" : "obj-21",
									"maxclass" : "newobj",
									"numinlets" : 1,
									"numoutlets" : 1,
									"outlettype" : [ "" ],
									"patching_rect" : [ 100.0, 351.0, 112.0, 22.0 ],
									"text" : "sprintf set %s~sync"
								}

							}
, 							{
								"box" : 								{
									"comment" : "",
									"id" : "obj-48",
									"index" : 1,
									"maxclass" : "inlet",
									"numinlets" : 0,
									"numoutlets" : 1,
									"outlettype" : [ "" ],
									"patching_rect" : [ 85.0, 40.0, 30.0, 30.0 ]
								}

							}
, 							{
								"box" : 								{
									"comment" : "",
									"id" : "obj-49",
									"index" : 2,
									"maxclass" : "inlet",
									"numinlets" : 0,
									"numoutlets" : 1,
									"outlettype" : [ "" ],
									"patching_rect" : [ 201.0, 200.0, 30.0, 30.0 ]
								}

							}
, 							{
								"box" : 								{
									"comment" : "",
									"id" : "obj-50",
									"index" : 1,
									"maxclass" : "outlet",
									"numinlets" : 1,
									"numoutlets" : 0,
									"patching_rect" : [ 94.0, 433.0, 30.0, 30.0 ]
								}

							}
, 							{
								"box" : 								{
									"comment" : "",
									"id" : "obj-53",
									"index" : 2,
									"maxclass" : "outlet",
									"numinlets" : 1,
									"numoutlets" : 0,
									"patching_rect" : [ 396.0, 245.0, 30.0, 30.0 ]
								}

							}
 ],
						"lines" : [ 							{
								"patchline" : 								{
									"destination" : [ "obj-53", 0 ],
									"source" : [ "obj-12", 0 ]
								}

							}
, 							{
								"patchline" : 								{
									"destination" : [ "obj-12", 0 ],
									"order" : 0,
									"source" : [ "obj-14", 2 ]
								}

							}
, 							{
								"patchline" : 								{
									"destination" : [ "obj-12", 0 ],
									"order" : 0,
									"source" : [ "obj-14", 1 ]
								}

							}
, 							{
								"patchline" : 								{
									"destination" : [ "obj-15", 0 ],
									"order" : 1,
									"source" : [ "obj-14", 1 ]
								}

							}
, 							{
								"patchline" : 								{
									"destination" : [ "obj-21", 0 ],
									"order" : 1,
									"source" : [ "obj-14", 2 ]
								}

							}
, 							{
								"patchline" : 								{
									"destination" : [ "obj-30", 0 ],
									"order" : 1,
									"source" : [ "obj-14", 0 ]
								}

							}
, 							{
								"patchline" : 								{
									"destination" : [ "obj-6", 0 ],
									"order" : 0,
									"source" : [ "obj-14", 0 ]
								}

							}
, 							{
								"patchline" : 								{
									"destination" : [ "obj-28", 0 ],
									"source" : [ "obj-15", 0 ]
								}

							}
, 							{
								"patchline" : 								{
									"destination" : [ "obj-50", 0 ],
									"source" : [ "obj-21", 0 ]
								}

							}
, 							{
								"patchline" : 								{
									"destination" : [ "obj-50", 0 ],
									"source" : [ "obj-28", 0 ]
								}

							}
, 							{
								"patchline" : 								{
									"destination" : [ "obj-21", 0 ],
									"source" : [ "obj-30", 0 ]
								}

							}
, 							{
								"patchline" : 								{
									"destination" : [ "obj-14", 0 ],
									"source" : [ "obj-48", 0 ]
								}

							}
, 							{
								"patchline" : 								{
									"destination" : [ "obj-15", 1 ],
									"source" : [ "obj-49", 0 ]
								}

							}
, 							{
								"patchline" : 								{
									"destination" : [ "obj-53", 0 ],
									"source" : [ "obj-6", 0 ]
								}

							}
 ]
					}
,
					"patching_rect" : [ 75.0, 312.0, 150.0, 22.0 ],
					"saved_object_attributes" : 					{
						"description" : "",
						"digest" : "",
						"globalpatchername" : "",
						"tags" : ""
					}
,
					"text" : "p sync_menu"
				}

			}
, 			{
				"box" : 				{
					"id" : "obj-44",
					"maxclass" : "message",
					"numinlets" : 2,
					"numoutlets" : 1,
					"outlettype" : [ "" ],
					"patching_rect" : [ 800.0, 187.0, 109.0, 22.0 ]
				}

			}
, 			{
				"box" : 				{
					"id" : "obj-42",
					"maxclass" : "comment",
					"numinlets" : 1,
					"numoutlets" : 0,
					"patching_rect" : [ 561.0, 140.0, 49.0, 20.0 ],
					"text" : "register"
				}

			}
, 			{
				"box" : 				{
					"id" : "obj-40",
					"maxclass" : "newobj",
					"numinlets" : 1,
					"numoutlets" : 1,
					"outlettype" : [ "" ],
					"patcher" : 					{
						"fileversion" : 1,
						"appversion" : 						{
							"major" : 8,
							"minor" : 6,
							"revision" : 0,
							"architecture" : "x64",
							"modernui" : 1
						}
,
						"classnamespace" : "box",
						"rect" : [ 0.0, 0.0, 640.0, 480.0 ],
						"bglocked" : 0,
						"openinpresentation" : 0,
						"default_fontsize" : 12.0,
						"default_fontface" : 0,
						"default_fontname" : "Arial",
						"gridonopen" : 1,
						"gridsize" : [ 15.0, 15.0 ],
						"gridsnaponopen" : 1,
						"objectsnaponopen" : 1,
						"statusbarvisible" : 2,
						"toolbarvisible" : 1,
						"lefttoolbarpinned" : 0,
						"toptoolbarpinned" : 0,
						"righttoolbarpinned" : 0,
						"bottomtoolbarpinned" : 0,
						"toolbars_unpinned_last_save" : 0,
						"tallnewobj" : 0,
						"boxanimatetime" : 200,
						"enablehscroll" : 1,
						"enablevscroll" : 1,
						"devicewidth" : 0.0,
						"description" : "",
						"digest" : "",
						"tags" : "",
						"style" : "",
						"subpatcher_template" : "",
						"assistshowspatchername" : 0,
						"boxes" : [ 							{
								"box" : 								{
									"id" : "obj-18",
									"linecount" : 2,
									"maxclass" : "comment",
									"numinlets" : 1,
									"numoutlets" : 0,
									"patching_rect" : [ 98.0, 121.0, 150.0, 33.0 ],
									"text" : "multiple ll.syncs\n(via argument)"
								}

							}
, 							{
								"box" : 								{
									"id" : "obj-55",
									"maxclass" : "newobj",
									"numinlets" : 2,
									"numoutlets" : 2,
									"outlettype" : [ "", "" ],
									"patching_rect" : [ 77.0, 162.0, 37.0, 22.0 ],
									"text" : "zl.rev"
								}

							}
, 							{
								"box" : 								{
									"id" : "obj-48",
									"maxclass" : "newobj",
									"numinlets" : 2,
									"numoutlets" : 1,
									"outlettype" : [ "" ],
									"patching_rect" : [ 50.0, 100.0, 54.0, 22.0 ],
									"text" : "pak #1 s"
								}

							}
, 							{
								"box" : 								{
									"id" : "obj-47",
									"maxclass" : "newobj",
									"numinlets" : 2,
									"numoutlets" : 2,
									"outlettype" : [ "", "" ],
									"patching_rect" : [ 50.0, 132.0, 46.0, 22.0 ],
									"text" : "route 0"
								}

							}
, 							{
								"box" : 								{
									"id" : "obj-20",
									"maxclass" : "newobj",
									"numinlets" : 2,
									"numoutlets" : 1,
									"outlettype" : [ "" ],
									"patching_rect" : [ 77.0, 192.0, 81.0, 22.0 ],
									"text" : "sprintf %s.%s"
								}

							}
, 							{
								"box" : 								{
									"comment" : "",
									"id" : "obj-33",
									"index" : 1,
									"maxclass" : "inlet",
									"numinlets" : 0,
									"numoutlets" : 1,
									"outlettype" : [ "" ],
									"patching_rect" : [ 85.0, 40.0, 30.0, 30.0 ]
								}

							}
, 							{
								"box" : 								{
									"comment" : "",
									"id" : "obj-39",
									"index" : 1,
									"maxclass" : "outlet",
									"numinlets" : 1,
									"numoutlets" : 0,
									"patching_rect" : [ 57.5, 274.0, 30.0, 30.0 ]
								}

							}
 ],
						"lines" : [ 							{
								"patchline" : 								{
									"destination" : [ "obj-39", 0 ],
									"source" : [ "obj-20", 0 ]
								}

							}
, 							{
								"patchline" : 								{
									"destination" : [ "obj-48", 1 ],
									"source" : [ "obj-33", 0 ]
								}

							}
, 							{
								"patchline" : 								{
									"destination" : [ "obj-39", 0 ],
									"source" : [ "obj-47", 0 ]
								}

							}
, 							{
								"patchline" : 								{
									"destination" : [ "obj-55", 0 ],
									"source" : [ "obj-47", 1 ]
								}

							}
, 							{
								"patchline" : 								{
									"destination" : [ "obj-47", 0 ],
									"source" : [ "obj-48", 0 ]
								}

							}
, 							{
								"patchline" : 								{
									"destination" : [ "obj-20", 0 ],
									"source" : [ "obj-55", 0 ]
								}

							}
 ]
					}
,
					"patching_rect" : [ 615.0, 101.0, 67.0, 22.0 ],
					"saved_object_attributes" : 					{
						"description" : "",
						"digest" : "",
						"globalpatchername" : "",
						"tags" : ""
					}
,
					"text" : "p multiple?"
				}

			}
, 			{
				"box" : 				{
					"id" : "obj-60",
					"maxclass" : "newobj",
					"numinlets" : 1,
					"numoutlets" : 2,
					"outlettype" : [ "", "" ],
					"patching_rect" : [ 615.0, 139.0, 187.0, 22.0 ],
					"text" : "t s s"
				}

			}
, 			{
				"box" : 				{
					"id" : "obj-4",
					"maxclass" : "message",
					"numinlets" : 2,
					"numoutlets" : 1,
					"outlettype" : [ "" ],
					"patching_rect" : [ 141.0, 255.0, 120.0, 22.0 ],
					"text" : "modul.ator1"
				}

			}
, 			{
				"box" : 				{
					"id" : "obj-9",
					"maxclass" : "newobj",
					"numinlets" : 2,
					"numoutlets" : 0,
					"patcher" : 					{
						"fileversion" : 1,
						"appversion" : 						{
							"major" : 8,
							"minor" : 6,
							"revision" : 0,
							"architecture" : "x64",
							"modernui" : 1
						}
,
						"classnamespace" : "box",
						"rect" : [ 416.0, 461.0, 818.0, 585.0 ],
						"bglocked" : 0,
						"openinpresentation" : 0,
						"default_fontsize" : 12.0,
						"default_fontface" : 0,
						"default_fontname" : "Arial",
						"gridonopen" : 1,
						"gridsize" : [ 15.0, 15.0 ],
						"gridsnaponopen" : 1,
						"objectsnaponopen" : 1,
						"statusbarvisible" : 2,
						"toolbarvisible" : 1,
						"lefttoolbarpinned" : 0,
						"toptoolbarpinned" : 0,
						"righttoolbarpinned" : 0,
						"bottomtoolbarpinned" : 0,
						"toolbars_unpinned_last_save" : 0,
						"tallnewobj" : 0,
						"boxanimatetime" : 200,
						"enablehscroll" : 1,
						"enablevscroll" : 1,
						"devicewidth" : 0.0,
						"description" : "",
						"digest" : "",
						"tags" : "",
						"style" : "",
						"subpatcher_template" : "",
						"assistshowspatchername" : 0,
						"boxes" : [ 							{
								"box" : 								{
									"id" : "obj-10",
									"maxclass" : "message",
									"numinlets" : 2,
									"numoutlets" : 1,
									"outlettype" : [ "" ],
									"patching_rect" : [ 121.5, 42.0, 142.0, 22.0 ],
									"text" : "modul.ator2~sync"
								}

							}
, 							{
								"box" : 								{
									"id" : "obj-1",
									"maxclass" : "newobj",
									"numinlets" : 1,
									"numoutlets" : 3,
									"outlettype" : [ "", "int", "int" ],
									"patching_rect" : [ 537.333328247070312, 232.0, 58.0, 22.0 ],
									"text" : "change 1"
								}

							}
, 							{
								"box" : 								{
									"id" : "obj-33",
									"maxclass" : "message",
									"numinlets" : 2,
									"numoutlets" : 1,
									"outlettype" : [ "" ],
									"patching_rect" : [ 191.333328247070312, 443.0, 200.0, 22.0 ],
									"text" : "modul.ator2~sync"
								}

							}
, 							{
								"box" : 								{
									"id" : "obj-28",
									"maxclass" : "newobj",
									"numinlets" : 1,
									"numoutlets" : 1,
									"outlettype" : [ "" ],
									"patching_rect" : [ 344.333328247070312, 135.0, 72.0, 22.0 ],
									"text" : "prepend set"
								}

							}
, 							{
								"box" : 								{
									"id" : "obj-30",
									"maxclass" : "newobj",
									"numinlets" : 1,
									"numoutlets" : 2,
									"outlettype" : [ "", "int" ],
									"patching_rect" : [ 415.333328247070312, 104.0, 31.0, 22.0 ],
									"text" : "t s 1"
								}

							}
, 							{
								"box" : 								{
									"id" : "obj-31",
									"maxclass" : "newobj",
									"numinlets" : 1,
									"numoutlets" : 2,
									"outlettype" : [ "", "int" ],
									"patching_rect" : [ 344.333328247070312, 104.0, 67.0, 22.0 ],
									"text" : "unpack s 0"
								}

							}
, 							{
								"box" : 								{
									"id" : "obj-32",
									"maxclass" : "newobj",
									"numinlets" : 1,
									"numoutlets" : 5,
									"outlettype" : [ "", "", "", "", "" ],
									"patching_rect" : [ 312.333328247070312, 76.0, 105.0, 22.0 ],
									"text" : "regexp (.+)\\\\.(\\\\d+)"
								}

							}
, 							{
								"box" : 								{
									"comment" : "",
									"id" : "obj-27",
									"index" : 2,
									"maxclass" : "inlet",
									"numinlets" : 0,
									"numoutlets" : 1,
									"outlettype" : [ "" ],
									"patching_rect" : [ 312.333328247070312, 7.0, 30.0, 30.0 ],
									"varname" : "in[2]"
								}

							}
, 							{
								"box" : 								{
									"id" : "obj-24",
									"maxclass" : "newobj",
									"numinlets" : 2,
									"numoutlets" : 1,
									"outlettype" : [ "" ],
									"patching_rect" : [ 427.333328247070312, 317.0, 48.0, 22.0 ],
									"text" : "pipe 10"
								}

							}
, 							{
								"box" : 								{
									"id" : "obj-19",
									"maxclass" : "button",
									"numinlets" : 1,
									"numoutlets" : 1,
									"outlettype" : [ "bang" ],
									"parameter_enable" : 0,
									"patching_rect" : [ 519.333328247070312, 308.0, 24.0, 24.0 ]
								}

							}
, 							{
								"box" : 								{
									"id" : "obj-11",
									"maxclass" : "newobj",
									"numinlets" : 1,
									"numoutlets" : 0,
									"patching_rect" : [ 519.333328247070312, 339.0, 59.0, 22.0 ],
									"text" : "s ll_audio"
								}

							}
, 							{
								"box" : 								{
									"id" : "obj-5",
									"maxclass" : "newobj",
									"numinlets" : 2,
									"numoutlets" : 1,
									"outlettype" : [ "int" ],
									"patching_rect" : [ 427.333328247070312, 195.0, 29.5, 22.0 ],
									"text" : "- 1"
								}

							}
, 							{
								"box" : 								{
									"id" : "obj-29",
									"maxclass" : "newobj",
									"numinlets" : 2,
									"numoutlets" : 1,
									"outlettype" : [ "int" ],
									"patching_rect" : [ 427.333328247070312, 225.0, 29.5, 22.0 ],
									"text" : "> 0"
								}

							}
, 							{
								"box" : 								{
									"id" : "obj-26",
									"maxclass" : "newobj",
									"numinlets" : 1,
									"numoutlets" : 3,
									"outlettype" : [ "", "int", "int" ],
									"patching_rect" : [ 427.333328247070312, 279.0, 58.0, 22.0 ],
									"text" : "change 0"
								}

							}
, 							{
								"box" : 								{
									"id" : "obj-25",
									"maxclass" : "comment",
									"numinlets" : 1,
									"numoutlets" : 0,
									"patching_rect" : [ 484.333328247070312, 163.0, 150.0, 20.0 ],
									"text" : "mc.offset"
								}

							}
, 							{
								"box" : 								{
									"id" : "obj-23",
									"maxclass" : "number",
									"numinlets" : 1,
									"numoutlets" : 2,
									"outlettype" : [ "", "bang" ],
									"parameter_enable" : 0,
									"patching_rect" : [ 427.333328247070312, 163.0, 50.0, 22.0 ]
								}

							}
, 							{
								"box" : 								{
									"id" : "obj-21",
									"maxclass" : "newobj",
									"numinlets" : 3,
									"numoutlets" : 3,
									"outlettype" : [ "bang", "bang", "" ],
									"patching_rect" : [ 427.333328247070312, 351.0, 44.0, 22.0 ],
									"text" : "sel 0 1"
								}

							}
, 							{
								"box" : 								{
									"id" : "obj-20",
									"maxclass" : "toggle",
									"numinlets" : 1,
									"numoutlets" : 1,
									"outlettype" : [ "int" ],
									"parameter_enable" : 0,
									"patching_rect" : [ 427.333328247070312, 251.0, 24.0, 24.0 ]
								}

							}
, 							{
								"box" : 								{
									"id" : "obj-18",
									"maxclass" : "message",
									"numinlets" : 2,
									"numoutlets" : 1,
									"outlettype" : [ "" ],
									"patching_rect" : [ 439.833328247070312, 418.0, 373.0, 22.0 ],
									"text" : "disconnect in 0 send 0, connect in 0 comb 1, connect comb 0 send 0"
								}

							}
, 							{
								"box" : 								{
									"id" : "obj-17",
									"maxclass" : "message",
									"numinlets" : 2,
									"numoutlets" : 1,
									"outlettype" : [ "" ],
									"patching_rect" : [ 427.333328247070312, 381.0, 390.0, 22.0 ],
									"text" : "disconnect in 0 comb 1, disconnect comb 0 send 0, connect in 0 send 0"
								}

							}
, 							{
								"box" : 								{
									"id" : "obj-14",
									"maxclass" : "newobj",
									"numinlets" : 1,
									"numoutlets" : 1,
									"outlettype" : [ "" ],
									"patching_rect" : [ 427.333328247070312, 446.0, 85.0, 22.0 ],
									"text" : "prepend script"
								}

							}
, 							{
								"box" : 								{
									"id" : "obj-13",
									"maxclass" : "newobj",
									"numinlets" : 1,
									"numoutlets" : 2,
									"outlettype" : [ "", "" ],
									"patching_rect" : [ 427.333328247070312, 478.0, 67.0, 22.0 ],
									"save" : [ "#N", "thispatcher", ";", "#Q", "end", ";" ],
									"text" : "thispatcher"
								}

							}
, 							{
								"box" : 								{
									"comment" : "",
									"id" : "obj-12",
									"index" : 1,
									"maxclass" : "inlet",
									"numinlets" : 0,
									"numoutlets" : 1,
									"outlettype" : [ "signal" ],
									"patching_rect" : [ 92.0, 126.0, 30.0, 30.0 ],
									"varname" : "in"
								}

							}
, 							{
								"box" : 								{
									"id" : "obj-7",
									"maxclass" : "message",
									"numinlets" : 2,
									"numoutlets" : 1,
									"outlettype" : [ "" ],
									"patching_rect" : [ 116.0, 271.0, 57.0, 22.0 ],
									"text" : "chans $1"
								}

							}
, 							{
								"box" : 								{
									"fontsize" : 13.0,
									"id" : "obj-3",
									"maxclass" : "newobj",
									"numinlets" : 1,
									"numoutlets" : 1,
									"outlettype" : [ "multichannelsignal" ],
									"patching_rect" : [ 116.0, 312.0, 127.0, 23.0 ],
									"text" : "mc.sig~ 0 @chans 2"
								}

							}
, 							{
								"box" : 								{
									"id" : "obj-4",
									"maxclass" : "newobj",
									"numinlets" : 2,
									"numoutlets" : 1,
									"outlettype" : [ "multichannelsignal" ],
									"patching_rect" : [ 116.0, 366.0, 90.0, 22.0 ],
									"text" : "mc.combine~ 2",
									"varname" : "comb"
								}

							}
, 							{
								"box" : 								{
									"id" : "obj-2",
									"maxclass" : "newobj",
									"numinlets" : 1,
									"numoutlets" : 0,
									"patching_rect" : [ 116.0, 443.0, 61.0, 22.0 ],
									"text" : "mc.send~",
									"varname" : "send"
								}

							}
 ],
						"lines" : [ 							{
								"patchline" : 								{
									"destination" : [ "obj-19", 0 ],
									"source" : [ "obj-1", 0 ]
								}

							}
, 							{
								"patchline" : 								{
									"destination" : [ "obj-2", 0 ],
									"source" : [ "obj-12", 0 ]
								}

							}
, 							{
								"patchline" : 								{
									"destination" : [ "obj-13", 0 ],
									"source" : [ "obj-14", 0 ]
								}

							}
, 							{
								"patchline" : 								{
									"destination" : [ "obj-14", 0 ],
									"source" : [ "obj-17", 0 ]
								}

							}
, 							{
								"patchline" : 								{
									"destination" : [ "obj-14", 0 ],
									"source" : [ "obj-18", 0 ]
								}

							}
, 							{
								"patchline" : 								{
									"destination" : [ "obj-11", 0 ],
									"source" : [ "obj-19", 0 ]
								}

							}
, 							{
								"patchline" : 								{
									"destination" : [ "obj-26", 0 ],
									"source" : [ "obj-20", 0 ]
								}

							}
, 							{
								"patchline" : 								{
									"destination" : [ "obj-17", 0 ],
									"source" : [ "obj-21", 0 ]
								}

							}
, 							{
								"patchline" : 								{
									"destination" : [ "obj-18", 0 ],
									"source" : [ "obj-21", 1 ]
								}

							}
, 							{
								"patchline" : 								{
									"destination" : [ "obj-1", 0 ],
									"order" : 0,
									"source" : [ "obj-23", 0 ]
								}

							}
, 							{
								"patchline" : 								{
									"destination" : [ "obj-5", 0 ],
									"order" : 1,
									"source" : [ "obj-23", 0 ]
								}

							}
, 							{
								"patchline" : 								{
									"destination" : [ "obj-21", 0 ],
									"source" : [ "obj-24", 0 ]
								}

							}
, 							{
								"patchline" : 								{
									"destination" : [ "obj-24", 0 ],
									"source" : [ "obj-26", 0 ]
								}

							}
, 							{
								"patchline" : 								{
									"destination" : [ "obj-10", 1 ],
									"order" : 1,
									"source" : [ "obj-27", 0 ]
								}

							}
, 							{
								"patchline" : 								{
									"destination" : [ "obj-32", 0 ],
									"order" : 0,
									"source" : [ "obj-27", 0 ]
								}

							}
, 							{
								"patchline" : 								{
									"destination" : [ "obj-2", 0 ],
									"order" : 1,
									"source" : [ "obj-28", 0 ]
								}

							}
, 							{
								"patchline" : 								{
									"destination" : [ "obj-33", 0 ],
									"order" : 0,
									"source" : [ "obj-28", 0 ]
								}

							}
, 							{
								"patchline" : 								{
									"destination" : [ "obj-20", 0 ],
									"source" : [ "obj-29", 0 ]
								}

							}
, 							{
								"patchline" : 								{
									"destination" : [ "obj-4", 0 ],
									"source" : [ "obj-3", 0 ]
								}

							}
, 							{
								"patchline" : 								{
									"destination" : [ "obj-23", 0 ],
									"source" : [ "obj-30", 1 ]
								}

							}
, 							{
								"patchline" : 								{
									"destination" : [ "obj-28", 0 ],
									"source" : [ "obj-30", 0 ]
								}

							}
, 							{
								"patchline" : 								{
									"destination" : [ "obj-23", 0 ],
									"source" : [ "obj-31", 1 ]
								}

							}
, 							{
								"patchline" : 								{
									"destination" : [ "obj-28", 0 ],
									"source" : [ "obj-31", 0 ]
								}

							}
, 							{
								"patchline" : 								{
									"destination" : [ "obj-30", 0 ],
									"source" : [ "obj-32", 3 ]
								}

							}
, 							{
								"patchline" : 								{
									"destination" : [ "obj-31", 0 ],
									"source" : [ "obj-32", 1 ]
								}

							}
, 							{
								"patchline" : 								{
									"destination" : [ "obj-29", 0 ],
									"order" : 0,
									"source" : [ "obj-5", 0 ]
								}

							}
, 							{
								"patchline" : 								{
									"destination" : [ "obj-7", 0 ],
									"order" : 1,
									"source" : [ "obj-5", 0 ]
								}

							}
, 							{
								"patchline" : 								{
									"destination" : [ "obj-3", 0 ],
									"source" : [ "obj-7", 0 ]
								}

							}
 ]
					}
,
					"patching_rect" : [ 516.0, 548.0, 52.0, 22.0 ],
					"saved_object_attributes" : 					{
						"description" : "",
						"digest" : "",
						"globalpatchername" : "",
						"tags" : ""
					}
,
					"text" : "p send~"
				}

			}
, 			{
				"box" : 				{
					"fontname" : "Arial",
					"fontsize" : 11.595186999999999,
					"id" : "obj-29",
					"maxclass" : "newobj",
					"numinlets" : 1,
					"numoutlets" : 1,
					"outlettype" : [ "" ],
					"patching_rect" : [ 549.0, 488.0, 90.0, 21.0 ],
					"text" : "sprintf %s~sync"
				}

			}
, 			{
				"box" : 				{
					"id" : "obj-5",
					"maxclass" : "message",
					"numinlets" : 2,
					"numoutlets" : 1,
					"outlettype" : [ "" ],
					"patching_rect" : [ 570.0, 548.0, 122.0, 22.0 ],
					"text" : "modul.ator2~sync"
				}

			}
, 			{
				"box" : 				{
					"comment" : "",
					"id" : "obj-2",
					"index" : 2,
					"maxclass" : "outlet",
					"numinlets" : 1,
					"numoutlets" : 0,
					"patching_rect" : [ 116.0, 488.0, 30.0, 30.0 ]
				}

			}
, 			{
				"box" : 				{
					"id" : "obj-35",
					"maxclass" : "newobj",
					"numinlets" : 2,
					"numoutlets" : 0,
					"patcher" : 					{
						"fileversion" : 1,
						"appversion" : 						{
							"major" : 8,
							"minor" : 6,
							"revision" : 0,
							"architecture" : "x64",
							"modernui" : 1
						}
,
						"classnamespace" : "box",
						"rect" : [ 661.0, 373.0, 537.0, 474.0 ],
						"bglocked" : 0,
						"openinpresentation" : 0,
						"default_fontsize" : 12.0,
						"default_fontface" : 0,
						"default_fontname" : "Arial",
						"gridonopen" : 1,
						"gridsize" : [ 15.0, 15.0 ],
						"gridsnaponopen" : 1,
						"objectsnaponopen" : 1,
						"statusbarvisible" : 2,
						"toolbarvisible" : 1,
						"lefttoolbarpinned" : 0,
						"toptoolbarpinned" : 0,
						"righttoolbarpinned" : 0,
						"bottomtoolbarpinned" : 0,
						"toolbars_unpinned_last_save" : 0,
						"tallnewobj" : 0,
						"boxanimatetime" : 200,
						"enablehscroll" : 1,
						"enablevscroll" : 1,
						"devicewidth" : 0.0,
						"description" : "",
						"digest" : "",
						"tags" : "",
						"style" : "",
						"subpatcher_template" : "",
						"assistshowspatchername" : 0,
						"boxes" : [ 							{
								"box" : 								{
									"id" : "obj-9",
									"maxclass" : "newobj",
									"numinlets" : 1,
									"numoutlets" : 1,
									"outlettype" : [ "int" ],
									"patching_rect" : [ 237.0, 110.0, 24.0, 22.0 ],
									"text" : "t 1"
								}

							}
, 							{
								"box" : 								{
									"comment" : "",
									"id" : "obj-8",
									"index" : 2,
									"maxclass" : "inlet",
									"numinlets" : 0,
									"numoutlets" : 1,
									"outlettype" : [ "" ],
									"patching_rect" : [ 237.0, 65.0, 30.0, 30.0 ]
								}

							}
, 							{
								"box" : 								{
									"id" : "obj-7",
									"maxclass" : "newobj",
									"numinlets" : 1,
									"numoutlets" : 2,
									"outlettype" : [ "int", "" ],
									"patching_rect" : [ 61.0, 156.0, 30.0, 22.0 ],
									"text" : "t 0 l"
								}

							}
, 							{
								"box" : 								{
									"id" : "obj-6",
									"maxclass" : "newobj",
									"numinlets" : 0,
									"numoutlets" : 1,
									"outlettype" : [ "" ],
									"patching_rect" : [ 61.0, 55.0, 121.0, 22.0 ],
									"text" : "r ll.sync_delete_gate"
								}

							}
, 							{
								"box" : 								{
									"id" : "obj-3",
									"maxclass" : "newobj",
									"numinlets" : 2,
									"numoutlets" : 1,
									"outlettype" : [ "" ],
									"patching_rect" : [ 61.0, 124.0, 54.0, 22.0 ],
									"text" : "gate 1 1"
								}

							}
, 							{
								"box" : 								{
									"id" : "obj-1",
									"maxclass" : "newobj",
									"numinlets" : 1,
									"numoutlets" : 0,
									"patching_rect" : [ 61.0, 187.0, 123.0, 22.0 ],
									"text" : "s ll.sync_delete_gate"
								}

							}
, 							{
								"box" : 								{
									"id" : "obj-32",
									"maxclass" : "newobj",
									"numinlets" : 1,
									"numoutlets" : 4,
									"outlettype" : [ "", "", "", "" ],
									"patching_rect" : [ 61.0, 329.0, 101.0, 22.0 ],
									"saved_object_attributes" : 									{
										"embed" : 0,
										"precision" : 6
									}
,
									"text" : "coll ppooll_syncs"
								}

							}
, 							{
								"box" : 								{
									"fontname" : "Arial",
									"fontsize" : 9.0,
									"id" : "obj-29",
									"maxclass" : "newobj",
									"numinlets" : 2,
									"numoutlets" : 1,
									"outlettype" : [ "" ],
									"patching_rect" : [ 61.0, 305.0, 90.0, 19.0 ],
									"text" : "sprintf delete %s%d"
								}

							}
, 							{
								"box" : 								{
									"id" : "obj-5",
									"maxclass" : "newobj",
									"numinlets" : 2,
									"numoutlets" : 1,
									"outlettype" : [ "int" ],
									"patching_rect" : [ 114.0, 251.0, 39.0, 22.0 ],
									"text" : "== -1"
								}

							}
, 							{
								"box" : 								{
									"id" : "obj-4",
									"maxclass" : "newobj",
									"numinlets" : 2,
									"numoutlets" : 1,
									"outlettype" : [ "" ],
									"patching_rect" : [ 61.0, 274.0, 34.0, 22.0 ],
									"text" : "gate"
								}

							}
, 							{
								"box" : 								{
									"id" : "obj-2",
									"maxclass" : "newobj",
									"numinlets" : 2,
									"numoutlets" : 2,
									"outlettype" : [ "", "" ],
									"patching_rect" : [ 76.0, 222.0, 57.0, 22.0 ],
									"text" : "zl slice 2"
								}

							}
, 							{
								"box" : 								{
									"comment" : "",
									"id" : "obj-33",
									"index" : 1,
									"maxclass" : "inlet",
									"numinlets" : 0,
									"numoutlets" : 1,
									"outlettype" : [ "" ],
									"patching_rect" : [ 96.0, 79.0, 30.0, 30.0 ]
								}

							}
 ],
						"lines" : [ 							{
								"patchline" : 								{
									"destination" : [ "obj-4", 1 ],
									"source" : [ "obj-2", 0 ]
								}

							}
, 							{
								"patchline" : 								{
									"destination" : [ "obj-5", 0 ],
									"source" : [ "obj-2", 1 ]
								}

							}
, 							{
								"patchline" : 								{
									"destination" : [ "obj-32", 0 ],
									"source" : [ "obj-29", 0 ]
								}

							}
, 							{
								"patchline" : 								{
									"destination" : [ "obj-7", 0 ],
									"source" : [ "obj-3", 0 ]
								}

							}
, 							{
								"patchline" : 								{
									"destination" : [ "obj-3", 1 ],
									"source" : [ "obj-33", 0 ]
								}

							}
, 							{
								"patchline" : 								{
									"destination" : [ "obj-29", 0 ],
									"source" : [ "obj-4", 0 ]
								}

							}
, 							{
								"patchline" : 								{
									"destination" : [ "obj-4", 0 ],
									"source" : [ "obj-5", 0 ]
								}

							}
, 							{
								"patchline" : 								{
									"destination" : [ "obj-3", 0 ],
									"source" : [ "obj-6", 0 ]
								}

							}
, 							{
								"patchline" : 								{
									"destination" : [ "obj-1", 0 ],
									"source" : [ "obj-7", 0 ]
								}

							}
, 							{
								"patchline" : 								{
									"destination" : [ "obj-2", 0 ],
									"source" : [ "obj-7", 1 ]
								}

							}
, 							{
								"patchline" : 								{
									"destination" : [ "obj-9", 0 ],
									"source" : [ "obj-8", 0 ]
								}

							}
, 							{
								"patchline" : 								{
									"destination" : [ "obj-1", 0 ],
									"source" : [ "obj-9", 0 ]
								}

							}
 ]
					}
,
					"patching_rect" : [ 295.0, 219.0, 53.0, 22.0 ],
					"saved_object_attributes" : 					{
						"description" : "",
						"digest" : "",
						"globalpatchername" : "",
						"tags" : ""
					}
,
					"text" : "p delete"
				}

			}
, 			{
				"box" : 				{
					"id" : "obj-8",
					"maxclass" : "newobj",
					"numinlets" : 2,
					"numoutlets" : 1,
					"outlettype" : [ "int" ],
					"patching_rect" : [ 365.0, 496.0, 29.5, 22.0 ],
					"text" : "!- 1"
				}

			}
, 			{
				"box" : 				{
					"fontname" : "Arial",
					"fontsize" : 9.0,
					"id" : "obj-38",
					"maxclass" : "newobj",
					"numinlets" : 2,
					"numoutlets" : 1,
					"outlettype" : [ "signal" ],
					"patching_rect" : [ 365.0, 534.0, 52.0, 19.0 ],
					"text" : "gate~ 1 1"
				}

			}
, 			{
				"box" : 				{
					"id" : "obj-34",
					"maxclass" : "message",
					"numinlets" : 2,
					"numoutlets" : 1,
					"outlettype" : [ "" ],
					"patching_rect" : [ 551.0, 101.0, 59.0, 22.0 ],
					"text" : "sort -1 -1"
				}

			}
, 			{
				"box" : 				{
					"id" : "obj-31",
					"maxclass" : "newobj",
					"numinlets" : 1,
					"numoutlets" : 2,
					"outlettype" : [ "bang", "" ],
					"patching_rect" : [ 551.0, 55.0, 84.0, 22.0 ],
					"text" : "t b s"
				}

			}
, 			{
				"box" : 				{
					"id" : "obj-13",
					"maxclass" : "message",
					"numinlets" : 2,
					"numoutlets" : 1,
					"outlettype" : [ "" ],
					"patching_rect" : [ 148.0, 444.0, 138.0, 22.0 ],
					"text" : "modul.ator1~sync"
				}

			}
, 			{
				"box" : 				{
					"comment" : "",
					"id" : "obj-7",
					"index" : 3,
					"maxclass" : "outlet",
					"numinlets" : 1,
					"numoutlets" : 0,
					"patching_rect" : [ 206.0, 366.0, 30.0, 30.0 ]
				}

			}
, 			{
				"box" : 				{
					"id" : "obj-26",
					"maxclass" : "newobj",
					"numinlets" : 1,
					"numoutlets" : 1,
					"outlettype" : [ "" ],
					"patching_rect" : [ 384.0, 187.0, 37.0, 22.0 ],
					"text" : "defer"
				}

			}
, 			{
				"box" : 				{
					"id" : "obj-27",
					"maxclass" : "newobj",
					"numinlets" : 2,
					"numoutlets" : 1,
					"outlettype" : [ "bang" ],
					"patching_rect" : [ 384.0, 157.0, 42.0, 22.0 ],
					"text" : "del 50"
				}

			}
, 			{
				"box" : 				{
					"comment" : "",
					"id" : "obj-24",
					"index" : 1,
					"maxclass" : "outlet",
					"numinlets" : 1,
					"numoutlets" : 0,
					"patching_rect" : [ 75.0, 599.0, 30.0, 30.0 ]
				}

			}
, 			{
				"box" : 				{
					"fontname" : "Arial",
					"fontsize" : 12.0,
					"id" : "obj-22",
					"maxclass" : "newobj",
					"numinlets" : 1,
					"numoutlets" : 2,
					"outlettype" : [ "", "bang" ],
					"patching_rect" : [ 75.0, 255.0, 65.0, 22.0 ],
					"text" : "ll.r syncto"
				}

			}
, 			{
				"box" : 				{
					"fontname" : "Arial",
					"fontsize" : 12.0,
					"id" : "obj-23",
					"maxclass" : "newobj",
					"numinlets" : 1,
					"numoutlets" : 1,
					"outlettype" : [ "signal" ],
					"patching_rect" : [ 75.0, 444.0, 71.0, 22.0 ],
					"text" : "receive~ n"
				}

			}
, 			{
				"box" : 				{
					"comment" : "",
					"id" : "obj-19",
					"index" : 1,
					"maxclass" : "inlet",
					"numinlets" : 0,
					"numoutlets" : 1,
					"outlettype" : [ "signal" ],
					"patching_rect" : [ 398.0, 354.0, 30.0, 30.0 ]
				}

			}
, 			{
				"box" : 				{
					"id" : "obj-17",
					"maxclass" : "newobj",
					"numinlets" : 1,
					"numoutlets" : 2,
					"outlettype" : [ "bang", "bang" ],
					"patching_rect" : [ 384.0, 120.0, 60.0, 22.0 ],
					"text" : "t b b"
				}

			}
, 			{
				"box" : 				{
					"id" : "obj-16",
					"maxclass" : "newobj",
					"numinlets" : 0,
					"numoutlets" : 1,
					"outlettype" : [ "" ],
					"patching_rect" : [ 384.0, 74.0, 50.0, 22.0 ],
					"text" : "r acting"
				}

			}
, 			{
				"box" : 				{
					"id" : "obj-3",
					"maxclass" : "button",
					"numinlets" : 1,
					"numoutlets" : 1,
					"outlettype" : [ "bang" ],
					"parameter_enable" : 0,
					"patching_rect" : [ 521.0, 23.0, 24.0, 24.0 ]
				}

			}
, 			{
				"box" : 				{
					"fontname" : "Arial",
					"fontsize" : 10.0,
					"id" : "obj-57",
					"maxclass" : "newobj",
					"numinlets" : 1,
					"numoutlets" : 2,
					"outlettype" : [ "", "" ],
					"patching_rect" : [ 551.0, 25.0, 56.0, 20.0 ],
					"text" : "ll.actname"
				}

			}
, 			{
				"box" : 				{
					"fontname" : "Arial",
					"fontsize" : 9.0,
					"id" : "obj-56",
					"maxclass" : "newobj",
					"numinlets" : 2,
					"numoutlets" : 1,
					"outlettype" : [ "" ],
					"patching_rect" : [ 615.0, 173.0, 109.0, 19.0 ],
					"text" : "sprintf store %s %s~sync"
				}

			}
, 			{
				"box" : 				{
					"id" : "obj-1",
					"maxclass" : "newobj",
					"numinlets" : 1,
					"numoutlets" : 4,
					"outlettype" : [ "", "", "", "" ],
					"patching_rect" : [ 551.0, 207.0, 101.0, 22.0 ],
					"saved_object_attributes" : 					{
						"embed" : 0,
						"precision" : 6
					}
,
					"text" : "coll ppooll_syncs"
				}

			}
 ],
		"lines" : [ 			{
				"patchline" : 				{
					"destination" : [ "obj-17", 0 ],
					"order" : 0,
					"source" : [ "obj-16", 0 ]
				}

			}
, 			{
				"patchline" : 				{
					"destination" : [ "obj-35", 0 ],
					"order" : 1,
					"source" : [ "obj-16", 0 ]
				}

			}
, 			{
				"patchline" : 				{
					"destination" : [ "obj-27", 0 ],
					"source" : [ "obj-17", 0 ]
				}

			}
, 			{
				"patchline" : 				{
					"destination" : [ "obj-63", 1 ],
					"source" : [ "obj-17", 1 ]
				}

			}
, 			{
				"patchline" : 				{
					"destination" : [ "obj-38", 1 ],
					"order" : 1,
					"source" : [ "obj-19", 0 ]
				}

			}
, 			{
				"patchline" : 				{
					"destination" : [ "obj-9", 0 ],
					"order" : 0,
					"source" : [ "obj-19", 0 ]
				}

			}
, 			{
				"patchline" : 				{
					"destination" : [ "obj-4", 1 ],
					"order" : 0,
					"source" : [ "obj-22", 0 ]
				}

			}
, 			{
				"patchline" : 				{
					"destination" : [ "obj-54", 0 ],
					"order" : 1,
					"source" : [ "obj-22", 0 ]
				}

			}
, 			{
				"patchline" : 				{
					"destination" : [ "obj-2", 0 ],
					"order" : 0,
					"source" : [ "obj-23", 0 ]
				}

			}
, 			{
				"patchline" : 				{
					"destination" : [ "obj-24", 0 ],
					"order" : 1,
					"source" : [ "obj-23", 0 ]
				}

			}
, 			{
				"patchline" : 				{
					"destination" : [ "obj-35", 1 ],
					"order" : 1,
					"source" : [ "obj-26", 0 ]
				}

			}
, 			{
				"patchline" : 				{
					"destination" : [ "obj-63", 0 ],
					"order" : 0,
					"source" : [ "obj-26", 0 ]
				}

			}
, 			{
				"patchline" : 				{
					"destination" : [ "obj-26", 0 ],
					"source" : [ "obj-27", 0 ]
				}

			}
, 			{
				"patchline" : 				{
					"destination" : [ "obj-5", 1 ],
					"order" : 0,
					"source" : [ "obj-29", 0 ]
				}

			}
, 			{
				"patchline" : 				{
					"destination" : [ "obj-9", 1 ],
					"order" : 1,
					"source" : [ "obj-29", 0 ]
				}

			}
, 			{
				"patchline" : 				{
					"destination" : [ "obj-57", 0 ],
					"source" : [ "obj-3", 0 ]
				}

			}
, 			{
				"patchline" : 				{
					"destination" : [ "obj-34", 0 ],
					"source" : [ "obj-31", 0 ]
				}

			}
, 			{
				"patchline" : 				{
					"destination" : [ "obj-40", 0 ],
					"source" : [ "obj-31", 1 ]
				}

			}
, 			{
				"patchline" : 				{
					"destination" : [ "obj-1", 0 ],
					"source" : [ "obj-34", 0 ]
				}

			}
, 			{
				"patchline" : 				{
					"destination" : [ "obj-24", 0 ],
					"source" : [ "obj-38", 0 ]
				}

			}
, 			{
				"patchline" : 				{
					"destination" : [ "obj-60", 0 ],
					"source" : [ "obj-40", 0 ]
				}

			}
, 			{
				"patchline" : 				{
					"destination" : [ "obj-13", 0 ],
					"order" : 0,
					"source" : [ "obj-54", 0 ]
				}

			}
, 			{
				"patchline" : 				{
					"destination" : [ "obj-23", 0 ],
					"order" : 1,
					"source" : [ "obj-54", 0 ]
				}

			}
, 			{
				"patchline" : 				{
					"destination" : [ "obj-7", 0 ],
					"order" : 1,
					"source" : [ "obj-54", 1 ]
				}

			}
, 			{
				"patchline" : 				{
					"destination" : [ "obj-8", 0 ],
					"order" : 0,
					"source" : [ "obj-54", 1 ]
				}

			}
, 			{
				"patchline" : 				{
					"destination" : [ "obj-1", 0 ],
					"source" : [ "obj-56", 0 ]
				}

			}
, 			{
				"patchline" : 				{
					"destination" : [ "obj-31", 0 ],
					"source" : [ "obj-57", 0 ]
				}

			}
, 			{
				"patchline" : 				{
					"destination" : [ "obj-29", 0 ],
					"midpoints" : [ 792.5, 469.0, 558.5, 469.0 ],
					"order" : 2,
					"source" : [ "obj-60", 1 ]
				}

			}
, 			{
				"patchline" : 				{
					"destination" : [ "obj-44", 1 ],
					"order" : 0,
					"source" : [ "obj-60", 1 ]
				}

			}
, 			{
				"patchline" : 				{
					"destination" : [ "obj-54", 1 ],
					"midpoints" : [ 792.5, 296.0, 215.5, 296.0 ],
					"order" : 4,
					"source" : [ "obj-60", 1 ]
				}

			}
, 			{
				"patchline" : 				{
					"destination" : [ "obj-56", 1 ],
					"order" : 1,
					"source" : [ "obj-60", 1 ]
				}

			}
, 			{
				"patchline" : 				{
					"destination" : [ "obj-56", 0 ],
					"source" : [ "obj-60", 0 ]
				}

			}
, 			{
				"patchline" : 				{
					"destination" : [ "obj-63", 2 ],
					"midpoints" : [ 792.5, 247.5, 475.5, 247.5 ],
					"order" : 3,
					"source" : [ "obj-60", 1 ]
				}

			}
, 			{
				"patchline" : 				{
					"destination" : [ "obj-38", 0 ],
					"source" : [ "obj-8", 0 ]
				}

			}
 ]
	}

}
