{
	"patcher" : 	{
		"fileversion" : 1,
		"appversion" : 		{
			"major" : 9,
			"minor" : 0,
			"revision" : 7,
			"architecture" : "x64",
			"modernui" : 1
		}
,
		"classnamespace" : "box",
		"rect" : [ 573.0, 234.0, 332.0, 153.0 ],
		"default_fontsize" : 10.0,
		"gridsize" : [ 15.0, 15.0 ],
		"toolbarvisible" : 0,
		"globalpatchername" : "frequenzteiler1",
		"boxes" : [ 			{
				"box" : 				{
					"id" : "obj-11",
					"items" : [ "off", ",", "lock", ",", "cycle" ],
					"maxclass" : "umenu",
					"numinlets" : 1,
					"numoutlets" : 3,
					"outlettype" : [ "int", "", "" ],
					"parameter_enable" : 0,
					"patching_rect" : [ 110.0, 29.0, 52.0, 20.0 ],
					"pattrmode" : 1,
					"varname" : "sync"
				}

			}
, 			{
				"box" : 				{
					"args" : [ "@min", 2, "@max", 2 ],
					"bgmode" : 0,
					"border" : 1,
					"clickthrough" : 0,
					"enablehscroll" : 0,
					"enablevscroll" : 0,
					"id" : "obj-50",
					"lockeddragscroll" : 0,
					"lockedsize" : 0,
					"maxclass" : "bpatcher",
					"name" : "ll.blues.maxpat",
					"numinlets" : 1,
					"numoutlets" : 0,
					"offset" : [ 0.0, 0.0 ],
					"patching_rect" : [ 207.0, 78.0, 124.0, 53.0 ],
					"varname" : "ll.blues",
					"viewvisibility" : 1
				}

			}
, 			{
				"box" : 				{
					"amount" : 4,
					"annotation" : "teiler",
					"bgcolor" : [ 1.0, 0.380874, 0.403659, 1.0 ],
					"fontface" : 0,
					"fontsize" : 18.0,
					"format" : [ 2.3 ],
					"id" : "obj-7",
					"label" : [ "1" ],
					"maxclass" : "ll_number",
					"mousefocus" : 1,
					"numinlets" : 1,
					"numoutlets" : 1,
					"outlettype" : [ "" ],
					"parameter_enable" : 0,
					"patching_rect" : [ 0.0, 68.0, 85.0, 85.0 ],
					"sliderlog" : 7.0,
					"slidermax" : 99.0,
					"varname" : "teiler"
				}

			}
, 			{
				"box" : 				{
					"annotation" : "freq_ramp",
					"bgcolor" : [ 0.862745, 0.862745, 0.470588, 1.0 ],
					"bordercolor" : [ 0.0, 0.0, 0.0, 1.0 ],
					"fontface" : 0,
					"format" : [ 5.2 ],
					"id" : "obj-25",
					"label" : [ "freq_ramp" ],
					"maxclass" : "ll_number",
					"min" : 0.0,
					"mousefocus" : 1,
					"numinlets" : 1,
					"numoutlets" : 1,
					"outlettype" : [ "" ],
					"parameter_enable" : 0,
					"patching_rect" : [ 196.0, 29.0, 135.0, 19.0 ],
					"slidercolor" : [ 1.0, 1.0, 1.0, 1.0 ],
					"slidercolornofocus" : [ 0.0, 0.0, 0.0, 0.54902 ],
					"slidermax" : 3000.0,
					"textcolor" : [ 1.0, 1.0, 1.0, 1.0 ],
					"textcolornofocus" : [ 0.0, 0.0, 0.0, 0.788235 ],
					"varname" : "freq_ramp"
				}

			}
, 			{
				"box" : 				{
					"annotation" : "vol",
					"bgcolor" : [ 0.333333, 0.537255, 0.960784, 1.0 ],
					"compatibility" : 1,
					"contdata" : 1,
					"id" : "obj-98",
					"maxclass" : "multislider",
					"numinlets" : 1,
					"numoutlets" : 2,
					"orientation" : 0,
					"outlettype" : [ "", "" ],
					"parameter_enable" : 0,
					"patching_rect" : [ 85.0, 68.0, 72.0, 85.0 ],
					"setminmax" : [ 0.0, 1.0 ],
					"setstyle" : 1,
					"size" : 4,
					"slidercolor" : [ 0.0, 0.0, 0.0, 1.0 ],
					"varname" : "vol"
				}

			}
, 			{
				"box" : 				{
					"color" : [ 0.541176, 0.415686, 0.227451, 1.0 ],
					"fontname" : "Arial",
					"fontsize" : 10.0,
					"hidden" : 1,
					"id" : "obj-15",
					"maxclass" : "newobj",
					"numinlets" : 0,
					"numoutlets" : 1,
					"outlettype" : [ "multichannelsignal" ],
					"patcher" : 					{
						"fileversion" : 1,
						"appversion" : 						{
							"major" : 9,
							"minor" : 0,
							"revision" : 7,
							"architecture" : "x64",
							"modernui" : 1
						}
,
						"classnamespace" : "box",
						"rect" : [ 902.0, 96.0, 503.0, 625.0 ],
						"default_fontsize" : 10.0,
						"gridsize" : [ 15.0, 15.0 ],
						"boxes" : [ 							{
								"box" : 								{
									"id" : "obj-23",
									"maxclass" : "newobj",
									"numinlets" : 1,
									"numoutlets" : 1,
									"outlettype" : [ "" ],
									"patching_rect" : [ 92.0, 237.0, 69.0, 20.0 ],
									"text" : "prepend sync"
								}

							}
, 							{
								"box" : 								{
									"id" : "obj-50",
									"maxclass" : "newobj",
									"numinlets" : 1,
									"numoutlets" : 1,
									"outlettype" : [ "multichannelsignal" ],
									"patching_rect" : [ 270.0, 388.0, 76.0, 20.0 ],
									"text" : "mc.list~ 0 0 0 0"
								}

							}
, 							{
								"box" : 								{
									"id" : "obj-44",
									"maxclass" : "newobj",
									"numinlets" : 2,
									"numoutlets" : 1,
									"outlettype" : [ "multichannelsignal" ],
									"patching_rect" : [ 255.0, 429.0, 34.0, 20.0 ],
									"text" : "mc.*~"
								}

							}
, 							{
								"box" : 								{
									"comment" : "",
									"id" : "obj-64",
									"index" : 1,
									"maxclass" : "outlet",
									"numinlets" : 1,
									"numoutlets" : 0,
									"patching_rect" : [ 255.0, 527.0, 30.0, 30.0 ]
								}

							}
, 							{
								"box" : 								{
									"id" : "obj-62",
									"maxclass" : "message",
									"numinlets" : 2,
									"numoutlets" : 1,
									"outlettype" : [ "" ],
									"patching_rect" : [ 285.0, 243.0, 74.0, 20.0 ],
									"text" : "setvalue $1 $2"
								}

							}
, 							{
								"box" : 								{
									"id" : "obj-60",
									"linecount" : 4,
									"maxclass" : "message",
									"numinlets" : 2,
									"numoutlets" : 1,
									"outlettype" : [ "" ],
									"patching_rect" : [ 375.0, 210.0, 53.0, 53.0 ],
									"text" : "1.474638 1.615901 1.345071 1.769915"
								}

							}
, 							{
								"box" : 								{
									"id" : "obj-55",
									"maxclass" : "newobj",
									"numinlets" : 1,
									"numoutlets" : 1,
									"outlettype" : [ "list" ],
									"patching_rect" : [ 285.0, 215.0, 56.0, 20.0 ],
									"text" : "listfunnel 1"
								}

							}
, 							{
								"box" : 								{
									"id" : "obj-42",
									"maxclass" : "live.meter~",
									"numinlets" : 1,
									"numoutlets" : 2,
									"outlettype" : [ "float", "int" ],
									"patching_rect" : [ 165.0, 439.0, 32.0, 92.0 ],
									"slidercolor" : [ 0.079348079365577, 0.07934804057877, 0.079348050547289, 1.0 ]
								}

							}
, 							{
								"box" : 								{
									"id" : "obj-39",
									"maxclass" : "message",
									"numinlets" : 2,
									"numoutlets" : 1,
									"outlettype" : [ "" ],
									"patching_rect" : [ 54.0, 158.0, 50.0, 20.0 ],
									"text" : "cycle"
								}

							}
, 							{
								"box" : 								{
									"id" : "obj-21",
									"maxclass" : "newobj",
									"numinlets" : 2,
									"numoutlets" : 1,
									"outlettype" : [ "multichannelsignal" ],
									"patching_rect" : [ 168.0, 318.0, 96.0, 20.0 ],
									"text" : "mc.rate~ @chans 4"
								}

							}
, 							{
								"box" : 								{
									"fontname" : "Arial",
									"fontsize" : 10.0,
									"id" : "obj-27",
									"maxclass" : "newobj",
									"numinlets" : 2,
									"numoutlets" : 1,
									"outlettype" : [ "" ],
									"patching_rect" : [ 202.5, 85.0, 32.5, 20.0 ],
									"text" : "0. 0."
								}

							}
, 							{
								"box" : 								{
									"fontname" : "Arial",
									"fontsize" : 10.0,
									"id" : "obj-22",
									"maxclass" : "newobj",
									"numinlets" : 3,
									"numoutlets" : 2,
									"outlettype" : [ "", "bang" ],
									"patching_rect" : [ 202.5, 116.0, 46.0, 20.0 ],
									"text" : "line 0."
								}

							}
, 							{
								"box" : 								{
									"fontname" : "Arial",
									"fontsize" : 10.0,
									"id" : "obj-18",
									"maxclass" : "newobj",
									"numinlets" : 1,
									"numoutlets" : 2,
									"outlettype" : [ "", "bang" ],
									"patching_rect" : [ 216.0, 58.0, 69.0, 20.0 ],
									"text" : "ll.r freq_ramp"
								}

							}
, 							{
								"box" : 								{
									"fontname" : "Arial",
									"fontsize" : 9.0,
									"id" : "obj-56",
									"maxclass" : "newobj",
									"numinlets" : 1,
									"numoutlets" : 2,
									"outlettype" : [ "", "bang" ],
									"patching_rect" : [ 285.0, 177.0, 42.0, 19.0 ],
									"text" : "ll.r teiler"
								}

							}
, 							{
								"box" : 								{
									"fontname" : "Arial",
									"fontsize" : 10.0,
									"id" : "obj-49",
									"maxclass" : "newobj",
									"numinlets" : 1,
									"numoutlets" : 2,
									"outlettype" : [ "", "bang" ],
									"patching_rect" : [ 270.0, 360.0, 37.0, 20.0 ],
									"text" : "ll.r vol"
								}

							}
, 							{
								"box" : 								{
									"fontname" : "Arial",
									"fontsize" : 10.0,
									"id" : "obj-6",
									"maxclass" : "newobj",
									"numinlets" : 1,
									"numoutlets" : 2,
									"outlettype" : [ "", "bang" ],
									"patching_rect" : [ 92.0, 203.0, 42.0, 20.0 ],
									"text" : "ll.r sync"
								}

							}
, 							{
								"box" : 								{
									"fontname" : "Arial",
									"fontsize" : 10.0,
									"id" : "obj-4",
									"maxclass" : "newobj",
									"numinlets" : 1,
									"numoutlets" : 2,
									"outlettype" : [ "", "bang" ],
									"patching_rect" : [ 202.5, 36.0, 41.0, 20.0 ],
									"text" : "ll.r freq"
								}

							}
, 							{
								"box" : 								{
									"fontname" : "Arial",
									"fontsize" : 10.0,
									"id" : "obj-17",
									"maxclass" : "newobj",
									"numinlets" : 2,
									"numoutlets" : 1,
									"outlettype" : [ "int" ],
									"patching_rect" : [ 116.0, 136.0, 32.5, 20.0 ],
									"text" : "+ 1"
								}

							}
, 							{
								"box" : 								{
									"fontname" : "Arial",
									"fontsize" : 10.0,
									"id" : "obj-16",
									"maxclass" : "newobj",
									"numinlets" : 1,
									"numoutlets" : 2,
									"outlettype" : [ "", "bang" ],
									"patching_rect" : [ 116.0, 112.0, 76.0, 20.0 ],
									"text" : "ll.r input_menu"
								}

							}
, 							{
								"box" : 								{
									"fontname" : "Arial",
									"fontsize" : 10.0,
									"id" : "obj-10",
									"maxclass" : "number",
									"numinlets" : 1,
									"numoutlets" : 2,
									"outlettype" : [ "", "bang" ],
									"parameter_enable" : 0,
									"patching_rect" : [ 116.0, 163.0, 50.0, 20.0 ]
								}

							}
, 							{
								"box" : 								{
									"fontname" : "Arial",
									"fontsize" : 10.0,
									"id" : "obj-8",
									"maxclass" : "newobj",
									"numinlets" : 3,
									"numoutlets" : 1,
									"outlettype" : [ "signal" ],
									"patching_rect" : [ 168.0, 215.0, 88.0, 20.0 ],
									"text" : "selector~ 2"
								}

							}
, 							{
								"box" : 								{
									"fontname" : "Arial",
									"fontsize" : 10.0,
									"id" : "obj-7",
									"maxclass" : "newobj",
									"numinlets" : 2,
									"numoutlets" : 1,
									"outlettype" : [ "signal" ],
									"patching_rect" : [ 202.5, 145.0, 47.0, 20.0 ],
									"text" : "phasor~"
								}

							}
, 							{
								"box" : 								{
									"fontname" : "Arial",
									"fontsize" : 10.0,
									"id" : "obj-12",
									"maxclass" : "newobj",
									"numinlets" : 1,
									"numoutlets" : 2,
									"outlettype" : [ "multichannelsignal", "" ],
									"patching_rect" : [ 237.0, 171.0, 44.0, 20.0 ],
									"text" : "ll.r~ in 1"
								}

							}
, 							{
								"box" : 								{
									"fontname" : "Arial",
									"fontsize" : 10.0,
									"id" : "obj-1",
									"maxclass" : "newobj",
									"numinlets" : 1,
									"numoutlets" : 2,
									"outlettype" : [ "", "" ],
									"patching_rect" : [ 10.0, 50.0, 100.0, 20.0 ],
									"save" : [ "#N", "thispatcher", ";", "#Q", "end", ";" ],
									"text" : "thispatcher",
									"varname" : "subTP"
								}

							}
 ],
						"lines" : [ 							{
								"patchline" : 								{
									"destination" : [ "obj-8", 0 ],
									"source" : [ "obj-10", 0 ]
								}

							}
, 							{
								"patchline" : 								{
									"destination" : [ "obj-8", 2 ],
									"source" : [ "obj-12", 0 ]
								}

							}
, 							{
								"patchline" : 								{
									"destination" : [ "obj-17", 0 ],
									"source" : [ "obj-16", 0 ]
								}

							}
, 							{
								"patchline" : 								{
									"destination" : [ "obj-10", 0 ],
									"source" : [ "obj-17", 0 ]
								}

							}
, 							{
								"patchline" : 								{
									"destination" : [ "obj-27", 1 ],
									"source" : [ "obj-18", 0 ]
								}

							}
, 							{
								"patchline" : 								{
									"destination" : [ "obj-42", 0 ],
									"order" : 1,
									"source" : [ "obj-21", 0 ]
								}

							}
, 							{
								"patchline" : 								{
									"destination" : [ "obj-44", 0 ],
									"order" : 0,
									"source" : [ "obj-21", 0 ]
								}

							}
, 							{
								"patchline" : 								{
									"destination" : [ "obj-7", 0 ],
									"source" : [ "obj-22", 0 ]
								}

							}
, 							{
								"patchline" : 								{
									"destination" : [ "obj-21", 0 ],
									"source" : [ "obj-23", 0 ]
								}

							}
, 							{
								"patchline" : 								{
									"destination" : [ "obj-22", 0 ],
									"source" : [ "obj-27", 0 ]
								}

							}
, 							{
								"patchline" : 								{
									"destination" : [ "obj-27", 0 ],
									"source" : [ "obj-4", 0 ]
								}

							}
, 							{
								"patchline" : 								{
									"destination" : [ "obj-64", 0 ],
									"source" : [ "obj-44", 0 ]
								}

							}
, 							{
								"patchline" : 								{
									"destination" : [ "obj-50", 0 ],
									"source" : [ "obj-49", 0 ]
								}

							}
, 							{
								"patchline" : 								{
									"destination" : [ "obj-44", 1 ],
									"source" : [ "obj-50", 0 ]
								}

							}
, 							{
								"patchline" : 								{
									"destination" : [ "obj-62", 0 ],
									"source" : [ "obj-55", 0 ]
								}

							}
, 							{
								"patchline" : 								{
									"destination" : [ "obj-55", 0 ],
									"order" : 1,
									"source" : [ "obj-56", 0 ]
								}

							}
, 							{
								"patchline" : 								{
									"destination" : [ "obj-60", 1 ],
									"order" : 0,
									"source" : [ "obj-56", 0 ]
								}

							}
, 							{
								"patchline" : 								{
									"destination" : [ "obj-23", 0 ],
									"order" : 0,
									"source" : [ "obj-6", 0 ]
								}

							}
, 							{
								"patchline" : 								{
									"destination" : [ "obj-39", 1 ],
									"order" : 1,
									"source" : [ "obj-6", 0 ]
								}

							}
, 							{
								"patchline" : 								{
									"destination" : [ "obj-21", 1 ],
									"source" : [ "obj-62", 0 ]
								}

							}
, 							{
								"patchline" : 								{
									"destination" : [ "obj-8", 1 ],
									"source" : [ "obj-7", 0 ]
								}

							}
, 							{
								"patchline" : 								{
									"destination" : [ "obj-21", 0 ],
									"source" : [ "obj-8", 0 ]
								}

							}
 ]
					}
,
					"patching_rect" : [ 607.0, 84.0, 100.0, 20.0 ],
					"saved_object_attributes" : 					{
						"fontsize" : 10.0
					}
,
					"text" : "p frequenzteiler_sub",
					"varname" : "sub"
				}

			}
, 			{
				"box" : 				{
					"active" : 					{
						"freq" : 0,
						"presets" : 0,
						"preset-ramp" : 0,
						"title_menu" : 0,
						"pres_menu" : 0,
						"tetris_menu" : 0,
						"master" : 0,
						"act::active_store" : 0,
						"act::master/activest" : 0,
						"ll.blues" : 0,
						"ll.blues::levels" : 0,
						"ll.blues::outputs" : 0,
						"ll.blues::state" : 0,
						"actmakeB::master/activest" : 0,
						"actmakeB::active_store" : 0
					}
,
					"color" : [ 0.0, 0.0, 0.0, 1.0 ],
					"fontname" : "Arial",
					"fontsize" : 10.0,
					"hidden" : 1,
					"id" : "obj-3",
					"maxclass" : "newobj",
					"numinlets" : 1,
					"numoutlets" : 1,
					"outlettype" : [ "" ],
					"patching_rect" : [ 436.0, 291.0, 100.0, 20.0 ],
					"priority" : 					{
						"presets" : 1016,
						"preset-ramp" : 1017,
						"title_menu" : 2010,
						"pres_menu" : 2011,
						"tetris_menu" : 2012,
						"master" : 2013
					}
,
					"saved_object_attributes" : 					{
						"client_rect" : [ 1126, 292, 1526, 792 ],
						"parameter_enable" : 0,
						"parameter_mappable" : 0,
						"storage_rect" : [ 200, 200, 800, 500 ]
					}
,
					"text" : "pattrstorage pat",
					"varname" : "pat"
				}

			}
, 			{
				"box" : 				{
					"color" : [ 0.0, 0.0, 0.0, 1.0 ],
					"fontname" : "Arial",
					"fontsize" : 10.0,
					"hidden" : 1,
					"id" : "obj-4",
					"maxclass" : "newobj",
					"numinlets" : 1,
					"numoutlets" : 2,
					"outlettype" : [ "", "" ],
					"patching_rect" : [ 423.0, 333.0, 107.0, 20.0 ],
					"save" : [ "#N", "thispatcher", ";", "#Q", "end", ";" ],
					"text" : "thispatcher",
					"varname" : "thispatcher"
				}

			}
, 			{
				"box" : 				{
					"color" : [ 0.0, 0.0, 0.0, 1.0 ],
					"fontname" : "Arial",
					"fontsize" : 10.0,
					"hidden" : 1,
					"id" : "obj-5",
					"maxclass" : "newobj",
					"numinlets" : 1,
					"numoutlets" : 1,
					"outlettype" : [ "" ],
					"patching_rect" : [ 423.0, 354.0, 107.0, 20.0 ],
					"text" : "pattrmarker no",
					"varname" : "pattrmarker"
				}

			}
, 			{
				"box" : 				{
					"color" : [ 0.0, 0.0, 0.0, 1.0 ],
					"fontname" : "Arial",
					"fontsize" : 10.0,
					"hidden" : 1,
					"id" : "obj-6",
					"maxclass" : "newobj",
					"numinlets" : 1,
					"numoutlets" : 4,
					"outlettype" : [ "", "", "", "" ],
					"patching_rect" : [ 423.0, 375.0, 107.0, 20.0 ],
					"restore" : 					{
						"freq" : [ 140.276460525288712 ],
						"freq_ramp" : [ 0.0 ],
						"input_menu" : [ 0 ],
						"preset-ramp" : [ 0.0 ],
						"presets" : [ 0 ],
						"sync" : [ "cycle" ],
						"teiler" : [ 1.474638434337919, 1.615901139319149, 1.345070988911715, 1.76991476328908 ],
						"vol" : [ 0.666666686534882, 0.569444417953491, 0.458333343267441, 0.444444447755814 ]
					}
,
					"text" : "autopattr autopattr",
					"varname" : "autopattr"
				}

			}
, 			{
				"box" : 				{
					"annotation" : "presets grid. click on ppooll in the ho_st to find info about it",
					"filename" : "ll.pattr_ui.js",
					"id" : "obj-13",
					"jsarguments" : [ 14, "255 255 255", "50 50 50", "255 0 0", "0 255 0", "frequenzteiler1" ],
					"maxclass" : "jsui",
					"numinlets" : 1,
					"numoutlets" : 1,
					"outlettype" : [ "" ],
					"parameter_enable" : 0,
					"patching_rect" : [ 105.0, -1.0, 226.0, 31.0 ],
					"varname" : "presets"
				}

			}
, 			{
				"box" : 				{
					"annotation" : "ramp time between presets. click on ppooll in the ho_st to find info about it",
					"fontface" : 0,
					"format" : [ 5 ],
					"id" : "obj-20",
					"maxclass" : "ll_number",
					"min" : 0.0,
					"numinlets" : 1,
					"numoutlets" : 1,
					"outlettype" : [ "" ],
					"parameter_enable" : 0,
					"patching_rect" : [ 0.0, 15.0, 103.0, 15.0 ],
					"sliderlog" : 3.0,
					"slidermax" : 20000.0,
					"varname" : "preset-ramp"
				}

			}
, 			{
				"box" : 				{
					"annotation" : "freq",
					"bgcolor" : [ 0.862745, 0.862745, 0.470588, 1.0 ],
					"bordercolor" : [ 0.0, 0.0, 0.0, 1.0 ],
					"fontface" : 0,
					"fontsize" : 18.0,
					"format" : [ 5.2 ],
					"id" : "obj-21",
					"label" : [ "freq" ],
					"max" : 20000.0,
					"maxclass" : "ll_number",
					"min" : 0.0,
					"mousefocus" : 1,
					"numinlets" : 1,
					"numoutlets" : 1,
					"outlettype" : [ "" ],
					"parameter_enable" : 0,
					"patching_rect" : [ 0.0, 47.0, 331.0, 21.0 ],
					"slidercolor" : [ 1.0, 1.0, 1.0, 1.0 ],
					"slidercolornofocus" : [ 0.0, 0.0, 0.0, 0.54902 ],
					"sliderlog" : 5.0,
					"slidermax" : 20000.0,
					"textcolor" : [ 1.0, 1.0, 1.0, 1.0 ],
					"textcolornofocus" : [ 0.0, 0.0, 0.0, 0.788235 ],
					"varname" : "freq"
				}

			}
, 			{
				"box" : 				{
					"allowdrag" : 0,
					"annotation" : "input_menu",
					"id" : "obj-36",
					"items" : [ "intern", ",", "extern" ],
					"maxclass" : "umenu",
					"numinlets" : 1,
					"numoutlets" : 3,
					"outlettype" : [ "int", "", "" ],
					"parameter_enable" : 0,
					"patching_rect" : [ 0.0, 30.0, 53.0, 20.0 ],
					"varname" : "input_menu"
				}

			}
, 			{
				"box" : 				{
					"args" : [ "frequenzteiler", "ยง8a6a3a" ],
					"bgmode" : 0,
					"border" : 0,
					"clickthrough" : 0,
					"enablehscroll" : 0,
					"enablevscroll" : 0,
					"id" : "obj-16",
					"lockeddragscroll" : 0,
					"lockedsize" : 0,
					"maxclass" : "bpatcher",
					"name" : "ll.act.maxpat",
					"numinlets" : 1,
					"numoutlets" : 0,
					"offset" : [ 0.0, 0.0 ],
					"patching_rect" : [ 0.0, 0.0, 101.90234375, 16.0 ],
					"varname" : "act",
					"viewvisibility" : 1
				}

			}
, 			{
				"box" : 				{
					"hidden" : 1,
					"id" : "obj-17",
					"maxclass" : "newobj",
					"numinlets" : 1,
					"numoutlets" : 1,
					"outlettype" : [ "" ],
					"patching_rect" : [ 436.0, 312.0, 100.0, 20.0 ],
					"text" : "pattrforward act::in2",
					"varname" : "pf"
				}

			}
 ],
		"lines" : [ 			{
				"patchline" : 				{
					"destination" : [ "obj-50", 0 ],
					"hidden" : 1,
					"source" : [ "obj-15", 0 ]
				}

			}
, 			{
				"patchline" : 				{
					"destination" : [ "obj-17", 0 ],
					"hidden" : 1,
					"source" : [ "obj-3", 0 ]
				}

			}
 ],
		"dependency_cache" : [ 			{
				"name" : "ll.act.maxpat",
				"bootpath" : "~/Documents/Max 9/Packages/ppooll/patchers/actmaker",
				"patcherrelativepath" : "../actmaker",
				"type" : "JSON",
				"implicit" : 1
			}
, 			{
				"name" : "actmaker_specials.js",
				"bootpath" : "~/Documents/Max 9/Packages/ppooll/javascript/actmaker",
				"patcherrelativepath" : "../../javascript/actmaker",
				"type" : "TEXT",
				"implicit" : 1
			}
, 			{
				"name" : "actmaker_sub.maxpat",
				"bootpath" : "~/Documents/Max 9/Packages/ppooll/patchers/actmaker",
				"patcherrelativepath" : "../actmaker",
				"type" : "JSON",
				"implicit" : 1
			}
, 			{
				"name" : "ll._utilities.js",
				"bootpath" : "~/Documents/Max 9/Packages/ppooll/javascript",
				"patcherrelativepath" : "../../javascript",
				"type" : "TEXT",
				"implicit" : 1
			}
, 			{
				"name" : "ll.act_title.js",
				"bootpath" : "~/Documents/Max 9/Packages/ppooll/javascript",
				"patcherrelativepath" : "../../javascript",
				"type" : "TEXT",
				"implicit" : 1
			}
, 			{
				"name" : "ll.actmake.js",
				"bootpath" : "~/Documents/Max 9/Packages/ppooll/javascript",
				"patcherrelativepath" : "../../javascript",
				"type" : "TEXT",
				"implicit" : 1
			}
, 			{
				"name" : "ll.actname.js",
				"bootpath" : "~/Documents/Max 9/Packages/ppooll/javascript",
				"patcherrelativepath" : "../../javascript",
				"type" : "TEXT",
				"implicit" : 1
			}
, 			{
				"name" : "ll.actname.maxpat",
				"bootpath" : "~/Documents/Max 9/Packages/ppooll/patchers/actmaker",
				"patcherrelativepath" : "../actmaker",
				"type" : "JSON",
				"implicit" : 1
			}
, 			{
				"name" : "ll.blues.maxpat",
				"bootpath" : "~/Documents/Max 9/Packages/ppooll/patchers/abstractions/ll.blues",
				"patcherrelativepath" : "../abstractions/ll.blues",
				"type" : "JSON",
				"implicit" : 1
			}
, 			{
				"name" : "ll.mc.stereo_pan.maxpat",
				"bootpath" : "~/Documents/Max 9/Packages/ppooll/patchers/abstractions/ll.blues",
				"patcherrelativepath" : "../abstractions/ll.blues",
				"type" : "JSON",
				"implicit" : 1
			}
, 			{
				"name" : "ll.og.maxpat",
				"bootpath" : "~/Documents/Max 9/Packages/ppooll/patchers/abstractions/filip",
				"patcherrelativepath" : "../abstractions/filip",
				"type" : "JSON",
				"implicit" : 1
			}
, 			{
				"name" : "ll.p.maxpat",
				"bootpath" : "~/Documents/Max 9/Packages/ppooll/patchers/abstractions/filip",
				"patcherrelativepath" : "../abstractions/filip",
				"type" : "JSON",
				"implicit" : 1
			}
, 			{
				"name" : "ll.pattr_ui.js",
				"bootpath" : "~/Documents/Max 9/Packages/ppooll/javascript",
				"patcherrelativepath" : "../../javascript",
				"type" : "TEXT",
				"implicit" : 1
			}
, 			{
				"name" : "ll.pf.maxpat",
				"bootpath" : "~/Documents/Max 9/Packages/ppooll/patchers/abstractions/filip",
				"patcherrelativepath" : "../abstractions/filip",
				"type" : "JSON",
				"implicit" : 1
			}
, 			{
				"name" : "ll.psto.maxpat",
				"bootpath" : "~/Documents/Max 9/Packages/ppooll/patchers/abstractions/filip",
				"patcherrelativepath" : "../abstractions/filip",
				"type" : "JSON",
				"implicit" : 1
			}
, 			{
				"name" : "ll.psto1.maxpat",
				"bootpath" : "~/Documents/Max 9/Packages/ppooll/patchers/abstractions/filip",
				"patcherrelativepath" : "../abstractions/filip",
				"type" : "JSON",
				"implicit" : 1
			}
, 			{
				"name" : "ll.r.maxpat",
				"bootpath" : "~/Documents/Max 9/Packages/ppooll/patchers/abstractions/filip",
				"patcherrelativepath" : "../abstractions/filip",
				"type" : "JSON",
				"implicit" : 1
			}
, 			{
				"name" : "ll.r~.js",
				"bootpath" : "~/Documents/Max 9/Packages/ppooll/javascript",
				"patcherrelativepath" : "../../javascript",
				"type" : "TEXT",
				"implicit" : 1
			}
, 			{
				"name" : "ll.r~.maxpat",
				"bootpath" : "~/Documents/Max 9/Packages/ppooll/patchers/abstractions/filip",
				"patcherrelativepath" : "../abstractions/filip",
				"type" : "JSON",
				"implicit" : 1
			}
, 			{
				"name" : "ll.s.maxpat",
				"bootpath" : "~/Documents/Max 9/Packages/ppooll/patchers/abstractions/filip",
				"patcherrelativepath" : "../abstractions/filip",
				"type" : "JSON",
				"implicit" : 1
			}
, 			{
				"name" : "ll.shut.maxpat",
				"bootpath" : "~/Documents/Max 9/Packages/ppooll/patchers/abstractions/filip",
				"patcherrelativepath" : "../abstractions/filip",
				"type" : "JSON",
				"implicit" : 1
			}
, 			{
				"name" : "ll.s~.js",
				"bootpath" : "~/Documents/Max 9/Packages/ppooll/javascript",
				"patcherrelativepath" : "../../javascript",
				"type" : "TEXT",
				"implicit" : 1
			}
, 			{
				"name" : "ll.s~.maxpat",
				"bootpath" : "~/Documents/Max 9/Packages/ppooll/patchers/abstractions/filip",
				"patcherrelativepath" : "../abstractions/filip",
				"type" : "JSON",
				"implicit" : 1
			}
, 			{
				"name" : "ll.wsendback.js",
				"bootpath" : "~/Documents/Max 9/Packages/ppooll/javascript",
				"patcherrelativepath" : "../../javascript",
				"type" : "TEXT",
				"implicit" : 1
			}
, 			{
				"name" : "ll_fastforward.mxo",
				"type" : "iLaX"
			}
, 			{
				"name" : "ll_number.mxo",
				"type" : "iLaX"
			}
, 			{
				"name" : "n.maxpat",
				"bootpath" : "~/Documents/Max 9/Packages/ppooll/patchers/abstractions/filip",
				"patcherrelativepath" : "../abstractions/filip",
				"type" : "JSON",
				"implicit" : 1
			}
, 			{
				"name" : "nblue.js",
				"bootpath" : "~/Documents/Max 9/Packages/ppooll/javascript",
				"patcherrelativepath" : "../../javascript",
				"type" : "TEXT",
				"implicit" : 1
			}
, 			{
				"name" : "pattrexists.mxo",
				"type" : "iLaX"
			}
, 			{
				"name" : "ppooll_state.js",
				"bootpath" : "~/Documents/Max 9/Packages/ppooll/javascript",
				"patcherrelativepath" : "../../javascript",
				"type" : "TEXT",
				"implicit" : 1
			}
 ],
		"autosave" : 0,
		"bgcolor" : [ 0.541176470588235, 0.415686274509804, 0.227450980392157, 1.0 ]
	}

}
