{
	"patcher" : 	{
		"fileversion" : 1,
		"appversion" : 		{
			"major" : 9,
			"minor" : 0,
			"revision" : 7,
			"architecture" : "x64",
			"modernui" : 1
		}
,
		"classnamespace" : "box",
		"rect" : [ 523.0, 272.0, 122.0, 130.0 ],
		"default_fontsize" : 10.0,
		"gridsize" : [ 15.0, 15.0 ],
		"toolbarvisible" : 0,
		"globalpatchername" : "jit.brcosa@1",
		"boxes" : [ 			{
				"box" : 				{
					"annotation" : "thresh",
					"fontface" : 0,
					"format" : [ 1.3 ],
					"id" : "obj-3",
					"label" : [ "thresh" ],
					"maxclass" : "ll_number",
					"numinlets" : 1,
					"numoutlets" : 1,
					"outlettype" : [ "" ],
					"parameter_enable" : 0,
					"patching_rect" : [ 0.0, 71.0, 121.0, 14.0 ],
					"slidermax" : 1.0,
					"varname" : "thresh"
				}

			}
, 			{
				"box" : 				{
					"annotation" : "saturation",
					"fontface" : 0,
					"format" : [ 1.3 ],
					"id" : "obj-17",
					"label" : [ "saturation" ],
					"maxclass" : "ll_number",
					"numinlets" : 1,
					"numoutlets" : 1,
					"outlettype" : [ "" ],
					"parameter_enable" : 0,
					"patching_rect" : [ 0.0, 58.0, 121.0, 14.0 ],
					"slidermax" : 8.0,
					"slidermin" : -8.0,
					"varname" : "saturation"
				}

			}
, 			{
				"box" : 				{
					"annotation" : "contrast",
					"fontface" : 0,
					"format" : [ 1.3 ],
					"id" : "obj-10",
					"label" : [ "contrast" ],
					"maxclass" : "ll_number",
					"numinlets" : 1,
					"numoutlets" : 1,
					"outlettype" : [ "" ],
					"parameter_enable" : 0,
					"patching_rect" : [ 0.0, 45.0, 121.0, 14.0 ],
					"slidermax" : 8.0,
					"slidermin" : -8.0,
					"varname" : "contrast"
				}

			}
, 			{
				"box" : 				{
					"annotation" : "brightness",
					"fontface" : 0,
					"format" : [ 1.3 ],
					"id" : "obj-5",
					"label" : [ "brightness" ],
					"maxclass" : "ll_number",
					"numinlets" : 1,
					"numoutlets" : 1,
					"outlettype" : [ "" ],
					"parameter_enable" : 0,
					"patching_rect" : [ 0.0, 32.0, 121.0, 14.0 ],
					"slidermax" : 8.0,
					"slidermin" : -8.0,
					"varname" : "brightness"
				}

			}
, 			{
				"box" : 				{
					"annotation" : "brcosa_reset",
					"bgcolor" : [ 0.556863, 0.556863, 0.556863, 1.0 ],
					"bgoncolor" : [ 0.55, 0.55, 0.55, 1.0 ],
					"fontname" : "Arial",
					"fontsize" : 12.0,
					"id" : "obj-28",
					"legacytextcolor" : 1,
					"maxclass" : "textbutton",
					"numinlets" : 1,
					"numoutlets" : 3,
					"outlettype" : [ "", "", "int" ],
					"outputmode" : 0,
					"parameter_enable" : 0,
					"patching_rect" : [ 86.0, 85.0, 34.0, 16.0 ],
					"prototypename" : "button_grey",
					"text" : "reset",
					"textcolor" : [ 1.0, 1.0, 1.0, 1.0 ],
					"textoncolor" : [ 1.0, 1.0, 1.0, 1.0 ],
					"textovercolor" : [ 0.0, 0.0, 0.0, 1.0 ],
					"usebgoncolor" : 1,
					"usetextovercolor" : 1,
					"varname" : "brcosa_reset"
				}

			}
, 			{
				"box" : 				{
					"annotation" : "local_disp_on",
					"bgcolor" : [ 0.75, 0.75, 0.75, 1.0 ],
					"bgoncolor" : [ 0.752941, 0.023529, 0.247059, 1.0 ],
					"fontname" : "Arial",
					"fontsize" : 9.0,
					"id" : "obj-36",
					"legacytextcolor" : 1,
					"maxclass" : "textbutton",
					"mode" : 1,
					"numinlets" : 1,
					"numoutlets" : 3,
					"outlettype" : [ "", "", "int" ],
					"outputmode" : 0,
					"parameter_enable" : 0,
					"patching_rect" : [ 107.0, 1.0, 13.0, 15.0 ],
					"rounded" : 1.0,
					"text" : "v",
					"textcolor" : [ 0.752941, 0.023529, 0.247059, 1.0 ],
					"texton" : "v",
					"textoncolor" : [ 0.870588, 0.819608, 0.239216, 1.0 ],
					"textovercolor" : [ 0.752941, 0.023529, 0.247059, 1.0 ],
					"usebgoncolor" : 1,
					"usetextovercolor" : 1,
					"varname" : "local_disp_on"
				}

			}
, 			{
				"box" : 				{
					"annotation" : "jit_on",
					"bgcolor" : [ 0.75, 0.75, 0.75, 1.0 ],
					"bgoncolor" : [ 0.752941, 0.023529, 0.247059, 1.0 ],
					"fontname" : "Arial",
					"fontsize" : 8.0,
					"id" : "obj-37",
					"legacytextcolor" : 1,
					"maxclass" : "textbutton",
					"mode" : 1,
					"numinlets" : 1,
					"numoutlets" : 3,
					"outlettype" : [ "", "", "int" ],
					"outputmode" : 0,
					"parameter_enable" : 0,
					"patching_rect" : [ 87.0, 1.0, 21.0, 14.0 ],
					"prototypename" : "jit_on",
					"rounded" : 1.0,
					"text" : "ON",
					"textcolor" : [ 0.752941, 0.023529, 0.247059, 1.0 ],
					"texton" : "ON",
					"textoncolor" : [ 0.870588, 0.819608, 0.239216, 1.0 ],
					"textovercolor" : [ 0.752941, 0.023529, 0.247059, 1.0 ],
					"usebgoncolor" : 1,
					"usetextovercolor" : 1,
					"varname" : "jit_on"
				}

			}
, 			{
				"box" : 				{
					"id" : "obj-6",
					"maxclass" : "jit.pwindow",
					"numinlets" : 1,
					"numoutlets" : 2,
					"outlettype" : [ "jit_matrix", "" ],
					"patching_rect" : [ -1.0, 86.0, 61.0, 44.0 ],
					"sync" : 1,
					"varname" : "local_display"
				}

			}
, 			{
				"box" : 				{
					"annotation" : "jit.ms",
					"bgcolor" : [ 0.752941, 0.023529, 0.247059, 1.0 ],
					"fontname" : "Arial",
					"fontsize" : 9.0,
					"htricolor" : [ 0.87, 0.82, 0.24, 1.0 ],
					"id" : "obj-8",
					"maxclass" : "number",
					"minimum" : 1,
					"numinlets" : 1,
					"numoutlets" : 2,
					"outlettype" : [ "", "bang" ],
					"parameter_enable" : 0,
					"patching_rect" : [ 57.0, 85.0, 30.0, 19.0 ],
					"textcolor" : [ 0.0, 0.776471, 0.211765, 1.0 ],
					"tricolor" : [ 0.75, 0.75, 0.75, 1.0 ],
					"triscale" : 0.9,
					"varname" : "jit.ms"
				}

			}
, 			{
				"box" : 				{
					"allowdrag" : 0,
					"annotation" : "jit_input1",
					"bgcolor" : [ 0.011765, 0.101961, 0.219608, 1.0 ],
					"bgfillcolor_color" : [ 0.011765, 0.101961, 0.219608, 1.0 ],
					"bgfillcolor_color1" : [ 0.301961, 0.301961, 0.301961, 1 ],
					"bgfillcolor_color2" : [ 0.2, 0.2, 0.2, 1 ],
					"bgfillcolor_type" : "color",
					"fontname" : "Arial",
					"fontsize" : 9.0,
					"id" : "obj-9",
					"items" : "jit.brcosa@1",
					"maxclass" : "umenu",
					"numinlets" : 1,
					"numoutlets" : 3,
					"outlettype" : [ "int", "", "" ],
					"parameter_enable" : 0,
					"patching_rect" : [ 0.0, 15.0, 120.0, 19.0 ],
					"pattrmode" : 1,
					"textcolor" : [ 1.0, 0.745098, 0.960784, 1.0 ],
					"varname" : "jit_input1"
				}

			}
, 			{
				"box" : 				{
					"active" : 					{
						"presets" : 0,
						"preset-ramp" : 0,
						"title_menu" : 0,
						"pres_menu" : 0,
						"tetris_menu" : 0,
						"master" : 0,
						"act::active_store" : 0,
						"act::master/activest" : 0,
						"actmakeB::master/activest" : 0,
						"actmakeB::active_store" : 0
					}
,
					"color" : [ 0.0, 0.0, 0.0, 1.0 ],
					"fontname" : "Arial",
					"fontsize" : 12.0,
					"hidden" : 1,
					"id" : "obj-2",
					"maxclass" : "newobj",
					"numinlets" : 1,
					"numoutlets" : 1,
					"outlettype" : [ "" ],
					"patching_rect" : [ 313.0, 184.0, 118.0, 22.0 ],
					"priority" : 					{
						"presets" : 1016,
						"preset-ramp" : 1017,
						"title_menu" : 2010,
						"pres_menu" : 2011,
						"tetris_menu" : 2012,
						"master" : 2013
					}
,
					"saved_object_attributes" : 					{
						"client_rect" : [ 576, 98, 1191, 758 ],
						"parameter_enable" : 0,
						"parameter_mappable" : 0,
						"storage_rect" : [ 200, 200, 800, 500 ]
					}
,
					"text" : "pattrstorage pat",
					"varname" : "pat"
				}

			}
, 			{
				"box" : 				{
					"color" : [ 0.0, 0.0, 0.0, 1.0 ],
					"fontname" : "Arial",
					"fontsize" : 12.0,
					"hidden" : 1,
					"id" : "obj-14",
					"maxclass" : "newobj",
					"numinlets" : 1,
					"numoutlets" : 2,
					"outlettype" : [ "", "" ],
					"patching_rect" : [ 300.0, 226.0, 126.0, 22.0 ],
					"save" : [ "#N", "thispatcher", ";", "#Q", "end", ";" ],
					"text" : "thispatcher",
					"varname" : "thispatcher"
				}

			}
, 			{
				"box" : 				{
					"color" : [ 0.0, 0.0, 0.0, 1.0 ],
					"fontname" : "Arial",
					"fontsize" : 12.0,
					"hidden" : 1,
					"id" : "obj-15",
					"maxclass" : "newobj",
					"numinlets" : 1,
					"numoutlets" : 1,
					"outlettype" : [ "" ],
					"patching_rect" : [ 300.0, 247.0, 126.0, 22.0 ],
					"text" : "pattrmarker no",
					"varname" : "pattrmarker"
				}

			}
, 			{
				"box" : 				{
					"color" : [ 0.0, 0.0, 0.0, 1.0 ],
					"fontname" : "Arial",
					"fontsize" : 12.0,
					"hidden" : 1,
					"id" : "obj-16",
					"maxclass" : "newobj",
					"numinlets" : 1,
					"numoutlets" : 4,
					"outlettype" : [ "", "", "", "" ],
					"patching_rect" : [ 300.0, 268.0, 128.0, 22.0 ],
					"restore" : 					{
						"brcosa_reset" : [ -1 ],
						"brightness" : [ 1 ],
						"contrast" : [ 1 ],
						"jit.ms" : [ 20 ],
						"jit_input1" : [ "jit.brcosa@1" ],
						"jit_on" : [ 1 ],
						"local_disp_on" : [ 1 ],
						"preset-ramp" : [ 0.0 ],
						"presets" : [ 0 ],
						"saturation" : [ 1 ],
						"thresh" : [ 0.0 ]
					}
,
					"text" : "autopattr autopattr",
					"varname" : "autopattr"
				}

			}
, 			{
				"box" : 				{
					"color" : [ 0.0, 0.0, 0.0, 1.0 ],
					"fontname" : "Arial",
					"fontsize" : 12.0,
					"hidden" : 1,
					"id" : "obj-27",
					"maxclass" : "newobj",
					"numinlets" : 0,
					"numoutlets" : 0,
					"patcher" : 					{
						"fileversion" : 1,
						"appversion" : 						{
							"major" : 9,
							"minor" : 0,
							"revision" : 7,
							"architecture" : "x64",
							"modernui" : 1
						}
,
						"classnamespace" : "box",
						"rect" : [ 794.0, 281.0, 478.0, 531.0 ],
						"gridsize" : [ 15.0, 15.0 ],
						"boxes" : [ 							{
								"box" : 								{
									"fontname" : "Arial",
									"fontsize" : 12.0,
									"id" : "obj-4",
									"maxclass" : "newobj",
									"numinlets" : 1,
									"numoutlets" : 2,
									"outlettype" : [ "jit_matrix", "" ],
									"patching_rect" : [ 184.0, 420.0, 55.0, 20.0 ],
									"text" : "jit.matrix"
								}

							}
, 							{
								"box" : 								{
									"color" : [ 1.0, 1.0, 0.0, 1.0 ],
									"fontname" : "Arial",
									"fontsize" : 12.0,
									"id" : "obj-69",
									"maxclass" : "newobj",
									"numinlets" : 1,
									"numoutlets" : 1,
									"outlettype" : [ "jit_matrix" ],
									"patcher" : 									{
										"fileversion" : 1,
										"appversion" : 										{
											"major" : 9,
											"minor" : 0,
											"revision" : 7,
											"architecture" : "x64",
											"modernui" : 1
										}
,
										"classnamespace" : "box",
										"rect" : [ 185.0, 312.0, 288.0, 231.0 ],
										"gridsize" : [ 15.0, 15.0 ],
										"boxes" : [ 											{
												"box" : 												{
													"fontname" : "Arial",
													"fontsize" : 12.0,
													"id" : "obj-1",
													"maxclass" : "newobj",
													"numinlets" : 1,
													"numoutlets" : 2,
													"outlettype" : [ "", "bang" ],
													"patching_rect" : [ 156.0, 35.0, 60.0, 20.0 ],
													"text" : "ll.r thresh"
												}

											}
, 											{
												"box" : 												{
													"fontname" : "Arial",
													"fontsize" : 12.0,
													"id" : "obj-2",
													"maxclass" : "newobj",
													"numinlets" : 2,
													"numoutlets" : 2,
													"outlettype" : [ "jit_matrix", "" ],
													"patching_rect" : [ 50.0, 130.0, 83.0, 20.0 ],
													"text" : "jit.op @op *"
												}

											}
, 											{
												"box" : 												{
													"bgcolor" : [ 0.866667, 0.866667, 0.866667, 1.0 ],
													"fontname" : "Arial",
													"fontsize" : 12.0,
													"format" : 6,
													"htricolor" : [ 0.87, 0.82, 0.24, 1.0 ],
													"id" : "obj-3",
													"maxclass" : "flonum",
													"numinlets" : 1,
													"numoutlets" : 2,
													"outlettype" : [ "", "bang" ],
													"parameter_enable" : 0,
													"patching_rect" : [ 156.0, 63.0, 40.0, 20.0 ],
													"textcolor" : [ 0.0, 0.0, 0.0, 1.0 ],
													"tricolor" : [ 0.75, 0.75, 0.75, 1.0 ],
													"triscale" : 0.9
												}

											}
, 											{
												"box" : 												{
													"fontname" : "Arial",
													"fontsize" : 12.0,
													"id" : "obj-4",
													"maxclass" : "newobj",
													"numinlets" : 2,
													"numoutlets" : 2,
													"outlettype" : [ "jit_matrix", "" ],
													"patching_rect" : [ 104.0, 93.0, 80.0, 20.0 ],
													"text" : "jit.op @op >"
												}

											}
, 											{
												"box" : 												{
													"comment" : "",
													"id" : "obj-5",
													"index" : 1,
													"maxclass" : "inlet",
													"numinlets" : 0,
													"numoutlets" : 1,
													"outlettype" : [ "jit_matrix" ],
													"patching_rect" : [ 50.0, 35.0, 15.0, 15.0 ]
												}

											}
, 											{
												"box" : 												{
													"comment" : "",
													"id" : "obj-6",
													"index" : 1,
													"maxclass" : "outlet",
													"numinlets" : 1,
													"numoutlets" : 0,
													"patching_rect" : [ 50.0, 152.0, 15.0, 15.0 ]
												}

											}
 ],
										"lines" : [ 											{
												"patchline" : 												{
													"destination" : [ "obj-3", 0 ],
													"source" : [ "obj-1", 0 ]
												}

											}
, 											{
												"patchline" : 												{
													"destination" : [ "obj-6", 0 ],
													"source" : [ "obj-2", 0 ]
												}

											}
, 											{
												"patchline" : 												{
													"destination" : [ "obj-4", 1 ],
													"source" : [ "obj-3", 0 ]
												}

											}
, 											{
												"patchline" : 												{
													"destination" : [ "obj-2", 1 ],
													"source" : [ "obj-4", 0 ]
												}

											}
, 											{
												"patchline" : 												{
													"destination" : [ "obj-2", 0 ],
													"order" : 1,
													"source" : [ "obj-5", 0 ]
												}

											}
, 											{
												"patchline" : 												{
													"destination" : [ "obj-4", 0 ],
													"order" : 0,
													"source" : [ "obj-5", 0 ]
												}

											}
 ]
									}
,
									"patching_rect" : [ 184.0, 353.0, 53.0, 20.0 ],
									"text" : "p tresh"
								}

							}
, 							{
								"box" : 								{
									"fontname" : "Arial",
									"fontsize" : 12.0,
									"id" : "obj-15",
									"maxclass" : "newobj",
									"numinlets" : 3,
									"numoutlets" : 1,
									"outlettype" : [ "" ],
									"patching_rect" : [ 239.0, 200.0, 42.0, 20.0 ],
									"text" : "ll.psto"
								}

							}
, 							{
								"box" : 								{
									"fontname" : "Arial",
									"fontsize" : 9.0,
									"id" : "obj-3",
									"maxclass" : "newobj",
									"numinlets" : 2,
									"numoutlets" : 3,
									"outlettype" : [ "", "", "" ],
									"patching_rect" : [ 135.0, 211.0, 46.0, 17.0 ],
									"text" : "ll.jact"
								}

							}
, 							{
								"box" : 								{
									"fontname" : "Arial",
									"fontsize" : 9.0,
									"id" : "obj-5",
									"maxclass" : "newobj",
									"numinlets" : 3,
									"numoutlets" : 2,
									"outlettype" : [ "jit_matrix", "" ],
									"patching_rect" : [ 135.0, 237.0, 61.0, 17.0 ],
									"text" : "ll.rj jit_input1"
								}

							}
, 							{
								"box" : 								{
									"fontname" : "Arial",
									"fontsize" : 9.0,
									"id" : "obj-6",
									"maxclass" : "newobj",
									"numinlets" : 1,
									"numoutlets" : 2,
									"outlettype" : [ "", "bang" ],
									"patching_rect" : [ 262.0, 152.0, 75.0, 17.0 ],
									"text" : "ll.r brcosa_reset"
								}

							}
, 							{
								"box" : 								{
									"fontname" : "Arial",
									"fontsize" : 9.0,
									"id" : "obj-7",
									"maxclass" : "message",
									"numinlets" : 2,
									"numoutlets" : 1,
									"outlettype" : [ "" ],
									"patching_rect" : [ 262.0, 175.0, 156.0, 15.0 ],
									"text" : "brightness 1, contrast 1, saturation 1"
								}

							}
, 							{
								"box" : 								{
									"fontname" : "Arial",
									"fontsize" : 9.0,
									"id" : "obj-8",
									"maxclass" : "newobj",
									"numinlets" : 1,
									"numoutlets" : 2,
									"outlettype" : [ "", "bang" ],
									"patching_rect" : [ 345.0, 20.0, 62.0, 17.0 ],
									"text" : "ll.r saturation"
								}

							}
, 							{
								"box" : 								{
									"fontname" : "Arial",
									"fontsize" : 9.0,
									"id" : "obj-9",
									"maxclass" : "newobj",
									"numinlets" : 1,
									"numoutlets" : 2,
									"outlettype" : [ "", "bang" ],
									"patching_rect" : [ 269.0, 20.0, 55.0, 17.0 ],
									"text" : "ll.r contrast"
								}

							}
, 							{
								"box" : 								{
									"fontname" : "Arial",
									"fontsize" : 9.0,
									"id" : "obj-10",
									"maxclass" : "newobj",
									"numinlets" : 1,
									"numoutlets" : 2,
									"outlettype" : [ "", "bang" ],
									"patching_rect" : [ 184.0, 20.0, 64.0, 17.0 ],
									"text" : "ll.r brightness"
								}

							}
, 							{
								"box" : 								{
									"fontname" : "Arial",
									"fontsize" : 9.0,
									"id" : "obj-11",
									"maxclass" : "message",
									"numinlets" : 2,
									"numoutlets" : 1,
									"outlettype" : [ "" ],
									"patching_rect" : [ 345.0, 57.0, 69.0, 15.0 ],
									"text" : "saturation $1"
								}

							}
, 							{
								"box" : 								{
									"fontname" : "Arial",
									"fontsize" : 9.0,
									"id" : "obj-12",
									"maxclass" : "message",
									"numinlets" : 2,
									"numoutlets" : 1,
									"outlettype" : [ "" ],
									"patching_rect" : [ 184.0, 56.0, 70.0, 15.0 ],
									"text" : "brightness $1"
								}

							}
, 							{
								"box" : 								{
									"fontname" : "Arial",
									"fontsize" : 9.0,
									"id" : "obj-13",
									"maxclass" : "message",
									"numinlets" : 2,
									"numoutlets" : 1,
									"outlettype" : [ "" ],
									"patching_rect" : [ 269.0, 57.0, 61.0, 15.0 ],
									"text" : "contrast $1"
								}

							}
, 							{
								"box" : 								{
									"color" : [ 0.4, 0.4, 0.8, 1.0 ],
									"fontname" : "Arial",
									"fontsize" : 9.0,
									"id" : "obj-14",
									"maxclass" : "newobj",
									"numinlets" : 1,
									"numoutlets" : 2,
									"outlettype" : [ "jit_matrix", "" ],
									"patching_rect" : [ 184.0, 307.0, 65.0, 17.0 ],
									"text" : "jit.brcosa"
								}

							}
, 							{
								"box" : 								{
									"fontname" : "Arial",
									"fontsize" : 12.0,
									"id" : "obj-1",
									"maxclass" : "newobj",
									"numinlets" : 1,
									"numoutlets" : 2,
									"outlettype" : [ "", "" ],
									"patching_rect" : [ 55.0, 25.0, 100.0, 20.0 ],
									"save" : [ "#N", "thispatcher", ";", "#Q", "end", ";" ],
									"text" : "thispatcher",
									"varname" : "subTP"
								}

							}
 ],
						"lines" : [ 							{
								"patchline" : 								{
									"destination" : [ "obj-12", 0 ],
									"source" : [ "obj-10", 0 ]
								}

							}
, 							{
								"patchline" : 								{
									"destination" : [ "obj-14", 0 ],
									"midpoints" : [ 354.5, 102.0, 193.5, 102.0 ],
									"source" : [ "obj-11", 0 ]
								}

							}
, 							{
								"patchline" : 								{
									"destination" : [ "obj-14", 0 ],
									"source" : [ "obj-12", 0 ]
								}

							}
, 							{
								"patchline" : 								{
									"destination" : [ "obj-14", 0 ],
									"midpoints" : [ 278.5, 102.0, 193.5, 102.0 ],
									"source" : [ "obj-13", 0 ]
								}

							}
, 							{
								"patchline" : 								{
									"destination" : [ "obj-69", 0 ],
									"source" : [ "obj-14", 0 ]
								}

							}
, 							{
								"patchline" : 								{
									"destination" : [ "obj-4", 0 ],
									"source" : [ "obj-3", 1 ]
								}

							}
, 							{
								"patchline" : 								{
									"destination" : [ "obj-5", 0 ],
									"source" : [ "obj-3", 0 ]
								}

							}
, 							{
								"patchline" : 								{
									"destination" : [ "obj-3", 0 ],
									"midpoints" : [ 193.5, 455.0, 129.0, 455.0, 129.0, 201.0, 144.5, 201.0 ],
									"source" : [ "obj-4", 0 ]
								}

							}
, 							{
								"patchline" : 								{
									"destination" : [ "obj-14", 0 ],
									"source" : [ "obj-5", 0 ]
								}

							}
, 							{
								"patchline" : 								{
									"destination" : [ "obj-7", 0 ],
									"source" : [ "obj-6", 0 ]
								}

							}
, 							{
								"patchline" : 								{
									"destination" : [ "obj-4", 0 ],
									"source" : [ "obj-69", 0 ]
								}

							}
, 							{
								"patchline" : 								{
									"destination" : [ "obj-15", 1 ],
									"source" : [ "obj-7", 0 ]
								}

							}
, 							{
								"patchline" : 								{
									"destination" : [ "obj-11", 0 ],
									"source" : [ "obj-8", 0 ]
								}

							}
, 							{
								"patchline" : 								{
									"destination" : [ "obj-13", 0 ],
									"source" : [ "obj-9", 0 ]
								}

							}
 ]
					}
,
					"patching_rect" : [ 300.0, 355.0, 119.0, 22.0 ],
					"text" : "p jit.brcosa@_sub",
					"varname" : "sub"
				}

			}
, 			{
				"box" : 				{
					"annotation" : "presets grid. click on ppooll in the ho_st to find info about it",
					"filename" : "ll.pattr_ui.js",
					"id" : "obj-7",
					"jsarguments" : [ 11, "255 255 255", "50 50 50", "255 0 0", "0 255 0", "jit.brcosa@1" ],
					"maxclass" : "jsui",
					"numinlets" : 1,
					"numoutlets" : 1,
					"outlettype" : [ "" ],
					"parameter_enable" : 0,
					"patching_rect" : [ 59.0, 101.0, 61.0, 13.0 ],
					"varname" : "presets"
				}

			}
, 			{
				"box" : 				{
					"annotation" : "ramp time between presets. click on ppooll in the ho_st to find info about it",
					"fontface" : 0,
					"format" : [ 5 ],
					"id" : "obj-13",
					"maxclass" : "ll_number",
					"min" : 0.0,
					"numinlets" : 1,
					"numoutlets" : 1,
					"outlettype" : [ "" ],
					"parameter_enable" : 0,
					"patching_rect" : [ 59.0, 115.0, 61.0, 15.0 ],
					"sliderlog" : 3.0,
					"slidermax" : 20000.0,
					"varname" : "preset-ramp"
				}

			}
, 			{
				"box" : 				{
					"args" : [ "jit.brcosa@", "ยง000000" ],
					"bgmode" : 0,
					"border" : 0,
					"clickthrough" : 0,
					"enablehscroll" : 0,
					"enablevscroll" : 0,
					"id" : "obj-11",
					"lockeddragscroll" : 0,
					"lockedsize" : 0,
					"maxclass" : "bpatcher",
					"name" : "ll.act.maxpat",
					"numinlets" : 1,
					"numoutlets" : 0,
					"offset" : [ 0.0, 0.0 ],
					"patching_rect" : [ 0.0, 0.0, 84.60546875, 16.0 ],
					"varname" : "act",
					"viewvisibility" : 1
				}

			}
, 			{
				"box" : 				{
					"hidden" : 1,
					"id" : "obj-12",
					"maxclass" : "newobj",
					"numinlets" : 1,
					"numoutlets" : 1,
					"outlettype" : [ "" ],
					"patching_rect" : [ 313.0, 205.0, 100.0, 20.0 ],
					"text" : "pattrforward act::in2",
					"varname" : "pf"
				}

			}
 ],
		"lines" : [ 			{
				"patchline" : 				{
					"destination" : [ "obj-12", 0 ],
					"hidden" : 1,
					"source" : [ "obj-2", 0 ]
				}

			}
 ],
		"dependency_cache" : [ 			{
				"name" : "ll.act.maxpat",
				"bootpath" : "~/Documents/Max 9/Packages/ppooll/patchers/actmaker",
				"patcherrelativepath" : "../actmaker",
				"type" : "JSON",
				"implicit" : 1
			}
, 			{
				"name" : "actmaker_specials.js",
				"bootpath" : "~/Documents/Max 9/Packages/ppooll/javascript/actmaker",
				"patcherrelativepath" : "../../javascript/actmaker",
				"type" : "TEXT",
				"implicit" : 1
			}
, 			{
				"name" : "actmaker_sub.maxpat",
				"bootpath" : "~/Documents/Max 9/Packages/ppooll/patchers/actmaker",
				"patcherrelativepath" : "../actmaker",
				"type" : "JSON",
				"implicit" : 1
			}
, 			{
				"name" : "ll.act_title.js",
				"bootpath" : "~/Documents/Max 9/Packages/ppooll/javascript",
				"patcherrelativepath" : "../../javascript",
				"type" : "TEXT",
				"implicit" : 1
			}
, 			{
				"name" : "ll.actmake.js",
				"bootpath" : "~/Documents/Max 9/Packages/ppooll/javascript",
				"patcherrelativepath" : "../../javascript",
				"type" : "TEXT",
				"implicit" : 1
			}
, 			{
				"name" : "ll.actname.js",
				"bootpath" : "~/Documents/Max 9/Packages/ppooll/javascript",
				"patcherrelativepath" : "../../javascript",
				"type" : "TEXT",
				"implicit" : 1
			}
, 			{
				"name" : "ll.actname.maxpat",
				"bootpath" : "~/Documents/Max 9/Packages/ppooll/patchers/actmaker",
				"patcherrelativepath" : "../actmaker",
				"type" : "JSON",
				"implicit" : 1
			}
, 			{
				"name" : "ll.jact.maxpat",
				"bootpath" : "~/Documents/Max 9/Packages/ppooll/patchers/abstractions/filip",
				"patcherrelativepath" : "../abstractions/filip",
				"type" : "JSON",
				"implicit" : 1
			}
, 			{
				"name" : "ll.p.maxpat",
				"bootpath" : "~/Documents/Max 9/Packages/ppooll/patchers/abstractions/filip",
				"patcherrelativepath" : "../abstractions/filip",
				"type" : "JSON",
				"implicit" : 1
			}
, 			{
				"name" : "ll.pattr_ui.js",
				"bootpath" : "~/Documents/Max 9/Packages/ppooll/javascript",
				"patcherrelativepath" : "../../javascript",
				"type" : "TEXT",
				"implicit" : 1
			}
, 			{
				"name" : "ll.pf.maxpat",
				"bootpath" : "~/Documents/Max 9/Packages/ppooll/patchers/abstractions/filip",
				"patcherrelativepath" : "../abstractions/filip",
				"type" : "JSON",
				"implicit" : 1
			}
, 			{
				"name" : "ll.psto.maxpat",
				"bootpath" : "~/Documents/Max 9/Packages/ppooll/patchers/abstractions/filip",
				"patcherrelativepath" : "../abstractions/filip",
				"type" : "JSON",
				"implicit" : 1
			}
, 			{
				"name" : "ll.psto1.maxpat",
				"bootpath" : "~/Documents/Max 9/Packages/ppooll/patchers/abstractions/filip",
				"patcherrelativepath" : "../abstractions/filip",
				"type" : "JSON",
				"implicit" : 1
			}
, 			{
				"name" : "ll.r.maxpat",
				"bootpath" : "~/Documents/Max 9/Packages/ppooll/patchers/abstractions/filip",
				"patcherrelativepath" : "../abstractions/filip",
				"type" : "JSON",
				"implicit" : 1
			}
, 			{
				"name" : "ll.rj.maxpat",
				"bootpath" : "~/Documents/Max 9/Packages/ppooll/patchers/abstractions/filip",
				"patcherrelativepath" : "../abstractions/filip",
				"type" : "JSON",
				"implicit" : 1
			}
, 			{
				"name" : "ll.shut.maxpat",
				"bootpath" : "~/Documents/Max 9/Packages/ppooll/patchers/abstractions/filip",
				"patcherrelativepath" : "../abstractions/filip",
				"type" : "JSON",
				"implicit" : 1
			}
, 			{
				"name" : "ll.wsendback.js",
				"bootpath" : "~/Documents/Max 9/Packages/ppooll/javascript",
				"patcherrelativepath" : "../../javascript",
				"type" : "TEXT",
				"implicit" : 1
			}
, 			{
				"name" : "ll_fastforward.mxo",
				"type" : "iLaX"
			}
, 			{
				"name" : "ll_number.mxo",
				"type" : "iLaX"
			}
, 			{
				"name" : "n.maxpat",
				"bootpath" : "~/Documents/Max 9/Packages/ppooll/patchers/abstractions/filip",
				"patcherrelativepath" : "../abstractions/filip",
				"type" : "JSON",
				"implicit" : 1
			}
, 			{
				"name" : "pattrexists.mxo",
				"type" : "iLaX"
			}
, 			{
				"name" : "ppooll_state.js",
				"bootpath" : "~/Documents/Max 9/Packages/ppooll/javascript",
				"patcherrelativepath" : "../../javascript",
				"type" : "TEXT",
				"implicit" : 1
			}
 ],
		"autosave" : 0,
		"bgcolor" : [ 0.0, 0.0, 0.0, 1.0 ]
	}

}
