max v2;
#N vpatcher 50 50 820 660;
#P window setfont "Sans Serif" 9.;
#P window linecount 1;
#P hidden newex 192 432 45 9109513 loadbang;
#P hidden message 131 394 176 9109513 window size 50 50 710 435 \, window exec;
#P hidden message 140 375 239 9109513 window flags nogrow \, savewindow 1 \, window exec;
#P hidden message 150 356 158 9109513 window flags grow \, window exec;
#N thispatcher;
#Q window flags grow close zoom nofloat;
#Q window size 50 50 820 660;
#Q window title;
#Q window exec;
#Q savewindow 1;
#Q end;
#P hidden newobj 131 432 59 9109513 thispatcher;
#P hidden newex 327 3 31 9109513 r pnl2;
#N vpatcher 208 51 845 570;
#P window setfont "Sans Serif" 9.;
#P window linecount 2;
#P newex 435 410 137 9109513 biquad~ 0.996965 -1.993929 0.996965 -1.993919 0.993939;
#P newex 297 410 137 9109513 biquad~ 0.996965 -1.993929 0.996965 -1.993919 0.993939;
#P window linecount 0;
#P message 18 406 14 9109513 1;
#P newex 18 379 38 9109513 del 300;
#P window linecount 1;
#P newex 18 354 45 9109513 loadbang;
#P window linecount 0;
#P newex 519 302 45 9109513 loadbang;
#P newex 119 465 91 9109513 dac~;
#P window linecount 1;
#P newex 205 93 27 9109513 t l b;
#N vpatcher 15 55 615 455;
#P origin 0 24;
#P window setfont "Sans Serif" 9.;
#P window linecount 0;
#P newex 276 236 27 9109513 t i b;
#P newex 276 159 27 9109513 t i b;
#P newex 276 207 27 9109513 pipe;
#P newex 293 182 102 9109513 expr random(100\\\,400);
#P outlet 451 370 15 0;
#P newex 388 106 36 9109513 bucket;
#P newex 276 132 149 9109513 if $i1!=$i2 then $i1 else out2 bang;
#P window linecount 1;
#N vpatcher 25 70 522 360;
#P outlet 91 203 15 0;
#P inlet 91 70 15 0;
#P window setfont "Sans Serif" 9.;
#P window linecount 1;
#P message 357 126 18 9109513 86;
#P message 338 126 18 9109513 84;
#P message 319 126 18 9109513 83;
#P message 300 126 18 9109513 81;
#P message 281 126 18 9109513 79;
#P message 262 126 18 9109513 76;
#P message 243 126 18 9109513 74;
#P message 224 126 18 9109513 71;
#P message 205 126 18 9109513 69;
#P message 186 126 18 9109513 67;
#P message 167 126 18 9109513 64;
#P message 148 126 18 9109513 62;
#P message 129 126 18 9109513 60;
#P message 110 126 18 9109513 57;
#P window linecount 0;
#P message 91 126 18 9109513 55;
#P newex 91 96 308 9109513 sel 0 1 2 3 4 5 6 7 8 9 10 11 12 13 14;
#P connect 16 0 0 0;
#P connect 0 0 1 0;
#P connect 1 0 17 0;
#P connect 2 0 17 0;
#P connect 3 0 17 0;
#P connect 4 0 17 0;
#P connect 5 0 17 0;
#P connect 6 0 17 0;
#P connect 7 0 17 0;
#P connect 8 0 17 0;
#P connect 9 0 17 0;
#P connect 10 0 17 0;
#P connect 11 0 17 0;
#P connect 12 0 17 0;
#P connect 13 0 17 0;
#P connect 14 0 17 0;
#P connect 15 0 17 0;
#P connect 0 1 2 0;
#P connect 0 2 3 0;
#P connect 0 3 4 0;
#P connect 0 4 5 0;
#P connect 0 5 6 0;
#P connect 0 6 7 0;
#P connect 0 7 8 0;
#P connect 0 8 9 0;
#P connect 0 9 10 0;
#P connect 0 10 11 0;
#P connect 0 11 12 0;
#P connect 0 12 13 0;
#P connect 0 13 14 0;
#P connect 0 14 15 0;
#P pop;
#P newobj 276 106 38 9109513 p scale;
#P window linecount 0;
#P newex 196 15 40 9109513 t b l b;
#P window linecount 1;
#P newex 277 314 112 9109513 expr random(2000\\\,3000);
#P window linecount 0;
#P newex 233 283 104 9109513 expr random(1\\\,4)*0.01;
#P outlet 185 370 15 0;
#P outlet 233 370 15 0;
#P outlet 277 370 15 0;
#P outlet 316 370 15 0;
#P inlet 196 -7 15 0;
#P window linecount 1;
#P newex 211 106 64 9109513 expr $f1/300.;
#P newex 255 81 183 9109513 expr int((1-($f1/300.))*15.)+random(0\\\,5)-2;
#P newex 211 44 54 9109513 unpack 0 0;
#P connect 18 0 7 0;
#P connect 3 0 10 0;
#P connect 10 1 0 0;
#P connect 0 0 2 0;
#P connect 18 1 8 0;
#P connect 8 0 6 0;
#P connect 12 1 1 0;
#P connect 0 1 1 0;
#P connect 1 0 11 0;
#P connect 11 0 12 0;
#P connect 12 0 17 0;
#P connect 17 0 16 0;
#P connect 16 0 18 0;
#P connect 18 1 9 0;
#P connect 9 0 5 0;
#P connect 17 1 15 0;
#P connect 15 0 16 1;
#P connect 2 0 4 0;
#P connect 11 0 13 0;
#P connect 13 0 12 1;
#P connect 18 1 14 0;
#P pop;
#P newobj 205 152 85 9109513 p stem;
#N vpatcher 15 55 615 455;
#P window setfont "Sans Serif" 9.;
#P window linecount 0;
#P newex 388 156 36 9109513 bucket;
#P newex 276 182 149 9109513 if $i1!=$i2 then $i1 else out2 bang;
#P window linecount 1;
#N vpatcher 25 70 522 360;
#P outlet 91 203 15 0;
#P inlet 91 70 15 0;
#P window setfont "Sans Serif" 9.;
#P window linecount 1;
#P message 357 126 18 9109513 79;
#P message 338 126 18 9109513 76;
#P message 319 126 18 9109513 74;
#P message 300 126 18 9109513 72;
#P message 281 126 18 9109513 69;
#P message 262 126 18 9109513 67;
#P message 243 126 18 9109513 64;
#P message 224 126 18 9109513 62;
#P message 205 126 18 9109513 59;
#P message 186 126 18 9109513 57;
#P message 167 126 18 9109513 55;
#P message 148 126 18 9109513 52;
#P message 129 126 18 9109513 50;
#P message 110 126 18 9109513 48;
#P window linecount 0;
#P message 91 126 18 9109513 43;
#P newex 91 96 308 9109513 sel 0 1 2 3 4 5 6 7 8 9 10 11 12 13 14;
#P connect 16 0 0 0;
#P connect 0 0 1 0;
#P connect 15 0 17 0;
#P connect 14 0 17 0;
#P connect 13 0 17 0;
#P connect 12 0 17 0;
#P connect 11 0 17 0;
#P connect 10 0 17 0;
#P connect 9 0 17 0;
#P connect 8 0 17 0;
#P connect 7 0 17 0;
#P connect 6 0 17 0;
#P connect 5 0 17 0;
#P connect 4 0 17 0;
#P connect 3 0 17 0;
#P connect 2 0 17 0;
#P connect 1 0 17 0;
#P connect 0 1 2 0;
#P connect 0 2 3 0;
#P connect 0 3 4 0;
#P connect 0 4 5 0;
#P connect 0 5 6 0;
#P connect 0 6 7 0;
#P connect 0 7 8 0;
#P connect 0 8 9 0;
#P connect 0 9 10 0;
#P connect 0 10 11 0;
#P connect 0 11 12 0;
#P connect 0 12 13 0;
#P connect 0 13 14 0;
#P connect 0 14 15 0;
#P pop;
#P newobj 276 156 38 9109513 p scale;
#P window linecount 0;
#P newex 170 71 40 9109513 t b l b;
#P window linecount 1;
#P newex 277 278 112 9109513 expr random(1500\\\,3000);
#P window linecount 0;
#P newex 233 247 104 9109513 expr random(1\\\,5)*0.01;
#P outlet 185 334 15 0;
#P outlet 233 334 15 0;
#P outlet 277 334 15 0;
#P outlet 316 334 15 0;
#P inlet 170 49 15 0;
#P window linecount 1;
#P newex 211 156 64 9109513 expr $f1/300.;
#P newex 255 131 183 9109513 expr int((1-($f1/300.))*15.)+random(0\\\,5)-2;
#P newex 211 102 54 9109513 unpack 0 0;
#P connect 3 0 10 0;
#P connect 12 0 7 0;
#P connect 10 1 0 0;
#P connect 0 0 2 0;
#P connect 10 0 8 0;
#P connect 8 0 6 0;
#P connect 12 1 1 0;
#P connect 0 1 1 0;
#P connect 1 0 11 0;
#P connect 11 0 12 0;
#P connect 10 2 9 0;
#P connect 9 0 5 0;
#P connect 2 0 4 0;
#P connect 11 0 13 0;
#P connect 13 0 12 1;
#P pop;
#P newobj 119 152 85 9109513 p stem;
#P newex 554 130 43 9109513 del 3400;
#P message 491 302 26 9109513 1 10;
#P window linecount 0;
#P newex 528 85 28 9109513 sel 0;
#P inlet 528 57 15 0;
#P message 463 302 26 9109513 0 10;
#P window linecount 1;
#P newex 297 331 27 9109513 *~;
#P newex 463 331 27 9109513 line~;
#P newex 435 331 27 9109513 *~;
#P window linecount 0;
#P newex 414 71 56 9109513 loadmess 1;
#P window linecount 1;
#P newex 436 177 122 9109513 expr random(0\\\,1000)+3000;
#P window linecount 0;
#P newex 414 202 32 9109513 metro;
#P window linecount 1;
#P newex 414 230 122 9109513 expr random(0\\\,1000)+2000;
#P newex 433 252 122 9109513 expr random(0\\\,1000)+2000;
#P newex 233 331 33 9109513 *~ 0.1;
#P newex 371 331 33 9109513 *~ 0.1;
#P newex 435 358 38 9109513 *~ 0.93;
#P newex 435 385 67 9109513 lores~ 800 0.1;
#P newex 371 385 62 9109513 tapout~ 2000;
#P newex 371 358 56 9109513 tapin~ 4000;
#P newex 297 358 38 9109513 *~ 0.93;
#P newex 297 385 67 9109513 lores~ 800 0.1;
#P newex 233 385 62 9109513 tapout~ 2000;
#P newex 233 358 56 9109513 tapin~ 4000;
#P newex 200 289 72 9109513 lores~ 1200 0.2;
#P newex 200 262 80 9109513 degrade~ 0.16 16;
#P window linecount 0;
#N vpatcher 15 55 615 455;
#P window setfont "Sans Serif" 9.;
#P window linecount 0;
#P newex 388 156 36 9109513 bucket;
#P newex 276 182 149 9109513 if $i1!=$i2 then $i1 else out2 bang;
#P window linecount 1;
#N vpatcher 25 70 522 360;
#P outlet 91 203 15 0;
#P inlet 91 70 15 0;
#P window setfont "Sans Serif" 9.;
#P window linecount 1;
#P message 357 126 18 9109513 84;
#P message 338 126 18 9109513 83;
#P message 319 126 18 9109513 81;
#P message 300 126 18 9109513 79;
#P message 281 126 18 9109513 76;
#P message 262 126 18 9109513 74;
#P message 243 126 18 9109513 71;
#P message 224 126 18 9109513 69;
#P message 205 126 18 9109513 67;
#P message 186 126 18 9109513 64;
#P message 167 126 18 9109513 62;
#P message 148 126 18 9109513 60;
#P message 129 126 18 9109513 57;
#P message 110 126 18 9109513 55;
#P window linecount 0;
#P message 91 126 18 9109513 48;
#P newex 91 96 308 9109513 sel 0 1 2 3 4 5 6 7 8 9 10 11 12 13 14;
#P connect 16 0 0 0;
#P connect 0 0 1 0;
#P connect 1 0 17 0;
#P connect 2 0 17 0;
#P connect 3 0 17 0;
#P connect 4 0 17 0;
#P connect 5 0 17 0;
#P connect 6 0 17 0;
#P connect 7 0 17 0;
#P connect 8 0 17 0;
#P connect 9 0 17 0;
#P connect 10 0 17 0;
#P connect 11 0 17 0;
#P connect 12 0 17 0;
#P connect 13 0 17 0;
#P connect 14 0 17 0;
#P connect 15 0 17 0;
#P connect 0 1 2 0;
#P connect 0 2 3 0;
#P connect 0 3 4 0;
#P connect 0 4 5 0;
#P connect 0 5 6 0;
#P connect 0 6 7 0;
#P connect 0 7 8 0;
#P connect 0 8 9 0;
#P connect 0 9 10 0;
#P connect 0 10 11 0;
#P connect 0 11 12 0;
#P connect 0 12 13 0;
#P connect 0 13 14 0;
#P connect 0 14 15 0;
#P pop;
#P newobj 276 156 38 9109513 p scale;
#P window linecount 0;
#P newex 170 71 40 9109513 t b l b;
#P window linecount 1;
#P newex 277 278 112 9109513 expr random(1500\\\,4000);
#P window linecount 0;
#P newex 233 247 104 9109513 expr random(1\\\,7)*0.01;
#P outlet 185 334 15 0;
#P outlet 233 334 15 0;
#P outlet 277 334 15 0;
#P outlet 316 334 15 0;
#P inlet 170 49 15 0;
#P window linecount 1;
#P newex 211 156 64 9109513 expr $f1/300.;
#P newex 255 131 183 9109513 expr int((1-($f1/300.))*15.)+random(0\\\,5)-2;
#P newex 211 102 54 9109513 unpack 0 0;
#P connect 3 0 10 0;
#P connect 12 0 7 0;
#P connect 10 1 0 0;
#P connect 0 0 2 0;
#P connect 10 0 8 0;
#P connect 8 0 6 0;
#P connect 0 1 1 0;
#P connect 12 1 1 0;
#P connect 1 0 11 0;
#P connect 11 0 12 0;
#P connect 10 2 9 0;
#P connect 9 0 5 0;
#P connect 2 0 4 0;
#P connect 11 0 13 0;
#P connect 13 0 12 1;
#P pop;
#P newobj 33 152 85 9109513 p branch;
#P window linecount 1;
#P newex 119 95 27 9109513 t l b;
#P newex 205 62 75 9109513 route frameoval;
#P newex 119 62 54 9109513 route lineto;
#P newex 205 33 52 9109513 r tosnd_c2;
#P newex 119 33 52 9109513 r tosnd_s2;
#P window linecount 0;
#N counter 0 1 8;
#X flags 0 0;
#P newobj 324 153 66 9109513 counter 0 1 8;
#P newex 324 179 68 9109513 prepend target;
#P newex 119 232 90 9109513 poly~ keyboard 8;
#P window linecount 1;
#P newex 119 289 72 9109513 lores~ 1200 0.2;
#P newex 119 262 80 9109513 degrade~ 0.16 16;
#P window linecount 0;
#P newex 33 95 27 9109513 t l b;
#P window linecount 1;
#P newex 33 62 54 9109513 route lineto;
#P newex 33 33 52 9109513 r tosnd_b2;
#P connect 44 0 45 0;
#P connect 45 0 46 0;
#P connect 0 0 1 0;
#P connect 1 0 2 0;
#P connect 2 0 13 0;
#P connect 8 0 10 0;
#P connect 10 0 12 0;
#P connect 12 0 39 0;
#P connect 40 0 5 0;
#P connect 39 0 5 0;
#P connect 13 0 5 0;
#P connect 6 0 5 0;
#P connect 5 0 3 0;
#P connect 3 0 4 0;
#P connect 47 0 42 0;
#P connect 4 0 42 0;
#P connect 46 0 42 0;
#P connect 40 1 5 1;
#P connect 39 1 5 1;
#P connect 13 1 5 1;
#P connect 40 2 5 2;
#P connect 39 2 5 2;
#P connect 13 2 5 2;
#P connect 40 3 5 3;
#P connect 39 3 5 3;
#P connect 13 3 5 3;
#P connect 5 1 14 0;
#P connect 14 0 15 0;
#P connect 48 0 42 1;
#P connect 15 0 42 1;
#P connect 9 0 11 0;
#P connect 11 0 41 0;
#P connect 41 0 40 0;
#P connect 48 0 25 0;
#P connect 47 0 16 0;
#P connect 25 0 16 0;
#P connect 4 0 16 0;
#P connect 27 0 17 0;
#P connect 16 0 17 0;
#P connect 17 0 33 0;
#P connect 33 0 19 0;
#P connect 19 0 18 0;
#P connect 18 0 47 0;
#P connect 32 0 33 1;
#P connect 40 4 7 0;
#P connect 12 1 7 0;
#P connect 2 1 7 0;
#P connect 7 0 6 0;
#P connect 47 0 24 0;
#P connect 48 0 20 0;
#P connect 15 0 20 0;
#P connect 24 0 20 0;
#P connect 20 0 21 0;
#P connect 26 0 21 0;
#P connect 30 0 28 0;
#P connect 28 0 27 0;
#P connect 28 0 26 0;
#P connect 21 0 31 0;
#P connect 31 0 23 0;
#P connect 23 0 22 0;
#P connect 22 0 48 0;
#P connect 28 0 29 0;
#P connect 29 0 28 1;
#P connect 32 0 31 1;
#P connect 36 0 34 0;
#P connect 34 0 32 0;
#P connect 37 0 32 0;
#P connect 43 0 37 0;
#P connect 38 0 37 0;
#P connect 35 0 36 0;
#P connect 36 0 38 0;
#P pop;
#P hidden newobj 361 436 48 9109513 p snd_pix;
#P user ubumenu 551 333 75 9109513 0 0 0 1;
#X setrgb 183 255 166 255 255 255 234 234 234 255 255 255 190 190 190 112 112 112;
#X add reset;
#X prefix_set 0 0 <none> 0;
#P user ubumenu 477 333 75 9109513 1 0 0 1;
#X setrgb 255 190 240 255 255 255 234 234 234 255 255 255 190 190 190 112 112 112;
#X add flower;
#X prefix_set 0 0 <none> 0;
#P user ubumenu 402 333 75 9109513 1 0 0 1;
#X setrgb 180 220 255 255 255 255 234 234 234 255 255 255 190 190 190 112 112 112;
#X add branch;
#X prefix_set 0 0 <none> 0;
#P user ubumenu 327 333 75 9109513 1 0 0 1;
#X setrgb 210 255 100 255 255 255 234 234 234 255 255 255 190 190 190 112 112 112;
#X add stem;
#X prefix_set 0 0 <none> 0;
#P hidden newex 327 436 33 9109513 s pnl2;
#N vpatcher 15 55 615 455;
#P window setfont "Sans Serif" 9.;
#P window linecount 1;
#P newex 444 155 45 9109513 loadbang;
#P message 444 187 41 9109513 toggle 1;
#P newex 197 299 54 9109513 s tosnd_c2;
#P newex 136 299 54 9109513 s tosnd_s2;
#P window linecount 0;
#P newex 75 299 54 9109513 s tosnd_b2;
#P window linecount 1;
#P message 281 275 28 9109513 clear;
#P inlet 318 34 15 0;
#P window linecount 0;
#P newex 281 248 28 9109513 sel 0;
#P window linecount 1;
#P newex 362 124 40 9109513 sel 0 1;
#P newex 362 95 57 9109513 route toggle;
#P newex 304 124 40 9109513 sel 0 1;
#P newex 304 95 57 9109513 route toggle;
#P message 409 226 41 9109513 toggle 0;
#P message 366 226 41 9109513 toggle 0;
#P window linecount 0;
#P message 324 226 41 9109513 toggle 0;
#P window linecount 1;
#P message 105 200 14 9109513 3;
#P message 90 200 14 9109513 2;
#P window linecount 0;
#P message 75 200 14 9109513 1;
#P newex 246 124 40 9109513 sel 0 1;
#P outlet 409 261 15 0;
#P outlet 366 261 15 0;
#P outlet 324 261 15 0;
#P inlet 285 34 15 0;
#P inlet 265 34 15 0;
#P inlet 246 34 15 0;
#P newex 246 95 57 9109513 route toggle;
#P window linecount 1;
#N vpatcher 15 55 715 709;
#P window setfont "Sans Serif" 9.;
#P window linecount 0;
#P newex 99 57 56 9109513 loadmess 1;
#P message 293 518 55 9109513 pensize 1 2;
#P window linecount 1;
#P newex 272 455 102 9109513 expr random(190\\\,255);
#P newex 251 433 102 9109513 expr random(190\\\,255);
#P newex 230 412 102 9109513 expr random(190\\\,255);
#P newex 230 487 52 9109513 pack 0 0 0;
#P newex 230 518 61 9109513 prepend frgb;
#P newex 206 260 99 9109513 expr random(0\\\,2)*2-1;
#P newex 447 262 27 9109513 * -1;
#P newex 178 260 27 9109513 * 1;
#P newex 447 224 185 9109513 expr random(5\\\,25)*(($f1+1)*0.5)*($f1*2-1);
#P newex 389 286 27 9109513 +;
#N counter 0 0 1;
#X flags 0 0;
#P newobj 447 198 66 9109513 counter 0 0 1;
#P message 389 224 50 9109513 184;
#P newex 389 198 57 9109513 prepend set;
#P newex 374 171 40 9109513 t b i b;
#P newex 120 363 27 9109513 t l b;
#P newex 71 83 27 9109513 t l b;
#P window linecount 0;
#N vpatcher 25 70 625 470;
#P window setfont "Sans Serif" 9.;
#P window linecount 0;
#P newex 103 91 43 9109513 del 4500;
#P window linecount 1;
#P newex 144 218 49 9109513 expr 1-$i1;
#P newex 128 122 97 9109513 expr random(90\\\,320);
#P outlet 144 246 15 0;
#P outlet 68 171 15 0;
#P message 103 116 14 9109513 0;
#P message 88 116 14 9109513 1;
#P newex 88 146 50 9109513 metro 100;
#P inlet 172 43 15 0;
#P connect 1 0 4 0;
#P connect 0 0 2 0;
#P connect 2 0 1 0;
#P connect 3 0 1 0;
#P connect 0 0 8 0;
#P connect 8 0 3 0;
#P connect 1 0 6 0;
#P connect 6 0 1 1;
#P connect 3 0 7 0;
#P connect 2 0 7 0;
#P connect 7 0 5 0;
#P pop;
#P newobj 161 120 40 9109513 p metro;
#P newex 178 223 180 9109513 expr random(2\\\,6)*(($f1+1)*0.5)*($f1*2-1);
#P window linecount 1;
#P newex 120 285 27 9109513 +;
#P window linecount 0;
#N counter 0 0 1;
#X flags 0 0;
#P newobj 178 197 66 9109513 counter 0 0 1;
#P message 120 223 50 9109513 151;
#P newex 120 197 57 9109513 prepend set;
#P window linecount 1;
#P newex 120 330 44 9109513 pack 0 0;
#P window linecount 0;
#P newex 105 170 40 9109513 t b i b;
#P newex 105 120 54 9109513 unpack 0 0;
#N counter 0 0 1;
#X flags 0 0;
#P newobj 143 388 66 9109513 counter 0 0 1;
#P window linecount 1;
#P message 158 436 46 9109513 set lineto;
#P window linecount 0;
#P message 143 457 56 9109513 set moveto;
#P newex 143 412 40 9109513 sel 0 1;
#P newex 71 57 27 9109513 gate;
#P inlet 88 30 15 0;
#P outlet 120 587 15 0;
#P window linecount 1;
#P newex 120 479 41 9109513 prepend;
#P connect 34 0 3 0;
#P connect 16 1 3 0;
#P connect 3 0 17 0;
#P connect 2 0 3 1;
#P connect 17 0 8 0;
#P fasten 14 0 9 0 125 313 101 313 101 160 110 160;
#P connect 8 0 9 0;
#P connect 9 1 11 0;
#P connect 16 0 12 0;
#P connect 11 0 12 0;
#P connect 12 0 14 0;
#P connect 14 0 10 0;
#P connect 10 0 18 0;
#P connect 5 0 0 0;
#P connect 6 0 0 0;
#P connect 18 0 0 0;
#P connect 0 0 1 0;
#P connect 28 0 1 0;
#P connect 33 0 1 0;
#P connect 25 0 14 1;
#P connect 18 1 7 0;
#P connect 7 0 4 0;
#P connect 4 0 5 0;
#P connect 23 0 10 1;
#P connect 4 1 6 0;
#P connect 17 1 16 0;
#P connect 17 1 7 2;
#P connect 9 2 13 0;
#P connect 13 0 15 0;
#P connect 15 0 25 0;
#P connect 27 0 25 1;
#P connect 17 1 13 2;
#P connect 17 1 27 0;
#P connect 17 1 30 0;
#P connect 30 0 29 0;
#P connect 29 0 28 0;
#P connect 17 1 31 0;
#P connect 31 0 29 1;
#P connect 17 1 32 0;
#P connect 32 0 29 2;
#P connect 17 1 33 0;
#P connect 8 1 19 0;
#P fasten 23 0 19 0 394 311 370 311 370 159 379 159;
#P connect 19 1 20 0;
#P connect 20 0 21 0;
#P connect 16 0 21 0;
#P connect 21 0 23 0;
#P connect 26 0 23 1;
#P connect 19 2 22 0;
#P connect 22 0 24 0;
#P connect 24 0 26 0;
#P connect 17 1 22 2;
#P pop;
#P newobj 136 256 37 9109513 p stem;
#N vpatcher 15 55 652 710;
#P window setfont "Sans Serif" 9.;
#P window linecount 0;
#P newex 414 462 99 9109513 expr $i1+random(1\\\,3);
#P newex 414 509 44 9109513 pack 1 1;
#P newex 414 537 75 9109513 prepend pensize;
#P newex 448 485 99 9109513 expr $i1+random(1\\\,3);
#P newex 95 64 68 9109513 speedlim 2000;
#P window linecount 1;
#P newex 170 289 122 9109513 expr $i1+random(0\\\,10)-5+5;
#P newex 160 311 122 9109513 expr $i1+random(0\\\,10)-5+5;
#P newex 109 238 120 9109513 expr $i1+random(0\\\,10)-5-5;
#P newex 93 258 120 9109513 expr $i1+random(0\\\,10)-5-5;
#P newex 200 418 198 9109513 if random(0\\\,100)<40 then out2 255 else bang;
#P newex 234 497 102 9109513 expr random(170\\\,255);
#P newex 217 475 102 9109513 expr random(170\\\,255);
#P newex 200 451 102 9109513 expr random(170\\\,255);
#P window linecount 0;
#P newex 46 149 40 9109513 uzi;
#P window linecount 1;
#P newex 46 124 82 9109513 expr random(3\\\,9);
#P window linecount 0;
#P message 93 177 82 9109513 153 157;
#P newex 93 152 57 9109513 prepend set;
#P newex 132 521 114 9109513 pack 0 0 0 0 107 107 107;
#P outlet 132 581 15 0;
#P newex 132 553 87 9109513 prepend frameoval;
#P window linecount 1;
#P newex 95 90 40 9109513 t b l b;
#P newex 93 199 54 9109513 unpack 0 0;
#P inlet 95 37 15 0;
#P connect 2 0 8 0;
#P connect 8 0 9 0;
#P connect 2 1 6 0;
#P connect 9 0 7 0;
#P connect 6 0 7 0;
#P connect 7 0 1 0;
#P connect 1 0 14 0;
#P connect 0 0 18 0;
#P connect 18 0 2 0;
#P connect 1 1 15 0;
#P connect 14 0 5 0;
#P connect 5 0 3 0;
#P connect 20 0 4 0;
#P connect 3 0 4 0;
#P connect 15 0 5 1;
#P connect 1 0 16 0;
#P connect 16 0 5 2;
#P connect 1 1 17 0;
#P connect 17 0 5 3;
#P connect 9 0 13 0;
#P connect 13 0 10 0;
#P connect 13 1 5 4;
#P connect 10 0 5 4;
#P connect 13 0 11 0;
#P connect 13 1 5 5;
#P connect 11 0 5 5;
#P connect 13 0 12 0;
#P connect 12 0 5 6;
#P connect 13 1 5 6;
#P connect 9 0 22 0;
#P connect 22 0 21 0;
#P connect 21 0 20 0;
#P connect 9 0 19 0;
#P connect 19 0 21 1;
#P pop;
#P newobj 197 256 43 9109513 p circles;
#P window linecount 0;
#N vpatcher 15 55 715 709;
#P window setfont "Sans Serif" 9.;
#P window linecount 0;
#P newex 99 57 56 9109513 loadmess 1;
#P message 293 518 55 9109513 pensize 1 1;
#P window linecount 1;
#P newex 272 455 102 9109513 expr random(107\\\,255);
#P newex 251 433 102 9109513 expr random(107\\\,255);
#P newex 230 412 102 9109513 expr random(107\\\,255);
#P newex 230 487 52 9109513 pack 0 0 0;
#P newex 230 518 61 9109513 prepend frgb;
#P newex 206 260 99 9109513 expr random(0\\\,2)*2-1;
#P newex 447 262 27 9109513 * -1;
#P newex 178 260 27 9109513 * 1;
#P newex 447 224 185 9109513 expr random(2\\\,15)*(($f1+1)*0.5)*($f1*2-1);
#P newex 389 286 27 9109513 +;
#N counter 0 0 1;
#X flags 0 0;
#P newobj 447 198 66 9109513 counter 0 0 1;
#P message 389 224 50 9109513 103;
#P newex 389 198 57 9109513 prepend set;
#P newex 374 171 40 9109513 t b i b;
#P newex 120 363 27 9109513 t l b;
#P newex 71 83 27 9109513 t l b;
#P window linecount 0;
#N vpatcher 25 70 625 470;
#P window setfont "Sans Serif" 9.;
#P window linecount 0;
#P newex 103 91 43 9109513 del 1500;
#P window linecount 1;
#P newex 144 218 49 9109513 expr 1-$i1;
#P newex 128 122 97 9109513 expr random(40\\\,120);
#P outlet 144 246 15 0;
#P outlet 68 171 15 0;
#P message 103 116 14 9109513 0;
#P message 88 116 14 9109513 1;
#P newex 88 146 50 9109513 metro 100;
#P inlet 172 43 15 0;
#P connect 1 0 4 0;
#P connect 0 0 2 0;
#P connect 3 0 1 0;
#P connect 2 0 1 0;
#P connect 0 0 8 0;
#P connect 8 0 3 0;
#P connect 1 0 6 0;
#P connect 6 0 1 1;
#P connect 2 0 7 0;
#P connect 3 0 7 0;
#P connect 7 0 5 0;
#P pop;
#P newobj 281 110 40 9109513 p metro;
#P newex 178 223 185 9109513 expr random(2\\\,15)*(($f1+1)*0.5)*($f1*2-1);
#P window linecount 1;
#P newex 120 285 27 9109513 +;
#P window linecount 0;
#N counter 0 0 1;
#X flags 0 0;
#P newobj 178 197 66 9109513 counter 0 0 1;
#P message 120 223 50 9109513 101;
#P newex 120 197 57 9109513 prepend set;
#P window linecount 1;
#P newex 120 330 44 9109513 pack 0 0;
#P window linecount 0;
#P newex 105 170 40 9109513 t b i b;
#P newex 105 120 54 9109513 unpack 0 0;
#N counter 0 0 1;
#X flags 0 0;
#P newobj 143 388 66 9109513 counter 0 0 1;
#P window linecount 1;
#P message 158 436 46 9109513 set lineto;
#P window linecount 0;
#P message 143 457 56 9109513 set moveto;
#P newex 143 412 40 9109513 sel 0 1;
#P newex 71 57 27 9109513 gate;
#P inlet 88 30 15 0;
#P outlet 120 587 15 0;
#P window linecount 1;
#P newex 120 479 41 9109513 prepend;
#P connect 34 0 3 0;
#P connect 16 1 3 0;
#P connect 3 0 17 0;
#P connect 2 0 3 1;
#P connect 17 0 8 0;
#P fasten 14 0 9 0 125 313 101 313 101 160 110 160;
#P connect 8 0 9 0;
#P connect 9 1 11 0;
#P connect 16 0 12 0;
#P connect 11 0 12 0;
#P connect 12 0 14 0;
#P connect 14 0 10 0;
#P connect 10 0 18 0;
#P connect 18 0 0 0;
#P connect 6 0 0 0;
#P connect 5 0 0 0;
#P connect 33 0 1 0;
#P connect 28 0 1 0;
#P connect 0 0 1 0;
#P connect 25 0 14 1;
#P connect 18 1 7 0;
#P connect 7 0 4 0;
#P connect 4 0 5 0;
#P connect 23 0 10 1;
#P connect 4 1 6 0;
#P connect 17 1 7 2;
#P connect 9 2 13 0;
#P connect 13 0 15 0;
#P connect 15 0 25 0;
#P connect 27 0 25 1;
#P connect 17 1 13 2;
#P connect 17 1 27 0;
#P connect 17 1 30 0;
#P connect 30 0 29 0;
#P connect 29 0 28 0;
#P connect 17 1 31 0;
#P connect 31 0 29 1;
#P connect 17 1 32 0;
#P connect 32 0 29 2;
#P connect 17 1 16 0;
#P connect 17 1 33 0;
#P fasten 23 0 19 0 394 311 370 311 370 159 379 159;
#P connect 8 1 19 0;
#P connect 19 1 20 0;
#P connect 16 0 21 0;
#P connect 20 0 21 0;
#P connect 21 0 23 0;
#P connect 26 0 23 1;
#P connect 19 2 22 0;
#P connect 22 0 24 0;
#P connect 24 0 26 0;
#P connect 17 1 22 2;
#P pop;
#P newobj 75 256 44 9109513 p branch;
#P newex 75 227 132 9109513 gate 3;
#P outlet 255 352 15 0;
#P newex 197 63 27 9109513 gate;
#P inlet 356 34 15 0;
#P inlet 214 34 15 0;
#P connect 23 1 16 0;
#P connect 18 0 4 0;
#P connect 17 0 4 0;
#P connect 16 0 4 0;
#P connect 4 0 5 0;
#P connect 5 0 29 0;
#P connect 15 1 17 0;
#P connect 25 1 18 0;
#P connect 4 1 7 0;
#P connect 7 0 30 0;
#P connect 1 0 2 0;
#P connect 2 0 4 1;
#P connect 4 2 6 0;
#P connect 6 0 31 0;
#P connect 0 0 2 1;
#P connect 9 0 8 0;
#P connect 8 0 15 0;
#P connect 28 0 3 0;
#P connect 6 0 3 0;
#P connect 7 0 3 0;
#P connect 5 0 3 0;
#P connect 27 0 26 0;
#P connect 26 0 28 0;
#P connect 10 0 22 0;
#P connect 22 0 23 0;
#P connect 23 1 19 0;
#P connect 25 1 19 0;
#P connect 32 0 12 0;
#P connect 19 0 12 0;
#P connect 11 0 24 0;
#P connect 24 0 25 0;
#P connect 15 1 20 0;
#P connect 25 1 20 0;
#P connect 20 0 13 0;
#P connect 23 1 21 0;
#P connect 15 1 21 0;
#P connect 21 0 14 0;
#P connect 33 0 32 0;
#P pop;
#P hidden newobj 327 406 203 9109513 p kokyupnl;
#P user lcd 327 32 300 300 0 0 0 0 0;
#N vpatcher 208 51 845 570;
#P window setfont "Sans Serif" 9.;
#P window linecount 2;
#P newex 435 414 137 9109513 biquad~ 0.996965 -1.993929 0.996965 -1.993919 0.993939;
#P user ezdac~ 339 48 383 81 0;
#P newex 297 414 137 9109513 biquad~ 0.996965 -1.993929 0.996965 -1.993919 0.993939;
#P window linecount 0;
#P newex 518 302 45 9109513 loadbang;
#P newex 119 465 91 9109513 dac~;
#P window linecount 1;
#P newex 205 93 27 9109513 t l b;
#N vpatcher 15 55 615 455;
#P origin 0 24;
#P window setfont "Sans Serif" 9.;
#P window linecount 0;
#P newex 276 236 27 9109513 t i b;
#P newex 276 159 27 9109513 t i b;
#P newex 276 207 27 9109513 pipe;
#P newex 293 182 102 9109513 expr random(100\\\,400);
#P outlet 451 370 15 0;
#P newex 388 106 36 9109513 bucket;
#P newex 276 132 149 9109513 if $i1!=$i2 then $i1 else out2 bang;
#P window linecount 1;
#N vpatcher 25 70 522 360;
#P outlet 91 203 15 0;
#P inlet 91 70 15 0;
#P window setfont "Sans Serif" 9.;
#P window linecount 1;
#P message 357 126 18 9109513 86;
#P message 338 126 18 9109513 84;
#P message 319 126 18 9109513 83;
#P message 300 126 18 9109513 81;
#P message 281 126 18 9109513 79;
#P message 262 126 18 9109513 76;
#P message 243 126 18 9109513 74;
#P message 224 126 18 9109513 71;
#P message 205 126 18 9109513 69;
#P message 186 126 18 9109513 67;
#P message 167 126 18 9109513 64;
#P message 148 126 18 9109513 62;
#P message 129 126 18 9109513 60;
#P message 110 126 18 9109513 57;
#P window linecount 0;
#P message 91 126 18 9109513 55;
#P newex 91 96 308 9109513 sel 0 1 2 3 4 5 6 7 8 9 10 11 12 13 14;
#P connect 16 0 0 0;
#P connect 0 0 1 0;
#P connect 15 0 17 0;
#P connect 14 0 17 0;
#P connect 13 0 17 0;
#P connect 12 0 17 0;
#P connect 11 0 17 0;
#P connect 10 0 17 0;
#P connect 9 0 17 0;
#P connect 8 0 17 0;
#P connect 7 0 17 0;
#P connect 6 0 17 0;
#P connect 5 0 17 0;
#P connect 4 0 17 0;
#P connect 3 0 17 0;
#P connect 2 0 17 0;
#P connect 1 0 17 0;
#P connect 0 1 2 0;
#P connect 0 2 3 0;
#P connect 0 3 4 0;
#P connect 0 4 5 0;
#P connect 0 5 6 0;
#P connect 0 6 7 0;
#P connect 0 7 8 0;
#P connect 0 8 9 0;
#P connect 0 9 10 0;
#P connect 0 10 11 0;
#P connect 0 11 12 0;
#P connect 0 12 13 0;
#P connect 0 13 14 0;
#P connect 0 14 15 0;
#P pop;
#P newobj 276 106 38 9109513 p scale;
#P window linecount 0;
#P newex 196 15 40 9109513 t b l b;
#P window linecount 1;
#P newex 277 314 112 9109513 expr random(2000\\\,3000);
#P window linecount 0;
#P newex 233 283 104 9109513 expr random(1\\\,4)*0.01;
#P outlet 185 370 15 0;
#P outlet 233 370 15 0;
#P outlet 277 370 15 0;
#P outlet 316 370 15 0;
#P inlet 196 -7 15 0;
#P window linecount 1;
#P newex 211 106 64 9109513 expr $f1/300.;
#P newex 255 81 183 9109513 expr int((1-($f1/300.))*15.)+random(0\\\,5)-2;
#P newex 211 44 54 9109513 unpack 0 0;
#P connect 18 0 7 0;
#P connect 3 0 10 0;
#P connect 10 1 0 0;
#P connect 0 0 2 0;
#P connect 18 1 8 0;
#P connect 8 0 6 0;
#P connect 0 1 1 0;
#P connect 12 1 1 0;
#P connect 1 0 11 0;
#P connect 11 0 12 0;
#P connect 12 0 17 0;
#P connect 17 0 16 0;
#P connect 16 0 18 0;
#P connect 18 1 9 0;
#P connect 9 0 5 0;
#P connect 17 1 15 0;
#P connect 15 0 16 1;
#P connect 2 0 4 0;
#P connect 11 0 13 0;
#P connect 13 0 12 1;
#P connect 18 1 14 0;
#P pop;
#P newobj 205 152 85 9109513 p stem;
#N vpatcher 15 55 615 455;
#P window setfont "Sans Serif" 9.;
#P window linecount 0;
#P newex 388 156 36 9109513 bucket;
#P newex 276 182 149 9109513 if $i1!=$i2 then $i1 else out2 bang;
#P window linecount 1;
#N vpatcher 25 70 522 360;
#P outlet 91 203 15 0;
#P inlet 91 70 15 0;
#P window setfont "Sans Serif" 9.;
#P window linecount 1;
#P message 357 126 18 9109513 79;
#P message 338 126 18 9109513 76;
#P message 319 126 18 9109513 74;
#P message 300 126 18 9109513 72;
#P message 281 126 18 9109513 69;
#P message 262 126 18 9109513 67;
#P message 243 126 18 9109513 64;
#P message 224 126 18 9109513 62;
#P message 205 126 18 9109513 59;
#P message 186 126 18 9109513 57;
#P message 167 126 18 9109513 55;
#P message 148 126 18 9109513 52;
#P message 129 126 18 9109513 50;
#P message 110 126 18 9109513 48;
#P window linecount 0;
#P message 91 126 18 9109513 43;
#P newex 91 96 308 9109513 sel 0 1 2 3 4 5 6 7 8 9 10 11 12 13 14;
#P connect 16 0 0 0;
#P connect 0 0 1 0;
#P connect 1 0 17 0;
#P connect 2 0 17 0;
#P connect 3 0 17 0;
#P connect 4 0 17 0;
#P connect 5 0 17 0;
#P connect 6 0 17 0;
#P connect 7 0 17 0;
#P connect 8 0 17 0;
#P connect 9 0 17 0;
#P connect 10 0 17 0;
#P connect 11 0 17 0;
#P connect 12 0 17 0;
#P connect 13 0 17 0;
#P connect 14 0 17 0;
#P connect 15 0 17 0;
#P connect 0 1 2 0;
#P connect 0 2 3 0;
#P connect 0 3 4 0;
#P connect 0 4 5 0;
#P connect 0 5 6 0;
#P connect 0 6 7 0;
#P connect 0 7 8 0;
#P connect 0 8 9 0;
#P connect 0 9 10 0;
#P connect 0 10 11 0;
#P connect 0 11 12 0;
#P connect 0 12 13 0;
#P connect 0 13 14 0;
#P connect 0 14 15 0;
#P pop;
#P newobj 276 156 38 9109513 p scale;
#P window linecount 0;
#P newex 170 71 40 9109513 t b l b;
#P window linecount 1;
#P newex 277 278 112 9109513 expr random(1500\\\,3000);
#P window linecount 0;
#P newex 233 247 104 9109513 expr random(1\\\,5)*0.01;
#P outlet 185 334 15 0;
#P outlet 233 334 15 0;
#P outlet 277 334 15 0;
#P outlet 316 334 15 0;
#P inlet 170 49 15 0;
#P window linecount 1;
#P newex 211 156 64 9109513 expr $f1/300.;
#P newex 255 131 183 9109513 expr int((1-($f1/300.))*15.)+random(0\\\,5)-2;
#P newex 211 102 54 9109513 unpack 0 0;
#P connect 3 0 10 0;
#P connect 12 0 7 0;
#P connect 10 1 0 0;
#P connect 0 0 2 0;
#P connect 10 0 8 0;
#P connect 8 0 6 0;
#P connect 0 1 1 0;
#P connect 12 1 1 0;
#P connect 1 0 11 0;
#P connect 11 0 12 0;
#P connect 10 2 9 0;
#P connect 9 0 5 0;
#P connect 2 0 4 0;
#P connect 11 0 13 0;
#P connect 13 0 12 1;
#P pop;
#P newobj 119 152 85 9109513 p stem;
#P newex 554 130 43 9109513 del 3400;
#P message 491 302 26 9109513 1 10;
#P window linecount 0;
#P newex 528 85 28 9109513 sel 0;
#P inlet 528 57 15 0;
#P message 463 302 26 9109513 0 10;
#P window linecount 1;
#P newex 297 331 27 9109513 *~;
#P newex 463 331 27 9109513 line~;
#P newex 435 331 27 9109513 *~;
#P window linecount 0;
#P newex 414 75 56 9109513 loadmess 1;
#P window linecount 1;
#P newex 436 177 122 9109513 expr random(0\\\,1000)+3000;
#P window linecount 0;
#P newex 414 202 32 9109513 metro;
#P window linecount 1;
#P newex 414 230 122 9109513 expr random(0\\\,1000)+2000;
#P newex 433 252 122 9109513 expr random(0\\\,1000)+2000;
#P newex 233 331 33 9109513 *~ 0.1;
#P newex 371 331 33 9109513 *~ 0.1;
#P newex 435 358 38 9109513 *~ 0.93;
#P newex 435 385 67 9109513 lores~ 800 0.1;
#P newex 371 385 62 9109513 tapout~ 2000;
#P newex 371 358 56 9109513 tapin~ 4000;
#P newex 297 358 38 9109513 *~ 0.93;
#P newex 297 385 67 9109513 lores~ 800 0.1;
#P newex 233 385 62 9109513 tapout~ 2000;
#P newex 233 358 56 9109513 tapin~ 4000;
#P newex 200 289 72 9109513 lores~ 1200 0.2;
#P newex 200 262 80 9109513 degrade~ 0.16 16;
#P window linecount 0;
#N vpatcher 15 55 615 455;
#P window setfont "Sans Serif" 9.;
#P window linecount 0;
#P newex 388 156 36 9109513 bucket;
#P newex 276 182 149 9109513 if $i1!=$i2 then $i1 else out2 bang;
#P window linecount 1;
#N vpatcher 25 70 522 360;
#P outlet 91 203 15 0;
#P inlet 91 70 15 0;
#P window setfont "Sans Serif" 9.;
#P window linecount 1;
#P message 357 126 18 9109513 84;
#P message 338 126 18 9109513 83;
#P message 319 126 18 9109513 81;
#P message 300 126 18 9109513 79;
#P message 281 126 18 9109513 76;
#P message 262 126 18 9109513 74;
#P message 243 126 18 9109513 71;
#P message 224 126 18 9109513 69;
#P message 205 126 18 9109513 67;
#P message 186 126 18 9109513 64;
#P message 167 126 18 9109513 62;
#P message 148 126 18 9109513 60;
#P message 129 126 18 9109513 57;
#P message 110 126 18 9109513 55;
#P window linecount 0;
#P message 91 126 18 9109513 48;
#P newex 91 96 308 9109513 sel 0 1 2 3 4 5 6 7 8 9 10 11 12 13 14;
#P connect 16 0 0 0;
#P connect 0 0 1 0;
#P connect 15 0 17 0;
#P connect 14 0 17 0;
#P connect 13 0 17 0;
#P connect 12 0 17 0;
#P connect 11 0 17 0;
#P connect 10 0 17 0;
#P connect 9 0 17 0;
#P connect 8 0 17 0;
#P connect 7 0 17 0;
#P connect 6 0 17 0;
#P connect 5 0 17 0;
#P connect 4 0 17 0;
#P connect 3 0 17 0;
#P connect 2 0 17 0;
#P connect 1 0 17 0;
#P connect 0 1 2 0;
#P connect 0 2 3 0;
#P connect 0 3 4 0;
#P connect 0 4 5 0;
#P connect 0 5 6 0;
#P connect 0 6 7 0;
#P connect 0 7 8 0;
#P connect 0 8 9 0;
#P connect 0 9 10 0;
#P connect 0 10 11 0;
#P connect 0 11 12 0;
#P connect 0 12 13 0;
#P connect 0 13 14 0;
#P connect 0 14 15 0;
#P pop;
#P newobj 276 156 38 9109513 p scale;
#P window linecount 0;
#P newex 170 71 40 9109513 t b l b;
#P window linecount 1;
#P newex 277 278 112 9109513 expr random(1500\\\,4000);
#P window linecount 0;
#P newex 233 247 104 9109513 expr random(1\\\,7)*0.01;
#P outlet 185 334 15 0;
#P outlet 233 334 15 0;
#P outlet 277 334 15 0;
#P outlet 316 334 15 0;
#P inlet 170 49 15 0;
#P window linecount 1;
#P newex 211 156 64 9109513 expr $f1/300.;
#P newex 255 131 183 9109513 expr int((1-($f1/300.))*15.)+random(0\\\,5)-2;
#P newex 211 102 54 9109513 unpack 0 0;
#P connect 3 0 10 0;
#P connect 12 0 7 0;
#P connect 10 1 0 0;
#P connect 0 0 2 0;
#P connect 10 0 8 0;
#P connect 8 0 6 0;
#P connect 12 1 1 0;
#P connect 0 1 1 0;
#P connect 1 0 11 0;
#P connect 11 0 12 0;
#P connect 10 2 9 0;
#P connect 9 0 5 0;
#P connect 2 0 4 0;
#P connect 11 0 13 0;
#P connect 13 0 12 1;
#P pop;
#P newobj 33 152 85 9109513 p branch;
#P window linecount 1;
#P newex 119 95 27 9109513 t l b;
#P newex 205 62 75 9109513 route frameoval;
#P newex 119 62 54 9109513 route lineto;
#P newex 205 33 52 9109513 r tosnd_c1;
#P newex 119 33 52 9109513 r tosnd_s1;
#P window linecount 0;
#N counter 0 1 8;
#X flags 0 0;
#P newobj 324 153 66 9109513 counter 0 1 8;
#P newex 324 179 68 9109513 prepend target;
#P newex 119 232 90 9109513 poly~ keyboard 8;
#P window linecount 1;
#P newex 119 289 72 9109513 lores~ 1200 0.2;
#P newex 119 262 80 9109513 degrade~ 0.16 16;
#P window linecount 0;
#P newex 33 95 27 9109513 t l b;
#P window linecount 1;
#P newex 33 62 54 9109513 route lineto;
#P newex 33 33 52 9109513 r tosnd_b1;
#P connect 0 0 1 0;
#P connect 1 0 2 0;
#P connect 2 0 13 0;
#P connect 8 0 10 0;
#P connect 10 0 12 0;
#P connect 12 0 39 0;
#P connect 6 0 5 0;
#P connect 13 0 5 0;
#P connect 39 0 5 0;
#P connect 40 0 5 0;
#P connect 5 0 3 0;
#P connect 3 0 4 0;
#P connect 44 0 42 0;
#P connect 4 0 42 0;
#P connect 13 1 5 1;
#P connect 39 1 5 1;
#P connect 40 1 5 1;
#P connect 13 2 5 2;
#P connect 39 2 5 2;
#P connect 40 2 5 2;
#P connect 13 3 5 3;
#P connect 39 3 5 3;
#P connect 40 3 5 3;
#P connect 5 1 14 0;
#P connect 14 0 15 0;
#P connect 46 0 42 1;
#P connect 15 0 42 1;
#P connect 9 0 11 0;
#P connect 11 0 41 0;
#P connect 41 0 40 0;
#P connect 46 0 25 0;
#P connect 44 0 16 0;
#P connect 4 0 16 0;
#P connect 25 0 16 0;
#P connect 27 0 17 0;
#P connect 16 0 17 0;
#P connect 17 0 33 0;
#P connect 33 0 19 0;
#P connect 19 0 18 0;
#P connect 18 0 44 0;
#P connect 32 0 33 1;
#P connect 2 1 7 0;
#P connect 12 1 7 0;
#P connect 40 4 7 0;
#P connect 7 0 6 0;
#P connect 44 0 24 0;
#P connect 46 0 20 0;
#P connect 15 0 20 0;
#P connect 24 0 20 0;
#P connect 26 0 21 0;
#P connect 20 0 21 0;
#P connect 30 0 28 0;
#P connect 28 0 27 0;
#P connect 28 0 26 0;
#P connect 21 0 31 0;
#P connect 31 0 23 0;
#P connect 23 0 22 0;
#P connect 22 0 46 0;
#P connect 28 0 29 0;
#P connect 29 0 28 1;
#P connect 32 0 31 1;
#P connect 36 0 34 0;
#P connect 37 0 32 0;
#P connect 34 0 32 0;
#P connect 43 0 37 0;
#P connect 38 0 37 0;
#P connect 35 0 36 0;
#P connect 36 0 38 0;
#P pop;
#P hidden newobj 63 436 48 9109513 p snd_pix;
#P user ubumenu 253 333 75 9109513 0 0 0 1;
#X setrgb 183 255 166 255 255 255 234 234 234 255 255 255 190 190 190 112 112 112;
#X add reset;
#X prefix_set 0 0 <none> 0;
#P user ubumenu 179 333 75 9109513 1 0 0 1;
#X setrgb 255 190 240 255 255 255 234 234 234 255 255 255 190 190 190 112 112 112;
#X add flower;
#X prefix_set 0 0 <none> 0;
#P user ubumenu 104 333 75 9109513 1 0 0 1;
#X setrgb 180 220 255 255 255 255 234 234 234 255 255 255 190 190 190 112 112 112;
#X add branch;
#X prefix_set 0 0 <none> 0;
#P user ubumenu 29 333 75 9109513 1 0 0 1;
#X setrgb 210 255 100 255 255 255 234 234 234 255 255 255 190 190 190 112 112 112;
#X add stem;
#X prefix_set 0 0 <none> 0;
#P hidden newex 29 3 31 9109513 r pnl1;
#P hidden newex 29 436 33 9109513 s pnl1;
#N vpatcher 15 55 615 455;
#P window setfont "Sans Serif" 9.;
#P window linecount 1;
#P newex 444 155 45 9109513 loadbang;
#P message 444 187 41 9109513 toggle 1;
#P newex 197 299 54 9109513 s tosnd_c1;
#P newex 136 299 54 9109513 s tosnd_s1;
#P window linecount 0;
#P newex 75 299 54 9109513 s tosnd_b1;
#P window linecount 1;
#P message 281 275 28 9109513 clear;
#P inlet 318 34 15 0;
#P window linecount 0;
#P newex 281 248 28 9109513 sel 0;
#P window linecount 1;
#P newex 362 124 40 9109513 sel 0 1;
#P newex 362 95 57 9109513 route toggle;
#P newex 304 124 40 9109513 sel 0 1;
#P newex 304 95 57 9109513 route toggle;
#P message 409 226 41 9109513 toggle 0;
#P message 366 226 41 9109513 toggle 0;
#P window linecount 0;
#P message 324 226 41 9109513 toggle 0;
#P window linecount 1;
#P message 105 200 14 9109513 3;
#P message 90 200 14 9109513 2;
#P window linecount 0;
#P message 75 200 14 9109513 1;
#P newex 246 124 40 9109513 sel 0 1;
#P outlet 409 261 15 0;
#P outlet 366 261 15 0;
#P outlet 324 261 15 0;
#P inlet 285 34 15 0;
#P inlet 265 34 15 0;
#P inlet 246 34 15 0;
#P newex 246 95 57 9109513 route toggle;
#P window linecount 1;
#N vpatcher 15 55 715 709;
#P window setfont "Sans Serif" 9.;
#P window linecount 0;
#P newex 99 57 56 9109513 loadmess 1;
#P message 293 518 55 9109513 pensize 1 2;
#P window linecount 1;
#P newex 272 455 102 9109513 expr random(190\\\,255);
#P newex 251 433 102 9109513 expr random(190\\\,255);
#P newex 230 412 102 9109513 expr random(190\\\,255);
#P newex 230 487 52 9109513 pack 0 0 0;
#P newex 230 518 61 9109513 prepend frgb;
#P newex 206 260 99 9109513 expr random(0\\\,2)*2-1;
#P newex 447 262 27 9109513 * -1;
#P newex 178 260 27 9109513 * 1;
#P newex 447 224 185 9109513 expr random(5\\\,25)*(($f1+1)*0.5)*($f1*2-1);
#P newex 389 286 27 9109513 +;
#N counter 0 0 1;
#X flags 0 0;
#P newobj 447 198 66 9109513 counter 0 0 1;
#P message 389 224 50 9109513 74;
#P newex 389 198 57 9109513 prepend set;
#P newex 374 171 40 9109513 t b i b;
#P newex 120 363 27 9109513 t l b;
#P newex 71 83 27 9109513 t l b;
#P window linecount 0;
#N vpatcher 25 70 625 470;
#P window setfont "Sans Serif" 9.;
#P window linecount 0;
#P newex 103 91 43 9109513 del 4500;
#P window linecount 1;
#P newex 144 218 49 9109513 expr 1-$i1;
#P newex 128 122 97 9109513 expr random(90\\\,320);
#P outlet 144 246 15 0;
#P outlet 68 171 15 0;
#P message 103 116 14 9109513 0;
#P message 88 116 14 9109513 1;
#P newex 88 146 50 9109513 metro 100;
#P inlet 172 43 15 0;
#P connect 1 0 4 0;
#P connect 0 0 2 0;
#P connect 3 0 1 0;
#P connect 2 0 1 0;
#P connect 0 0 8 0;
#P connect 8 0 3 0;
#P connect 1 0 6 0;
#P connect 6 0 1 1;
#P connect 2 0 7 0;
#P connect 3 0 7 0;
#P connect 7 0 5 0;
#P pop;
#P newobj 161 120 40 9109513 p metro;
#P newex 178 223 180 9109513 expr random(2\\\,6)*(($f1+1)*0.5)*($f1*2-1);
#P window linecount 1;
#P newex 120 285 27 9109513 +;
#P window linecount 0;
#N counter 0 0 1;
#X flags 0 0;
#P newobj 178 197 66 9109513 counter 0 0 1;
#P message 120 223 50 9109513 135;
#P newex 120 197 57 9109513 prepend set;
#P window linecount 1;
#P newex 120 330 44 9109513 pack 0 0;
#P window linecount 0;
#P newex 105 170 40 9109513 t b i b;
#P newex 105 120 54 9109513 unpack 0 0;
#N counter 0 0 1;
#X flags 0 0;
#P newobj 143 388 66 9109513 counter 0 0 1;
#P window linecount 1;
#P message 158 436 46 9109513 set lineto;
#P window linecount 0;
#P message 143 457 56 9109513 set moveto;
#P newex 143 412 40 9109513 sel 0 1;
#P newex 71 57 27 9109513 gate;
#P inlet 88 30 15 0;
#P outlet 120 587 15 0;
#P window linecount 1;
#P newex 120 479 41 9109513 prepend;
#P connect 16 1 3 0;
#P connect 34 0 3 0;
#P connect 3 0 17 0;
#P connect 2 0 3 1;
#P connect 17 0 8 0;
#P fasten 14 0 9 0 125 313 101 313 101 160 110 160;
#P connect 8 0 9 0;
#P connect 9 1 11 0;
#P connect 16 0 12 0;
#P connect 11 0 12 0;
#P connect 12 0 14 0;
#P connect 14 0 10 0;
#P connect 10 0 18 0;
#P connect 18 0 0 0;
#P connect 6 0 0 0;
#P connect 5 0 0 0;
#P connect 33 0 1 0;
#P connect 28 0 1 0;
#P connect 0 0 1 0;
#P connect 25 0 14 1;
#P connect 18 1 7 0;
#P connect 7 0 4 0;
#P connect 4 0 5 0;
#P connect 23 0 10 1;
#P connect 4 1 6 0;
#P connect 17 1 16 0;
#P connect 17 1 7 2;
#P connect 9 2 13 0;
#P connect 13 0 15 0;
#P connect 15 0 25 0;
#P connect 27 0 25 1;
#P connect 17 1 13 2;
#P connect 17 1 27 0;
#P connect 17 1 30 0;
#P connect 30 0 29 0;
#P connect 29 0 28 0;
#P connect 17 1 31 0;
#P connect 31 0 29 1;
#P connect 17 1 32 0;
#P connect 32 0 29 2;
#P connect 17 1 33 0;
#P fasten 23 0 19 0 394 311 370 311 370 159 379 159;
#P connect 8 1 19 0;
#P connect 19 1 20 0;
#P connect 16 0 21 0;
#P connect 20 0 21 0;
#P connect 21 0 23 0;
#P connect 26 0 23 1;
#P connect 19 2 22 0;
#P connect 22 0 24 0;
#P connect 24 0 26 0;
#P connect 17 1 22 2;
#P pop;
#P newobj 136 256 37 9109513 p stem;
#N vpatcher 15 55 652 710;
#P window setfont "Sans Serif" 9.;
#P window linecount 0;
#P newex 414 462 99 9109513 expr $i1+random(1\\\,3);
#P newex 414 509 44 9109513 pack 1 1;
#P newex 414 537 75 9109513 prepend pensize;
#P newex 448 485 99 9109513 expr $i1+random(1\\\,3);
#P newex 95 64 68 9109513 speedlim 2000;
#P window linecount 1;
#P newex 170 289 122 9109513 expr $i1+random(0\\\,10)-5+5;
#P newex 160 311 122 9109513 expr $i1+random(0\\\,10)-5+5;
#P newex 109 238 120 9109513 expr $i1+random(0\\\,10)-5-5;
#P newex 93 258 120 9109513 expr $i1+random(0\\\,10)-5-5;
#P newex 200 418 198 9109513 if random(0\\\,100)<40 then out2 255 else bang;
#P newex 234 497 102 9109513 expr random(170\\\,255);
#P newex 217 475 102 9109513 expr random(170\\\,255);
#P newex 200 451 102 9109513 expr random(170\\\,255);
#P window linecount 0;
#P newex 46 149 40 9109513 uzi;
#P window linecount 1;
#P newex 46 124 82 9109513 expr random(3\\\,9);
#P window linecount 0;
#P message 93 177 82 9109513 131 174;
#P newex 93 152 57 9109513 prepend set;
#P newex 132 521 114 9109513 pack 0 0 0 0 107 107 107;
#P outlet 132 581 15 0;
#P newex 132 553 87 9109513 prepend frameoval;
#P window linecount 1;
#P newex 95 90 40 9109513 t b l b;
#P newex 93 199 54 9109513 unpack 0 0;
#P inlet 95 37 15 0;
#P connect 2 0 8 0;
#P connect 8 0 9 0;
#P connect 2 1 6 0;
#P connect 9 0 7 0;
#P connect 6 0 7 0;
#P connect 7 0 1 0;
#P connect 1 0 14 0;
#P connect 0 0 18 0;
#P connect 18 0 2 0;
#P connect 1 1 15 0;
#P connect 14 0 5 0;
#P connect 5 0 3 0;
#P connect 3 0 4 0;
#P connect 20 0 4 0;
#P connect 15 0 5 1;
#P connect 1 0 16 0;
#P connect 16 0 5 2;
#P connect 1 1 17 0;
#P connect 17 0 5 3;
#P connect 9 0 13 0;
#P connect 13 0 10 0;
#P connect 13 1 5 4;
#P connect 10 0 5 4;
#P connect 13 0 11 0;
#P connect 13 1 5 5;
#P connect 11 0 5 5;
#P connect 13 0 12 0;
#P connect 13 1 5 6;
#P connect 12 0 5 6;
#P connect 9 0 22 0;
#P connect 22 0 21 0;
#P connect 21 0 20 0;
#P connect 9 0 19 0;
#P connect 19 0 21 1;
#P pop;
#P newobj 197 256 43 9109513 p circles;
#P window linecount 0;
#N vpatcher 15 55 715 709;
#P window setfont "Sans Serif" 9.;
#P window linecount 0;
#P newex 99 57 56 9109513 loadmess 1;
#P message 293 518 55 9109513 pensize 1 1;
#P window linecount 1;
#P newex 272 455 102 9109513 expr random(107\\\,255);
#P newex 251 433 102 9109513 expr random(107\\\,255);
#P newex 230 412 102 9109513 expr random(107\\\,255);
#P newex 230 487 52 9109513 pack 0 0 0;
#P newex 230 518 61 9109513 prepend frgb;
#P newex 206 260 99 9109513 expr random(0\\\,2)*2-1;
#P newex 447 262 27 9109513 * -1;
#P newex 178 260 27 9109513 * 1;
#P newex 447 224 185 9109513 expr random(2\\\,15)*(($f1+1)*0.5)*($f1*2-1);
#P newex 389 286 27 9109513 +;
#N counter 0 0 1;
#X flags 0 0;
#P newobj 447 198 66 9109513 counter 0 0 1;
#P message 389 224 50 9109513 134;
#P newex 389 198 57 9109513 prepend set;
#P newex 374 171 40 9109513 t b i b;
#P newex 120 363 27 9109513 t l b;
#P newex 71 83 27 9109513 t l b;
#P window linecount 0;
#N vpatcher 25 70 625 470;
#P window setfont "Sans Serif" 9.;
#P window linecount 0;
#P newex 103 91 43 9109513 del 1500;
#P window linecount 1;
#P newex 144 218 49 9109513 expr 1-$i1;
#P newex 128 122 97 9109513 expr random(40\\\,120);
#P outlet 144 246 15 0;
#P outlet 68 171 15 0;
#P message 103 116 14 9109513 0;
#P message 88 116 14 9109513 1;
#P newex 88 146 50 9109513 metro 100;
#P inlet 172 43 15 0;
#P connect 1 0 4 0;
#P connect 0 0 2 0;
#P connect 2 0 1 0;
#P connect 3 0 1 0;
#P connect 0 0 8 0;
#P connect 8 0 3 0;
#P connect 1 0 6 0;
#P connect 6 0 1 1;
#P connect 3 0 7 0;
#P connect 2 0 7 0;
#P connect 7 0 5 0;
#P pop;
#P newobj 281 110 40 9109513 p metro;
#P newex 178 223 185 9109513 expr random(2\\\,15)*(($f1+1)*0.5)*($f1*2-1);
#P window linecount 1;
#P newex 120 285 27 9109513 +;
#P window linecount 0;
#N counter 0 0 1;
#X flags 0 0;
#P newobj 178 197 66 9109513 counter 0 0 1;
#P message 120 223 50 9109513 154;
#P newex 120 197 57 9109513 prepend set;
#P window linecount 1;
#P newex 120 330 44 9109513 pack 0 0;
#P window linecount 0;
#P newex 105 170 40 9109513 t b i b;
#P newex 105 120 54 9109513 unpack 0 0;
#N counter 0 0 1;
#X flags 0 0;
#P newobj 143 388 66 9109513 counter 0 0 1;
#P window linecount 1;
#P message 158 436 46 9109513 set lineto;
#P window linecount 0;
#P message 143 457 56 9109513 set moveto;
#P newex 143 412 40 9109513 sel 0 1;
#P newex 71 57 27 9109513 gate;
#P inlet 88 30 15 0;
#P outlet 120 587 15 0;
#P window linecount 1;
#P newex 120 479 41 9109513 prepend;
#P connect 16 1 3 0;
#P connect 34 0 3 0;
#P connect 3 0 17 0;
#P connect 2 0 3 1;
#P connect 17 0 8 0;
#P fasten 14 0 9 0 125 313 101 313 101 160 110 160;
#P connect 8 0 9 0;
#P connect 9 1 11 0;
#P connect 16 0 12 0;
#P connect 11 0 12 0;
#P connect 12 0 14 0;
#P connect 14 0 10 0;
#P connect 10 0 18 0;
#P connect 5 0 0 0;
#P connect 6 0 0 0;
#P connect 18 0 0 0;
#P connect 0 0 1 0;
#P connect 28 0 1 0;
#P connect 33 0 1 0;
#P connect 25 0 14 1;
#P connect 18 1 7 0;
#P connect 7 0 4 0;
#P connect 4 0 5 0;
#P connect 23 0 10 1;
#P connect 4 1 6 0;
#P connect 17 1 7 2;
#P connect 9 2 13 0;
#P connect 13 0 15 0;
#P connect 15 0 25 0;
#P connect 27 0 25 1;
#P connect 17 1 13 2;
#P connect 17 1 27 0;
#P connect 17 1 30 0;
#P connect 30 0 29 0;
#P connect 29 0 28 0;
#P connect 17 1 31 0;
#P connect 31 0 29 1;
#P connect 17 1 32 0;
#P connect 32 0 29 2;
#P connect 17 1 16 0;
#P connect 17 1 33 0;
#P connect 8 1 19 0;
#P fasten 23 0 19 0 394 311 370 311 370 159 379 159;
#P connect 19 1 20 0;
#P connect 20 0 21 0;
#P connect 16 0 21 0;
#P connect 21 0 23 0;
#P connect 26 0 23 1;
#P connect 19 2 22 0;
#P connect 22 0 24 0;
#P connect 24 0 26 0;
#P connect 17 1 22 2;
#P pop;
#P newobj 75 256 44 9109513 p branch;
#P newex 75 227 132 9109513 gate 3;
#P outlet 255 352 15 0;
#P newex 197 63 27 9109513 gate;
#P inlet 356 34 15 0;
#P inlet 214 34 15 0;
#P connect 23 1 16 0;
#P connect 16 0 4 0;
#P connect 17 0 4 0;
#P connect 18 0 4 0;
#P connect 4 0 5 0;
#P connect 5 0 29 0;
#P connect 15 1 17 0;
#P connect 25 1 18 0;
#P connect 4 1 7 0;
#P connect 7 0 30 0;
#P connect 1 0 2 0;
#P connect 2 0 4 1;
#P connect 4 2 6 0;
#P connect 6 0 31 0;
#P connect 0 0 2 1;
#P connect 9 0 8 0;
#P connect 8 0 15 0;
#P connect 6 0 3 0;
#P connect 7 0 3 0;
#P connect 5 0 3 0;
#P connect 28 0 3 0;
#P connect 27 0 26 0;
#P connect 26 0 28 0;
#P connect 10 0 22 0;
#P connect 22 0 23 0;
#P connect 23 1 19 0;
#P connect 25 1 19 0;
#P connect 19 0 12 0;
#P connect 32 0 12 0;
#P connect 11 0 24 0;
#P connect 24 0 25 0;
#P connect 15 1 20 0;
#P connect 25 1 20 0;
#P connect 20 0 13 0;
#P connect 15 1 21 0;
#P connect 23 1 21 0;
#P connect 21 0 14 0;
#P connect 33 0 32 0;
#P pop;
#P hidden newobj 29 406 203 9109513 p kokyupnl;
#P user lcd 29 32 300 300 0 0 0 0 0;
#P user panel 27 30 602 321;
#X brgb 255 255 255;
#X frgb 206 206 206;
#X border 2;
#X rounded 0;
#X shadow 0;
#X done;
#P hidden connect 4 0 1 0;
#P hidden connect 2 1 5 0;
#P hidden connect 1 0 2 0;
#P hidden connect 2 0 3 0;
#P hidden connect 8 0 9 0;
#P hidden connect 5 2 2 1;
#P hidden connect 2 2 6 0;
#P hidden connect 6 2 2 2;
#P hidden connect 23 0 22 0;
#P hidden connect 20 0 19 0;
#P hidden connect 21 0 19 0;
#P hidden connect 22 0 19 0;
#P hidden connect 23 0 21 0;
#P hidden connect 7 2 2 3;
#P hidden connect 2 3 7 0;
#P hidden connect 8 0 2 4;
#P hidden connect 1 2 2 5;
#P hidden connect 18 0 10 0;
#P hidden connect 11 1 13 0;
#P hidden connect 10 0 11 0;
#P hidden connect 11 0 12 0;
#P hidden connect 16 0 17 0;
#P hidden connect 13 2 11 1;
#P hidden connect 11 2 14 0;
#P hidden connect 14 2 11 2;
#P hidden connect 15 2 11 3;
#P hidden connect 11 3 15 0;
#P hidden connect 16 0 11 4;
#P hidden connect 10 2 11 5;
#P pop;
