{
	"patcher" : 	{
		"fileversion" : 1,
		"appversion" : 		{
			"major" : 8,
			"minor" : 5,
			"revision" : 2,
			"architecture" : "x64",
			"modernui" : 1
		}
,
		"classnamespace" : "box",
		"rect" : [ 100.0, 53.0, 1206.0, 934.0 ],
		"bglocked" : 0,
		"openinpresentation" : 0,
		"default_fontsize" : 12.0,
		"default_fontface" : 0,
		"default_fontname" : "Arial",
		"gridonopen" : 1,
		"gridsize" : [ 15.0, 15.0 ],
		"gridsnaponopen" : 1,
		"objectsnaponopen" : 1,
		"statusbarvisible" : 2,
		"toolbarvisible" : 0,
		"lefttoolbarpinned" : 0,
		"toptoolbarpinned" : 0,
		"righttoolbarpinned" : 0,
		"bottomtoolbarpinned" : 0,
		"toolbars_unpinned_last_save" : 0,
		"tallnewobj" : 0,
		"boxanimatetime" : 200,
		"enablehscroll" : 1,
		"enablevscroll" : 1,
		"devicewidth" : 0.0,
		"description" : "",
		"digest" : "",
		"tags" : "",
		"style" : "",
		"subpatcher_template" : "",
		"assistshowspatchername" : 0,
		"globalpatchername" : "blue.output.section.info1",
		"boxes" : [ 			{
				"box" : 				{
					"fontname" : "Arial",
					"fontsize" : 12.0,
					"id" : "obj-94",
					"linecount" : 5,
					"maxclass" : "comment",
					"numinlets" : 1,
					"numoutlets" : 0,
					"patching_rect" : [ 606.0, 594.5, 566.0, 74.0 ],
					"text" : "sometimes, there is an extra in_mix slider, which indicates, that the act has a main audio input called \"in\".\n\nthe signal comimg in (another acts output sent to this in.put) will be fully routed into the act with in_mix slider to the right (1.) (usually the default)\nand bypassed (routed to the acts output) with the in_mix slider to the left (0.)"
				}

			}
, 			{
				"box" : 				{
					"fontface" : 1,
					"fontname" : "Arial",
					"fontsize" : 14.0,
					"id" : "obj-91",
					"maxclass" : "comment",
					"numinlets" : 1,
					"numoutlets" : 0,
					"patching_rect" : [ 606.0, 573.5, 209.0, 22.0 ],
					"text" : "in_mix"
				}

			}
, 			{
				"box" : 				{
					"fontface" : 1,
					"fontname" : "Arial",
					"fontsize" : 14.0,
					"id" : "obj-85",
					"maxclass" : "comment",
					"numinlets" : 1,
					"numoutlets" : 0,
					"patching_rect" : [ 606.0, 481.5, 209.0, 22.0 ],
					"text" : "output channels"
				}

			}
, 			{
				"box" : 				{
					"fontname" : "Arial",
					"fontsize" : 12.0,
					"id" : "obj-84",
					"linecount" : 2,
					"maxclass" : "comment",
					"numinlets" : 1,
					"numoutlets" : 0,
					"patching_rect" : [ 606.0, 430.0, 634.0, 33.0 ],
					"text" : "depending on the act-design, this number can define how many channels of audio should be sent by this act.\nin most cases this also defines then the internal multichannel processing amount of an act."
				}

			}
, 			{
				"box" : 				{
					"fontface" : 1,
					"fontname" : "Arial",
					"fontsize" : 14.0,
					"id" : "obj-83",
					"maxclass" : "comment",
					"numinlets" : 1,
					"numoutlets" : 0,
					"patching_rect" : [ 606.0, 406.0, 209.0, 22.0 ],
					"text" : "input channels"
				}

			}
, 			{
				"box" : 				{
					"fontname" : "Arial",
					"fontsize" : 12.0,
					"id" : "obj-82",
					"linecount" : 4,
					"maxclass" : "comment",
					"numinlets" : 1,
					"numoutlets" : 0,
					"patching_rect" : [ 75.5, 523.0, 423.0, 60.0 ],
					"text" : "if the mix slider is all the way to the right (it is all dark blue)\nll.blues will send to the address indicated by the dark blue menus (see below).\nif you did not touch anything else so far, you don't hear nothing now,\nbecause the dark-blue output-menus point to nowhere (no -no-)."
				}

			}
, 			{
				"box" : 				{
					"fontface" : 1,
					"fontname" : "Arial",
					"fontsize" : 14.0,
					"id" : "obj-81",
					"maxclass" : "comment",
					"numinlets" : 1,
					"numoutlets" : 0,
					"patching_rect" : [ 606.0, 188.0, 209.0, 22.0 ],
					"text" : "i -  menu"
				}

			}
, 			{
				"box" : 				{
					"fontface" : 1,
					"fontname" : "Arial",
					"fontsize" : 14.0,
					"id" : "obj-80",
					"maxclass" : "comment",
					"numinlets" : 1,
					"numoutlets" : 0,
					"patching_rect" : [ 606.0, 89.5, 209.0, 22.0 ],
					"text" : "pfl"
				}

			}
, 			{
				"box" : 				{
					"fontface" : 1,
					"fontname" : "Arial",
					"fontsize" : 14.0,
					"id" : "obj-79",
					"maxclass" : "comment",
					"numinlets" : 1,
					"numoutlets" : 0,
					"patching_rect" : [ 606.0, 8.5, 209.0, 22.0 ],
					"text" : "ramp"
				}

			}
, 			{
				"box" : 				{
					"fontface" : 1,
					"fontname" : "Arial",
					"fontsize" : 14.0,
					"id" : "obj-64",
					"maxclass" : "comment",
					"numinlets" : 1,
					"numoutlets" : 0,
					"patching_rect" : [ 17.5, 584.5, 209.0, 22.0 ],
					"text" : "output menus"
				}

			}
, 			{
				"box" : 				{
					"fontface" : 1,
					"fontname" : "Arial",
					"fontsize" : 14.0,
					"id" : "obj-61",
					"maxclass" : "comment",
					"numinlets" : 1,
					"numoutlets" : 0,
					"patching_rect" : [ 24.0, 441.5, 74.0, 22.0 ],
					"text" : "mix slider"
				}

			}
, 			{
				"box" : 				{
					"fontface" : 1,
					"fontname" : "Arial",
					"fontsize" : 14.0,
					"id" : "obj-60",
					"maxclass" : "comment",
					"numinlets" : 1,
					"numoutlets" : 0,
					"patching_rect" : [ 24.0, 274.5, 209.0, 22.0 ],
					"text" : "volume slider"
				}

			}
, 			{
				"box" : 				{
					"id" : "obj-57",
					"maxclass" : "comment",
					"numinlets" : 1,
					"numoutlets" : 0,
					"patching_rect" : [ 85.0, 110.0, 79.0, 20.0 ],
					"text" : "volume slider"
				}

			}
, 			{
				"box" : 				{
					"id" : "obj-54",
					"maxclass" : "comment",
					"numinlets" : 1,
					"numoutlets" : 0,
					"patching_rect" : [ 105.0, 125.0, 59.0, 20.0 ],
					"text" : "mix slider"
				}

			}
, 			{
				"box" : 				{
					"id" : "obj-40",
					"maxclass" : "comment",
					"numinlets" : 1,
					"numoutlets" : 0,
					"patching_rect" : [ 163.25, 179.0, 103.0, 20.0 ],
					"text" : "ramp time in ms"
				}

			}
, 			{
				"box" : 				{
					"id" : "obj-21",
					"maxclass" : "comment",
					"numinlets" : 1,
					"numoutlets" : 0,
					"patching_rect" : [ 256.5, 204.0, 100.0, 20.0 ],
					"text" : "pre fade listening"
				}

			}
, 			{
				"box" : 				{
					"id" : "obj-18",
					"maxclass" : "comment",
					"numinlets" : 1,
					"numoutlets" : 0,
					"patching_rect" : [ 298.0, 188.0, 121.0, 20.0 ],
					"text" : "input-channel-count"
				}

			}
, 			{
				"box" : 				{
					"fontname" : "Arial",
					"fontsize" : 12.0,
					"id" : "obj-34",
					"linecount" : 2,
					"maxclass" : "message",
					"numinlets" : 2,
					"numoutlets" : 1,
					"outlettype" : [ "" ],
					"patching_rect" : [ 232.5, 737.5, 149.0, 35.0 ],
					"text" : ";\rdistort@1 ll.blues::volL 0.1"
				}

			}
, 			{
				"box" : 				{
					"fontname" : "Arial",
					"fontsize" : 12.0,
					"id" : "obj-32",
					"maxclass" : "comment",
					"numinlets" : 1,
					"numoutlets" : 0,
					"patching_rect" : [ 14.5, 738.0, 357.0, 20.0 ],
					"text" : "and turn on the volume of distort a bit"
				}

			}
, 			{
				"box" : 				{
					"fontname" : "Arial",
					"fontsize" : 12.0,
					"id" : "obj-31",
					"maxclass" : "message",
					"numinlets" : 2,
					"numoutlets" : 1,
					"outlettype" : [ "" ],
					"patching_rect" : [ 381.5, 714.0, 49.0, 22.0 ],
					"text" : "mix 1."
				}

			}
, 			{
				"box" : 				{
					"fontname" : "Arial",
					"fontsize" : 12.0,
					"id" : "obj-30",
					"maxclass" : "message",
					"numinlets" : 2,
					"numoutlets" : 1,
					"outlettype" : [ "" ],
					"patching_rect" : [ 155.5, 680.5, 71.0, 22.0 ],
					"text" : "chan_1 in.1"
				}

			}
, 			{
				"box" : 				{
					"id" : "obj-28",
					"maxclass" : "comment",
					"numinlets" : 1,
					"numoutlets" : 0,
					"patching_rect" : [ 23.0, 140.0, 142.0, 20.0 ],
					"text" : "output menues (address)"
				}

			}
, 			{
				"box" : 				{
					"id" : "obj-25",
					"maxclass" : "comment",
					"numinlets" : 1,
					"numoutlets" : 0,
					"patching_rect" : [ 359.0, 121.0, 212.0, 20.0 ],
					"text" : "info, vol mode, meter mode, link mode"
				}

			}
, 			{
				"box" : 				{
					"id" : "obj-38",
					"maxclass" : "comment",
					"numinlets" : 1,
					"numoutlets" : 0,
					"patching_rect" : [ 358.0, 139.0, 218.0, 20.0 ],
					"text" : "show dark-blue/light-blue output menus"
				}

			}
, 			{
				"box" : 				{
					"id" : "obj-26",
					"maxclass" : "comment",
					"numinlets" : 1,
					"numoutlets" : 0,
					"patching_rect" : [ 325.5, 171.5, 121.0, 20.0 ],
					"text" : "output-channel-count"
				}

			}
, 			{
				"box" : 				{
					"fontname" : "Arial",
					"fontsize" : 12.0,
					"id" : "obj-24",
					"linecount" : 3,
					"maxclass" : "comment",
					"numinlets" : 1,
					"numoutlets" : 0,
					"patching_rect" : [ 606.0, 505.0, 391.0, 47.0 ],
					"text" : "lets you define how many channels should be sent out.\nit can be bigger or smaller than the incoming channel count.\nif smaller, the remaining channels will be mixed into the outgoing ones."
				}

			}
, 			{
				"box" : 				{
					"fontname" : "Arial",
					"fontsize" : 12.0,
					"id" : "obj-23",
					"linecount" : 2,
					"maxclass" : "comment",
					"numinlets" : 1,
					"numoutlets" : 0,
					"patching_rect" : [ 14.5, 780.0, 374.0, 33.0 ],
					"text" : "click on the x (at right of the menus)  to change which output destination you want to see (light blue or dark blue)"
				}

			}
, 			{
				"box" : 				{
					"fontname" : "Arial",
					"fontsize" : 12.0,
					"id" : "obj-15",
					"maxclass" : "comment",
					"numinlets" : 1,
					"numoutlets" : 0,
					"patching_rect" : [ 23.0, 406.0, 377.0, 20.0 ],
					"text" : "with the mix slider you have the possibility to send it somewhere else."
				}

			}
, 			{
				"box" : 				{
					"fontname" : "Arial",
					"fontsize" : 12.0,
					"id" : "obj-11",
					"linecount" : 3,
					"maxclass" : "comment",
					"numinlets" : 1,
					"numoutlets" : 0,
					"patching_rect" : [ 75.5, 469.0, 436.5, 47.0 ],
					"text" : "MIX: if the mix slider is all the way to the left (default) (it is all light blue)\nll.blues will send audio to ho_st. \n(or actually to the address indicated by the light blue menus, see below)."
				}

			}
, 			{
				"box" : 				{
					"args" : [ "@levels", 0.2, 0.2, 0.0, 0.0, 10.0, 0.0, 0.5 ],
					"bgmode" : 0,
					"border" : 0,
					"clickthrough" : 0,
					"enablehscroll" : 0,
					"enablevscroll" : 0,
					"id" : "obj-7",
					"lockeddragscroll" : 0,
					"lockedsize" : 0,
					"maxclass" : "bpatcher",
					"name" : "ll.blues.maxpat",
					"numinlets" : 1,
					"numoutlets" : 0,
					"offset" : [ 0.0, 0.0 ],
					"patching_rect" : [ 179.0, 115.0, 160.0, 53.0 ],
					"varname" : "ll.blues",
					"viewvisibility" : 1
				}

			}
, 			{
				"box" : 				{
					"id" : "obj-22",
					"linecount" : 2,
					"maxclass" : "newobj",
					"numinlets" : 2,
					"numoutlets" : 1,
					"outlettype" : [ "multichannelsignal" ],
					"patching_rect" : [ 179.0, 59.5, 131.0, 35.0 ],
					"text" : "mc.cycle~ @chans 2 @values 300 430",
					"varname" : "ch2"
				}

			}
, 			{
				"box" : 				{
					"fontname" : "Arial",
					"fontsize" : 12.0,
					"id" : "obj-9",
					"linecount" : 2,
					"maxclass" : "comment",
					"numinlets" : 1,
					"numoutlets" : 0,
					"patching_rect" : [ 17.5, 645.5, 573.0, 33.0 ],
					"text" : "lets send our two sinewaves into this \"plugin\":\naddress distort@ with the dark blue menus, starting with the left one:"
				}

			}
, 			{
				"box" : 				{
					"fontname" : "Arial",
					"fontsize" : 12.0,
					"id" : "obj-76",
					"maxclass" : "message",
					"numinlets" : 2,
					"numoutlets" : 1,
					"outlettype" : [ "" ],
					"patching_rect" : [ 862.0, 55.5, 48.0, 22.0 ],
					"text" : "ramp 0"
				}

			}
, 			{
				"box" : 				{
					"fontname" : "Arial",
					"fontsize" : 12.0,
					"id" : "obj-71",
					"maxclass" : "message",
					"numinlets" : 2,
					"numoutlets" : 1,
					"outlettype" : [ "" ],
					"patching_rect" : [ 404.0, 872.0, 41.0, 22.0 ],
					"text" : "mix 1."
				}

			}
, 			{
				"box" : 				{
					"fontname" : "Arial",
					"fontsize" : 12.0,
					"id" : "obj-70",
					"maxclass" : "message",
					"numinlets" : 2,
					"numoutlets" : 1,
					"outlettype" : [ "" ],
					"patching_rect" : [ 404.0, 818.5, 41.0, 22.0 ],
					"text" : "mix 0."
				}

			}
, 			{
				"box" : 				{
					"fontname" : "Arial",
					"fontsize" : 12.0,
					"id" : "obj-69",
					"linecount" : 2,
					"maxclass" : "comment",
					"numinlets" : 1,
					"numoutlets" : 0,
					"patching_rect" : [ 105.0, 866.5, 283.5, 33.0 ],
					"text" : "thats the destination, of the signal \nif the mix slider is at the right (all dark-blue then)"
				}

			}
, 			{
				"box" : 				{
					"fontname" : "Arial",
					"fontsize" : 12.0,
					"id" : "obj-67",
					"maxclass" : "message",
					"numinlets" : 2,
					"numoutlets" : 1,
					"outlettype" : [ "" ],
					"patching_rect" : [ 11.0, 866.5, 92.0, 22.0 ],
					"text" : "show dark-blue"
				}

			}
, 			{
				"box" : 				{
					"fontname" : "Arial",
					"fontsize" : 12.0,
					"hidden" : 1,
					"id" : "obj-68",
					"maxclass" : "message",
					"numinlets" : 2,
					"numoutlets" : 1,
					"outlettype" : [ "" ],
					"patching_rect" : [ 565.5, 831.5, 95.0, 22.0 ],
					"text" : "state 2 1 0 0 2 0"
				}

			}
, 			{
				"box" : 				{
					"fontname" : "Arial",
					"fontsize" : 12.0,
					"id" : "obj-66",
					"maxclass" : "comment",
					"numinlets" : 1,
					"numoutlets" : 0,
					"patching_rect" : [ 15.0, 841.5, 529.0, 20.0 ],
					"text" : "in some situations you may want to change this, but normally you just leave it as it is."
				}

			}
, 			{
				"box" : 				{
					"fontname" : "Arial",
					"fontsize" : 12.0,
					"id" : "obj-65",
					"maxclass" : "comment",
					"numinlets" : 1,
					"numoutlets" : 0,
					"patching_rect" : [ 104.0, 818.5, 406.0, 20.0 ],
					"text" : "thats where the signal goes by default: ho_st out.1 with"
				}

			}
, 			{
				"box" : 				{
					"fontname" : "Arial",
					"fontsize" : 12.0,
					"id" : "obj-63",
					"maxclass" : "message",
					"numinlets" : 2,
					"numoutlets" : 1,
					"outlettype" : [ "" ],
					"patching_rect" : [ 15.0, 817.5, 91.0, 22.0 ],
					"text" : "show light-blue"
				}

			}
, 			{
				"box" : 				{
					"fontname" : "Arial",
					"fontsize" : 12.0,
					"hidden" : 1,
					"id" : "obj-62",
					"maxclass" : "message",
					"numinlets" : 2,
					"numoutlets" : 1,
					"outlettype" : [ "" ],
					"patching_rect" : [ 565.5, 831.5, 95.0, 22.0 ],
					"text" : "state 2 0 0 0 2 0"
				}

			}
, 			{
				"box" : 				{
					"fontname" : "Arial",
					"fontsize" : 12.0,
					"id" : "obj-59",
					"linecount" : 13,
					"maxclass" : "comment",
					"numinlets" : 1,
					"numoutlets" : 0,
					"patching_rect" : [ 606.0, 222.0, 610.0, 181.0 ],
					"text" : "3 different flavours of volume handling:\nv_vol - one volume slider for all channels.\ns_split_L/R - if 2 output-channels: - two seperate sliders\np_vol/pan  - if 2 output-channels: pan the source-sounds (any amount of channels) with a pan -slider\n-\nmeter post      the signal meter shows post-fade signal  (default).\nmeter pre      the signal meter shows what comes out of the act before the volume slider\nmeter in       if there is an input available (in_mix slider is visible), the meter shows, what comes in\n-\nlink chans   keep input-channels and output-channels be always equal\nmix adds     the mix-slider does not fade-out the light-blue output.\n-\ninfo    opens this info window"
				}

			}
, 			{
				"box" : 				{
					"fontname" : "Arial",
					"fontsize" : 12.0,
					"id" : "obj-49",
					"maxclass" : "comment",
					"numinlets" : 1,
					"numoutlets" : 0,
					"patching_rect" : [ 944.5, 75.5, 147.0, 20.0 ],
					"text" : "same for the mix sliders..."
				}

			}
, 			{
				"box" : 				{
					"fontname" : "Arial",
					"fontsize" : 12.0,
					"id" : "obj-48",
					"maxclass" : "comment",
					"numinlets" : 1,
					"numoutlets" : 0,
					"patching_rect" : [ 1022.0, 51.5, 51.0, 20.0 ],
					"text" : "fadein"
				}

			}
, 			{
				"box" : 				{
					"fontname" : "Arial",
					"fontsize" : 12.0,
					"id" : "obj-47",
					"maxclass" : "message",
					"numinlets" : 2,
					"numoutlets" : 1,
					"outlettype" : [ "" ],
					"patching_rect" : [ 969.0, 51.5, 52.0, 22.0 ],
					"text" : "volL 0.5"
				}

			}
, 			{
				"box" : 				{
					"fontname" : "Arial",
					"fontsize" : 12.0,
					"id" : "obj-46",
					"maxclass" : "comment",
					"numinlets" : 1,
					"numoutlets" : 0,
					"patching_rect" : [ 1022.0, 28.5, 51.0, 20.0 ],
					"text" : "fadeout"
				}

			}
, 			{
				"box" : 				{
					"fontname" : "Arial",
					"fontsize" : 12.0,
					"id" : "obj-45",
					"maxclass" : "message",
					"numinlets" : 2,
					"numoutlets" : 1,
					"outlettype" : [ "" ],
					"patching_rect" : [ 969.0, 28.5, 42.0, 22.0 ],
					"text" : "volL 0"
				}

			}
, 			{
				"box" : 				{
					"fontname" : "Arial",
					"fontsize" : 12.0,
					"id" : "obj-44",
					"maxclass" : "comment",
					"numinlets" : 1,
					"numoutlets" : 0,
					"patching_rect" : [ 933.0, 26.5, 26.0, 20.0 ],
					"text" : "ms"
				}

			}
, 			{
				"box" : 				{
					"fontname" : "Arial",
					"fontsize" : 12.0,
					"id" : "obj-43",
					"maxclass" : "message",
					"numinlets" : 2,
					"numoutlets" : 1,
					"outlettype" : [ "" ],
					"patching_rect" : [ 863.0, 27.5, 68.0, 22.0 ],
					"text" : "ramp 3000"
				}

			}
, 			{
				"box" : 				{
					"fontname" : "Arial",
					"fontsize" : 12.0,
					"id" : "obj-37",
					"linecount" : 3,
					"maxclass" : "comment",
					"numinlets" : 1,
					"numoutlets" : 0,
					"patching_rect" : [ 606.0, 115.0, 450.0, 47.0 ],
					"text" : "pfl (pre fade listening) is yet another output.\npfl sends the input signal of ll.blues before the vol-slider to an output channel that can be defined in \"ho_st\" with \"def\". (useful with a soundcard and headphones..)"
				}

			}
, 			{
				"box" : 				{
					"fontname" : "Arial",
					"fontsize" : 12.0,
					"id" : "obj-36",
					"linecount" : 2,
					"maxclass" : "comment",
					"numinlets" : 1,
					"numoutlets" : 0,
					"patching_rect" : [ 606.0, 36.0, 391.0, 33.0 ],
					"text" : "ramp offers a fade time for all the levels.\ntest with audio ON:"
				}

			}
, 			{
				"box" : 				{
					"fontname" : "Arial",
					"fontsize" : 12.0,
					"id" : "obj-20",
					"maxclass" : "message",
					"numinlets" : 2,
					"numoutlets" : 1,
					"outlettype" : [ "" ],
					"patching_rect" : [ 43.5, 680.5, 93.0, 22.0 ],
					"text" : "act_1 distort@1"
				}

			}
, 			{
				"box" : 				{
					"fontname" : "Arial",
					"fontsize" : 12.0,
					"id" : "obj-33",
					"maxclass" : "message",
					"numinlets" : 2,
					"numoutlets" : 1,
					"outlettype" : [ "" ],
					"patching_rect" : [ 23.0, 469.0, 41.0, 22.0 ],
					"text" : "mix 0."
				}

			}
, 			{
				"box" : 				{
					"fontname" : "Arial",
					"fontsize" : 12.0,
					"id" : "obj-13",
					"maxclass" : "message",
					"numinlets" : 2,
					"numoutlets" : 1,
					"outlettype" : [ "" ],
					"patching_rect" : [ 23.0, 524.0, 49.0, 22.0 ],
					"text" : "mix 1."
				}

			}
, 			{
				"box" : 				{
					"fontname" : "Arial",
					"fontsize" : 12.0,
					"id" : "obj-51",
					"maxclass" : "comment",
					"numinlets" : 1,
					"numoutlets" : 0,
					"patching_rect" : [ 17.5, 714.0, 357.0, 20.0 ],
					"text" : "to actually send it there make sure the mix-slider is set to the right"
				}

			}
, 			{
				"box" : 				{
					"fontname" : "Arial",
					"fontsize" : 12.0,
					"id" : "obj-52",
					"linecount" : 2,
					"maxclass" : "message",
					"numinlets" : 2,
					"numoutlets" : 1,
					"outlettype" : [ "" ],
					"patching_rect" : [ 339.5, 608.5, 151.0, 35.0 ],
					"text" : ";\rho_st1 act_menu distort@"
				}

			}
, 			{
				"box" : 				{
					"fontname" : "Arial",
					"fontsize" : 12.0,
					"id" : "obj-53",
					"linecount" : 2,
					"maxclass" : "comment",
					"numinlets" : 1,
					"numoutlets" : 0,
					"patching_rect" : [ 17.5, 608.5, 320.0, 33.0 ],
					"text" : "first lets open another act, to have a destination to send to.\ndistort@ for example:"
				}

			}
, 			{
				"box" : 				{
					"fontname" : "Arial",
					"fontsize" : 12.0,
					"id" : "obj-92",
					"maxclass" : "comment",
					"numinlets" : 1,
					"numoutlets" : 0,
					"patching_rect" : [ 23.0, 384.0, 307.0, 20.0 ],
					"text" : "by default the audio is sent to ho_st left and right output."
				}

			}
, 			{
				"box" : 				{
					"fontname" : "Arial",
					"fontsize" : 12.0,
					"id" : "obj-90",
					"maxclass" : "comment",
					"numinlets" : 1,
					"numoutlets" : 0,
					"patching_rect" : [ 82.0, 358.0, 234.0, 20.0 ],
					"text" : "<<< click on this to go back to volume 0.2"
				}

			}
, 			{
				"box" : 				{
					"fontname" : "Arial",
					"fontsize" : 14.0,
					"id" : "obj-89",
					"maxclass" : "newobj",
					"numinlets" : 0,
					"numoutlets" : 0,
					"patcher" : 					{
						"fileversion" : 1,
						"appversion" : 						{
							"major" : 8,
							"minor" : 5,
							"revision" : 2,
							"architecture" : "x64",
							"modernui" : 1
						}
,
						"classnamespace" : "box",
						"rect" : [ 593.0, 300.0, 584.0, 591.0 ],
						"bglocked" : 0,
						"openinpresentation" : 0,
						"default_fontsize" : 12.0,
						"default_fontface" : 0,
						"default_fontname" : "Arial",
						"gridonopen" : 1,
						"gridsize" : [ 15.0, 15.0 ],
						"gridsnaponopen" : 1,
						"objectsnaponopen" : 1,
						"statusbarvisible" : 2,
						"toolbarvisible" : 0,
						"lefttoolbarpinned" : 0,
						"toptoolbarpinned" : 0,
						"righttoolbarpinned" : 0,
						"bottomtoolbarpinned" : 0,
						"toolbars_unpinned_last_save" : 0,
						"tallnewobj" : 0,
						"boxanimatetime" : 200,
						"enablehscroll" : 1,
						"enablevscroll" : 1,
						"devicewidth" : 0.0,
						"description" : "",
						"digest" : "",
						"tags" : "",
						"style" : "",
						"subpatcher_template" : "",
						"assistshowspatchername" : 0,
						"boxes" : [ 							{
								"box" : 								{
									"fontname" : "Arial",
									"fontsize" : 12.0,
									"id" : "obj-8",
									"linecount" : 3,
									"maxclass" : "comment",
									"numinlets" : 1,
									"numoutlets" : 0,
									"patching_rect" : [ 19.0, 7.0, 496.0, 47.0 ],
									"text" : "whenever you want to control the parameters of the output section \n(with control@, modul.ator etc.)\nyou need to know how to access the "
								}

							}
, 							{
								"box" : 								{
									"fontname" : "Arial",
									"fontsize" : 12.0,
									"id" : "obj-10",
									"maxclass" : "comment",
									"numinlets" : 1,
									"numoutlets" : 0,
									"patching_rect" : [ 10.0, 433.0, 113.0, 20.0 ],
									"text" : "and drive the value:"
								}

							}
, 							{
								"box" : 								{
									"fontname" : "Arial",
									"fontsize" : 12.0,
									"id" : "obj-9",
									"maxclass" : "message",
									"numinlets" : 2,
									"numoutlets" : 1,
									"outlettype" : [ "" ],
									"patching_rect" : [ 374.0, 55.0, 120.0, 22.0 ],
									"text" : "symbol clientwindow"
								}

							}
, 							{
								"box" : 								{
									"fontname" : "Arial",
									"fontsize" : 12.0,
									"id" : "obj-5",
									"maxclass" : "newobj",
									"numinlets" : 3,
									"numoutlets" : 2,
									"outlettype" : [ "", "bang" ],
									"patching_rect" : [ 374.0, 79.0, 86.0, 22.0 ],
									"text" : "ll.pf title_menu"
								}

							}
, 							{
								"box" : 								{
									"fontname" : "Arial",
									"fontsize" : 12.0,
									"id" : "obj-7",
									"maxclass" : "message",
									"numinlets" : 2,
									"numoutlets" : 1,
									"outlettype" : [ "" ],
									"patching_rect" : [ 24.0, 511.0, 503.0, 22.0 ],
									"text" : "0.821429 0.535714 0.428571 0.321429 -0.107143 -0.357143 -0.535714 -0.642857"
								}

							}
, 							{
								"box" : 								{
									"fontname" : "Arial",
									"fontsize" : 12.0,
									"id" : "obj-6",
									"linecount" : 2,
									"maxclass" : "comment",
									"numinlets" : 1,
									"numoutlets" : 0,
									"patching_rect" : [ 15.0, 352.0, 533.0, 33.0 ],
									"text" : "to control from other acts like control@ eg. you need to use the additional \"listitem\" to adress a single parameter:"
								}

							}
, 							{
								"box" : 								{
									"fontname" : "Arial",
									"fontsize" : 12.0,
									"id" : "obj-4",
									"linecount" : 2,
									"maxclass" : "comment",
									"numinlets" : 1,
									"numoutlets" : 0,
									"patching_rect" : [ 383.0, 390.5, 186.0, 33.0 ],
									"text" : "1: volL, 2: volR, 3: mix, 4: in_mix, 5: ramp, 6:  pfl, 7: pan"
								}

							}
, 							{
								"box" : 								{
									"fontname" : "Arial",
									"fontsize" : 12.0,
									"id" : "obj-3",
									"maxclass" : "comment",
									"numinlets" : 1,
									"numoutlets" : 0,
									"patching_rect" : [ 287.0, 397.0, 85.0, 20.0 ],
									"text" : "ll.blues::levels"
								}

							}
, 							{
								"box" : 								{
									"fontname" : "Arial",
									"fontsize" : 12.0,
									"id" : "obj-2",
									"maxclass" : "comment",
									"numinlets" : 1,
									"numoutlets" : 0,
									"patching_rect" : [ 140.0, 397.0, 139.0, 20.0 ],
									"text" : "blue.output.section.info1"
								}

							}
, 							{
								"box" : 								{
									"fontname" : "Arial",
									"fontsize" : 12.0,
									"id" : "obj-1",
									"maxclass" : "comment",
									"numinlets" : 1,
									"numoutlets" : 0,
									"patching_rect" : [ 17.0, 397.0, 121.0, 20.0 ],
									"text" : "for instance, choose:"
								}

							}
, 							{
								"box" : 								{
									"bgcolor" : [ 0.294118, 1.0, 0.294118, 1.0 ],
									"fontname" : "Arial",
									"fontsize" : 12.0,
									"htricolor" : [ 0.87, 0.82, 0.24, 1.0 ],
									"id" : "obj-11",
									"maxclass" : "number",
									"maximum" : 8,
									"minimum" : -1,
									"numinlets" : 1,
									"numoutlets" : 2,
									"outlettype" : [ "", "bang" ],
									"parameter_enable" : 0,
									"patching_rect" : [ 379.0, 419.0, 53.0, 22.0 ],
									"textcolor" : [ 0.0, 0.0, 0.0, 1.0 ],
									"tricolor" : [ 0.75, 0.75, 0.75, 1.0 ]
								}

							}
, 							{
								"box" : 								{
									"fontname" : "Arial",
									"fontsize" : 12.0,
									"id" : "obj-12",
									"maxclass" : "newobj",
									"numinlets" : 4,
									"numoutlets" : 6,
									"outlettype" : [ "", "", "", "", "", "" ],
									"patching_rect" : [ 17.0, 482.0, 375.5, 22.0 ],
									"text" : "ll.par",
									"varname" : "ll.par[1]"
								}

							}
, 							{
								"box" : 								{
									"fontname" : "Arial",
									"fontsize" : 11.595186999999999,
									"format" : 6,
									"id" : "obj-13",
									"maxclass" : "flonum",
									"numinlets" : 1,
									"numoutlets" : 2,
									"outlettype" : [ "", "bang" ],
									"parameter_enable" : 0,
									"patching_rect" : [ 17.0, 455.0, 50.0, 21.0 ]
								}

							}
, 							{
								"box" : 								{
									"allowdrag" : 0,
									"bgcolor" : [ 0.294118, 1.0, 0.294118, 1.0 ],
									"bgfillcolor_angle" : 270.0,
									"bgfillcolor_color" : [ 0.294118, 1.0, 0.294118, 1.0 ],
									"bgfillcolor_color1" : [ 0.376471, 0.384314, 0.4, 1.0 ],
									"bgfillcolor_color2" : [ 0.290196, 0.309804, 0.301961, 1.0 ],
									"bgfillcolor_proportion" : 0.39,
									"bgfillcolor_type" : "color",
									"fontsize" : 11.595186999999999,
									"id" : "obj-14",
									"items" : [ "no", ",", "blue.output.section.info1", ",", "buffer_host1", ",", "ho_st1", ",", "ll.blues.help1", ",", "matrix@1", ",", "noize@1" ],
									"maxclass" : "umenu",
									"numinlets" : 1,
									"numoutlets" : 3,
									"outlettype" : [ "int", "", "" ],
									"parameter_enable" : 0,
									"patching_rect" : [ 140.0, 419.0, 139.0, 21.0 ],
									"pattrmode" : 1,
									"presentation" : 1,
									"presentation_rect" : [ 142.0, 184.0, 100.0, 21.0 ],
									"textcolor" : [ 0.149, 0.149, 0.149, 1.0 ]
								}

							}
, 							{
								"box" : 								{
									"allowdrag" : 0,
									"bgcolor" : [ 0.294118, 1.0, 0.294118, 1.0 ],
									"bgfillcolor_angle" : 270.0,
									"bgfillcolor_color" : [ 0.294118, 1.0, 0.294118, 1.0 ],
									"bgfillcolor_color1" : [ 0.376471, 0.384314, 0.4, 1.0 ],
									"bgfillcolor_color2" : [ 0.290196, 0.309804, 0.301961, 1.0 ],
									"bgfillcolor_proportion" : 0.39,
									"bgfillcolor_type" : "color",
									"fontsize" : 11.595186999999999,
									"id" : "obj-15",
									"items" : [ "-no-", ",", "ll.blues::state", ",", "ll.blues::outputs", ",", "ll.blues::levels", ",", "act::active_store", ",", "master", ",", "title_menu", ",", "pres_menu", ",", "tetris_menu" ],
									"maxclass" : "umenu",
									"numinlets" : 1,
									"numoutlets" : 3,
									"outlettype" : [ "int", "", "" ],
									"parameter_enable" : 0,
									"patching_rect" : [ 287.0, 419.0, 85.0, 21.0 ],
									"pattrmode" : 1,
									"presentation" : 1,
									"presentation_rect" : [ 218.0, 184.0, 100.0, 21.0 ],
									"textcolor" : [ 0.149, 0.149, 0.149, 1.0 ]
								}

							}
, 							{
								"box" : 								{
									"fontname" : "Arial",
									"fontsize" : 12.0,
									"id" : "obj-27",
									"linecount" : 7,
									"maxclass" : "comment",
									"numinlets" : 1,
									"numoutlets" : 0,
									"patching_rect" : [ 19.0, 246.0, 434.0, 100.0 ],
									"text" : "state: \n1: output-channel-count (1-?)\n2: show dark-blue / show light-blue (0,1)\n3: volume layout (0, 1, 2)\n4: meter (0,1,2)\n5: inputs-channels-count (1-?)\n6: link input-channels/output-channels (0,1)"
								}

							}
, 							{
								"box" : 								{
									"fontname" : "Arial",
									"fontsize" : 12.0,
									"id" : "obj-25",
									"linecount" : 3,
									"maxclass" : "comment",
									"numinlets" : 1,
									"numoutlets" : 0,
									"patching_rect" : [ 19.0, 190.0, 386.0, 47.0 ],
									"text" : "outputs:   ! this param cannot be changed from outside !\n1: lightblue \n2: darkblue"
								}

							}
, 							{
								"box" : 								{
									"fontname" : "Arial",
									"fontsize" : 12.0,
									"id" : "obj-24",
									"linecount" : 8,
									"maxclass" : "comment",
									"numinlets" : 1,
									"numoutlets" : 0,
									"patching_rect" : [ 19.0, 74.0, 226.0, 114.0 ],
									"text" : "levels: \n1: volL \n2: volR \n3: mix \n4: in_mix\n5: ramp \n6: pfl \n7: pan"
								}

							}
, 							{
								"box" : 								{
									"fontname" : "Arial",
									"fontsize" : 12.0,
									"id" : "obj-20",
									"maxclass" : "comment",
									"numinlets" : 1,
									"numoutlets" : 0,
									"patching_rect" : [ 19.0, 51.0, 353.0, 20.0 ],
									"text" : "the parameters of ll.blues are packed as lists (see clientwindow)."
								}

							}
 ],
						"lines" : [ 							{
								"patchline" : 								{
									"destination" : [ "obj-12", 3 ],
									"source" : [ "obj-11", 0 ]
								}

							}
, 							{
								"patchline" : 								{
									"destination" : [ "obj-11", 0 ],
									"hidden" : 1,
									"source" : [ "obj-12", 3 ]
								}

							}
, 							{
								"patchline" : 								{
									"destination" : [ "obj-14", 0 ],
									"hidden" : 1,
									"source" : [ "obj-12", 1 ]
								}

							}
, 							{
								"patchline" : 								{
									"destination" : [ "obj-15", 0 ],
									"hidden" : 1,
									"source" : [ "obj-12", 2 ]
								}

							}
, 							{
								"patchline" : 								{
									"destination" : [ "obj-7", 1 ],
									"source" : [ "obj-12", 0 ]
								}

							}
, 							{
								"patchline" : 								{
									"destination" : [ "obj-12", 0 ],
									"source" : [ "obj-13", 0 ]
								}

							}
, 							{
								"patchline" : 								{
									"destination" : [ "obj-12", 1 ],
									"source" : [ "obj-14", 1 ]
								}

							}
, 							{
								"patchline" : 								{
									"destination" : [ "obj-12", 2 ],
									"source" : [ "obj-15", 1 ]
								}

							}
, 							{
								"patchline" : 								{
									"destination" : [ "obj-5", 0 ],
									"source" : [ "obj-9", 0 ]
								}

							}
 ]
					}
,
					"patching_rect" : [ 701.0, 730.5, 217.0, 24.0 ],
					"saved_object_attributes" : 					{
						"description" : "",
						"digest" : "",
						"globalpatchername" : "",
						"tags" : ""
					}
,
					"text" : "p more:sending_from_other_acts",
					"varname" : "more:sending_from_other_acts"
				}

			}
, 			{
				"box" : 				{
					"fontname" : "Arial",
					"fontsize" : 12.0,
					"id" : "obj-88",
					"maxclass" : "comment",
					"numinlets" : 1,
					"numoutlets" : 0,
					"patching_rect" : [ 80.0, 335.0, 432.0, 20.0 ],
					"text" : "<<< click on this to make it a bit louder. thats the same as moving the vol-slider."
				}

			}
, 			{
				"box" : 				{
					"fontname" : "Arial",
					"fontsize" : 12.0,
					"id" : "obj-87",
					"maxclass" : "message",
					"numinlets" : 2,
					"numoutlets" : 1,
					"outlettype" : [ "" ],
					"patching_rect" : [ 23.0, 335.0, 52.0, 22.0 ],
					"text" : "volL 0.3"
				}

			}
, 			{
				"box" : 				{
					"fontname" : "Arial",
					"fontsize" : 12.0,
					"hidden" : 1,
					"id" : "obj-86",
					"maxclass" : "newobj",
					"numinlets" : 1,
					"numoutlets" : 0,
					"patcher" : 					{
						"fileversion" : 1,
						"appversion" : 						{
							"major" : 8,
							"minor" : 5,
							"revision" : 2,
							"architecture" : "x64",
							"modernui" : 1
						}
,
						"classnamespace" : "box",
						"rect" : [ 34.0, 87.0, 297.0, 420.0 ],
						"bglocked" : 0,
						"openinpresentation" : 0,
						"default_fontsize" : 12.0,
						"default_fontface" : 0,
						"default_fontname" : "Arial",
						"gridonopen" : 1,
						"gridsize" : [ 15.0, 15.0 ],
						"gridsnaponopen" : 1,
						"objectsnaponopen" : 1,
						"statusbarvisible" : 2,
						"toolbarvisible" : 1,
						"lefttoolbarpinned" : 0,
						"toptoolbarpinned" : 0,
						"righttoolbarpinned" : 0,
						"bottomtoolbarpinned" : 0,
						"toolbars_unpinned_last_save" : 0,
						"tallnewobj" : 0,
						"boxanimatetime" : 200,
						"enablehscroll" : 1,
						"enablevscroll" : 1,
						"devicewidth" : 0.0,
						"description" : "",
						"digest" : "",
						"tags" : "",
						"style" : "",
						"subpatcher_template" : "",
						"assistshowspatchername" : 0,
						"boxes" : [ 							{
								"box" : 								{
									"fontname" : "Arial",
									"fontsize" : 12.0,
									"id" : "obj-84",
									"maxclass" : "newobj",
									"numinlets" : 1,
									"numoutlets" : 1,
									"outlettype" : [ "" ],
									"patching_rect" : [ 104.0, 192.0, 84.0, 22.0 ],
									"text" : "prepend send"
								}

							}
, 							{
								"box" : 								{
									"fontname" : "Arial",
									"fontsize" : 12.0,
									"id" : "obj-83",
									"maxclass" : "newobj",
									"numinlets" : 1,
									"numoutlets" : 2,
									"outlettype" : [ "", "bang" ],
									"patching_rect" : [ 104.0, 164.0, 65.0, 22.0 ],
									"text" : "ll.actname"
								}

							}
, 							{
								"box" : 								{
									"fontname" : "Arial",
									"fontsize" : 12.0,
									"id" : "obj-82",
									"maxclass" : "newobj",
									"numinlets" : 1,
									"numoutlets" : 0,
									"patching_rect" : [ 50.0, 225.0, 51.0, 22.0 ],
									"text" : "forward"
								}

							}
, 							{
								"box" : 								{
									"fontname" : "Arial",
									"fontsize" : 12.0,
									"id" : "obj-81",
									"maxclass" : "newobj",
									"numinlets" : 2,
									"numoutlets" : 2,
									"outlettype" : [ "", "" ],
									"patching_rect" : [ 50.0, 148.0, 41.0, 22.0 ],
									"text" : "zl join"
								}

							}
, 							{
								"box" : 								{
									"fontname" : "Arial",
									"fontsize" : 12.0,
									"id" : "obj-80",
									"maxclass" : "newobj",
									"numinlets" : 1,
									"numoutlets" : 1,
									"outlettype" : [ "" ],
									"patching_rect" : [ 50.0, 125.0, 107.0, 22.0 ],
									"text" : "sprintf ll.blues::%s"
								}

							}
, 							{
								"box" : 								{
									"fontname" : "Arial",
									"fontsize" : 12.0,
									"id" : "obj-79",
									"maxclass" : "newobj",
									"numinlets" : 2,
									"numoutlets" : 2,
									"outlettype" : [ "", "" ],
									"patching_rect" : [ 50.0, 100.0, 57.0, 22.0 ],
									"text" : "zl slice 1"
								}

							}
, 							{
								"box" : 								{
									"comment" : "",
									"id" : "obj-85",
									"index" : 1,
									"maxclass" : "inlet",
									"numinlets" : 0,
									"numoutlets" : 1,
									"outlettype" : [ "" ],
									"patching_rect" : [ 50.0, 40.0, 25.0, 25.0 ]
								}

							}
 ],
						"lines" : [ 							{
								"patchline" : 								{
									"destination" : [ "obj-80", 0 ],
									"source" : [ "obj-79", 0 ]
								}

							}
, 							{
								"patchline" : 								{
									"destination" : [ "obj-81", 1 ],
									"source" : [ "obj-79", 1 ]
								}

							}
, 							{
								"patchline" : 								{
									"destination" : [ "obj-81", 0 ],
									"source" : [ "obj-80", 0 ]
								}

							}
, 							{
								"patchline" : 								{
									"destination" : [ "obj-82", 0 ],
									"source" : [ "obj-81", 0 ]
								}

							}
, 							{
								"patchline" : 								{
									"destination" : [ "obj-84", 0 ],
									"source" : [ "obj-83", 0 ]
								}

							}
, 							{
								"patchline" : 								{
									"destination" : [ "obj-82", 0 ],
									"source" : [ "obj-84", 0 ]
								}

							}
, 							{
								"patchline" : 								{
									"destination" : [ "obj-79", 0 ],
									"source" : [ "obj-85", 0 ]
								}

							}
 ]
					}
,
					"patching_rect" : [ 11.0, 910.0, 47.0, 22.0 ],
					"saved_object_attributes" : 					{
						"description" : "",
						"digest" : "",
						"globalpatchername" : "",
						"tags" : ""
					}
,
					"text" : "p send"
				}

			}
, 			{
				"box" : 				{
					"fontname" : "Arial",
					"fontsize" : 12.0,
					"id" : "obj-78",
					"maxclass" : "message",
					"numinlets" : 2,
					"numoutlets" : 1,
					"outlettype" : [ "" ],
					"patching_rect" : [ 23.0, 360.0, 50.0, 22.0 ],
					"text" : "volL 0.2"
				}

			}
, 			{
				"box" : 				{
					"fontname" : "Arial",
					"fontsize" : 12.0,
					"id" : "obj-75",
					"linecount" : 2,
					"maxclass" : "comment",
					"numinlets" : 1,
					"numoutlets" : 0,
					"patching_rect" : [ 24.0, 299.0, 508.0, 33.0 ],
					"text" : "if you opened this patch with ho_st open and audio turned ON and volume of ho_st at 1. ,\nyou should hear the two sine tones left and right."
				}

			}
, 			{
				"box" : 				{
					"fontname" : "Arial",
					"fontsize" : 14.0,
					"id" : "obj-74",
					"linecount" : 2,
					"maxclass" : "comment",
					"numinlets" : 1,
					"numoutlets" : 0,
					"patching_rect" : [ 24.0, 229.0, 533.0, 38.0 ],
					"text" : "in most cases you will only need the volume-slider on top. and leave all other things untouched in its default state."
				}

			}
, 			{
				"box" : 				{
					"fontname" : "Arial",
					"fontsize" : 14.0,
					"id" : "obj-56",
					"linecount" : 2,
					"maxclass" : "comment",
					"numinlets" : 1,
					"numoutlets" : 0,
					"patching_rect" : [ 179.0, 4.0, 232.0, 38.0 ],
					"text" : "the blue output section for ppooll\ncalled ll.blues"
				}

			}
, 			{
				"box" : 				{
					"id" : "obj-16",
					"ignoreclick" : 1,
					"maxclass" : "lcd",
					"numinlets" : 1,
					"numoutlets" : 4,
					"outlettype" : [ "list", "list", "int", "" ],
					"patching_rect" : [ 0.0, 0.0, 157.0, 16.0 ],
					"varname" : "title_LCD"
				}

			}
, 			{
				"box" : 				{
					"color" : [ 0.0, 0.0, 0.0, 1.0 ],
					"fontname" : "Arial",
					"fontsize" : 12.0,
					"hidden" : 1,
					"id" : "obj-1",
					"maxclass" : "newobj",
					"numinlets" : 2,
					"numoutlets" : 0,
					"patching_rect" : [ 1264.0, 146.0, 187.0, 22.0 ],
					"text" : "actmaker blue.output.section.info",
					"varname" : "act"
				}

			}
, 			{
				"box" : 				{
					"color" : [ 0.0, 0.0, 0.0, 1.0 ],
					"fontname" : "Arial",
					"fontsize" : 12.0,
					"hidden" : 1,
					"id" : "obj-2",
					"maxclass" : "newobj",
					"numinlets" : 1,
					"numoutlets" : 1,
					"outlettype" : [ "" ],
					"patching_rect" : [ 1264.0, 104.0, 113.0, 22.0 ],
					"text" : "loadmess loadbang",
					"varname" : "loadmess"
				}

			}
, 			{
				"box" : 				{
					"active" : 					{
						"master" : 0,
						"title_menu" : 0,
						"pres_menu" : 0,
						"tetris_menu" : 0,
						"act::active_store" : 1,
						"ll.blues" : 0,
						"ll.blues::levels" : 0,
						"ll.blues::outputs" : 0,
						"ll.blues::state" : 0
					}
,
					"color" : [ 0.0, 0.0, 0.0, 1.0 ],
					"fontname" : "Arial",
					"fontsize" : 12.0,
					"hidden" : 1,
					"id" : "obj-3",
					"maxclass" : "newobj",
					"numinlets" : 1,
					"numoutlets" : 1,
					"outlettype" : [ "" ],
					"patching_rect" : [ 1277.0, 125.0, 100.0, 22.0 ],
					"priority" : 					{
						"title_menu" : 2010,
						"pres_menu" : 2011,
						"tetris_menu" : 2012
					}
,
					"saved_object_attributes" : 					{
						"client_rect" : [ 499, 162, 1139, 402 ],
						"parameter_enable" : 0,
						"parameter_mappable" : 0,
						"storage_rect" : [ 0, 0, 640, 240 ]
					}
,
					"text" : "pattrstorage pat",
					"varname" : "pat"
				}

			}
, 			{
				"box" : 				{
					"color" : [ 0.0, 0.0, 0.0, 1.0 ],
					"fontname" : "Arial",
					"fontsize" : 12.0,
					"hidden" : 1,
					"id" : "obj-4",
					"maxclass" : "newobj",
					"numinlets" : 1,
					"numoutlets" : 2,
					"outlettype" : [ "", "" ],
					"patching_rect" : [ 1264.0, 167.0, 107.0, 22.0 ],
					"save" : [ "#N", "thispatcher", ";", "#Q", "end", ";" ],
					"text" : "thispatcher",
					"varname" : "thispatcher"
				}

			}
, 			{
				"box" : 				{
					"color" : [ 0.0, 0.0, 0.0, 1.0 ],
					"fontname" : "Arial",
					"fontsize" : 12.0,
					"hidden" : 1,
					"id" : "obj-5",
					"maxclass" : "newobj",
					"numinlets" : 1,
					"numoutlets" : 1,
					"outlettype" : [ "" ],
					"patching_rect" : [ 1264.0, 188.0, 107.0, 22.0 ],
					"text" : "pattrmarker no",
					"varname" : "pattrmarker"
				}

			}
, 			{
				"box" : 				{
					"color" : [ 0.0, 0.0, 0.0, 1.0 ],
					"fontname" : "Arial",
					"fontsize" : 12.0,
					"hidden" : 1,
					"id" : "obj-6",
					"maxclass" : "newobj",
					"numinlets" : 1,
					"numoutlets" : 4,
					"outlettype" : [ "", "", "", "" ],
					"patching_rect" : [ 1264.0, 209.0, 107.0, 22.0 ],
					"restore" : 					{
						"master" : [ 0 ],
						"pres_menu" : [ "_" ],
						"tetris_menu" : [ "" ],
						"title_menu" : [ "clientwindow" ]
					}
,
					"text" : "autopattr autopattr",
					"varname" : "autopattr"
				}

			}
, 			{
				"box" : 				{
					"allowdrag" : 0,
					"bgcolor" : [ 1.0, 1.0, 1.0, 0.0 ],
					"bgfillcolor_angle" : 270.0,
					"bgfillcolor_color" : [ 1.0, 1.0, 1.0, 0.0 ],
					"bgfillcolor_color1" : [ 0.376471, 0.384314, 0.4, 1.0 ],
					"bgfillcolor_color2" : [ 0.290196, 0.309804, 0.301961, 1.0 ],
					"bgfillcolor_proportion" : 0.39,
					"bgfillcolor_type" : "color",
					"id" : "obj-8",
					"items" : [ "info", ",", "clientwindow", ",", "storagewindow", ",", "-", ",", "titlebar", ",", "close", ",", "back", ",", "grow", ",", "-", ",", "subpatch", ",", "actmaker" ],
					"maxclass" : "umenu",
					"numinlets" : 1,
					"numoutlets" : 3,
					"outlettype" : [ "int", "", "" ],
					"parameter_enable" : 0,
					"patching_rect" : [ 78.5, 0.0, 78.5, 22.0 ],
					"pattrmode" : 1,
					"textcolor" : [ 0.149, 0.149, 0.149, 1.0 ],
					"varname" : "title_menu"
				}

			}
, 			{
				"box" : 				{
					"allowdrag" : 0,
					"bgcolor" : [ 1.0, 1.0, 1.0, 0.0 ],
					"bgfillcolor_angle" : 270.0,
					"bgfillcolor_color" : [ 1.0, 1.0, 1.0, 0.0 ],
					"bgfillcolor_color1" : [ 0.376471, 0.384314, 0.4, 1.0 ],
					"bgfillcolor_color2" : [ 0.290196, 0.309804, 0.301961, 1.0 ],
					"bgfillcolor_proportion" : 0.39,
					"bgfillcolor_type" : "color",
					"id" : "obj-10",
					"ignoreclick" : 1,
					"items" : [ "-", ",", "write", ",", "clear!", ",", "TEXT", ",", "_" ],
					"maxclass" : "umenu",
					"numinlets" : 1,
					"numoutlets" : 3,
					"outlettype" : [ "int", "", "" ],
					"parameter_enable" : 0,
					"patching_rect" : [ 78.5, 0.0, 78.5, 22.0 ],
					"pattrmode" : 1,
					"textcolor" : [ 0.149, 0.149, 0.149, 1.0 ],
					"varname" : "pres_menu"
				}

			}
, 			{
				"box" : 				{
					"allowdrag" : 0,
					"bgcolor" : [ 1.0, 1.0, 1.0, 0.0 ],
					"bgfillcolor_angle" : 270.0,
					"bgfillcolor_color" : [ 1.0, 1.0, 1.0, 0.0 ],
					"bgfillcolor_color1" : [ 0.376471, 0.384314, 0.4, 1.0 ],
					"bgfillcolor_color2" : [ 0.290196, 0.309804, 0.301961, 1.0 ],
					"bgfillcolor_proportion" : 0.39,
					"bgfillcolor_type" : "color",
					"id" : "obj-12",
					"ignoreclick" : 1,
					"items" : "-",
					"maxclass" : "umenu",
					"numinlets" : 1,
					"numoutlets" : 3,
					"outlettype" : [ "int", "", "" ],
					"parameter_enable" : 0,
					"patching_rect" : [ 78.5, 0.0, 78.5, 22.0 ],
					"pattrmode" : 1,
					"textcolor" : [ 0.149, 0.149, 0.149, 1.0 ],
					"varname" : "tetris_menu"
				}

			}
, 			{
				"box" : 				{
					"filename" : "ll.movewindow.js",
					"id" : "obj-14",
					"maxclass" : "jsui",
					"numinlets" : 1,
					"numoutlets" : 1,
					"outlettype" : [ "" ],
					"parameter_enable" : 0,
					"patching_rect" : [ 0.0, 0.0, 78.5, 14.0 ],
					"varname" : "master"
				}

			}
, 			{
				"box" : 				{
					"id" : "obj-35",
					"maxclass" : "live.line",
					"numinlets" : 1,
					"numoutlets" : 0,
					"patching_rect" : [ 303.5, 156.0, 6.5, 33.0 ]
				}

			}
, 			{
				"box" : 				{
					"id" : "obj-39",
					"maxclass" : "live.line",
					"numinlets" : 1,
					"numoutlets" : 0,
					"patching_rect" : [ 265.0, 165.0, 5.0, 43.0 ]
				}

			}
, 			{
				"box" : 				{
					"id" : "obj-27",
					"maxclass" : "live.line",
					"numinlets" : 1,
					"numoutlets" : 0,
					"patching_rect" : [ 332.0, 156.0, 5.0, 21.0 ]
				}

			}
, 			{
				"box" : 				{
					"id" : "obj-29",
					"maxclass" : "live.line",
					"numinlets" : 1,
					"numoutlets" : 0,
					"patching_rect" : [ 332.0, 147.0, 27.0, 7.0 ]
				}

			}
, 			{
				"box" : 				{
					"id" : "obj-17",
					"maxclass" : "live.line",
					"numinlets" : 1,
					"numoutlets" : 0,
					"patching_rect" : [ 332.0, 132.5, 27.0, 7.0 ]
				}

			}
, 			{
				"box" : 				{
					"id" : "obj-41",
					"maxclass" : "live.line",
					"numinlets" : 1,
					"numoutlets" : 0,
					"patching_rect" : [ 211.5, 148.0, 6.5, 33.0 ]
				}

			}
, 			{
				"box" : 				{
					"id" : "obj-42",
					"maxclass" : "live.line",
					"numinlets" : 1,
					"numoutlets" : 0,
					"patching_rect" : [ 163.25, 150.0, 27.0, 7.0 ]
				}

			}
, 			{
				"box" : 				{
					"id" : "obj-58",
					"maxclass" : "live.line",
					"numinlets" : 1,
					"numoutlets" : 0,
					"patching_rect" : [ 163.25, 120.0, 27.0, 7.0 ]
				}

			}
, 			{
				"box" : 				{
					"id" : "obj-55",
					"maxclass" : "live.line",
					"numinlets" : 1,
					"numoutlets" : 0,
					"patching_rect" : [ 163.25, 135.0, 27.0, 7.0 ]
				}

			}
, 			{
				"box" : 				{
					"hidden" : 1,
					"id" : "obj-19",
					"maxclass" : "newobj",
					"numinlets" : 1,
					"numoutlets" : 3,
					"outlettype" : [ "", "", "" ],
					"patching_rect" : [ 1277.0, 101.0, 100.0, 22.0 ],
					"restore" : [ "in(1)" ],
					"saved_object_attributes" : 					{
						"parameter_enable" : 0,
						"parameter_mappable" : 0
					}
,
					"text" : "pattr inputs~",
					"varname" : "inputs~"
				}

			}
 ],
		"lines" : [ 			{
				"patchline" : 				{
					"destination" : [ "obj-86", 0 ],
					"hidden" : 1,
					"source" : [ "obj-13", 0 ]
				}

			}
, 			{
				"patchline" : 				{
					"destination" : [ "obj-1", 0 ],
					"hidden" : 1,
					"source" : [ "obj-2", 0 ]
				}

			}
, 			{
				"patchline" : 				{
					"destination" : [ "obj-86", 0 ],
					"hidden" : 1,
					"source" : [ "obj-20", 0 ]
				}

			}
, 			{
				"patchline" : 				{
					"destination" : [ "obj-7", 0 ],
					"source" : [ "obj-22", 0 ]
				}

			}
, 			{
				"patchline" : 				{
					"destination" : [ "obj-1", 1 ],
					"hidden" : 1,
					"source" : [ "obj-3", 0 ]
				}

			}
, 			{
				"patchline" : 				{
					"destination" : [ "obj-86", 0 ],
					"hidden" : 1,
					"source" : [ "obj-30", 0 ]
				}

			}
, 			{
				"patchline" : 				{
					"destination" : [ "obj-86", 0 ],
					"hidden" : 1,
					"source" : [ "obj-31", 0 ]
				}

			}
, 			{
				"patchline" : 				{
					"destination" : [ "obj-86", 0 ],
					"hidden" : 1,
					"source" : [ "obj-33", 0 ]
				}

			}
, 			{
				"patchline" : 				{
					"destination" : [ "obj-86", 0 ],
					"hidden" : 1,
					"source" : [ "obj-43", 0 ]
				}

			}
, 			{
				"patchline" : 				{
					"destination" : [ "obj-86", 0 ],
					"hidden" : 1,
					"source" : [ "obj-45", 0 ]
				}

			}
, 			{
				"patchline" : 				{
					"destination" : [ "obj-86", 0 ],
					"hidden" : 1,
					"source" : [ "obj-47", 0 ]
				}

			}
, 			{
				"patchline" : 				{
					"destination" : [ "obj-86", 0 ],
					"hidden" : 1,
					"source" : [ "obj-62", 0 ]
				}

			}
, 			{
				"patchline" : 				{
					"destination" : [ "obj-62", 0 ],
					"hidden" : 1,
					"source" : [ "obj-63", 0 ]
				}

			}
, 			{
				"patchline" : 				{
					"destination" : [ "obj-68", 0 ],
					"hidden" : 1,
					"source" : [ "obj-67", 0 ]
				}

			}
, 			{
				"patchline" : 				{
					"destination" : [ "obj-86", 0 ],
					"hidden" : 1,
					"source" : [ "obj-68", 0 ]
				}

			}
, 			{
				"patchline" : 				{
					"destination" : [ "obj-86", 0 ],
					"hidden" : 1,
					"source" : [ "obj-70", 0 ]
				}

			}
, 			{
				"patchline" : 				{
					"destination" : [ "obj-86", 0 ],
					"hidden" : 1,
					"source" : [ "obj-71", 0 ]
				}

			}
, 			{
				"patchline" : 				{
					"destination" : [ "obj-86", 0 ],
					"hidden" : 1,
					"source" : [ "obj-76", 0 ]
				}

			}
, 			{
				"patchline" : 				{
					"destination" : [ "obj-86", 0 ],
					"hidden" : 1,
					"source" : [ "obj-78", 0 ]
				}

			}
, 			{
				"patchline" : 				{
					"destination" : [ "obj-86", 0 ],
					"hidden" : 1,
					"source" : [ "obj-87", 0 ]
				}

			}
 ],
		"dependency_cache" : [ 			{
				"name" : "actmaker.maxpat",
				"bootpath" : "~/Documents/Max 8/Packages/ppooll/patchers/abstractions/filip",
				"patcherrelativepath" : "../../patchers/abstractions/filip",
				"type" : "JSON",
				"implicit" : 1
			}
, 			{
				"name" : "ll.actmenu.maxpat",
				"bootpath" : "~/Documents/Max 8/Packages/ppooll/patchers/abstractions/filip",
				"patcherrelativepath" : "../../patchers/abstractions/filip",
				"type" : "JSON",
				"implicit" : 1
			}
, 			{
				"name" : "ll.actname.maxpat",
				"bootpath" : "~/Documents/Max 8/Packages/ppooll/patchers/abstractions/filip",
				"patcherrelativepath" : "../../patchers/abstractions/filip",
				"type" : "JSON",
				"implicit" : 1
			}
, 			{
				"name" : "ll.actnamehelper.maxpat",
				"bootpath" : "~/Documents/Max 8/Packages/ppooll/patchers/abstractions/filip",
				"patcherrelativepath" : "../../patchers/abstractions/filip",
				"type" : "JSON",
				"implicit" : 1
			}
, 			{
				"name" : "ll.an.js",
				"bootpath" : "~/Documents/Max 8/Packages/ppooll/javascript",
				"patcherrelativepath" : "../../javascript",
				"type" : "TEXT",
				"implicit" : 1
			}
, 			{
				"name" : "ll.blues.maxpat",
				"bootpath" : "~/Documents/Max 8/Packages/ppooll/patchers/abstractions/ll.blues",
				"patcherrelativepath" : "../../patchers/abstractions/ll.blues",
				"type" : "JSON",
				"implicit" : 1
			}
, 			{
				"name" : "ll.create_inputs~.maxpat",
				"bootpath" : "~/Documents/Max 8/Packages/ppooll/patchers/abstractions/filip",
				"patcherrelativepath" : "../../patchers/abstractions/filip",
				"type" : "JSON",
				"implicit" : 1
			}
, 			{
				"name" : "ll.createact8.js",
				"bootpath" : "~/Documents/Max 8/Packages/ppooll/javascript",
				"patcherrelativepath" : "../../javascript",
				"type" : "TEXT",
				"implicit" : 1
			}
, 			{
				"name" : "ll.in_mix.maxpat",
				"bootpath" : "~/Documents/Max 8/Packages/ppooll/patchers/abstractions/ll.blues",
				"patcherrelativepath" : "../../patchers/abstractions/ll.blues",
				"type" : "JSON",
				"implicit" : 1
			}
, 			{
				"name" : "ll.movewindow.js",
				"bootpath" : "~/Documents/Max 8/Packages/ppooll/javascript",
				"patcherrelativepath" : "../../javascript",
				"type" : "TEXT",
				"implicit" : 1
			}
, 			{
				"name" : "ll.og.maxpat",
				"bootpath" : "~/Documents/Max 8/Packages/ppooll/patchers/abstractions/filip",
				"patcherrelativepath" : "../../patchers/abstractions/filip",
				"type" : "JSON",
				"implicit" : 1
			}
, 			{
				"name" : "ll.p.maxpat",
				"bootpath" : "~/Documents/Max 8/Packages/ppooll/patchers/abstractions/filip",
				"patcherrelativepath" : "../../patchers/abstractions/filip",
				"type" : "JSON",
				"implicit" : 1
			}
, 			{
				"name" : "ll.par.maxpat",
				"bootpath" : "~/Documents/Max 8/Packages/ppooll/patchers/abstractions/filip",
				"patcherrelativepath" : "../../patchers/abstractions/filip",
				"type" : "JSON",
				"implicit" : 1
			}
, 			{
				"name" : "ll.pf.maxpat",
				"bootpath" : "~/Documents/Max 8/Packages/ppooll/patchers/abstractions/filip",
				"patcherrelativepath" : "../../patchers/abstractions/filip",
				"type" : "JSON",
				"implicit" : 1
			}
, 			{
				"name" : "ll.psto.maxpat",
				"bootpath" : "~/Documents/Max 8/Packages/ppooll/patchers/abstractions/filip",
				"patcherrelativepath" : "../../patchers/abstractions/filip",
				"type" : "JSON",
				"implicit" : 1
			}
, 			{
				"name" : "ll.psto1.maxpat",
				"bootpath" : "~/Documents/Max 8/Packages/ppooll/patchers/abstractions/filip",
				"patcherrelativepath" : "../../patchers/abstractions/filip",
				"type" : "JSON",
				"implicit" : 1
			}
, 			{
				"name" : "ll.r.maxpat",
				"bootpath" : "~/Documents/Max 8/Packages/ppooll/patchers/abstractions/filip",
				"patcherrelativepath" : "../../patchers/abstractions/filip",
				"type" : "JSON",
				"implicit" : 1
			}
, 			{
				"name" : "ll.r~.maxpat",
				"bootpath" : "~/Documents/Max 8/Packages/ppooll/patchers/abstractions/filip",
				"patcherrelativepath" : "../../patchers/abstractions/filip",
				"type" : "JSON",
				"implicit" : 1
			}
, 			{
				"name" : "ll.s.maxpat",
				"bootpath" : "~/Documents/Max 8/Packages/ppooll/patchers/abstractions/filip",
				"patcherrelativepath" : "../../patchers/abstractions/filip",
				"type" : "JSON",
				"implicit" : 1
			}
, 			{
				"name" : "ll.shut.maxpat",
				"bootpath" : "~/Documents/Max 8/Packages/ppooll/patchers/abstractions/filip",
				"patcherrelativepath" : "../../patchers/abstractions/filip",
				"type" : "JSON",
				"implicit" : 1
			}
, 			{
				"name" : "ll.strip#.maxpat",
				"bootpath" : "~/Documents/Max 8/Packages/ppooll/patchers/abstractions/filip",
				"patcherrelativepath" : "../../patchers/abstractions/filip",
				"type" : "JSON",
				"implicit" : 1
			}
, 			{
				"name" : "ll.sub_inputs.maxpat",
				"bootpath" : "~/Documents/Max 8/Packages/ppooll/patchers/abstractions/filip",
				"patcherrelativepath" : "../../patchers/abstractions/filip",
				"type" : "JSON",
				"implicit" : 1
			}
, 			{
				"name" : "ll.s~.maxpat",
				"bootpath" : "~/Documents/Max 8/Packages/ppooll/patchers/abstractions/filip",
				"patcherrelativepath" : "../../patchers/abstractions/filip",
				"type" : "JSON",
				"implicit" : 1
			}
, 			{
				"name" : "ll.textsize.js",
				"bootpath" : "~/Documents/Max 8/Packages/ppooll/javascript",
				"patcherrelativepath" : "../../javascript",
				"type" : "TEXT",
				"implicit" : 1
			}
, 			{
				"name" : "ll.wsendback.js",
				"bootpath" : "~/Documents/Max 8/Packages/ppooll/javascript",
				"patcherrelativepath" : "../../javascript",
				"type" : "TEXT",
				"implicit" : 1
			}
, 			{
				"name" : "ll_fastforward.maxpat",
				"bootpath" : "~/Documents/Max 8/Packages/ppooll/externals/filip",
				"patcherrelativepath" : "../../externals/filip",
				"type" : "JSON",
				"implicit" : 1
			}
, 			{
				"name" : "ll_number.mxo",
				"type" : "iLaX"
			}
, 			{
				"name" : "n.maxpat",
				"bootpath" : "~/Documents/Max 8/Packages/ppooll/patchers/abstractions/filip",
				"patcherrelativepath" : "../../patchers/abstractions/filip",
				"type" : "JSON",
				"implicit" : 1
			}
, 			{
				"name" : "nblue.js",
				"bootpath" : "~/Documents/Max 8/Packages/ppooll/javascript",
				"patcherrelativepath" : "../../javascript",
				"type" : "TEXT",
				"implicit" : 1
			}
, 			{
				"name" : "pattrexists.mxo",
				"type" : "iLaX"
			}
, 			{
				"name" : "tetrishelp.js",
				"bootpath" : "~/Documents/Max 8/Packages/ppooll/javascript",
				"patcherrelativepath" : "../../javascript",
				"type" : "TEXT",
				"implicit" : 1
			}
 ],
		"autosave" : 0
	}

}
