{
	"patcher" : 	{
		"fileversion" : 1,
		"appversion" : 		{
			"major" : 6,
			"minor" : 1,
			"revision" : 9,
			"architecture" : "x86"
		}
,
		"rect" : [ 734.0, 170.0, 871.0, 566.0 ],
		"bglocked" : 0,
		"openinpresentation" : 0,
		"default_fontsize" : 12.0,
		"default_fontface" : 0,
		"default_fontname" : "Arial",
		"gridonopen" : 0,
		"gridsize" : [ 15.0, 15.0 ],
		"gridsnaponopen" : 0,
		"statusbarvisible" : 2,
		"toolbarvisible" : 1,
		"boxanimatetime" : 200,
		"imprint" : 0,
		"enablehscroll" : 1,
		"enablevscroll" : 1,
		"devicewidth" : 0.0,
		"description" : "",
		"digest" : "",
		"tags" : "",
		"boxes" : [ 			{
				"box" : 				{
					"fontname" : "Arial",
					"fontsize" : 12.0,
					"frgb" : 0.0,
					"id" : "obj-1",
					"linecount" : 2,
					"maxclass" : "comment",
					"numinlets" : 1,
					"numoutlets" : 0,
					"patching_rect" : [ 92.0, 72.0, 715.0, 33.0 ],
					"presentation_rect" : [ 97.0, 76.0, 0.0, 0.0 ],
					"text" : "xgroove got a second mode, that uses the standard max groove object. \nthis provides better sound-quality if you use long samples (> ~5seconds)"
				}

			}
, 			{
				"box" : 				{
					"annotation" : "audio main switch",
					"bgcolor" : [ 0.843137, 0.336763, 0.126639, 1.0 ],
					"bgoncolor" : [ 0.843137, 0.336763, 0.126639, 1.0 ],
					"bgovercolor" : [ 0.843137, 0.336763, 0.126639, 1.0 ],
					"bgoveroncolor" : [ 0.843137, 0.336763, 0.126639, 1.0 ],
					"border" : 0,
					"bordercolor" : [ 0.0, 0.0, 0.0, 1.0 ],
					"borderoncolor" : [ 0.0, 0.0, 0.0, 1.0 ],
					"fontname" : "Arial",
					"fontsize" : 12.0,
					"id" : "obj-19",
					"maxclass" : "textbutton",
					"mode" : 1,
					"numinlets" : 1,
					"numoutlets" : 3,
					"outlettype" : [ "", "", "int" ],
					"outputmode" : 0,
					"parameter_enable" : 0,
					"patching_rect" : [ 31.0, 81.0, 58.0, 15.0 ],
					"presentation_rect" : [ 94.0, 15.0, 31.0, 19.499023 ],
					"rounded" : 1.0,
					"text" : "xgroove",
					"textcolor" : [ 0.0, 0.0, 0.0, 1.0 ],
					"texton" : "groove",
					"textoncolor" : [ 0.0, 0.0, 0.0, 1.0 ],
					"textovercolor" : [ 0.0, 0.0, 0.0, 1.0 ],
					"textoveroncolor" : [ 0.0, 0.0, 0.0, 1.0 ],
					"varname" : "play-mode"
				}

			}
, 			{
				"box" : 				{
					"fontname" : "Arial",
					"fontsize" : 9.0,
					"frgb" : 0.0,
					"id" : "obj-107",
					"maxclass" : "comment",
					"numinlets" : 1,
					"numoutlets" : 0,
					"patching_rect" : [ 256.0, 462.0, 188.0, 17.0 ],
					"text" : "2 .. linear interpolation (saves cpu load)"
				}

			}
, 			{
				"box" : 				{
					"fontname" : "Arial",
					"fontsize" : 9.0,
					"frgb" : 0.0,
					"id" : "obj-109",
					"maxclass" : "comment",
					"numinlets" : 1,
					"numoutlets" : 0,
					"patching_rect" : [ 256.0, 450.0, 159.0, 17.0 ],
					"text" : "1 .. 4-point interpolation (default)"
				}

			}
, 			{
				"box" : 				{
					"fontname" : "Arial",
					"fontsize" : 9.0,
					"frgb" : 0.0,
					"id" : "obj-112",
					"maxclass" : "comment",
					"numinlets" : 1,
					"numoutlets" : 0,
					"patching_rect" : [ 256.0, 438.0, 95.0, 17.0 ],
					"text" : "0 .. no interpolation"
				}

			}
, 			{
				"box" : 				{
					"fontname" : "Arial",
					"fontsize" : 9.0,
					"frgb" : 0.0,
					"id" : "obj-113",
					"maxclass" : "comment",
					"numinlets" : 1,
					"numoutlets" : 0,
					"patching_rect" : [ 256.0, 424.0, 95.0, 17.0 ],
					"text" : "interpolation type:"
				}

			}
, 			{
				"box" : 				{
					"fontname" : "Arial",
					"fontsize" : 12.0,
					"frgb" : 0.0,
					"id" : "obj-105",
					"maxclass" : "comment",
					"numinlets" : 1,
					"numoutlets" : 0,
					"patching_rect" : [ 228.0, 402.0, 299.0, 20.0 ],
					"text" : "autotrigger play in oneshot mode when changing start."
				}

			}
, 			{
				"box" : 				{
					"fontname" : "Arial",
					"fontsize" : 12.0,
					"frgb" : 0.0,
					"id" : "obj-103",
					"maxclass" : "comment",
					"numinlets" : 1,
					"numoutlets" : 0,
					"patching_rect" : [ 206.0, 378.0, 67.0, 20.0 ],
					"text" : "loop mode"
				}

			}
, 			{
				"box" : 				{
					"fontname" : "Arial",
					"fontsize" : 12.0,
					"frgb" : 0.0,
					"id" : "obj-98",
					"linecount" : 2,
					"maxclass" : "comment",
					"numinlets" : 1,
					"numoutlets" : 0,
					"patching_rect" : [ 225.0, 320.0, 593.0, 33.0 ],
					"text" : "playback speed. the slider has a default range of 0..4. with the number you can got to negative values as well (backward)."
				}

			}
, 			{
				"box" : 				{
					"bgcolor" : [ 0.984314, 0.435294, 0.435294, 1.0 ],
					"bordercolor" : [ 0.0, 0.0, 0.0, 1.0 ],
					"fontname" : "Courier",
					"fontsize" : 14.0,
					"format" : [ 1.2 ],
					"id" : "obj-97",
					"label" : "speed",
					"maxclass" : "ll_number",
					"mousefocus" : 1,
					"numinlets" : 1,
					"numoutlets" : 1,
					"outlettype" : [ "" ],
					"parameter_enable" : 0,
					"patching_rect" : [ 30.0, 320.0, 188.0, 19.0 ],
					"selectcolor" : [ 0.45098, 1.0, 0.698039, 0.470588 ],
					"slidercolornofocus" : [ 1.0, 1.0, 1.0, 1.0 ],
					"sliderlog" : 3.0,
					"slidermax" : 4.0,
					"textcolornofocus" : [ 1.0, 1.0, 1.0, 0.788235 ],
					"varname" : "speed",
					"vertical" : -1.0
				}

			}
, 			{
				"box" : 				{
					"fontname" : "Arial",
					"fontsize" : 12.0,
					"frgb" : 0.0,
					"id" : "obj-93",
					"maxclass" : "comment",
					"numinlets" : 1,
					"numoutlets" : 0,
					"patching_rect" : [ 180.0, 354.0, 203.0, 20.0 ],
					"text" : "buffers loaded with buffer_host"
				}

			}
, 			{
				"box" : 				{
					"annotation" : "audio main switch",
					"bgcolor" : [ 0.831373, 0.831373, 0.831373, 1.0 ],
					"bgoncolor" : [ 0.984314, 0.435294, 0.435294, 1.0 ],
					"bgovercolor" : [ 0.831373, 0.831373, 0.831373, 1.0 ],
					"bgoveroncolor" : [ 0.984314, 0.435294, 0.435294, 1.0 ],
					"border" : 0,
					"bordercolor" : [ 0.0, 0.0, 0.0, 1.0 ],
					"borderoncolor" : [ 0.0, 0.0, 0.0, 1.0 ],
					"fontname" : "Arial",
					"fontsize" : 12.0,
					"id" : "obj-89",
					"maxclass" : "textbutton",
					"mode" : 1,
					"numinlets" : 1,
					"numoutlets" : 3,
					"outlettype" : [ "", "", "int" ],
					"outputmode" : 0,
					"parameter_enable" : 0,
					"patching_rect" : [ 204.0, 405.0, 23.0, 15.0 ],
					"presentation_rect" : [ 210.0, 78.0, 31.0, 19.499023 ],
					"rounded" : 1.0,
					"text" : "aT",
					"textcolor" : [ 0.0, 0.0, 0.0, 1.0 ],
					"texton" : "aT",
					"textoncolor" : [ 0.0, 0.0, 0.0, 1.0 ],
					"textovercolor" : [ 0.0, 0.0, 0.0, 1.0 ],
					"textoveroncolor" : [ 0.0, 0.0, 0.0, 1.0 ],
					"varname" : "autotrigger"
				}

			}
, 			{
				"box" : 				{
					"arrow" : 0,
					"arrowframe" : 0,
					"arrowlink" : 0,
					"bgcolor" : [ 0.984314, 0.435294, 0.435294, 1.0 ],
					"fontname" : "Arial",
					"fontsize" : 11.0,
					"framecolor" : [ 0.952941, 0.564706, 0.282353, 1.0 ],
					"id" : "obj-90",
					"items" : [ "one-shot", ",", "forward", ",", "bidirectional" ],
					"labelclick" : 1,
					"maxclass" : "umenu",
					"numinlets" : 1,
					"numoutlets" : 3,
					"outlettype" : [ "int", "", "" ],
					"parameter_enable" : 0,
					"patching_rect" : [ 174.0, 380.0, 30.0, 19.0 ],
					"rounded" : 0,
					"varname" : "loop_mode"
				}

			}
, 			{
				"box" : 				{
					"arrow" : 0,
					"arrowframe" : 0,
					"arrowlink" : 0,
					"bgcolor" : [ 0.984314, 0.435294, 0.435294, 1.0 ],
					"fontname" : "Arial",
					"fontsize" : 11.0,
					"framecolor" : [ 0.952941, 0.564706, 0.282353, 1.0 ],
					"id" : "obj-91",
					"items" : [ "none", ",", "4-point", ",", "linear" ],
					"labelclick" : 1,
					"maxclass" : "umenu",
					"numinlets" : 1,
					"numoutlets" : 3,
					"outlettype" : [ "int", "", "" ],
					"parameter_enable" : 0,
					"patching_rect" : [ 227.0, 422.0, 26.0, 19.0 ],
					"rounded" : 0,
					"varname" : "interp"
				}

			}
, 			{
				"box" : 				{
					"arrow" : 0,
					"bgcolor" : [ 0.984314, 0.435294, 0.435294, 1.0 ],
					"bgcolor2" : [ 0.917647, 0.917647, 0.917647, 1.0 ],
					"discolor" : [ 0.439216, 0.439216, 0.439216, 1.0 ],
					"fontname" : "Arial",
					"fontsize" : 11.0,
					"framecolor" : [ 0.952941, 0.564706, 0.282353, 1.0 ],
					"hltcolor" : [ 1.0, 0.419608, 0.419608, 1.0 ],
					"id" : "obj-92",
					"items" : [ "Crying_Sniffing_Male.wav", ",", "bestellen.WAV", ",", "sin440.aif" ],
					"maxclass" : "umenu",
					"numinlets" : 1,
					"numoutlets" : 3,
					"outlettype" : [ "int", "", "" ],
					"parameter_enable" : 0,
					"patching_rect" : [ 31.0, 354.0, 144.0, 19.0 ],
					"pattrmode" : 1,
					"rounded" : 0,
					"textcolor" : [ 1.0, 1.0, 1.0, 1.0 ],
					"textcolor2" : [ 0.121569, 0.121569, 0.121569, 1.0 ],
					"togcolor" : [ 0.552941, 0.552941, 0.552941, 1.0 ],
					"varname" : "buffer"
				}

			}
, 			{
				"box" : 				{
					"fontname" : "Arial",
					"fontsize" : 12.0,
					"frgb" : 0.0,
					"id" : "obj-81",
					"maxclass" : "comment",
					"numinlets" : 1,
					"numoutlets" : 0,
					"patching_rect" : [ 252.0, 288.0, 203.0, 20.0 ],
					"text" : "crossfade shape"
				}

			}
, 			{
				"box" : 				{
					"fontname" : "Arial",
					"fontsize" : 12.0,
					"frgb" : 0.0,
					"id" : "obj-77",
					"maxclass" : "comment",
					"numinlets" : 1,
					"numoutlets" : 0,
					"patching_rect" : [ 220.0, 264.0, 203.0, 20.0 ],
					"text" : "crossfading mode"
				}

			}
, 			{
				"box" : 				{
					"fontname" : "Arial",
					"fontsize" : 12.0,
					"frgb" : 0.0,
					"id" : "obj-66",
					"maxclass" : "comment",
					"numinlets" : 1,
					"numoutlets" : 0,
					"patching_rect" : [ 196.0, 242.0, 203.0, 20.0 ],
					"text" : "length of xfade zone (0 means OFF)"
				}

			}
, 			{
				"box" : 				{
					"fontname" : "Arial",
					"fontsize" : 12.0,
					"hidden" : 1,
					"id" : "obj-65",
					"maxclass" : "message",
					"numinlets" : 2,
					"numoutlets" : 1,
					"outlettype" : [ "" ],
					"patching_rect" : [ 397.0, 178.0, 37.0, 18.0 ],
					"text" : "set 1"
				}

			}
, 			{
				"box" : 				{
					"fontname" : "Arial",
					"fontsize" : 12.0,
					"hidden" : 1,
					"id" : "obj-62",
					"maxclass" : "newobj",
					"numinlets" : 1,
					"numoutlets" : 1,
					"outlettype" : [ "bang" ],
					"patching_rect" : [ 396.0, 153.0, 60.0, 20.0 ],
					"text" : "loadbang"
				}

			}
, 			{
				"box" : 				{
					"autopopulate" : 1,
					"bgcolor" : [ 0.866667, 0.866667, 0.866667, 1.0 ],
					"fontname" : "Arial",
					"fontsize" : 12.0,
					"framecolor" : [ 0.501961, 0.501961, 0.501961, 0.0 ],
					"id" : "obj-48",
					"items" : [ "blue.output.section.info.maxhelp", ",", "ll_number.info.maxhelp", ",", "presetsInfo.maxhelp", ",", "titlemenu.info.maxhelp" ],
					"labelclick" : 1,
					"maxclass" : "umenu",
					"numinlets" : 1,
					"numoutlets" : 3,
					"outlettype" : [ "int", "", "" ],
					"parameter_enable" : 0,
					"patching_rect" : [ 153.0, 174.0, 143.0, 20.0 ],
					"prefix" : "whee:/Applications/Max 6.1/Cycling '74/ppooll/ppooll-help/user_infos/",
					"rounded" : 0,
					"textcolor" : [ 0.054902, 0.0, 0.972549, 1.0 ]
				}

			}
, 			{
				"box" : 				{
					"fontname" : "Arial",
					"fontsize" : 12.0,
					"hidden" : 1,
					"id" : "obj-61",
					"maxclass" : "newobj",
					"numinlets" : 1,
					"numoutlets" : 1,
					"outlettype" : [ "" ],
					"patcher" : 					{
						"fileversion" : 1,
						"appversion" : 						{
							"major" : 6,
							"minor" : 1,
							"revision" : 9,
							"architecture" : "x86"
						}
,
						"rect" : [ 548.0, 156.0, 640.0, 480.0 ],
						"bglocked" : 0,
						"openinpresentation" : 0,
						"default_fontsize" : 12.0,
						"default_fontface" : 0,
						"default_fontname" : "Arial",
						"gridonopen" : 0,
						"gridsize" : [ 15.0, 15.0 ],
						"gridsnaponopen" : 0,
						"statusbarvisible" : 2,
						"toolbarvisible" : 1,
						"boxanimatetime" : 200,
						"imprint" : 0,
						"enablehscroll" : 1,
						"enablevscroll" : 1,
						"devicewidth" : 0.0,
						"description" : "",
						"digest" : "",
						"tags" : "",
						"boxes" : [ 							{
								"box" : 								{
									"fontname" : "Arial",
									"fontsize" : 12.0,
									"id" : "obj-16",
									"maxclass" : "newobj",
									"numinlets" : 1,
									"numoutlets" : 1,
									"outlettype" : [ "" ],
									"patching_rect" : [ 207.0, 198.0, 59.0, 20.0 ],
									"text" : "tosymbol"
								}

							}
, 							{
								"box" : 								{
									"id" : "obj-13",
									"maxclass" : "button",
									"numinlets" : 1,
									"numoutlets" : 1,
									"outlettype" : [ "bang" ],
									"patching_rect" : [ 185.0, 69.0, 20.0, 20.0 ]
								}

							}
, 							{
								"box" : 								{
									"fontname" : "Arial",
									"fontsize" : 12.0,
									"id" : "obj-8",
									"maxclass" : "newobj",
									"numinlets" : 0,
									"numoutlets" : 1,
									"outlettype" : [ "" ],
									"patching_rect" : [ 210.0, 107.0, 85.0, 20.0 ],
									"text" : "r lloadblueinfo"
								}

							}
, 							{
								"box" : 								{
									"fontname" : "Arial",
									"fontsize" : 12.0,
									"id" : "obj-7",
									"maxclass" : "newobj",
									"numinlets" : 2,
									"numoutlets" : 2,
									"outlettype" : [ "", "" ],
									"patching_rect" : [ 214.0, 142.0, 40.0, 20.0 ],
									"text" : "zl reg"
								}

							}
, 							{
								"box" : 								{
									"fontname" : "Arial",
									"fontsize" : 12.0,
									"id" : "obj-6",
									"maxclass" : "newobj",
									"numinlets" : 1,
									"numoutlets" : 1,
									"outlettype" : [ "" ],
									"patching_rect" : [ 209.0, 169.0, 359.0, 20.0 ],
									"text" : "sprintf %s/ppooll-help/user_infos/blue.output.section.info.maxhelp"
								}

							}
, 							{
								"box" : 								{
									"fontname" : "Arial",
									"fontsize" : 12.0,
									"id" : "obj-30",
									"maxclass" : "newobj",
									"numinlets" : 1,
									"numoutlets" : 1,
									"outlettype" : [ "" ],
									"patching_rect" : [ 66.0, 72.0, 81.0, 20.0 ],
									"text" : "prepend load"
								}

							}
, 							{
								"box" : 								{
									"fontname" : "Arial",
									"fontsize" : 12.0,
									"id" : "obj-29",
									"maxclass" : "newobj",
									"numinlets" : 1,
									"numoutlets" : 1,
									"outlettype" : [ "" ],
									"patching_rect" : [ 50.0, 294.0, 87.0, 20.0 ],
									"text" : "prepend prefix"
								}

							}
, 							{
								"box" : 								{
									"fontname" : "Arial",
									"fontsize" : 12.0,
									"id" : "obj-28",
									"maxclass" : "newobj",
									"numinlets" : 1,
									"numoutlets" : 1,
									"outlettype" : [ "" ],
									"patching_rect" : [ 50.0, 269.0, 59.0, 20.0 ],
									"text" : "tosymbol"
								}

							}
, 							{
								"box" : 								{
									"fontname" : "Arial",
									"fontsize" : 12.0,
									"id" : "obj-24",
									"maxclass" : "newobj",
									"numinlets" : 1,
									"numoutlets" : 1,
									"outlettype" : [ "" ],
									"patching_rect" : [ 49.0, 243.0, 187.0, 20.0 ],
									"text" : "sprintf %s/ppooll-help/user_infos/"
								}

							}
, 							{
								"box" : 								{
									"fontname" : "Arial",
									"fontsize" : 12.0,
									"id" : "obj-23",
									"maxclass" : "newobj",
									"numinlets" : 1,
									"numoutlets" : 1,
									"outlettype" : [ "" ],
									"patching_rect" : [ 50.0, 216.0, 91.0, 20.0 ],
									"text" : "ll.ppoollpaths 1"
								}

							}
, 							{
								"box" : 								{
									"fontname" : "Arial",
									"fontsize" : 12.0,
									"id" : "obj-14",
									"maxclass" : "newobj",
									"numinlets" : 1,
									"numoutlets" : 1,
									"outlettype" : [ "" ],
									"patching_rect" : [ 66.0, 99.0, 53.0, 20.0 ],
									"text" : "pcontrol"
								}

							}
, 							{
								"box" : 								{
									"comment" : "",
									"id" : "obj-31",
									"maxclass" : "inlet",
									"numinlets" : 0,
									"numoutlets" : 1,
									"outlettype" : [ "" ],
									"patching_rect" : [ 66.0, 40.0, 25.0, 25.0 ]
								}

							}
, 							{
								"box" : 								{
									"comment" : "",
									"id" : "obj-32",
									"maxclass" : "outlet",
									"numinlets" : 1,
									"numoutlets" : 0,
									"patching_rect" : [ 50.0, 330.0, 25.0, 25.0 ]
								}

							}
 ],
						"lines" : [ 							{
								"patchline" : 								{
									"destination" : [ "obj-7", 0 ],
									"disabled" : 0,
									"hidden" : 0,
									"source" : [ "obj-13", 0 ]
								}

							}
, 							{
								"patchline" : 								{
									"destination" : [ "obj-30", 0 ],
									"disabled" : 0,
									"hidden" : 0,
									"source" : [ "obj-16", 0 ]
								}

							}
, 							{
								"patchline" : 								{
									"destination" : [ "obj-24", 0 ],
									"disabled" : 0,
									"hidden" : 0,
									"source" : [ "obj-23", 0 ]
								}

							}
, 							{
								"patchline" : 								{
									"destination" : [ "obj-7", 1 ],
									"disabled" : 0,
									"hidden" : 0,
									"source" : [ "obj-23", 0 ]
								}

							}
, 							{
								"patchline" : 								{
									"destination" : [ "obj-28", 0 ],
									"disabled" : 0,
									"hidden" : 0,
									"source" : [ "obj-24", 0 ]
								}

							}
, 							{
								"patchline" : 								{
									"destination" : [ "obj-29", 0 ],
									"disabled" : 0,
									"hidden" : 0,
									"source" : [ "obj-28", 0 ]
								}

							}
, 							{
								"patchline" : 								{
									"destination" : [ "obj-32", 0 ],
									"disabled" : 0,
									"hidden" : 0,
									"source" : [ "obj-29", 0 ]
								}

							}
, 							{
								"patchline" : 								{
									"destination" : [ "obj-14", 0 ],
									"disabled" : 0,
									"hidden" : 0,
									"source" : [ "obj-30", 0 ]
								}

							}
, 							{
								"patchline" : 								{
									"destination" : [ "obj-30", 0 ],
									"disabled" : 0,
									"hidden" : 0,
									"source" : [ "obj-31", 0 ]
								}

							}
, 							{
								"patchline" : 								{
									"destination" : [ "obj-16", 0 ],
									"disabled" : 0,
									"hidden" : 0,
									"source" : [ "obj-6", 0 ]
								}

							}
, 							{
								"patchline" : 								{
									"destination" : [ "obj-6", 0 ],
									"disabled" : 0,
									"hidden" : 0,
									"source" : [ "obj-7", 0 ]
								}

							}
, 							{
								"patchline" : 								{
									"destination" : [ "obj-7", 0 ],
									"disabled" : 0,
									"hidden" : 0,
									"source" : [ "obj-8", 0 ]
								}

							}
 ]
					}
,
					"patching_rect" : [ 354.0, 190.0, 43.0, 20.0 ],
					"saved_object_attributes" : 					{
						"default_fontface" : 0,
						"default_fontname" : "Arial",
						"default_fontsize" : 12.0,
						"description" : "",
						"digest" : "",
						"fontface" : 0,
						"fontname" : "Arial",
						"fontsize" : 12.0,
						"globalpatchername" : "",
						"tags" : ""
					}
,
					"text" : "p load"
				}

			}
, 			{
				"box" : 				{
					"fontname" : "Arial",
					"fontsize" : 12.0,
					"frgb" : 0.0,
					"id" : "obj-44",
					"maxclass" : "comment",
					"numinlets" : 1,
					"numoutlets" : 0,
					"patching_rect" : [ 34.0, 174.0, 111.0, 20.0 ],
					"text" : "start, len(gth), end "
				}

			}
, 			{
				"box" : 				{
					"bgcolor" : [ 0.105882, 0.843137, 0.694118, 1.0 ],
					"bordercolor" : [ 0.0, 0.0, 0.0, 1.0 ],
					"fontname" : "Courier",
					"fontsize" : 13.0,
					"format" : [ 1.6 ],
					"id" : "obj-41",
					"label" : "xzone",
					"maxclass" : "ll_number",
					"min" : 0.0,
					"mousefocus" : 1,
					"numinlets" : 1,
					"numoutlets" : 1,
					"outlettype" : [ "" ],
					"parameter_enable" : 0,
					"patching_rect" : [ 31.0, 244.0, 160.0, 16.0 ],
					"selectcolor" : [ 0.45098, 1.0, 0.698039, 0.470588 ],
					"slidercolornofocus" : [ 1.0, 1.0, 1.0, 1.0 ],
					"sliderlog" : 5.0,
					"slidermax" : 1.0,
					"textcolornofocus" : [ 1.0, 1.0, 1.0, 0.788235 ],
					"varname" : "xzone"
				}

			}
, 			{
				"box" : 				{
					"arrow" : 0,
					"arrowframe" : 0,
					"arrowlink" : 0,
					"bgcolor" : [ 0.105882, 0.843137, 0.694118, 1.0 ],
					"fontname" : "Arial",
					"fontsize" : 11.0,
					"framecolor" : [ 0.952941, 0.564706, 0.282353, 1.0 ],
					"id" : "obj-42",
					"items" : [ "linear", ",", "sin/4", ",", "sin/2" ],
					"labelclick" : 1,
					"maxclass" : "umenu",
					"numinlets" : 1,
					"numoutlets" : 3,
					"outlettype" : [ "int", "", "" ],
					"parameter_enable" : 0,
					"patching_rect" : [ 215.0, 289.0, 35.0, 19.0 ],
					"rounded" : 0,
					"varname" : "xshape"
				}

			}
, 			{
				"box" : 				{
					"arrow" : 0,
					"arrowframe" : 0,
					"arrowlink" : 0,
					"bgcolor" : [ 0.105882, 0.843137, 0.694118, 1.0 ],
					"fontname" : "Arial",
					"fontsize" : 11.0,
					"framecolor" : [ 0.952941, 0.564706, 0.282353, 1.0 ],
					"id" : "obj-43",
					"items" : [ "kL", "keep", "loop", ",", "kLl", "keep", "loop", "length", ",", "kFl", "keep", "fade", "length", ",", "inL", "inside", "loop" ],
					"labelclick" : 1,
					"maxclass" : "umenu",
					"numinlets" : 1,
					"numoutlets" : 3,
					"outlettype" : [ "int", "", "" ],
					"parameter_enable" : 0,
					"patching_rect" : [ 191.0, 267.0, 25.0, 19.0 ],
					"rounded" : 0,
					"varname" : "xfade"
				}

			}
, 			{
				"box" : 				{
					"fontname" : "Arial",
					"fontsize" : 12.0,
					"frgb" : 0.0,
					"id" : "obj-40",
					"maxclass" : "comment",
					"numinlets" : 1,
					"numoutlets" : 0,
					"patching_rect" : [ 186.0, 148.0, 91.0, 20.0 ],
					"text" : "loop all sample"
				}

			}
, 			{
				"box" : 				{
					"fontname" : "Arial",
					"fontsize" : 12.0,
					"frgb" : 0.0,
					"id" : "obj-39",
					"maxclass" : "comment",
					"numinlets" : 1,
					"numoutlets" : 0,
					"patching_rect" : [ 159.0, 121.0, 376.0, 20.0 ],
					"text" : "when moving the start-slider...."
				}

			}
, 			{
				"box" : 				{
					"annotation" : "audio main switch",
					"bgcolor" : [ 0.105882, 0.843137, 0.14902, 1.0 ],
					"bgoncolor" : [ 0.043137, 0.733333, 0.086275, 1.0 ],
					"bgovercolor" : [ 0.105882, 0.843137, 0.14902, 1.0 ],
					"bgoveroncolor" : [ 0.043137, 0.733333, 0.086275, 1.0 ],
					"border" : 0,
					"bordercolor" : [ 0.0, 0.0, 0.0, 1.0 ],
					"borderoncolor" : [ 0.0, 0.0, 0.0, 1.0 ],
					"fontname" : "Arial",
					"fontsize" : 12.0,
					"id" : "obj-15",
					"maxclass" : "textbutton",
					"mode" : 1,
					"numinlets" : 1,
					"numoutlets" : 3,
					"outlettype" : [ "", "", "int" ],
					"outputmode" : 0,
					"parameter_enable" : 0,
					"patching_rect" : [ 100.0, 124.0, 58.0, 15.0 ],
					"presentation_rect" : [ 90.0, 90.0, 31.0, 19.499023 ],
					"rounded" : 1.0,
					"text" : "keep len",
					"textcolor" : [ 0.0, 0.0, 0.0, 1.0 ],
					"texton" : "keep end",
					"textoncolor" : [ 0.0, 0.0, 0.0, 1.0 ],
					"textovercolor" : [ 0.0, 0.0, 0.0, 1.0 ],
					"textoveroncolor" : [ 0.0, 0.0, 0.0, 1.0 ],
					"varname" : "keep"
				}

			}
, 			{
				"box" : 				{
					"annotation" : "audio main switch",
					"bgcolor" : [ 0.105882, 0.843137, 0.14902, 1.0 ],
					"bgoncolor" : [ 0.043137, 0.733333, 0.086275, 1.0 ],
					"bgovercolor" : [ 0.105882, 0.843137, 0.14902, 1.0 ],
					"bgoveroncolor" : [ 0.043137, 0.733333, 0.086275, 1.0 ],
					"border" : 0,
					"bordercolor" : [ 0.0, 0.0, 0.0, 1.0 ],
					"borderoncolor" : [ 0.0, 0.0, 0.0, 1.0 ],
					"fontname" : "Arial",
					"fontsize" : 12.0,
					"id" : "obj-16",
					"maxclass" : "textbutton",
					"numinlets" : 1,
					"numoutlets" : 3,
					"outlettype" : [ "", "", "int" ],
					"outputmode" : 0,
					"parameter_enable" : 0,
					"patching_rect" : [ 160.0, 150.0, 24.0, 15.0 ],
					"presentation_rect" : [ 295.0, 32.0, 31.0, 19.499023 ],
					"rounded" : 1.0,
					"text" : "full",
					"textcolor" : [ 0.0, 0.0, 0.0, 1.0 ],
					"texton" : "keep end",
					"textoncolor" : [ 0.0, 0.0, 0.0, 1.0 ],
					"textovercolor" : [ 0.0, 0.0, 0.0, 1.0 ],
					"textoveroncolor" : [ 0.0, 0.0, 0.0, 1.0 ],
					"varname" : "full"
				}

			}
, 			{
				"box" : 				{
					"fontname" : "Arial",
					"fontsize" : 12.0,
					"frgb" : 0.0,
					"id" : "obj-5",
					"maxclass" : "comment",
					"numinlets" : 1,
					"numoutlets" : 0,
					"patching_rect" : [ 46.0, 222.0, 154.0, 20.0 ],
					"text" : "crossfading loop zone"
				}

			}
, 			{
				"box" : 				{
					"fontname" : "Arial",
					"fontsize" : 12.0,
					"frgb" : 0.0,
					"id" : "obj-14",
					"maxclass" : "comment",
					"numinlets" : 1,
					"numoutlets" : 0,
					"patching_rect" : [ 178.0, 19.0, 376.0, 20.0 ],
					"text" : "uses xsample collection (c) 2001-2005 Thomas Grill"
				}

			}
, 			{
				"box" : 				{
					"fontname" : "Arial",
					"fontsize" : 24.0,
					"frgb" : 0.0,
					"id" : "obj-67",
					"maxclass" : "comment",
					"numinlets" : 1,
					"numoutlets" : 0,
					"patching_rect" : [ 31.0, 16.0, 135.0, 33.0 ],
					"text" : "xgroove@"
				}

			}
, 			{
				"box" : 				{
					"fontname" : "Arial",
					"fontsize" : 9.0,
					"frgb" : 0.0,
					"id" : "obj-68",
					"maxclass" : "comment",
					"numinlets" : 1,
					"numoutlets" : 0,
					"patching_rect" : [ 31.0, 49.0, 252.0, 17.0 ],
					"text" : "Variable-rate looping sample playback from a buffer~"
				}

			}
 ],
		"lines" : [ 			{
				"patchline" : 				{
					"destination" : [ "obj-61", 0 ],
					"disabled" : 0,
					"hidden" : 1,
					"source" : [ "obj-48", 1 ]
				}

			}
, 			{
				"patchline" : 				{
					"destination" : [ "obj-48", 0 ],
					"disabled" : 0,
					"hidden" : 1,
					"source" : [ "obj-61", 0 ]
				}

			}
, 			{
				"patchline" : 				{
					"destination" : [ "obj-65", 0 ],
					"disabled" : 0,
					"hidden" : 1,
					"source" : [ "obj-62", 0 ]
				}

			}
, 			{
				"patchline" : 				{
					"destination" : [ "obj-48", 0 ],
					"disabled" : 0,
					"hidden" : 1,
					"source" : [ "obj-65", 0 ]
				}

			}
 ],
		"dependency_cache" : [ 			{
				"name" : "ll.ppoollpaths.maxpat",
				"bootpath" : "/Applications/Max 6.1/Cycling '74/ppooll/abstractions",
				"patcherrelativepath" : "../../abstractions",
				"type" : "JSON",
				"implicit" : 1
			}
, 			{
				"name" : "ll.mkdir.maxpat",
				"bootpath" : "/Applications/Max 6.1/Cycling '74/ppooll/abstractions",
				"patcherrelativepath" : "../../abstractions",
				"type" : "JSON",
				"implicit" : 1
			}
, 			{
				"name" : "ll_number.mxo",
				"type" : "iLaX"
			}
, 			{
				"name" : "shell.mxo",
				"type" : "iLaX"
			}
, 			{
				"name" : "strchr.mxo",
				"type" : "iLaX"
			}
, 			{
				"name" : "strrcut.mxo",
				"type" : "iLaX"
			}
 ]
	}

}
